%FSLAX45Y45*%
G04 Gerber Fmt 4.5, Leading zero omitted, Abs format (unit mm)*
G04 Created by KiCad (PCBNEW (6.0.0)) date 2022-03-28 06:27:59*
%MOMM*%
%LPD*%
G01*
G04 APERTURE LIST*
%TA.AperFunction,Profile*%
%ADD10C,0.050000*%
%TD*%
%ADD11C,0.200000*%
%ADD12C,0.102000*%
G04 APERTURE END LIST*
D10*
X23099284Y-5468300D02*
G75*
G03*
X22799284Y-5168300I-300000J0D01*
G01*
X18399284Y-5168300D02*
X22799284Y-5168300D01*
X18099284Y-12368300D02*
G75*
G03*
X18399284Y-12668300I300000J0D01*
G01*
X22799284Y-12668300D02*
X18399284Y-12668300D01*
X22799284Y-12668300D02*
G75*
G03*
X23099284Y-12368300I0J300000D01*
G01*
X18099284Y-5468300D02*
X18099284Y-12368300D01*
X18399284Y-5168300D02*
G75*
G03*
X18099284Y-5468300I0J-300000D01*
G01*
X23099284Y-5468300D02*
X23099284Y-12368300D01*
D11*
D12*
X18815284Y-5860800D02*
X18917284Y-5962800D01*
X18917284Y-5860800D02*
X18815284Y-5962800D01*
X18815284Y-9473800D02*
X18917284Y-9575800D01*
X18917284Y-9473800D02*
X18815284Y-9575800D01*
X22815284Y-5860800D02*
X22917284Y-5962800D01*
X22917284Y-5860800D02*
X22815284Y-5962800D01*
X22815284Y-9473800D02*
X22917284Y-9575800D01*
X22917284Y-9473800D02*
X22815284Y-9575800D01*
D11*
X18354403Y-12981276D02*
X18354403Y-12781276D01*
X18402022Y-12781276D01*
X18430594Y-12790800D01*
X18449641Y-12809848D01*
X18459165Y-12828895D01*
X18468689Y-12866990D01*
X18468689Y-12895562D01*
X18459165Y-12933657D01*
X18449641Y-12952705D01*
X18430594Y-12971752D01*
X18402022Y-12981276D01*
X18354403Y-12981276D01*
X18554403Y-12981276D02*
X18554403Y-12847943D01*
X18554403Y-12886038D02*
X18563927Y-12866990D01*
X18573451Y-12857467D01*
X18592498Y-12847943D01*
X18611546Y-12847943D01*
X18678213Y-12981276D02*
X18678213Y-12847943D01*
X18678213Y-12781276D02*
X18668689Y-12790800D01*
X18678213Y-12800324D01*
X18687736Y-12790800D01*
X18678213Y-12781276D01*
X18678213Y-12800324D01*
X18802022Y-12981276D02*
X18782975Y-12971752D01*
X18773451Y-12952705D01*
X18773451Y-12781276D01*
X18906784Y-12981276D02*
X18887736Y-12971752D01*
X18878213Y-12952705D01*
X18878213Y-12781276D01*
X19135356Y-12981276D02*
X19135356Y-12781276D01*
X19202022Y-12924133D01*
X19268689Y-12781276D01*
X19268689Y-12981276D01*
X19449641Y-12981276D02*
X19449641Y-12876514D01*
X19440117Y-12857467D01*
X19421070Y-12847943D01*
X19382975Y-12847943D01*
X19363927Y-12857467D01*
X19449641Y-12971752D02*
X19430594Y-12981276D01*
X19382975Y-12981276D01*
X19363927Y-12971752D01*
X19354403Y-12952705D01*
X19354403Y-12933657D01*
X19363927Y-12914609D01*
X19382975Y-12905086D01*
X19430594Y-12905086D01*
X19449641Y-12895562D01*
X19544879Y-12847943D02*
X19544879Y-13047943D01*
X19544879Y-12857467D02*
X19563927Y-12847943D01*
X19602022Y-12847943D01*
X19621070Y-12857467D01*
X19630594Y-12866990D01*
X19640117Y-12886038D01*
X19640117Y-12943181D01*
X19630594Y-12962228D01*
X19621070Y-12971752D01*
X19602022Y-12981276D01*
X19563927Y-12981276D01*
X19544879Y-12971752D01*
X19725832Y-12962228D02*
X19735356Y-12971752D01*
X19725832Y-12981276D01*
X19716308Y-12971752D01*
X19725832Y-12962228D01*
X19725832Y-12981276D01*
X19725832Y-12857467D02*
X19735356Y-12866990D01*
X19725832Y-12876514D01*
X19716308Y-12866990D01*
X19725832Y-12857467D01*
X19725832Y-12876514D01*
D12*
X17994784Y-13259800D02*
X18096784Y-13361800D01*
X18096784Y-13259800D02*
X17994784Y-13361800D01*
D11*
X18459165Y-13401276D02*
X18344879Y-13401276D01*
X18402022Y-13401276D02*
X18402022Y-13201276D01*
X18382975Y-13229848D01*
X18363927Y-13248895D01*
X18344879Y-13258419D01*
X18544879Y-13382228D02*
X18554403Y-13391752D01*
X18544879Y-13401276D01*
X18535356Y-13391752D01*
X18544879Y-13382228D01*
X18544879Y-13401276D01*
X18678213Y-13201276D02*
X18697260Y-13201276D01*
X18716308Y-13210800D01*
X18725832Y-13220324D01*
X18735356Y-13239371D01*
X18744879Y-13277467D01*
X18744879Y-13325086D01*
X18735356Y-13363181D01*
X18725832Y-13382228D01*
X18716308Y-13391752D01*
X18697260Y-13401276D01*
X18678213Y-13401276D01*
X18659165Y-13391752D01*
X18649641Y-13382228D01*
X18640117Y-13363181D01*
X18630594Y-13325086D01*
X18630594Y-13277467D01*
X18640117Y-13239371D01*
X18649641Y-13220324D01*
X18659165Y-13210800D01*
X18678213Y-13201276D01*
X18821070Y-13220324D02*
X18830594Y-13210800D01*
X18849641Y-13201276D01*
X18897260Y-13201276D01*
X18916308Y-13210800D01*
X18925832Y-13220324D01*
X18935356Y-13239371D01*
X18935356Y-13258419D01*
X18925832Y-13286990D01*
X18811546Y-13401276D01*
X18935356Y-13401276D01*
X19059165Y-13201276D02*
X19078213Y-13201276D01*
X19097260Y-13210800D01*
X19106784Y-13220324D01*
X19116308Y-13239371D01*
X19125832Y-13277467D01*
X19125832Y-13325086D01*
X19116308Y-13363181D01*
X19106784Y-13382228D01*
X19097260Y-13391752D01*
X19078213Y-13401276D01*
X19059165Y-13401276D01*
X19040117Y-13391752D01*
X19030594Y-13382228D01*
X19021070Y-13363181D01*
X19011546Y-13325086D01*
X19011546Y-13277467D01*
X19021070Y-13239371D01*
X19030594Y-13220324D01*
X19040117Y-13210800D01*
X19059165Y-13201276D01*
X19211546Y-13401276D02*
X19211546Y-13267943D01*
X19211546Y-13286990D02*
X19221070Y-13277467D01*
X19240117Y-13267943D01*
X19268689Y-13267943D01*
X19287736Y-13277467D01*
X19297260Y-13296514D01*
X19297260Y-13401276D01*
X19297260Y-13296514D02*
X19306784Y-13277467D01*
X19325832Y-13267943D01*
X19354403Y-13267943D01*
X19373451Y-13277467D01*
X19382975Y-13296514D01*
X19382975Y-13401276D01*
X19478213Y-13401276D02*
X19478213Y-13267943D01*
X19478213Y-13286990D02*
X19487736Y-13277467D01*
X19506784Y-13267943D01*
X19535356Y-13267943D01*
X19554403Y-13277467D01*
X19563927Y-13296514D01*
X19563927Y-13401276D01*
X19563927Y-13296514D02*
X19573451Y-13277467D01*
X19592498Y-13267943D01*
X19621070Y-13267943D01*
X19640117Y-13277467D01*
X19649641Y-13296514D01*
X19649641Y-13401276D01*
X20040117Y-13191752D02*
X19868689Y-13448895D01*
X20297260Y-13201276D02*
X20316308Y-13201276D01*
X20335356Y-13210800D01*
X20344879Y-13220324D01*
X20354403Y-13239371D01*
X20363927Y-13277467D01*
X20363927Y-13325086D01*
X20354403Y-13363181D01*
X20344879Y-13382228D01*
X20335356Y-13391752D01*
X20316308Y-13401276D01*
X20297260Y-13401276D01*
X20278213Y-13391752D01*
X20268689Y-13382228D01*
X20259165Y-13363181D01*
X20249641Y-13325086D01*
X20249641Y-13277467D01*
X20259165Y-13239371D01*
X20268689Y-13220324D01*
X20278213Y-13210800D01*
X20297260Y-13201276D01*
X20449641Y-13382228D02*
X20459165Y-13391752D01*
X20449641Y-13401276D01*
X20440117Y-13391752D01*
X20449641Y-13382228D01*
X20449641Y-13401276D01*
X20582975Y-13201276D02*
X20602022Y-13201276D01*
X20621070Y-13210800D01*
X20630594Y-13220324D01*
X20640117Y-13239371D01*
X20649641Y-13277467D01*
X20649641Y-13325086D01*
X20640117Y-13363181D01*
X20630594Y-13382228D01*
X20621070Y-13391752D01*
X20602022Y-13401276D01*
X20582975Y-13401276D01*
X20563927Y-13391752D01*
X20554403Y-13382228D01*
X20544879Y-13363181D01*
X20535356Y-13325086D01*
X20535356Y-13277467D01*
X20544879Y-13239371D01*
X20554403Y-13220324D01*
X20563927Y-13210800D01*
X20582975Y-13201276D01*
X20821070Y-13267943D02*
X20821070Y-13401276D01*
X20773451Y-13191752D02*
X20725832Y-13334609D01*
X20849641Y-13334609D01*
X20963927Y-13201276D02*
X20982975Y-13201276D01*
X21002022Y-13210800D01*
X21011546Y-13220324D01*
X21021070Y-13239371D01*
X21030594Y-13277467D01*
X21030594Y-13325086D01*
X21021070Y-13363181D01*
X21011546Y-13382228D01*
X21002022Y-13391752D01*
X20982975Y-13401276D01*
X20963927Y-13401276D01*
X20944879Y-13391752D01*
X20935356Y-13382228D01*
X20925832Y-13363181D01*
X20916308Y-13325086D01*
X20916308Y-13277467D01*
X20925832Y-13239371D01*
X20935356Y-13220324D01*
X20944879Y-13210800D01*
X20963927Y-13201276D01*
X21106784Y-13220324D02*
X21116308Y-13210800D01*
X21135356Y-13201276D01*
X21182975Y-13201276D01*
X21202022Y-13210800D01*
X21211546Y-13220324D01*
X21221070Y-13239371D01*
X21221070Y-13258419D01*
X21211546Y-13286990D01*
X21097260Y-13401276D01*
X21221070Y-13401276D01*
X21297260Y-13201276D02*
X21297260Y-13239371D01*
X21373451Y-13201276D02*
X21373451Y-13239371D01*
X21668689Y-13477467D02*
X21659165Y-13467943D01*
X21640117Y-13439371D01*
X21630594Y-13420324D01*
X21621070Y-13391752D01*
X21611546Y-13344133D01*
X21611546Y-13306038D01*
X21621070Y-13258419D01*
X21630594Y-13229848D01*
X21640117Y-13210800D01*
X21659165Y-13182228D01*
X21668689Y-13172705D01*
X21830594Y-13267943D02*
X21830594Y-13401276D01*
X21782975Y-13191752D02*
X21735356Y-13334609D01*
X21859165Y-13334609D01*
X22087736Y-13401276D02*
X22087736Y-13201276D01*
X22173451Y-13401276D02*
X22173451Y-13296514D01*
X22163927Y-13277467D01*
X22144879Y-13267943D01*
X22116308Y-13267943D01*
X22097260Y-13277467D01*
X22087736Y-13286990D01*
X22297260Y-13401276D02*
X22278213Y-13391752D01*
X22268689Y-13382228D01*
X22259165Y-13363181D01*
X22259165Y-13306038D01*
X22268689Y-13286990D01*
X22278213Y-13277467D01*
X22297260Y-13267943D01*
X22325832Y-13267943D01*
X22344879Y-13277467D01*
X22354403Y-13286990D01*
X22363927Y-13306038D01*
X22363927Y-13363181D01*
X22354403Y-13382228D01*
X22344879Y-13391752D01*
X22325832Y-13401276D01*
X22297260Y-13401276D01*
X22478213Y-13401276D02*
X22459165Y-13391752D01*
X22449641Y-13372705D01*
X22449641Y-13201276D01*
X22630594Y-13391752D02*
X22611546Y-13401276D01*
X22573451Y-13401276D01*
X22554403Y-13391752D01*
X22544879Y-13372705D01*
X22544879Y-13296514D01*
X22554403Y-13277467D01*
X22573451Y-13267943D01*
X22611546Y-13267943D01*
X22630594Y-13277467D01*
X22640117Y-13296514D01*
X22640117Y-13315562D01*
X22544879Y-13334609D01*
X22716308Y-13391752D02*
X22735355Y-13401276D01*
X22773451Y-13401276D01*
X22792498Y-13391752D01*
X22802022Y-13372705D01*
X22802022Y-13363181D01*
X22792498Y-13344133D01*
X22773451Y-13334609D01*
X22744879Y-13334609D01*
X22725832Y-13325086D01*
X22716308Y-13306038D01*
X22716308Y-13296514D01*
X22725832Y-13277467D01*
X22744879Y-13267943D01*
X22773451Y-13267943D01*
X22792498Y-13277467D01*
X22868689Y-13477467D02*
X22878213Y-13467943D01*
X22897260Y-13439371D01*
X22906784Y-13420324D01*
X22916308Y-13391752D01*
X22925832Y-13344133D01*
X22925832Y-13306038D01*
X22916308Y-13258419D01*
X22906784Y-13229848D01*
X22897260Y-13210800D01*
X22878213Y-13182228D01*
X22868689Y-13172705D01*
X23230594Y-13477467D02*
X23221070Y-13467943D01*
X23202022Y-13439371D01*
X23192498Y-13420324D01*
X23182974Y-13391752D01*
X23173451Y-13344133D01*
X23173451Y-13306038D01*
X23182974Y-13258419D01*
X23192498Y-13229848D01*
X23202022Y-13210800D01*
X23221070Y-13182228D01*
X23230594Y-13172705D01*
X23306784Y-13267943D02*
X23306784Y-13401276D01*
X23306784Y-13286990D02*
X23316308Y-13277467D01*
X23335355Y-13267943D01*
X23363927Y-13267943D01*
X23382974Y-13277467D01*
X23392498Y-13296514D01*
X23392498Y-13401276D01*
X23516308Y-13401276D02*
X23497260Y-13391752D01*
X23487736Y-13382228D01*
X23478213Y-13363181D01*
X23478213Y-13306038D01*
X23487736Y-13286990D01*
X23497260Y-13277467D01*
X23516308Y-13267943D01*
X23544879Y-13267943D01*
X23563927Y-13277467D01*
X23573451Y-13286990D01*
X23582974Y-13306038D01*
X23582974Y-13363181D01*
X23573451Y-13382228D01*
X23563927Y-13391752D01*
X23544879Y-13401276D01*
X23516308Y-13401276D01*
X23640117Y-13267943D02*
X23716308Y-13267943D01*
X23668689Y-13201276D02*
X23668689Y-13372705D01*
X23678213Y-13391752D01*
X23697260Y-13401276D01*
X23716308Y-13401276D01*
X23935355Y-13267943D02*
X23935355Y-13467943D01*
X23935355Y-13277467D02*
X23954403Y-13267943D01*
X23992498Y-13267943D01*
X24011546Y-13277467D01*
X24021070Y-13286990D01*
X24030594Y-13306038D01*
X24030594Y-13363181D01*
X24021070Y-13382228D01*
X24011546Y-13391752D01*
X23992498Y-13401276D01*
X23954403Y-13401276D01*
X23935355Y-13391752D01*
X24144879Y-13401276D02*
X24125832Y-13391752D01*
X24116308Y-13372705D01*
X24116308Y-13201276D01*
X24306784Y-13401276D02*
X24306784Y-13296514D01*
X24297260Y-13277467D01*
X24278213Y-13267943D01*
X24240117Y-13267943D01*
X24221070Y-13277467D01*
X24306784Y-13391752D02*
X24287736Y-13401276D01*
X24240117Y-13401276D01*
X24221070Y-13391752D01*
X24211546Y-13372705D01*
X24211546Y-13353657D01*
X24221070Y-13334609D01*
X24240117Y-13325086D01*
X24287736Y-13325086D01*
X24306784Y-13315562D01*
X24373451Y-13267943D02*
X24449641Y-13267943D01*
X24402022Y-13201276D02*
X24402022Y-13372705D01*
X24411546Y-13391752D01*
X24430594Y-13401276D01*
X24449641Y-13401276D01*
X24592498Y-13391752D02*
X24573451Y-13401276D01*
X24535355Y-13401276D01*
X24516308Y-13391752D01*
X24506784Y-13372705D01*
X24506784Y-13296514D01*
X24516308Y-13277467D01*
X24535355Y-13267943D01*
X24573451Y-13267943D01*
X24592498Y-13277467D01*
X24602022Y-13296514D01*
X24602022Y-13315562D01*
X24506784Y-13334609D01*
X24773451Y-13401276D02*
X24773451Y-13201276D01*
X24773451Y-13391752D02*
X24754403Y-13401276D01*
X24716308Y-13401276D01*
X24697260Y-13391752D01*
X24687736Y-13382228D01*
X24678213Y-13363181D01*
X24678213Y-13306038D01*
X24687736Y-13286990D01*
X24697260Y-13277467D01*
X24716308Y-13267943D01*
X24754403Y-13267943D01*
X24773451Y-13277467D01*
X24849641Y-13477467D02*
X24859165Y-13467943D01*
X24878213Y-13439371D01*
X24887736Y-13420324D01*
X24897260Y-13391752D01*
X24906784Y-13344133D01*
X24906784Y-13306038D01*
X24897260Y-13258419D01*
X24887736Y-13229848D01*
X24878213Y-13210800D01*
X24859165Y-13182228D01*
X24849641Y-13172705D01*
M02*
