M48
; DRILL file {KiCad (6.0.0)} date Wed Aug 10 17:12:28 2022
; FORMAT={-:-/ absolute / inch / decimal}
; #@! TF.CreationDate,2022-08-10T17:12:28-04:00
; #@! TF.GenerationSoftware,Kicad,Pcbnew,(6.0.0)
; #@! TF.FileFunction,Plated,1,6,PTH
FMAT,2
INCH
; #@! TA.AperFunction,Plated,PTH,ViaDrill
T1C0.0079
; #@! TA.AperFunction,Plated,PTH,ViaDrill
T2C0.0118
; #@! TA.AperFunction,Plated,PTH,ViaDrill
T3C0.0157
; #@! TA.AperFunction,Plated,PTH,ViaDrill
T4C0.0236
; #@! TA.AperFunction,Plated,PTH,ComponentDrill
T5C0.0329
; #@! TA.AperFunction,Plated,PTH,ComponentDrill
T6C0.0394
; #@! TA.AperFunction,Plated,PTH,ComponentDrill
T7C0.0630
; #@! TA.AperFunction,Plated,PTH,ViaDrill
T8C0.0984
%
G90
G05
T1
X7.167Y-4.7375
X7.1736Y-3.8573
X7.1749Y-4.3182
X7.1863Y-4.1626
X7.1867Y-4.4718
X7.1942Y-4.5867
X7.1946Y-4.0092
X7.1985Y-2.3281
X7.232Y-3.7021
X7.2477Y-4.4048
X7.2579Y-3.7471
X7.2635Y-2.7513
X7.2647Y-3.0616
X7.2657Y-2.5899
X7.2657Y-2.6056
X7.2659Y-3.3218
X7.267Y-2.4304
X7.267Y-2.4462
X7.2672Y-3.1135
X7.2684Y-3.2828
X7.2684Y-3.2985
X7.2694Y-3.2513
X7.2696Y-2.9541
X7.2696Y-2.9993
X7.2696Y-3.0151
X7.2696Y-3.1569
X7.2696Y-3.1727
X7.2696Y-3.4088
X7.2696Y-3.4245
X7.2699Y-3.3458
X7.2699Y-3.3615
X7.2701Y-2.9369
X7.2707Y-2.6514
X7.2707Y-2.6672
X7.2714Y-2.7159
X7.2714Y-2.7316
X7.2714Y-3.3859
X7.2733Y-2.8733
X7.2733Y-2.8891
X7.2753Y-2.5446
X7.2776Y-2.5207
X7.2832Y-2.7946
X7.2832Y-2.8104
X7.2832Y-3.0603
X7.2893Y-3.4471
X7.2915Y-2.9151
X7.293Y-2.5505
X7.2934Y-3.2135
X7.2989Y-3.4796
X7.3029Y-3.7749
X7.3107Y-2.8438
X7.3127Y-2.771
X7.3143Y-3.0942
X7.3151Y-4.032
X7.3153Y-3.9157
X7.3182Y-3.4651
X7.3206Y-2.4796
X7.3206Y-2.4974
X7.3226Y-3.293
X7.3253Y-2.2659
X7.3253Y-3.269
X7.3292Y-2.3836
X7.33Y-3.2222
X7.3322Y-3.8321
X7.3324Y-2.4509
X7.3332Y-2.9682
X7.3472Y-3.2136
X7.3501Y-3.4391
X7.3528Y-2.5868
X7.354Y-3.9422
X7.356Y-2.8596
X7.3579Y-2.4687
X7.3583Y-3.2247
X7.3603Y-3.6832
X7.3643Y-3.1706
X7.3643Y-3.1863
X7.3659Y-3.519
X7.3674Y-3.0474
X7.3698Y-3.5466
X7.3706Y-3.582
X7.3708Y-3.4014
X7.3737Y-3.8537
X7.3737Y-4.0702
X7.3753Y-2.8139
X7.3758Y-4.0248
X7.3777Y-2.397
X7.3808Y-3.3289
X7.3836Y-3.9206
X7.3934Y-4.0702
X7.3954Y-4.7848
X7.4037Y-2.1667
X7.4065Y-4.5374
X7.4131Y-4.0702
X7.4269Y-4.9324
X7.4285Y-4.6525
X7.4399Y-2.397
X7.4407Y-3.6732
X7.4407Y-4.2159
X7.4488Y-4.0384
X7.4525Y-2.0741
X7.4606Y-3.8809
X7.4659Y-2.2997
X7.4724Y-3.7391
X7.4789Y-2.407
X7.4884Y-2.7329
X7.4895Y-3.5259
X7.4915Y-3.6521
X7.4918Y-3.2415
X7.4958Y-3.2251
X7.497Y-3.3541
X7.4977Y-2.8733
X7.4977Y-2.8891
X7.4981Y-2.6289
X7.5009Y-2.8493
X7.5009Y-2.8131
X7.5013Y-3.0202
X7.5017Y-2.7966
X7.5037Y-3.708
X7.5048Y-2.4706
X7.5048Y-3.467
X7.506Y-3.6694
X7.5072Y-2.5773
X7.5076Y-2.2592
X7.5079Y-4.0423
X7.5092Y-3.1829
X7.5092Y-2.6178
X7.5115Y-2.6903
X7.5115Y-3.6253
X7.5147Y-3.0308
X7.5147Y-3.0466
X7.5174Y-2.736
X7.5174Y-3.7415
X7.5194Y-2.5188
X7.5214Y-3.3478
X7.5253Y-3.1879
X7.527Y-3.6764
X7.5292Y-2.6946
X7.5312Y-3.0584
X7.5324Y-3.3269
X7.5328Y-2.9387
X7.5332Y-4.9481
X7.5348Y-4.5092
X7.5363Y-3.8773
X7.5442Y-2.5115
X7.545Y-3.0682
X7.5497Y-3.8411
X7.5519Y-3.7348
X7.5529Y-2.5328
X7.5534Y-3.0856
X7.5686Y-4.1037
X7.5709Y-4.0463
X7.5745Y-3.5505
X7.5785Y-3.6174
X7.5785Y-3.6607
X7.5822Y-3.5279
X7.5831Y-2.363
X7.6001Y-3.4848
X7.6068Y-3.8403
X7.6172Y-4.1569
X7.621Y-3.5966
X7.621Y-3.6131
X7.6218Y-4.2198
X7.6332Y-3.4907
X7.6336Y-3.6529
X7.6336Y-3.708
X7.6336Y-3.8064
X7.6372Y-2.7734
X7.6403Y-3.884
X7.6507Y-3.4906
X7.6521Y-2.7108
X7.6585Y-3.29
X7.6697Y-3.3012
X7.6698Y-3.4903
X7.6749Y-3.936
X7.6749Y-3.9639
X7.6749Y-3.9973
X7.6749Y-4.0279
X7.6749Y-4.0557
X7.6763Y-3.9068
X7.6769Y-3.8458
X7.6769Y-3.8812
X7.6808Y-4.0938
X7.6863Y-3.4899
X7.6867Y-3.6529
X7.6867Y-3.708
X7.6934Y-4.9312
X7.6966Y-4.1194
X7.7017Y-3.5328
X7.7029Y-3.1903
X7.704Y-3.2914
X7.7044Y-3.8104
X7.7106Y-2.9936
X7.7115Y-2.1147
X7.7123Y-3.0466
X7.7151Y-3.3025
X7.7182Y-3.1281
X7.7202Y-4.1391
X7.7202Y-4.2415
X7.7241Y-2.6509
X7.7241Y-3.8911
X7.726Y-2.0652
X7.7264Y-3.9211
X7.7264Y-3.9481
X7.7264Y-3.9815
X7.7264Y-4.0122
X7.7264Y-4.04
X7.7292Y-2.8367
X7.734Y-4.0722
X7.7348Y-3.493
X7.7365Y-2.8608
X7.7417Y-3.6525
X7.7418Y-3.708
X7.7421Y-2.3581
X7.7438Y-4.1627
X7.7458Y-3.9009
X7.7466Y-3.8111
X7.7478Y-2.873
X7.7509Y-3.1017
X7.7537Y-4.0919
X7.7615Y-3.8556
X7.7635Y-4.1824
X7.7639Y-3.4895
X7.7655Y-3.8151
X7.7655Y-3.9394
X7.7655Y-3.9672
X7.7674Y-4.0052
X7.7678Y-3.8757
X7.7694Y-2.8757
X7.7702Y-3.1911
X7.7706Y-4.3395
X7.7753Y-4.1135
X7.7769Y-2.8174
X7.78Y-3.4934
X7.7832Y-4.2041
X7.7891Y-4.0269
X7.7947Y-3.4881
X7.7989Y-4.1371
X7.8048Y-4.2237
X7.8088Y-4.0466
X7.8111Y-3.4903
X7.8115Y-3.8111
X7.8118Y-3.579
X7.8127Y-3.8694
X7.8127Y-3.9383
X7.8136Y-4.3841
X7.8147Y-3.9009
X7.8147Y-3.9796
X7.8164Y-3.8333
X7.8186Y-4.1568
X7.8206Y-2.7867
X7.8214Y-2.5773
X7.8233Y-2.4092
X7.8245Y-3.2917
X7.8245Y-4.2434
X7.8247Y-2.8216
X7.8277Y-3.4899
X7.8281Y-3.0182
X7.8282Y-3.0678
X7.8285Y-2.8793
X7.8285Y-2.9206
X7.8285Y-4.0682
X7.8285Y-3.0013
X7.8289Y-3.1017
X7.8296Y-2.6919
X7.8324Y-4.9403
X7.8363Y-4.0033
X7.8383Y-4.1785
X7.8434Y-3.4848
X7.8458Y-2.6013
X7.8462Y-4.2651
X7.8474Y-2.849
X7.8481Y-4.0879
X7.8497Y-3.1962
X7.8513Y-3.2911
X7.8537Y-3.0669
X7.8568Y-2.8748
X7.858Y-2.7867
X7.8582Y-3.2552
X7.8587Y-3.226
X7.8588Y-3.8304
X7.8599Y-2.9147
X7.86Y-3.1635
X7.86Y-3.8753
X7.86Y-3.9462
X7.8603Y-3.1017
X7.8603Y-3.0096
X7.8605Y-3.0302
X7.8611Y-3.5293
X7.8619Y-2.9501
X7.8619Y-4.0269
X7.8626Y-3.1277
X7.8631Y-2.823
X7.8639Y-4.206
X7.8647Y-2.6525
X7.8654Y-3.9045
X7.8666Y-2.8505
X7.8674Y-3.197
X7.8694Y-3.7745
X7.8698Y-4.1096
X7.8698Y-4.2887
X7.8792Y-2.7159
X7.8792Y-3.5202
X7.8796Y-3.9678
X7.8813Y-3.1649
X7.8816Y-3.0702
X7.8816Y-4.0466
X7.8836Y-4.2257
X7.8844Y-2.945
X7.8859Y-3.1029
X7.8863Y-2.8501
X7.8892Y-2.7867
X7.8895Y-2.9989
X7.8895Y-4.3084
X7.8896Y-2.8187
X7.8899Y-3.1399
X7.8902Y-2.8844
X7.8903Y-3.2929
X7.8911Y-3.0533
X7.8911Y-3.1222
X7.8918Y-3.0155
X7.8925Y-3.2375
X7.8934Y-4.1332
X7.8951Y-3.1947
X7.8956Y-3.0373
X7.8963Y-2.979
X7.8966Y-3.5786
X7.8975Y-3.6282
X7.8977Y-3.0702
X7.8989Y-3.1643
X7.8993Y-3.9875
X7.9007Y-3.5614
X7.9009Y-2.9458
X7.9013Y-3.6105
X7.9013Y-3.767
X7.9033Y-4.0682
X7.9052Y-3.5938
X7.9052Y-4.2474
X7.9092Y-4.33
X7.9127Y-3.2277
X7.9131Y-4.1529
X7.9139Y-3.547
X7.9139Y-3.6548
X7.9143Y-3.8769
X7.9143Y-3.2905
X7.9155Y-2.8828
X7.9163Y-2.9733
X7.9177Y-3.0997
X7.9178Y-4.7651
X7.919Y-3.2629
X7.921Y-2.8509
X7.921Y-4.0092
X7.9222Y-2.8186
X7.9224Y-3.1899
X7.9224Y-3.2067
X7.9229Y-2.9403
X7.9237Y-2.7896
X7.9249Y-2.4092
X7.9268Y-3.1434
X7.9287Y-3.6131
X7.9289Y-4.0919
X7.9289Y-4.271
X7.9291Y-3.2275
X7.9308Y-3.6521
X7.9328Y-4.1745
X7.9367Y-4.3556
X7.9391Y-3.8489
X7.9392Y-4.4895
X7.9446Y-4.0328
X7.9455Y-3.2903
X7.9471Y-2.9747
X7.9485Y-4.1115
X7.9485Y-4.2907
X7.9504Y-2.0644
X7.9525Y-2.6627
X7.9528Y-2.7241
X7.9528Y-2.7552
X7.9529Y-3.1981
X7.9531Y-3.9325
X7.9548Y-2.8848
X7.9557Y-3.2261
X7.9561Y-3.2597
X7.9564Y-4.3753
X7.9564Y-4.8261
X7.9584Y-4.2001
X7.9623Y-3.6942
X7.9623Y-3.7159
X7.9643Y-3.9856
X7.9643Y-4.0525
X7.9682Y-4.3123
X7.9702Y-4.1332
X7.9722Y-3.832
X7.9775Y-3.0355
X7.9781Y-3.0753
X7.9781Y-4.2198
X7.9781Y-4.397
X7.9782Y-3.103
X7.9782Y-3.1686
X7.9787Y-3.0068
X7.9787Y-3.1363
X7.9795Y-3.2293
X7.9796Y-2.6233
X7.9796Y-3.3202
X7.9809Y-3.2559
X7.9812Y-2.918
X7.9812Y-3.2907
X7.984Y-4.0741
X7.9852Y-3.1985
X7.9859Y-3.8202
X7.9867Y-2.8182
X7.9867Y-2.8497
X7.9867Y-2.8776
X7.9873Y-2.7867
X7.9918Y-4.3379
X7.9938Y-4.1568
X7.9941Y-3.3589
X7.9997Y-4.2415
X8.0017Y-4.4206
X8.0092Y-3.0084
X8.0093Y-3.2293
X8.0096Y-4.0997
X8.0106Y-2.9157
X8.0115Y-2.8773
X8.0115Y-3.8202
X8.0135Y-2.6222
X8.0135Y-4.1765
X8.0135Y-2.9481
X8.0138Y-3.2536
X8.0143Y-3.0706
X8.0155Y-2.8182
X8.0155Y-3.3222
X8.0155Y-4.3615
X8.0186Y-3.3612
X8.0214Y-2.4088
X8.0214Y-3.1348
X8.0214Y-4.4403
X8.0225Y-3.291
X8.0226Y-3.2001
X8.0233Y-4.2651
X8.0234Y-2.5042
X8.0245Y-2.5907
X8.026Y-3.2296
X8.0273Y-3.8458
X8.0281Y-2.5623
X8.0292Y-4.1194
X8.0321Y-3.3515
X8.0326Y-3.9022
X8.0332Y-4.1981
X8.0391Y-4.3852
X8.0411Y-4.4619
X8.043Y-4.2848
X8.0451Y-3.2223
X8.0458Y-2.997
X8.0462Y-3.0387
X8.0462Y-3.0804
X8.0464Y-2.955
X8.047Y-2.7867
X8.047Y-2.7592
X8.0485Y-3.1178
X8.0489Y-3.3187
X8.0503Y-3.372
X8.0509Y-2.8182
X8.0509Y-2.8799
X8.0509Y-4.1411
X8.0525Y-2.5659
X8.0529Y-4.2218
X8.0542Y-3.1989
X8.0543Y-3.1334
X8.0543Y-3.1654
X8.0548Y-4.8064
X8.0588Y-4.4048
X8.0627Y-4.3064
X8.0627Y-4.4836
X8.0666Y-3.3694
X8.074Y-2.8167
X8.0744Y-3.3276
X8.0745Y-4.1647
X8.0766Y-2.88
X8.0769Y-3.2017
X8.0771Y-2.7602
X8.0771Y-2.7867
X8.0771Y-3.0384
X8.0783Y-2.9974
X8.0785Y-3.0804
X8.0785Y-3.897
X8.0785Y-4.2434
X8.0789Y-3.2584
X8.0792Y-3.2338
X8.08Y-3.7245
X8.0801Y-3.3577
X8.0804Y-4.4245
X8.0805Y-3.2181
X8.081Y-3.274
X8.0816Y-3.3127
X8.0824Y-4.5033
X8.0852Y-3.7588
X8.0863Y-4.3596
X8.0882Y-3.1652
X8.0891Y-4.1052
X8.0911Y-2.5769
X8.0924Y-3.1354
X8.0942Y-4.1844
X8.0981Y-3.3655
X8.0994Y-2.9107
X8.1021Y-4.271
X8.1021Y-4.4462
X8.104Y-4.5249
X8.108Y-2.3202
X8.1101Y-3.2025
X8.1103Y-2.9639
X8.1103Y-3.1135
X8.1105Y-3.0048
X8.1107Y-2.1111
X8.1107Y-3.0387
X8.1111Y-2.545
X8.1111Y-3.0726
X8.1113Y-2.7861
X8.1113Y-2.8121
X8.1113Y-2.8427
X8.1113Y-2.8735
X8.1137Y-3.2264
X8.1137Y-3.3459
X8.1139Y-4.206
X8.1151Y-3.2958
X8.121Y-3.3879
X8.1218Y-2.9153
X8.1218Y-4.4659
X8.1257Y-3.3586
X8.1261Y-3.1978
X8.1271Y-3.1667
X8.1277Y-3.1346
X8.1277Y-4.5485
X8.1296Y-4.3793
X8.1336Y-4.5899
X8.134Y-2.258
X8.134Y-3.2867
X8.1355Y-3.5978
X8.1375Y-4.2296
X8.141Y-3.22
X8.1415Y-2.3812
X8.1415Y-3.5485
X8.1415Y-2.4481
X8.1416Y-3.0387
X8.1421Y-3.0812
X8.1426Y-3.2356
X8.1427Y-2.853
X8.1428Y-2.8159
X8.143Y-3.2014
X8.1434Y-4.4875
X8.1448Y-2.9972
X8.1452Y-4.6271
X8.1474Y-4.5682
X8.1493Y-2.1411
X8.1493Y-3.771
X8.1513Y-4.4009
X8.1523Y-3.361
X8.1576Y-3.93
X8.1611Y-2.9153
X8.1611Y-4.2533
X8.1631Y-3.5126
X8.1631Y-4.767
X8.1647Y-3.1344
X8.1647Y-3.167
X8.1651Y-3.5505
X8.167Y-3.5781
X8.167Y-4.5111
X8.1675Y-3.2935
X8.1684Y-3.2223
X8.169Y-2.9639
X8.171Y-4.4206
X8.1714Y-3.3237
X8.1719Y-3.9788
X8.1724Y-2.8169
X8.1724Y-2.8481
X8.1729Y-3.2663
X8.1729Y-3.119
X8.1729Y-4.3379
X8.1729Y-3.2039
X8.1737Y-2.997
X8.174Y-2.7602
X8.1747Y-2.7851
X8.1753Y-3.079
X8.1765Y-3.0373
X8.1781Y-2.5033
X8.1808Y-3.769
X8.1808Y-4.273
X8.1825Y-2.9438
X8.1848Y-4.6647
X8.1867Y-4.5308
X8.1877Y-3.5167
X8.1887Y-2.2316
X8.1887Y-2.334
X8.1907Y-4.7395
X8.1926Y-4.4422
X8.1946Y-4.3596
X8.1968Y-3.5527
X8.1976Y-3.2904
X8.1985Y-3.7356
X8.1985Y-4.2139
X8.202Y-3.2192
X8.2031Y-3.1286
X8.2031Y-3.2016
X8.2037Y-2.754
X8.2038Y-3.2541
X8.2041Y-2.7817
X8.2044Y-3.517
X8.2048Y-3.359
X8.2059Y-2.8451
X8.2059Y-3.3272
X8.206Y-3.1674
X8.2068Y-3.0623
X8.2072Y-3.1013
X8.2078Y-2.9801
X8.2084Y-3.984
X8.2102Y-2.0648
X8.2103Y-3.7741
X8.2107Y-3.8241
X8.2123Y-4.5111
X8.2123Y-4.6607
X8.2143Y-4.2946
X8.2143Y-4.3793
X8.2163Y-4.4659
X8.2192Y-3.3812
X8.2261Y-4.6391
X8.2269Y-3.2863
X8.2273Y-2.4615
X8.2281Y-4.8714
X8.23Y-3.2267
X8.23Y-2.4796
X8.2308Y-3.2548
X8.2312Y-3.3186
X8.2312Y-3.3537
X8.234Y-2.7552
X8.2342Y-3.0167
X8.2348Y-3.2064
X8.2359Y-3.1643
X8.2359Y-2.1726
X8.2359Y-3.5485
X8.2359Y-4.3163
X8.2359Y-4.4009
X8.2359Y-4.4856
X8.2379Y-3.0551
X8.2379Y-2.8465
X8.2417Y-3.5155
X8.2422Y-2.9803
X8.2423Y-3.1256
X8.2435Y-3.0989
X8.2449Y-3.2216
X8.2477Y-2.2316
X8.2477Y-2.334
X8.2477Y-4.5151
X8.2489Y-3.9942
X8.2497Y-4.6588
X8.2556Y-3.7651
X8.2556Y-4.3359
X8.2596Y-3.7395
X8.2596Y-4.4245
X8.2596Y-4.6076
X8.2597Y-2.7552
X8.2601Y-3.5527
X8.2615Y-3.2871
X8.2615Y-3.6076
X8.2635Y-3.7159
X8.2636Y-3.2607
X8.2641Y-2.9117
X8.2641Y-3.015
X8.2655Y-4.8714
X8.266Y-3.3208
X8.2669Y-2.9422
X8.2673Y-3.2032
X8.2691Y-3.2298
X8.2694Y-4.6785
X8.2694Y-3.1667
X8.2703Y-4.5358
X8.2733Y-4.71
X8.2735Y-3.1324
X8.2753Y-2.3064
X8.2753Y-4.5879
X8.2772Y-2.7217
X8.2773Y-4.3576
X8.2792Y-4.4442
X8.2812Y-4.6293
X8.2842Y-3.3586
X8.2852Y-3.5131
X8.2855Y-4.0832
X8.2871Y-4.5584
X8.2911Y-3.7336
X8.2913Y-4.9305
X8.2918Y-2.973
X8.2942Y-3.0974
X8.2946Y-3.2548
X8.295Y-2.4403
X8.295Y-3.1647
X8.2964Y-3.07
X8.297Y-3.0348
X8.2972Y-3.1199
X8.2983Y-2.9155
X8.2985Y-2.4745
X8.2989Y-3.1371
X8.3Y-2.9376
X8.3007Y-3.0066
X8.3009Y-4.3812
X8.3009Y-4.6489
X8.3017Y-3.591
X8.3021Y-3.2316
X8.3022Y-3.2939
X8.3029Y-2.8186
X8.3029Y-3.3202
X8.3029Y-4.7375
X8.3068Y-2.1096
X8.3068Y-2.2316
X8.3068Y-2.334
X8.3072Y-2.9785
X8.3107Y-4.5584
X8.3127Y-4.7828
X8.3206Y-3.3714
X8.3206Y-4.4009
X8.3226Y-3.4821
X8.3226Y-3.5442
X8.3226Y-4.6706
X8.3237Y-3.7281
X8.324Y-3.4383
X8.3245Y-3.2249
X8.3245Y-3.7454
X8.3248Y-3.1316
X8.3248Y-3.04
X8.3262Y-3.0664
X8.3269Y-3.0996
X8.3289Y-3.1863
X8.3289Y-2.928
X8.3304Y-2.517
X8.3304Y-3.2041
X8.3312Y-2.8503
X8.3315Y-2.8767
X8.3316Y-3.1645
X8.3318Y-3.2639
X8.332Y-2.9115
X8.3328Y-3.2934
X8.3353Y-3.0121
X8.3383Y-4.7552
X8.3421Y-4.4142
X8.3462Y-3.6726
X8.3462Y-4.5859
X8.3462Y-4.6942
X8.3472Y-3.518
X8.3532Y-3.5505
X8.3533Y-2.334
X8.3546Y-3.288
X8.356Y-3.7194
X8.3564Y-2.9071
X8.358Y-2.1686
X8.358Y-4.523
X8.3583Y-3.0669
X8.3584Y-3.39
X8.3599Y-3.1186
X8.36Y-2.9235
X8.36Y-4.7789
X8.3607Y-2.9989
X8.3619Y-2.523
X8.3619Y-3.1942
X8.3619Y-3.3241
X8.3632Y-3.0158
X8.3639Y-4.8222
X8.3652Y-3.6726
X8.3659Y-2.2316
X8.3659Y-4.4383
X8.3659Y-4.7139
X8.3679Y-3.1005
X8.3696Y-2.9761
X8.3698Y-4.6096
X8.3796Y-3.7375
X8.3816Y-4.456
X8.3816Y-4.5466
X8.3819Y-4.1644
X8.3836Y-3.5497
X8.3848Y-3.3552
X8.3855Y-4.7316
X8.3873Y-3.7069
X8.3895Y-3.2867
X8.3895Y-3.6824
X8.3896Y-3.1723
X8.3915Y-3.0109
X8.3915Y-4.8832
X8.3926Y-2.9481
X8.3934Y-4.6332
X8.3957Y-4.9278
X8.3974Y-2.1726
X8.3974Y-2.8517
X8.3974Y-4.4718
X8.3979Y-3.521
X8.3982Y-3.2285
X8.4001Y-3.1009
X8.4029Y-3.7997
X8.4052Y-3.6071
X8.4052Y-4.5702
X8.4072Y-4.7552
X8.4072Y-4.8576
X8.4111Y-4.7867
X8.4111Y-4.8281
X8.4111Y-3.3439
X8.4131Y-4.4954
X8.4151Y-3.5781
X8.4159Y-3.5212
X8.4195Y-3.7415
X8.4206Y-2.5033
X8.421Y-3.2867
X8.421Y-3.5992
X8.421Y-4.6568
X8.4218Y-3.7017
X8.4249Y-2.2316
X8.4249Y-2.4324
X8.4249Y-3.2119
X8.4249Y-3.3148
X8.4257Y-2.3415
X8.4269Y-3.1033
X8.4286Y-2.0652
X8.4289Y-3.2411
X8.4289Y-4.5938
X8.4304Y-2.9574
X8.4318Y-3.0101
X8.4328Y-4.5269
X8.4332Y-3.0656
X8.4335Y-4.2301
X8.4426Y-3.5781
X8.4446Y-4.6804
X8.4466Y-3.5131
X8.4505Y-3.5289
X8.4505Y-3.7356
X8.4513Y-4.4438
X8.4525Y-3.0143
X8.4533Y-3.0631
X8.4564Y-2.1686
X8.4564Y-4.5505
X8.4564Y-4.6174
X8.4568Y-2.9627
X8.4593Y-3.5791
X8.4643Y-3.8245
X8.4649Y-3.7703
X8.465Y-3.4868
X8.4678Y-2.8485
X8.4682Y-4.7041
X8.4698Y-2.8245
X8.4702Y-3.6667
X8.4761Y-3.708
X8.4764Y-3.8948
X8.4781Y-3.5485
X8.4795Y-3.521
X8.48Y-4.5741
X8.48Y-4.6411
X8.48Y-4.8025
X8.48Y-4.8419
X8.484Y-2.2316
X8.484Y-2.3383
X8.484Y-4.7631
X8.4859Y-3.7674
X8.4882Y-4.0778
X8.4918Y-4.7277
X8.4961Y-4.1565
X8.4966Y-2.3875
X8.4988Y-4.9305
X8.4997Y-4.8733
X8.4998Y-3.4835
X8.5037Y-4.5131
X8.5037Y-4.6647
X8.5076Y-4.5978
X8.5096Y-3.7041
X8.5199Y-3.5183
X8.5247Y-4.5521
X8.5265Y-2.2844
X8.5273Y-2.4127
X8.5273Y-3.5978
X8.5273Y-3.6745
X8.5273Y-4.4942
X8.5273Y-4.6883
X8.5277Y-3.769
X8.5312Y-4.6214
X8.5415Y-3.5068
X8.543Y-3.3123
X8.543Y-3.4796
X8.543Y-3.5525
X8.543Y-4.8714
X8.5435Y-3.4622
X8.5438Y-3.5233
X8.545Y-2.456
X8.547Y-4.7159
X8.5482Y-2.1217
X8.5489Y-2.7159
X8.5489Y-2.7572
X8.5509Y-2.7336
X8.5529Y-3.5958
X8.5533Y-2.6859
X8.5545Y-2.83
X8.5548Y-2.8025
X8.5548Y-2.8576
X8.5548Y-4.645
X8.5548Y-4.7513
X8.5548Y-4.7828
X8.5607Y-2.773
X8.5607Y-2.9088
X8.5698Y-3.7647
X8.5706Y-3.71
X8.5717Y-3.6749
X8.5726Y-4.8714
X8.5755Y-2.7857
X8.5785Y-4.6686
X8.5792Y-3.8828
X8.5804Y-3.9655
X8.5807Y-2.6594
X8.5816Y-3.919
X8.5844Y-3.5466
X8.5852Y-3.6344
X8.5855Y-2.1041
X8.5866Y-2.5148
X8.5873Y-3.6696
X8.5922Y-3.4816
X8.5942Y-3.8222
X8.5962Y-2.9604
X8.5997Y-4.4836
X8.6021Y-3.71
X8.606Y-4.6962
X8.6088Y-3.7344
X8.61Y-3.0367
X8.6139Y-4.7316
X8.6159Y-4.8733
X8.6178Y-4.7749
X8.622Y-2.517
X8.6249Y-3.8245
X8.6257Y-4.4481
X8.626Y-2.4919
X8.626Y-2.8658
X8.6296Y-4.8222
X8.6336Y-3.6745
X8.6355Y-2.1903
X8.6372Y-2.8769
X8.6453Y-2.79
X8.6454Y-2.4403
X8.6484Y-2.6593
X8.6496Y-2.503
X8.652Y-2.8917
X8.6575Y-2.4754
X8.6631Y-2.9029
X8.6654Y-2.5148
X8.68Y-2.0761
X8.6828Y-2.6458
X8.6848Y-2.1922
X8.6848Y-3.5013
X8.6867Y-3.0623
X8.6867Y-3.4107
X8.6907Y-2.8281
X8.6918Y-3.0143
X8.6945Y-4.9191
X8.6953Y-3.4618
X8.6959Y-2.8944
X8.697Y-2.4588
X8.6985Y-3.7572
X8.6987Y-2.7267
X8.6991Y-2.7438
X8.7025Y-2.8163
X8.7025Y-3.4107
X8.7044Y-2.767
X8.7071Y-2.9055
X8.7096Y-3.3828
X8.71Y-3.5836
X8.7105Y-3.6416
X8.7126Y-3.125
X8.7163Y-2.9615
X8.7163Y-3.0249
X8.7163Y-3.0544
X8.7182Y-2.7946
X8.7185Y-3.6978
X8.7202Y-2.456
X8.7222Y-2.4856
X8.7222Y-2.7001
X8.7222Y-2.7395
X8.7226Y-2.6714
X8.7241Y-2.4363
X8.7241Y-2.519
X8.7241Y-2.5525
X8.7241Y-2.6135
X8.7241Y-2.643
X8.7241Y-2.769
X8.7241Y-3.1411
X8.7241Y-3.1607
X8.7253Y-3.3828
X8.7281Y-4.4403
X8.73Y-2.584
X8.7375Y-4.8233
X8.745Y-4.0824
X8.7453Y-4.145
X8.7453Y-4.1765
X8.7474Y-4.1147
X8.7477Y-4.2985
X8.7477Y-4.33
X8.7477Y-4.3615
X8.7537Y-3.7395
X8.7674Y-2.393
X8.7767Y-4.1134
X8.7768Y-4.082
X8.7768Y-4.145
X8.7768Y-4.1765
X8.7768Y-4.208
X8.7768Y-4.2395
X8.7768Y-4.271
X8.7768Y-4.3025
X8.7768Y-4.334
X8.7768Y-4.3655
X8.795Y-2.3084
X8.7974Y-3.717
X8.7989Y-2.2277
X8.8083Y-4.0505
X8.8083Y-4.1135
X8.8083Y-4.1765
X8.8083Y-4.271
X8.8083Y-4.334
X8.8083Y-4.082
X8.8083Y-4.145
X8.8083Y-4.208
X8.8083Y-4.2395
X8.8083Y-4.3025
X8.8083Y-4.3655
X8.8083Y-4.397
X8.8107Y-4.4442
X8.8119Y-4.9442
X8.821Y-3.7832
X8.8241Y-4.808
X8.8245Y-3.8655
X8.8265Y-2.0761
X8.8359Y-4.334
X8.8398Y-4.0505
X8.8398Y-4.082
X8.8398Y-4.1135
X8.8398Y-4.145
X8.8398Y-4.1765
X8.8398Y-4.208
X8.8398Y-4.2395
X8.8398Y-4.271
X8.8398Y-4.3025
X8.8398Y-4.3655
X8.8398Y-4.397
X8.8403Y-2.2651
X8.8403Y-2.5076
X8.8481Y-2.96
X8.8485Y-4.6151
X8.8533Y-3.071
X8.8547Y-2.7057
X8.8563Y-2.3829
X8.8647Y-3.4257
X8.8657Y-2.8112
X8.8661Y-3.1683
X8.8661Y-3.31
X8.8674Y-2.4186
X8.8674Y-3.3356
X8.8698Y-3.017
X8.8712Y-4.0817
X8.8712Y-4.1132
X8.8712Y-4.1447
X8.8713Y-4.1765
X8.8713Y-4.208
X8.8713Y-4.2395
X8.8713Y-4.271
X8.8713Y-4.3025
X8.8713Y-4.3655
X8.872Y-4.3337
X8.8736Y-2.6443
X8.874Y-2.9604
X8.8812Y-3.421
X8.883Y-3.3265
X8.8855Y-4.4363
X8.8921Y-3.2325
X8.9013Y-2.7907
X8.9028Y-4.2395
X8.9028Y-4.271
X8.9028Y-4.3025
X8.9033Y-3.318
X8.9052Y-3.4836
X8.9072Y-3.4226
X8.9131Y-3.0741
X8.9143Y-3.5698
X8.9155Y-3.619
X8.9169Y-2.6061
X8.9182Y-3.2796
X8.9182Y-3.2954
X8.9238Y-2.3348
X8.9277Y-2.4505
X8.9288Y-2.8122
X8.9303Y-2.9152
X8.9308Y-3.3655
X8.9311Y-2.7671
X8.9328Y-3.232
X8.9348Y-3.5328
X8.9387Y-2.7985
X8.9407Y-2.519
X8.9422Y-3.2954
X8.9426Y-2.582
X8.9426Y-2.8714
X8.9426Y-2.8871
X8.9428Y-3.2775
X8.9446Y-2.5505
X8.9446Y-3.0072
X8.9446Y-3.4147
X8.9446Y-3.4304
X8.9446Y-2.7257
X8.9458Y-3.0237
X8.9466Y-2.6135
X8.9466Y-2.645
X8.9466Y-2.9363
X8.9466Y-2.9521
X8.949Y-3.1718
X8.9492Y-3.1553
X8.9493Y-3.4631
X8.9501Y-3.3391
X8.9501Y-3.36
X8.9505Y-2.4875
X8.9505Y-2.6765
X8.9505Y-3.2316
X8.9517Y-2.3942
X8.9525Y-3.0584
X8.9544Y-2.7415
X8.9564Y-3.0781
X9.0071Y-3.7937
X9.0233Y-4.7356
X9.0292Y-2.3852
X9.0563Y-3.6785
X9.0647Y-3.4643
T2
X7.2674Y-3.4639
X7.2674Y-3.4954
X7.2674Y-3.5269
X7.2674Y-3.5584
X7.2674Y-3.5899
X7.2674Y-3.6214
X7.2674Y-3.6529
X7.3606Y-3.6435
X7.3631Y-3.6025
X7.9013Y-3.723
X7.9328Y-2.5426
X8.4533Y-3.208
X8.9485Y-3.5899
X8.9485Y-3.6214
X8.9485Y-3.6529
T3
X7.2438Y-4.2237
X7.2438Y-4.2552
X7.2753Y-4.2237
X7.3029Y-4.2237
X7.3344Y-4.2237
X7.48Y-3.83
X7.5785Y-3.8261
X7.98Y-4.6135
X8.0233Y-4.6135
X8.0588Y-4.6135
X8.169Y-4.708
X8.3285Y-3.8143
X8.4485Y-3.8064
X8.4513Y-2.8336
X8.5489Y-4.0151
X8.5489Y-4.0466
X8.5765Y-4.0151
X8.5765Y-4.0466
X8.5852Y-2.7387
X8.619Y-2.8277
X8.7005Y-4.2237
X8.7005Y-4.2552
X8.7241Y-3.8537
X8.7241Y-3.8852
X8.7281Y-4.6293
X8.7281Y-4.6607
X8.7556Y-3.8537
X8.7556Y-3.8852
X8.7556Y-4.6293
X8.7556Y-4.6607
X8.8895Y-3.8537
X8.8895Y-3.8812
X8.8934Y-4.6293
X8.8934Y-4.6607
X8.921Y-3.8537
X8.921Y-3.8812
X8.921Y-4.6293
X8.921Y-4.6607
X8.9407Y-4.1726
X8.9407Y-4.2001
T4
X8.8367Y-3.6911
X8.8698Y-3.5269
T6
X7.5686Y-2.459
X7.6686Y-2.459
X7.7686Y-2.459
X7.8686Y-2.459
X7.9686Y-2.459
X8.0686Y-2.459
T7
X7.6769Y-4.4993
X7.6769Y-4.7356
X7.8619Y-4.6174
T8
X7.2438Y-2.1529
X7.2438Y-4.8694
X8.9761Y-2.1529
X8.9761Y-4.8694
T5
G00X8.1509Y-4.9173
M15
G01X8.1509Y-4.9435
M16
G05
G00X8.6426Y-4.9173
M15
G01X8.6426Y-4.9435
M16
G05
T0
M30
