%TF.GenerationSoftware,KiCad,Pcbnew,(6.0.0)*%
%TF.CreationDate,2022-04-21T06:05:03-07:00*%
%TF.ProjectId,ecp5u85-bse-usb,65637035-7538-4352-9d62-73652d757362,A*%
%TF.SameCoordinates,Original*%
%TF.FileFunction,Legend,Bot*%
%TF.FilePolarity,Positive*%
%FSLAX46Y46*%
G04 Gerber Fmt 4.6, Leading zero omitted, Abs format (unit mm)*
G04 Created by KiCad (PCBNEW (6.0.0)) date 2022-04-21 06:05:03*
%MOMM*%
%LPD*%
G01*
G04 APERTURE LIST*
%ADD10C,0.200000*%
%ADD11C,0.100000*%
%ADD12C,0.150000*%
%ADD13C,0.220000*%
%ADD14C,0.120000*%
G04 APERTURE END LIST*
D10*
X193800000Y-104275000D02*
X213000000Y-104275000D01*
X213000000Y-104275000D02*
X213000000Y-111875000D01*
X213000000Y-111875000D02*
X193800000Y-111875000D01*
X193800000Y-111875000D02*
X193800000Y-104275000D01*
D11*
X210292841Y-75033000D02*
X210542841Y-75033000D01*
X210542841Y-75033000D02*
X210542841Y-81483000D01*
X210542841Y-81483000D02*
X200492841Y-81483000D01*
X200492841Y-81483000D02*
X200492841Y-74983000D01*
X200492841Y-74983000D02*
X207892841Y-74983000D01*
X207892841Y-74983000D02*
X207892841Y-73833000D01*
X207892841Y-73833000D02*
X210292841Y-73833000D01*
X210292841Y-73833000D02*
X210292841Y-75033000D01*
D12*
X199242841Y-89033000D02*
X199842841Y-88783000D01*
D11*
X220792841Y-75383000D02*
X221092841Y-75383000D01*
X221092841Y-75383000D02*
X221092841Y-82633000D01*
X221092841Y-82633000D02*
X211042841Y-82633000D01*
X211042841Y-82633000D02*
X211042841Y-75333000D01*
X211042841Y-75333000D02*
X218442841Y-75333000D01*
X218442841Y-75333000D02*
X218442841Y-74183000D01*
X218442841Y-74183000D02*
X220792841Y-74183000D01*
X220792841Y-74183000D02*
X220792841Y-75383000D01*
D12*
X200592841Y-92833000D02*
X200392841Y-92733000D01*
X200092841Y-94733000D02*
X200442841Y-94483000D01*
X196192841Y-92883000D02*
X197342841Y-93183000D01*
D13*
X212200000Y-106089142D02*
X211800000Y-106089142D01*
X211628571Y-106770095D02*
X212200000Y-106770095D01*
X212200000Y-105470095D01*
X211628571Y-105470095D01*
X210428571Y-106646285D02*
X210485714Y-106708190D01*
X210657142Y-106770095D01*
X210771428Y-106770095D01*
X210942857Y-106708190D01*
X211057142Y-106584380D01*
X211114285Y-106460571D01*
X211171428Y-106212952D01*
X211171428Y-106027238D01*
X211114285Y-105779619D01*
X211057142Y-105655809D01*
X210942857Y-105532000D01*
X210771428Y-105470095D01*
X210657142Y-105470095D01*
X210485714Y-105532000D01*
X210428571Y-105593904D01*
X209914285Y-106770095D02*
X209914285Y-105470095D01*
X209457142Y-105470095D01*
X209342857Y-105532000D01*
X209285714Y-105593904D01*
X209228571Y-105717714D01*
X209228571Y-105903428D01*
X209285714Y-106027238D01*
X209342857Y-106089142D01*
X209457142Y-106151047D01*
X209914285Y-106151047D01*
X208142857Y-105470095D02*
X208714285Y-105470095D01*
X208771428Y-106089142D01*
X208714285Y-106027238D01*
X208600000Y-105965333D01*
X208314285Y-105965333D01*
X208200000Y-106027238D01*
X208142857Y-106089142D01*
X208085714Y-106212952D01*
X208085714Y-106522476D01*
X208142857Y-106646285D01*
X208200000Y-106708190D01*
X208314285Y-106770095D01*
X208600000Y-106770095D01*
X208714285Y-106708190D01*
X208771428Y-106646285D01*
X207571428Y-105470095D02*
X207571428Y-106522476D01*
X207514285Y-106646285D01*
X207457142Y-106708190D01*
X207342857Y-106770095D01*
X207114285Y-106770095D01*
X207000000Y-106708190D01*
X206942857Y-106646285D01*
X206885714Y-106522476D01*
X206885714Y-105470095D01*
X206142857Y-106027238D02*
X206257142Y-105965333D01*
X206314285Y-105903428D01*
X206371428Y-105779619D01*
X206371428Y-105717714D01*
X206314285Y-105593904D01*
X206257142Y-105532000D01*
X206142857Y-105470095D01*
X205914285Y-105470095D01*
X205800000Y-105532000D01*
X205742857Y-105593904D01*
X205685714Y-105717714D01*
X205685714Y-105779619D01*
X205742857Y-105903428D01*
X205800000Y-105965333D01*
X205914285Y-106027238D01*
X206142857Y-106027238D01*
X206257142Y-106089142D01*
X206314285Y-106151047D01*
X206371428Y-106274857D01*
X206371428Y-106522476D01*
X206314285Y-106646285D01*
X206257142Y-106708190D01*
X206142857Y-106770095D01*
X205914285Y-106770095D01*
X205800000Y-106708190D01*
X205742857Y-106646285D01*
X205685714Y-106522476D01*
X205685714Y-106274857D01*
X205742857Y-106151047D01*
X205800000Y-106089142D01*
X205914285Y-106027238D01*
X204600000Y-105470095D02*
X205171428Y-105470095D01*
X205228571Y-106089142D01*
X205171428Y-106027238D01*
X205057142Y-105965333D01*
X204771428Y-105965333D01*
X204657142Y-106027238D01*
X204600000Y-106089142D01*
X204542857Y-106212952D01*
X204542857Y-106522476D01*
X204600000Y-106646285D01*
X204657142Y-106708190D01*
X204771428Y-106770095D01*
X205057142Y-106770095D01*
X205171428Y-106708190D01*
X205228571Y-106646285D01*
X204028571Y-106274857D02*
X203114285Y-106274857D01*
X202142857Y-106089142D02*
X201971428Y-106151047D01*
X201914285Y-106212952D01*
X201857142Y-106336761D01*
X201857142Y-106522476D01*
X201914285Y-106646285D01*
X201971428Y-106708190D01*
X202085714Y-106770095D01*
X202542857Y-106770095D01*
X202542857Y-105470095D01*
X202142857Y-105470095D01*
X202028571Y-105532000D01*
X201971428Y-105593904D01*
X201914285Y-105717714D01*
X201914285Y-105841523D01*
X201971428Y-105965333D01*
X202028571Y-106027238D01*
X202142857Y-106089142D01*
X202542857Y-106089142D01*
X201400000Y-106708190D02*
X201228571Y-106770095D01*
X200942857Y-106770095D01*
X200828571Y-106708190D01*
X200771428Y-106646285D01*
X200714285Y-106522476D01*
X200714285Y-106398666D01*
X200771428Y-106274857D01*
X200828571Y-106212952D01*
X200942857Y-106151047D01*
X201171428Y-106089142D01*
X201285714Y-106027238D01*
X201342857Y-105965333D01*
X201400000Y-105841523D01*
X201400000Y-105717714D01*
X201342857Y-105593904D01*
X201285714Y-105532000D01*
X201171428Y-105470095D01*
X200885714Y-105470095D01*
X200714285Y-105532000D01*
X200200000Y-106089142D02*
X199800000Y-106089142D01*
X199628571Y-106770095D02*
X200200000Y-106770095D01*
X200200000Y-105470095D01*
X199628571Y-105470095D01*
X199114285Y-106274857D02*
X198200000Y-106274857D01*
X197628571Y-105470095D02*
X197628571Y-106522476D01*
X197571428Y-106646285D01*
X197514285Y-106708190D01*
X197400000Y-106770095D01*
X197171428Y-106770095D01*
X197057142Y-106708190D01*
X197000000Y-106646285D01*
X196942857Y-106522476D01*
X196942857Y-105470095D01*
X196428571Y-106708190D02*
X196257142Y-106770095D01*
X195971428Y-106770095D01*
X195857142Y-106708190D01*
X195800000Y-106646285D01*
X195742857Y-106522476D01*
X195742857Y-106398666D01*
X195800000Y-106274857D01*
X195857142Y-106212952D01*
X195971428Y-106151047D01*
X196200000Y-106089142D01*
X196314285Y-106027238D01*
X196371428Y-105965333D01*
X196428571Y-105841523D01*
X196428571Y-105717714D01*
X196371428Y-105593904D01*
X196314285Y-105532000D01*
X196200000Y-105470095D01*
X195914285Y-105470095D01*
X195742857Y-105532000D01*
X194828571Y-106089142D02*
X194657142Y-106151047D01*
X194600000Y-106212952D01*
X194542857Y-106336761D01*
X194542857Y-106522476D01*
X194600000Y-106646285D01*
X194657142Y-106708190D01*
X194771428Y-106770095D01*
X195228571Y-106770095D01*
X195228571Y-105470095D01*
X194828571Y-105470095D01*
X194714285Y-105532000D01*
X194657142Y-105593904D01*
X194600000Y-105717714D01*
X194600000Y-105841523D01*
X194657142Y-105965333D01*
X194714285Y-106027238D01*
X194828571Y-106089142D01*
X195228571Y-106089142D01*
X208571428Y-108863095D02*
X208571428Y-107563095D01*
X208285714Y-107563095D01*
X208114285Y-107625000D01*
X208000000Y-107748809D01*
X207942857Y-107872619D01*
X207885714Y-108120238D01*
X207885714Y-108305952D01*
X207942857Y-108553571D01*
X208000000Y-108677380D01*
X208114285Y-108801190D01*
X208285714Y-108863095D01*
X208571428Y-108863095D01*
X206914285Y-108801190D02*
X207028571Y-108863095D01*
X207257142Y-108863095D01*
X207371428Y-108801190D01*
X207428571Y-108677380D01*
X207428571Y-108182142D01*
X207371428Y-108058333D01*
X207257142Y-107996428D01*
X207028571Y-107996428D01*
X206914285Y-108058333D01*
X206857142Y-108182142D01*
X206857142Y-108305952D01*
X207428571Y-108429761D01*
X206457142Y-107996428D02*
X206171428Y-108863095D01*
X205885714Y-107996428D01*
X205428571Y-108739285D02*
X205371428Y-108801190D01*
X205428571Y-108863095D01*
X205485714Y-108801190D01*
X205428571Y-108739285D01*
X205428571Y-108863095D01*
X203942857Y-108863095D02*
X203942857Y-107563095D01*
X203542857Y-108491666D01*
X203142857Y-107563095D01*
X203142857Y-108863095D01*
X202400000Y-108863095D02*
X202514285Y-108801190D01*
X202571428Y-108739285D01*
X202628571Y-108615476D01*
X202628571Y-108244047D01*
X202571428Y-108120238D01*
X202514285Y-108058333D01*
X202400000Y-107996428D01*
X202228571Y-107996428D01*
X202114285Y-108058333D01*
X202057142Y-108120238D01*
X202000000Y-108244047D01*
X202000000Y-108615476D01*
X202057142Y-108739285D01*
X202114285Y-108801190D01*
X202228571Y-108863095D01*
X202400000Y-108863095D01*
X200971428Y-108863095D02*
X200971428Y-107563095D01*
X200971428Y-108801190D02*
X201085714Y-108863095D01*
X201314285Y-108863095D01*
X201428571Y-108801190D01*
X201485714Y-108739285D01*
X201542857Y-108615476D01*
X201542857Y-108244047D01*
X201485714Y-108120238D01*
X201428571Y-108058333D01*
X201314285Y-107996428D01*
X201085714Y-107996428D01*
X200971428Y-108058333D01*
X199885714Y-107996428D02*
X199885714Y-108863095D01*
X200400000Y-107996428D02*
X200400000Y-108677380D01*
X200342857Y-108801190D01*
X200228571Y-108863095D01*
X200057142Y-108863095D01*
X199942857Y-108801190D01*
X199885714Y-108739285D01*
X199142857Y-108863095D02*
X199257142Y-108801190D01*
X199314285Y-108677380D01*
X199314285Y-107563095D01*
X198228571Y-108801190D02*
X198342857Y-108863095D01*
X198571428Y-108863095D01*
X198685714Y-108801190D01*
X198742857Y-108677380D01*
X198742857Y-108182142D01*
X198685714Y-108058333D01*
X198571428Y-107996428D01*
X198342857Y-107996428D01*
X198228571Y-108058333D01*
X198171428Y-108182142D01*
X198171428Y-108305952D01*
X198742857Y-108429761D01*
X205257142Y-110956095D02*
X205657142Y-110337047D01*
X205942857Y-110956095D02*
X205942857Y-109656095D01*
X205485714Y-109656095D01*
X205371428Y-109718000D01*
X205314285Y-109779904D01*
X205257142Y-109903714D01*
X205257142Y-110089428D01*
X205314285Y-110213238D01*
X205371428Y-110275142D01*
X205485714Y-110337047D01*
X205942857Y-110337047D01*
X204285714Y-110894190D02*
X204400000Y-110956095D01*
X204628571Y-110956095D01*
X204742857Y-110894190D01*
X204800000Y-110770380D01*
X204800000Y-110275142D01*
X204742857Y-110151333D01*
X204628571Y-110089428D01*
X204400000Y-110089428D01*
X204285714Y-110151333D01*
X204228571Y-110275142D01*
X204228571Y-110398952D01*
X204800000Y-110522761D01*
X203828571Y-110089428D02*
X203542857Y-110956095D01*
X203257142Y-110089428D01*
X202800000Y-110832285D02*
X202742857Y-110894190D01*
X202800000Y-110956095D01*
X202857142Y-110894190D01*
X202800000Y-110832285D01*
X202800000Y-110956095D01*
X201371428Y-110584666D02*
X200800000Y-110584666D01*
X201485714Y-110956095D02*
X201085714Y-109656095D01*
X200685714Y-110956095D01*
D12*
%TO.C,R29*%
X202678555Y-98054428D02*
X202878555Y-97768714D01*
X203021412Y-98054428D02*
X203021412Y-97454428D01*
X202792841Y-97454428D01*
X202735698Y-97483000D01*
X202707126Y-97511571D01*
X202678555Y-97568714D01*
X202678555Y-97654428D01*
X202707126Y-97711571D01*
X202735698Y-97740142D01*
X202792841Y-97768714D01*
X203021412Y-97768714D01*
X202449983Y-97511571D02*
X202421412Y-97483000D01*
X202364269Y-97454428D01*
X202221412Y-97454428D01*
X202164269Y-97483000D01*
X202135698Y-97511571D01*
X202107126Y-97568714D01*
X202107126Y-97625857D01*
X202135698Y-97711571D01*
X202478555Y-98054428D01*
X202107126Y-98054428D01*
X201821412Y-98054428D02*
X201707126Y-98054428D01*
X201649983Y-98025857D01*
X201621412Y-97997285D01*
X201564269Y-97911571D01*
X201535698Y-97797285D01*
X201535698Y-97568714D01*
X201564269Y-97511571D01*
X201592841Y-97483000D01*
X201649983Y-97454428D01*
X201764269Y-97454428D01*
X201821412Y-97483000D01*
X201849983Y-97511571D01*
X201878555Y-97568714D01*
X201878555Y-97711571D01*
X201849983Y-97768714D01*
X201821412Y-97797285D01*
X201764269Y-97825857D01*
X201649983Y-97825857D01*
X201592841Y-97797285D01*
X201564269Y-97768714D01*
X201535698Y-97711571D01*
%TO.C,C12*%
X211278555Y-93597285D02*
X211307126Y-93625857D01*
X211392841Y-93654428D01*
X211449983Y-93654428D01*
X211535698Y-93625857D01*
X211592841Y-93568714D01*
X211621412Y-93511571D01*
X211649983Y-93397285D01*
X211649983Y-93311571D01*
X211621412Y-93197285D01*
X211592841Y-93140142D01*
X211535698Y-93083000D01*
X211449983Y-93054428D01*
X211392841Y-93054428D01*
X211307126Y-93083000D01*
X211278555Y-93111571D01*
X210707126Y-93654428D02*
X211049983Y-93654428D01*
X210878555Y-93654428D02*
X210878555Y-93054428D01*
X210935698Y-93140142D01*
X210992841Y-93197285D01*
X211049983Y-93225857D01*
X210478555Y-93111571D02*
X210449983Y-93083000D01*
X210392841Y-93054428D01*
X210249983Y-93054428D01*
X210192841Y-93083000D01*
X210164269Y-93111571D01*
X210135698Y-93168714D01*
X210135698Y-93225857D01*
X210164269Y-93311571D01*
X210507126Y-93654428D01*
X210135698Y-93654428D01*
%TO.C,C43*%
X194207126Y-93697285D02*
X194235698Y-93668714D01*
X194264269Y-93583000D01*
X194264269Y-93525857D01*
X194235698Y-93440142D01*
X194178555Y-93383000D01*
X194121412Y-93354428D01*
X194007126Y-93325857D01*
X193921412Y-93325857D01*
X193807126Y-93354428D01*
X193749983Y-93383000D01*
X193692841Y-93440142D01*
X193664269Y-93525857D01*
X193664269Y-93583000D01*
X193692841Y-93668714D01*
X193721412Y-93697285D01*
X193864269Y-94211571D02*
X194264269Y-94211571D01*
X193635698Y-94068714D02*
X194064269Y-93925857D01*
X194064269Y-94297285D01*
X193664269Y-94468714D02*
X193664269Y-94840142D01*
X193892841Y-94640142D01*
X193892841Y-94725857D01*
X193921412Y-94783000D01*
X193949983Y-94811571D01*
X194007126Y-94840142D01*
X194149983Y-94840142D01*
X194207126Y-94811571D01*
X194235698Y-94783000D01*
X194264269Y-94725857D01*
X194264269Y-94554428D01*
X194235698Y-94497285D01*
X194207126Y-94468714D01*
%TO.C,C111*%
X206507126Y-71361571D02*
X206535698Y-71333000D01*
X206564269Y-71247285D01*
X206564269Y-71190142D01*
X206535698Y-71104428D01*
X206478555Y-71047285D01*
X206421412Y-71018714D01*
X206307126Y-70990142D01*
X206221412Y-70990142D01*
X206107126Y-71018714D01*
X206049983Y-71047285D01*
X205992841Y-71104428D01*
X205964269Y-71190142D01*
X205964269Y-71247285D01*
X205992841Y-71333000D01*
X206021412Y-71361571D01*
X206564269Y-71933000D02*
X206564269Y-71590142D01*
X206564269Y-71761571D02*
X205964269Y-71761571D01*
X206049983Y-71704428D01*
X206107126Y-71647285D01*
X206135698Y-71590142D01*
X206564269Y-72504428D02*
X206564269Y-72161571D01*
X206564269Y-72333000D02*
X205964269Y-72333000D01*
X206049983Y-72275857D01*
X206107126Y-72218714D01*
X206135698Y-72161571D01*
X206564269Y-73075857D02*
X206564269Y-72733000D01*
X206564269Y-72904428D02*
X205964269Y-72904428D01*
X206049983Y-72847285D01*
X206107126Y-72790142D01*
X206135698Y-72733000D01*
%TO.C,R13*%
X209764269Y-55997285D02*
X209478555Y-55797285D01*
X209764269Y-55654428D02*
X209164269Y-55654428D01*
X209164269Y-55883000D01*
X209192841Y-55940142D01*
X209221412Y-55968714D01*
X209278555Y-55997285D01*
X209364269Y-55997285D01*
X209421412Y-55968714D01*
X209449983Y-55940142D01*
X209478555Y-55883000D01*
X209478555Y-55654428D01*
X209764269Y-56568714D02*
X209764269Y-56225857D01*
X209764269Y-56397285D02*
X209164269Y-56397285D01*
X209249983Y-56340142D01*
X209307126Y-56283000D01*
X209335698Y-56225857D01*
X209164269Y-56768714D02*
X209164269Y-57140142D01*
X209392841Y-56940142D01*
X209392841Y-57025857D01*
X209421412Y-57083000D01*
X209449983Y-57111571D01*
X209507126Y-57140142D01*
X209649983Y-57140142D01*
X209707126Y-57111571D01*
X209735698Y-57083000D01*
X209764269Y-57025857D01*
X209764269Y-56854428D01*
X209735698Y-56797285D01*
X209707126Y-56768714D01*
%TO.C,R8*%
X203492841Y-123404428D02*
X203692841Y-123118714D01*
X203835698Y-123404428D02*
X203835698Y-122804428D01*
X203607126Y-122804428D01*
X203549983Y-122833000D01*
X203521412Y-122861571D01*
X203492841Y-122918714D01*
X203492841Y-123004428D01*
X203521412Y-123061571D01*
X203549983Y-123090142D01*
X203607126Y-123118714D01*
X203835698Y-123118714D01*
X203149983Y-123061571D02*
X203207126Y-123033000D01*
X203235698Y-123004428D01*
X203264269Y-122947285D01*
X203264269Y-122918714D01*
X203235698Y-122861571D01*
X203207126Y-122833000D01*
X203149983Y-122804428D01*
X203035698Y-122804428D01*
X202978555Y-122833000D01*
X202949983Y-122861571D01*
X202921412Y-122918714D01*
X202921412Y-122947285D01*
X202949983Y-123004428D01*
X202978555Y-123033000D01*
X203035698Y-123061571D01*
X203149983Y-123061571D01*
X203207126Y-123090142D01*
X203235698Y-123118714D01*
X203264269Y-123175857D01*
X203264269Y-123290142D01*
X203235698Y-123347285D01*
X203207126Y-123375857D01*
X203149983Y-123404428D01*
X203035698Y-123404428D01*
X202978555Y-123375857D01*
X202949983Y-123347285D01*
X202921412Y-123290142D01*
X202921412Y-123175857D01*
X202949983Y-123118714D01*
X202978555Y-123090142D01*
X203035698Y-123061571D01*
%TO.C,C107*%
X216257126Y-80511571D02*
X216285698Y-80483000D01*
X216314269Y-80397285D01*
X216314269Y-80340142D01*
X216285698Y-80254428D01*
X216228555Y-80197285D01*
X216171412Y-80168714D01*
X216057126Y-80140142D01*
X215971412Y-80140142D01*
X215857126Y-80168714D01*
X215799983Y-80197285D01*
X215742841Y-80254428D01*
X215714269Y-80340142D01*
X215714269Y-80397285D01*
X215742841Y-80483000D01*
X215771412Y-80511571D01*
X216314269Y-81083000D02*
X216314269Y-80740142D01*
X216314269Y-80911571D02*
X215714269Y-80911571D01*
X215799983Y-80854428D01*
X215857126Y-80797285D01*
X215885698Y-80740142D01*
X215714269Y-81454428D02*
X215714269Y-81511571D01*
X215742841Y-81568714D01*
X215771412Y-81597285D01*
X215828555Y-81625857D01*
X215942841Y-81654428D01*
X216085698Y-81654428D01*
X216199983Y-81625857D01*
X216257126Y-81597285D01*
X216285698Y-81568714D01*
X216314269Y-81511571D01*
X216314269Y-81454428D01*
X216285698Y-81397285D01*
X216257126Y-81368714D01*
X216199983Y-81340142D01*
X216085698Y-81311571D01*
X215942841Y-81311571D01*
X215828555Y-81340142D01*
X215771412Y-81368714D01*
X215742841Y-81397285D01*
X215714269Y-81454428D01*
X215714269Y-81854428D02*
X215714269Y-82254428D01*
X216314269Y-81997285D01*
%TO.C,C96*%
X212878555Y-80147285D02*
X212907126Y-80175857D01*
X212992841Y-80204428D01*
X213049983Y-80204428D01*
X213135698Y-80175857D01*
X213192841Y-80118714D01*
X213221412Y-80061571D01*
X213249983Y-79947285D01*
X213249983Y-79861571D01*
X213221412Y-79747285D01*
X213192841Y-79690142D01*
X213135698Y-79633000D01*
X213049983Y-79604428D01*
X212992841Y-79604428D01*
X212907126Y-79633000D01*
X212878555Y-79661571D01*
X212592841Y-80204428D02*
X212478555Y-80204428D01*
X212421412Y-80175857D01*
X212392841Y-80147285D01*
X212335698Y-80061571D01*
X212307126Y-79947285D01*
X212307126Y-79718714D01*
X212335698Y-79661571D01*
X212364269Y-79633000D01*
X212421412Y-79604428D01*
X212535698Y-79604428D01*
X212592841Y-79633000D01*
X212621412Y-79661571D01*
X212649983Y-79718714D01*
X212649983Y-79861571D01*
X212621412Y-79918714D01*
X212592841Y-79947285D01*
X212535698Y-79975857D01*
X212421412Y-79975857D01*
X212364269Y-79947285D01*
X212335698Y-79918714D01*
X212307126Y-79861571D01*
X211792841Y-79604428D02*
X211907126Y-79604428D01*
X211964269Y-79633000D01*
X211992841Y-79661571D01*
X212049983Y-79747285D01*
X212078555Y-79861571D01*
X212078555Y-80090142D01*
X212049983Y-80147285D01*
X212021412Y-80175857D01*
X211964269Y-80204428D01*
X211849983Y-80204428D01*
X211792841Y-80175857D01*
X211764269Y-80147285D01*
X211735698Y-80090142D01*
X211735698Y-79947285D01*
X211764269Y-79890142D01*
X211792841Y-79861571D01*
X211849983Y-79833000D01*
X211964269Y-79833000D01*
X212021412Y-79861571D01*
X212049983Y-79890142D01*
X212078555Y-79947285D01*
%TO.C,C131*%
X222164269Y-110447285D02*
X222192841Y-110475857D01*
X222278555Y-110504428D01*
X222335698Y-110504428D01*
X222421412Y-110475857D01*
X222478555Y-110418714D01*
X222507126Y-110361571D01*
X222535698Y-110247285D01*
X222535698Y-110161571D01*
X222507126Y-110047285D01*
X222478555Y-109990142D01*
X222421412Y-109933000D01*
X222335698Y-109904428D01*
X222278555Y-109904428D01*
X222192841Y-109933000D01*
X222164269Y-109961571D01*
X221592841Y-110504428D02*
X221935698Y-110504428D01*
X221764269Y-110504428D02*
X221764269Y-109904428D01*
X221821412Y-109990142D01*
X221878555Y-110047285D01*
X221935698Y-110075857D01*
X221392841Y-109904428D02*
X221021412Y-109904428D01*
X221221412Y-110133000D01*
X221135698Y-110133000D01*
X221078555Y-110161571D01*
X221049983Y-110190142D01*
X221021412Y-110247285D01*
X221021412Y-110390142D01*
X221049983Y-110447285D01*
X221078555Y-110475857D01*
X221135698Y-110504428D01*
X221307126Y-110504428D01*
X221364269Y-110475857D01*
X221392841Y-110447285D01*
X220449983Y-110504428D02*
X220792841Y-110504428D01*
X220621412Y-110504428D02*
X220621412Y-109904428D01*
X220678555Y-109990142D01*
X220735698Y-110047285D01*
X220792841Y-110075857D01*
%TO.C,C17*%
X212028555Y-87097285D02*
X212057126Y-87125857D01*
X212142841Y-87154428D01*
X212199983Y-87154428D01*
X212285698Y-87125857D01*
X212342841Y-87068714D01*
X212371412Y-87011571D01*
X212399983Y-86897285D01*
X212399983Y-86811571D01*
X212371412Y-86697285D01*
X212342841Y-86640142D01*
X212285698Y-86583000D01*
X212199983Y-86554428D01*
X212142841Y-86554428D01*
X212057126Y-86583000D01*
X212028555Y-86611571D01*
X211457126Y-87154428D02*
X211799983Y-87154428D01*
X211628555Y-87154428D02*
X211628555Y-86554428D01*
X211685698Y-86640142D01*
X211742841Y-86697285D01*
X211799983Y-86725857D01*
X211257126Y-86554428D02*
X210857126Y-86554428D01*
X211114269Y-87154428D01*
%TO.C,C110*%
X209364269Y-70497285D02*
X209392841Y-70525857D01*
X209478555Y-70554428D01*
X209535698Y-70554428D01*
X209621412Y-70525857D01*
X209678555Y-70468714D01*
X209707126Y-70411571D01*
X209735698Y-70297285D01*
X209735698Y-70211571D01*
X209707126Y-70097285D01*
X209678555Y-70040142D01*
X209621412Y-69983000D01*
X209535698Y-69954428D01*
X209478555Y-69954428D01*
X209392841Y-69983000D01*
X209364269Y-70011571D01*
X208792841Y-70554428D02*
X209135698Y-70554428D01*
X208964269Y-70554428D02*
X208964269Y-69954428D01*
X209021412Y-70040142D01*
X209078555Y-70097285D01*
X209135698Y-70125857D01*
X208221412Y-70554428D02*
X208564269Y-70554428D01*
X208392841Y-70554428D02*
X208392841Y-69954428D01*
X208449983Y-70040142D01*
X208507126Y-70097285D01*
X208564269Y-70125857D01*
X207849983Y-69954428D02*
X207792841Y-69954428D01*
X207735698Y-69983000D01*
X207707126Y-70011571D01*
X207678555Y-70068714D01*
X207649983Y-70183000D01*
X207649983Y-70325857D01*
X207678555Y-70440142D01*
X207707126Y-70497285D01*
X207735698Y-70525857D01*
X207792841Y-70554428D01*
X207849983Y-70554428D01*
X207907126Y-70525857D01*
X207935698Y-70497285D01*
X207964269Y-70440142D01*
X207992841Y-70325857D01*
X207992841Y-70183000D01*
X207964269Y-70068714D01*
X207935698Y-70011571D01*
X207907126Y-69983000D01*
X207849983Y-69954428D01*
%TO.C,C54*%
X196207126Y-88947285D02*
X196235698Y-88918714D01*
X196264269Y-88833000D01*
X196264269Y-88775857D01*
X196235698Y-88690142D01*
X196178555Y-88633000D01*
X196121412Y-88604428D01*
X196007126Y-88575857D01*
X195921412Y-88575857D01*
X195807126Y-88604428D01*
X195749983Y-88633000D01*
X195692841Y-88690142D01*
X195664269Y-88775857D01*
X195664269Y-88833000D01*
X195692841Y-88918714D01*
X195721412Y-88947285D01*
X195664269Y-89490142D02*
X195664269Y-89204428D01*
X195949983Y-89175857D01*
X195921412Y-89204428D01*
X195892841Y-89261571D01*
X195892841Y-89404428D01*
X195921412Y-89461571D01*
X195949983Y-89490142D01*
X196007126Y-89518714D01*
X196149983Y-89518714D01*
X196207126Y-89490142D01*
X196235698Y-89461571D01*
X196264269Y-89404428D01*
X196264269Y-89261571D01*
X196235698Y-89204428D01*
X196207126Y-89175857D01*
X195864269Y-90033000D02*
X196264269Y-90033000D01*
X195635698Y-89890142D02*
X196064269Y-89747285D01*
X196064269Y-90118714D01*
%TO.C,C101*%
X214057126Y-76111571D02*
X214085698Y-76083000D01*
X214114269Y-75997285D01*
X214114269Y-75940142D01*
X214085698Y-75854428D01*
X214028555Y-75797285D01*
X213971412Y-75768714D01*
X213857126Y-75740142D01*
X213771412Y-75740142D01*
X213657126Y-75768714D01*
X213599983Y-75797285D01*
X213542841Y-75854428D01*
X213514269Y-75940142D01*
X213514269Y-75997285D01*
X213542841Y-76083000D01*
X213571412Y-76111571D01*
X214114269Y-76683000D02*
X214114269Y-76340142D01*
X214114269Y-76511571D02*
X213514269Y-76511571D01*
X213599983Y-76454428D01*
X213657126Y-76397285D01*
X213685698Y-76340142D01*
X213514269Y-77054428D02*
X213514269Y-77111571D01*
X213542841Y-77168714D01*
X213571412Y-77197285D01*
X213628555Y-77225857D01*
X213742841Y-77254428D01*
X213885698Y-77254428D01*
X213999983Y-77225857D01*
X214057126Y-77197285D01*
X214085698Y-77168714D01*
X214114269Y-77111571D01*
X214114269Y-77054428D01*
X214085698Y-76997285D01*
X214057126Y-76968714D01*
X213999983Y-76940142D01*
X213885698Y-76911571D01*
X213742841Y-76911571D01*
X213628555Y-76940142D01*
X213571412Y-76968714D01*
X213542841Y-76997285D01*
X213514269Y-77054428D01*
X214114269Y-77825857D02*
X214114269Y-77483000D01*
X214114269Y-77654428D02*
X213514269Y-77654428D01*
X213599983Y-77597285D01*
X213657126Y-77540142D01*
X213685698Y-77483000D01*
%TO.C,R45*%
X201464269Y-64147285D02*
X201178555Y-63947285D01*
X201464269Y-63804428D02*
X200864269Y-63804428D01*
X200864269Y-64033000D01*
X200892841Y-64090142D01*
X200921412Y-64118714D01*
X200978555Y-64147285D01*
X201064269Y-64147285D01*
X201121412Y-64118714D01*
X201149983Y-64090142D01*
X201178555Y-64033000D01*
X201178555Y-63804428D01*
X201064269Y-64661571D02*
X201464269Y-64661571D01*
X200835698Y-64518714D02*
X201264269Y-64375857D01*
X201264269Y-64747285D01*
X200864269Y-65261571D02*
X200864269Y-64975857D01*
X201149983Y-64947285D01*
X201121412Y-64975857D01*
X201092841Y-65033000D01*
X201092841Y-65175857D01*
X201121412Y-65233000D01*
X201149983Y-65261571D01*
X201207126Y-65290142D01*
X201349983Y-65290142D01*
X201407126Y-65261571D01*
X201435698Y-65233000D01*
X201464269Y-65175857D01*
X201464269Y-65033000D01*
X201435698Y-64975857D01*
X201407126Y-64947285D01*
%TO.C,C100*%
X212864269Y-76947285D02*
X212892841Y-76975857D01*
X212978555Y-77004428D01*
X213035698Y-77004428D01*
X213121412Y-76975857D01*
X213178555Y-76918714D01*
X213207126Y-76861571D01*
X213235698Y-76747285D01*
X213235698Y-76661571D01*
X213207126Y-76547285D01*
X213178555Y-76490142D01*
X213121412Y-76433000D01*
X213035698Y-76404428D01*
X212978555Y-76404428D01*
X212892841Y-76433000D01*
X212864269Y-76461571D01*
X212292841Y-77004428D02*
X212635698Y-77004428D01*
X212464269Y-77004428D02*
X212464269Y-76404428D01*
X212521412Y-76490142D01*
X212578555Y-76547285D01*
X212635698Y-76575857D01*
X211921412Y-76404428D02*
X211864269Y-76404428D01*
X211807126Y-76433000D01*
X211778555Y-76461571D01*
X211749983Y-76518714D01*
X211721412Y-76633000D01*
X211721412Y-76775857D01*
X211749983Y-76890142D01*
X211778555Y-76947285D01*
X211807126Y-76975857D01*
X211864269Y-77004428D01*
X211921412Y-77004428D01*
X211978555Y-76975857D01*
X212007126Y-76947285D01*
X212035698Y-76890142D01*
X212064269Y-76775857D01*
X212064269Y-76633000D01*
X212035698Y-76518714D01*
X212007126Y-76461571D01*
X211978555Y-76433000D01*
X211921412Y-76404428D01*
X211349983Y-76404428D02*
X211292841Y-76404428D01*
X211235698Y-76433000D01*
X211207126Y-76461571D01*
X211178555Y-76518714D01*
X211149983Y-76633000D01*
X211149983Y-76775857D01*
X211178555Y-76890142D01*
X211207126Y-76947285D01*
X211235698Y-76975857D01*
X211292841Y-77004428D01*
X211349983Y-77004428D01*
X211407126Y-76975857D01*
X211435698Y-76947285D01*
X211464269Y-76890142D01*
X211492841Y-76775857D01*
X211492841Y-76633000D01*
X211464269Y-76518714D01*
X211435698Y-76461571D01*
X211407126Y-76433000D01*
X211349983Y-76404428D01*
%TO.C,R24*%
X211614269Y-95397285D02*
X211328555Y-95197285D01*
X211614269Y-95054428D02*
X211014269Y-95054428D01*
X211014269Y-95283000D01*
X211042841Y-95340142D01*
X211071412Y-95368714D01*
X211128555Y-95397285D01*
X211214269Y-95397285D01*
X211271412Y-95368714D01*
X211299983Y-95340142D01*
X211328555Y-95283000D01*
X211328555Y-95054428D01*
X211071412Y-95625857D02*
X211042841Y-95654428D01*
X211014269Y-95711571D01*
X211014269Y-95854428D01*
X211042841Y-95911571D01*
X211071412Y-95940142D01*
X211128555Y-95968714D01*
X211185698Y-95968714D01*
X211271412Y-95940142D01*
X211614269Y-95597285D01*
X211614269Y-95968714D01*
X211214269Y-96483000D02*
X211614269Y-96483000D01*
X210985698Y-96340142D02*
X211414269Y-96197285D01*
X211414269Y-96568714D01*
%TO.C,C36*%
X201828555Y-93547285D02*
X201857126Y-93575857D01*
X201942841Y-93604428D01*
X201999983Y-93604428D01*
X202085698Y-93575857D01*
X202142841Y-93518714D01*
X202171412Y-93461571D01*
X202199983Y-93347285D01*
X202199983Y-93261571D01*
X202171412Y-93147285D01*
X202142841Y-93090142D01*
X202085698Y-93033000D01*
X201999983Y-93004428D01*
X201942841Y-93004428D01*
X201857126Y-93033000D01*
X201828555Y-93061571D01*
X201628555Y-93004428D02*
X201257126Y-93004428D01*
X201457126Y-93233000D01*
X201371412Y-93233000D01*
X201314269Y-93261571D01*
X201285698Y-93290142D01*
X201257126Y-93347285D01*
X201257126Y-93490142D01*
X201285698Y-93547285D01*
X201314269Y-93575857D01*
X201371412Y-93604428D01*
X201542841Y-93604428D01*
X201599983Y-93575857D01*
X201628555Y-93547285D01*
X200742841Y-93004428D02*
X200857126Y-93004428D01*
X200914269Y-93033000D01*
X200942841Y-93061571D01*
X200999983Y-93147285D01*
X201028555Y-93261571D01*
X201028555Y-93490142D01*
X200999983Y-93547285D01*
X200971412Y-93575857D01*
X200914269Y-93604428D01*
X200799983Y-93604428D01*
X200742841Y-93575857D01*
X200714269Y-93547285D01*
X200685698Y-93490142D01*
X200685698Y-93347285D01*
X200714269Y-93290142D01*
X200742841Y-93261571D01*
X200799983Y-93233000D01*
X200914269Y-93233000D01*
X200971412Y-93261571D01*
X200999983Y-93290142D01*
X201028555Y-93347285D01*
%TO.C,C47*%
X195357126Y-93747285D02*
X195385698Y-93718714D01*
X195414269Y-93633000D01*
X195414269Y-93575857D01*
X195385698Y-93490142D01*
X195328555Y-93433000D01*
X195271412Y-93404428D01*
X195157126Y-93375857D01*
X195071412Y-93375857D01*
X194957126Y-93404428D01*
X194899983Y-93433000D01*
X194842841Y-93490142D01*
X194814269Y-93575857D01*
X194814269Y-93633000D01*
X194842841Y-93718714D01*
X194871412Y-93747285D01*
X195014269Y-94261571D02*
X195414269Y-94261571D01*
X194785698Y-94118714D02*
X195214269Y-93975857D01*
X195214269Y-94347285D01*
X194814269Y-94518714D02*
X194814269Y-94918714D01*
X195414269Y-94661571D01*
D10*
%TO.C,J2*%
X226333333Y-57127380D02*
X226333333Y-57841666D01*
X226380952Y-57984523D01*
X226476190Y-58079761D01*
X226619047Y-58127380D01*
X226714285Y-58127380D01*
X225904761Y-57222619D02*
X225857142Y-57175000D01*
X225761904Y-57127380D01*
X225523809Y-57127380D01*
X225428571Y-57175000D01*
X225380952Y-57222619D01*
X225333333Y-57317857D01*
X225333333Y-57413095D01*
X225380952Y-57555952D01*
X225952380Y-58127380D01*
X225333333Y-58127380D01*
D12*
%TO.C,R9*%
X214264269Y-55983000D02*
X213978555Y-55783000D01*
X214264269Y-55640142D02*
X213664269Y-55640142D01*
X213664269Y-55868714D01*
X213692841Y-55925857D01*
X213721412Y-55954428D01*
X213778555Y-55983000D01*
X213864269Y-55983000D01*
X213921412Y-55954428D01*
X213949983Y-55925857D01*
X213978555Y-55868714D01*
X213978555Y-55640142D01*
X214264269Y-56268714D02*
X214264269Y-56383000D01*
X214235698Y-56440142D01*
X214207126Y-56468714D01*
X214121412Y-56525857D01*
X214007126Y-56554428D01*
X213778555Y-56554428D01*
X213721412Y-56525857D01*
X213692841Y-56497285D01*
X213664269Y-56440142D01*
X213664269Y-56325857D01*
X213692841Y-56268714D01*
X213721412Y-56240142D01*
X213778555Y-56211571D01*
X213921412Y-56211571D01*
X213978555Y-56240142D01*
X214007126Y-56268714D01*
X214035698Y-56325857D01*
X214035698Y-56440142D01*
X214007126Y-56497285D01*
X213978555Y-56525857D01*
X213921412Y-56554428D01*
%TO.C,C30*%
X204678555Y-94047285D02*
X204707126Y-94075857D01*
X204792841Y-94104428D01*
X204849983Y-94104428D01*
X204935698Y-94075857D01*
X204992841Y-94018714D01*
X205021412Y-93961571D01*
X205049983Y-93847285D01*
X205049983Y-93761571D01*
X205021412Y-93647285D01*
X204992841Y-93590142D01*
X204935698Y-93533000D01*
X204849983Y-93504428D01*
X204792841Y-93504428D01*
X204707126Y-93533000D01*
X204678555Y-93561571D01*
X204478555Y-93504428D02*
X204107126Y-93504428D01*
X204307126Y-93733000D01*
X204221412Y-93733000D01*
X204164269Y-93761571D01*
X204135698Y-93790142D01*
X204107126Y-93847285D01*
X204107126Y-93990142D01*
X204135698Y-94047285D01*
X204164269Y-94075857D01*
X204221412Y-94104428D01*
X204392841Y-94104428D01*
X204449983Y-94075857D01*
X204478555Y-94047285D01*
X203735698Y-93504428D02*
X203678555Y-93504428D01*
X203621412Y-93533000D01*
X203592841Y-93561571D01*
X203564269Y-93618714D01*
X203535698Y-93733000D01*
X203535698Y-93875857D01*
X203564269Y-93990142D01*
X203592841Y-94047285D01*
X203621412Y-94075857D01*
X203678555Y-94104428D01*
X203735698Y-94104428D01*
X203792841Y-94075857D01*
X203821412Y-94047285D01*
X203849983Y-93990142D01*
X203878555Y-93875857D01*
X203878555Y-93733000D01*
X203849983Y-93618714D01*
X203821412Y-93561571D01*
X203792841Y-93533000D01*
X203735698Y-93504428D01*
%TO.C,R12*%
X211264269Y-55997285D02*
X210978555Y-55797285D01*
X211264269Y-55654428D02*
X210664269Y-55654428D01*
X210664269Y-55883000D01*
X210692841Y-55940142D01*
X210721412Y-55968714D01*
X210778555Y-55997285D01*
X210864269Y-55997285D01*
X210921412Y-55968714D01*
X210949983Y-55940142D01*
X210978555Y-55883000D01*
X210978555Y-55654428D01*
X211264269Y-56568714D02*
X211264269Y-56225857D01*
X211264269Y-56397285D02*
X210664269Y-56397285D01*
X210749983Y-56340142D01*
X210807126Y-56283000D01*
X210835698Y-56225857D01*
X210721412Y-56797285D02*
X210692841Y-56825857D01*
X210664269Y-56883000D01*
X210664269Y-57025857D01*
X210692841Y-57083000D01*
X210721412Y-57111571D01*
X210778555Y-57140142D01*
X210835698Y-57140142D01*
X210921412Y-57111571D01*
X211264269Y-56768714D01*
X211264269Y-57140142D01*
%TO.C,C7*%
X209742841Y-101697285D02*
X209771412Y-101725857D01*
X209857126Y-101754428D01*
X209914269Y-101754428D01*
X209999983Y-101725857D01*
X210057126Y-101668714D01*
X210085698Y-101611571D01*
X210114269Y-101497285D01*
X210114269Y-101411571D01*
X210085698Y-101297285D01*
X210057126Y-101240142D01*
X209999983Y-101183000D01*
X209914269Y-101154428D01*
X209857126Y-101154428D01*
X209771412Y-101183000D01*
X209742841Y-101211571D01*
X209542841Y-101154428D02*
X209142841Y-101154428D01*
X209399983Y-101754428D01*
%TO.C,C49*%
X196257126Y-93697285D02*
X196285698Y-93668714D01*
X196314269Y-93583000D01*
X196314269Y-93525857D01*
X196285698Y-93440142D01*
X196228555Y-93383000D01*
X196171412Y-93354428D01*
X196057126Y-93325857D01*
X195971412Y-93325857D01*
X195857126Y-93354428D01*
X195799983Y-93383000D01*
X195742841Y-93440142D01*
X195714269Y-93525857D01*
X195714269Y-93583000D01*
X195742841Y-93668714D01*
X195771412Y-93697285D01*
X195914269Y-94211571D02*
X196314269Y-94211571D01*
X195685698Y-94068714D02*
X196114269Y-93925857D01*
X196114269Y-94297285D01*
X196314269Y-94554428D02*
X196314269Y-94668714D01*
X196285698Y-94725857D01*
X196257126Y-94754428D01*
X196171412Y-94811571D01*
X196057126Y-94840142D01*
X195828555Y-94840142D01*
X195771412Y-94811571D01*
X195742841Y-94783000D01*
X195714269Y-94725857D01*
X195714269Y-94611571D01*
X195742841Y-94554428D01*
X195771412Y-94525857D01*
X195828555Y-94497285D01*
X195971412Y-94497285D01*
X196028555Y-94525857D01*
X196057126Y-94554428D01*
X196085698Y-94611571D01*
X196085698Y-94725857D01*
X196057126Y-94783000D01*
X196028555Y-94811571D01*
X195971412Y-94840142D01*
%TO.C,C41*%
X192778555Y-95597285D02*
X192807126Y-95625857D01*
X192892841Y-95654428D01*
X192949983Y-95654428D01*
X193035698Y-95625857D01*
X193092841Y-95568714D01*
X193121412Y-95511571D01*
X193149983Y-95397285D01*
X193149983Y-95311571D01*
X193121412Y-95197285D01*
X193092841Y-95140142D01*
X193035698Y-95083000D01*
X192949983Y-95054428D01*
X192892841Y-95054428D01*
X192807126Y-95083000D01*
X192778555Y-95111571D01*
X192264269Y-95254428D02*
X192264269Y-95654428D01*
X192407126Y-95025857D02*
X192549983Y-95454428D01*
X192178555Y-95454428D01*
X191635698Y-95654428D02*
X191978555Y-95654428D01*
X191807126Y-95654428D02*
X191807126Y-95054428D01*
X191864269Y-95140142D01*
X191921412Y-95197285D01*
X191978555Y-95225857D01*
%TO.C,C80*%
X218428555Y-76797285D02*
X218457126Y-76825857D01*
X218542841Y-76854428D01*
X218599983Y-76854428D01*
X218685698Y-76825857D01*
X218742841Y-76768714D01*
X218771412Y-76711571D01*
X218799983Y-76597285D01*
X218799983Y-76511571D01*
X218771412Y-76397285D01*
X218742841Y-76340142D01*
X218685698Y-76283000D01*
X218599983Y-76254428D01*
X218542841Y-76254428D01*
X218457126Y-76283000D01*
X218428555Y-76311571D01*
X218085698Y-76511571D02*
X218142841Y-76483000D01*
X218171412Y-76454428D01*
X218199983Y-76397285D01*
X218199983Y-76368714D01*
X218171412Y-76311571D01*
X218142841Y-76283000D01*
X218085698Y-76254428D01*
X217971412Y-76254428D01*
X217914269Y-76283000D01*
X217885698Y-76311571D01*
X217857126Y-76368714D01*
X217857126Y-76397285D01*
X217885698Y-76454428D01*
X217914269Y-76483000D01*
X217971412Y-76511571D01*
X218085698Y-76511571D01*
X218142841Y-76540142D01*
X218171412Y-76568714D01*
X218199983Y-76625857D01*
X218199983Y-76740142D01*
X218171412Y-76797285D01*
X218142841Y-76825857D01*
X218085698Y-76854428D01*
X217971412Y-76854428D01*
X217914269Y-76825857D01*
X217885698Y-76797285D01*
X217857126Y-76740142D01*
X217857126Y-76625857D01*
X217885698Y-76568714D01*
X217914269Y-76540142D01*
X217971412Y-76511571D01*
X217485698Y-76254428D02*
X217428555Y-76254428D01*
X217371412Y-76283000D01*
X217342841Y-76311571D01*
X217314269Y-76368714D01*
X217285698Y-76483000D01*
X217285698Y-76625857D01*
X217314269Y-76740142D01*
X217342841Y-76797285D01*
X217371412Y-76825857D01*
X217428555Y-76854428D01*
X217485698Y-76854428D01*
X217542841Y-76825857D01*
X217571412Y-76797285D01*
X217599983Y-76740142D01*
X217628555Y-76625857D01*
X217628555Y-76483000D01*
X217599983Y-76368714D01*
X217571412Y-76311571D01*
X217542841Y-76283000D01*
X217485698Y-76254428D01*
%TO.C,C35*%
X197257126Y-91797285D02*
X197285698Y-91768714D01*
X197314269Y-91683000D01*
X197314269Y-91625857D01*
X197285698Y-91540142D01*
X197228555Y-91483000D01*
X197171412Y-91454428D01*
X197057126Y-91425857D01*
X196971412Y-91425857D01*
X196857126Y-91454428D01*
X196799983Y-91483000D01*
X196742841Y-91540142D01*
X196714269Y-91625857D01*
X196714269Y-91683000D01*
X196742841Y-91768714D01*
X196771412Y-91797285D01*
X196714269Y-91997285D02*
X196714269Y-92368714D01*
X196942841Y-92168714D01*
X196942841Y-92254428D01*
X196971412Y-92311571D01*
X196999983Y-92340142D01*
X197057126Y-92368714D01*
X197199983Y-92368714D01*
X197257126Y-92340142D01*
X197285698Y-92311571D01*
X197314269Y-92254428D01*
X197314269Y-92083000D01*
X197285698Y-92025857D01*
X197257126Y-91997285D01*
X196714269Y-92911571D02*
X196714269Y-92625857D01*
X196999983Y-92597285D01*
X196971412Y-92625857D01*
X196942841Y-92683000D01*
X196942841Y-92825857D01*
X196971412Y-92883000D01*
X196999983Y-92911571D01*
X197057126Y-92940142D01*
X197199983Y-92940142D01*
X197257126Y-92911571D01*
X197285698Y-92883000D01*
X197314269Y-92825857D01*
X197314269Y-92683000D01*
X197285698Y-92625857D01*
X197257126Y-92597285D01*
%TO.C,C21*%
X219207126Y-93597285D02*
X219235698Y-93568714D01*
X219264269Y-93483000D01*
X219264269Y-93425857D01*
X219235698Y-93340142D01*
X219178555Y-93283000D01*
X219121412Y-93254428D01*
X219007126Y-93225857D01*
X218921412Y-93225857D01*
X218807126Y-93254428D01*
X218749983Y-93283000D01*
X218692841Y-93340142D01*
X218664269Y-93425857D01*
X218664269Y-93483000D01*
X218692841Y-93568714D01*
X218721412Y-93597285D01*
X218721412Y-93825857D02*
X218692841Y-93854428D01*
X218664269Y-93911571D01*
X218664269Y-94054428D01*
X218692841Y-94111571D01*
X218721412Y-94140142D01*
X218778555Y-94168714D01*
X218835698Y-94168714D01*
X218921412Y-94140142D01*
X219264269Y-93797285D01*
X219264269Y-94168714D01*
X219264269Y-94740142D02*
X219264269Y-94397285D01*
X219264269Y-94568714D02*
X218664269Y-94568714D01*
X218749983Y-94511571D01*
X218807126Y-94454428D01*
X218835698Y-94397285D01*
%TO.C,C15*%
X210978555Y-97547285D02*
X211007126Y-97575857D01*
X211092841Y-97604428D01*
X211149983Y-97604428D01*
X211235698Y-97575857D01*
X211292841Y-97518714D01*
X211321412Y-97461571D01*
X211349983Y-97347285D01*
X211349983Y-97261571D01*
X211321412Y-97147285D01*
X211292841Y-97090142D01*
X211235698Y-97033000D01*
X211149983Y-97004428D01*
X211092841Y-97004428D01*
X211007126Y-97033000D01*
X210978555Y-97061571D01*
X210407126Y-97604428D02*
X210749983Y-97604428D01*
X210578555Y-97604428D02*
X210578555Y-97004428D01*
X210635698Y-97090142D01*
X210692841Y-97147285D01*
X210749983Y-97175857D01*
X209864269Y-97004428D02*
X210149983Y-97004428D01*
X210178555Y-97290142D01*
X210149983Y-97261571D01*
X210092841Y-97233000D01*
X209949983Y-97233000D01*
X209892841Y-97261571D01*
X209864269Y-97290142D01*
X209835698Y-97347285D01*
X209835698Y-97490142D01*
X209864269Y-97547285D01*
X209892841Y-97575857D01*
X209949983Y-97604428D01*
X210092841Y-97604428D01*
X210149983Y-97575857D01*
X210178555Y-97547285D01*
%TO.C,C39*%
X199257126Y-96947285D02*
X199285698Y-96918714D01*
X199314269Y-96833000D01*
X199314269Y-96775857D01*
X199285698Y-96690142D01*
X199228555Y-96633000D01*
X199171412Y-96604428D01*
X199057126Y-96575857D01*
X198971412Y-96575857D01*
X198857126Y-96604428D01*
X198799983Y-96633000D01*
X198742841Y-96690142D01*
X198714269Y-96775857D01*
X198714269Y-96833000D01*
X198742841Y-96918714D01*
X198771412Y-96947285D01*
X198714269Y-97147285D02*
X198714269Y-97518714D01*
X198942841Y-97318714D01*
X198942841Y-97404428D01*
X198971412Y-97461571D01*
X198999983Y-97490142D01*
X199057126Y-97518714D01*
X199199983Y-97518714D01*
X199257126Y-97490142D01*
X199285698Y-97461571D01*
X199314269Y-97404428D01*
X199314269Y-97233000D01*
X199285698Y-97175857D01*
X199257126Y-97147285D01*
X199314269Y-97804428D02*
X199314269Y-97918714D01*
X199285698Y-97975857D01*
X199257126Y-98004428D01*
X199171412Y-98061571D01*
X199057126Y-98090142D01*
X198828555Y-98090142D01*
X198771412Y-98061571D01*
X198742841Y-98033000D01*
X198714269Y-97975857D01*
X198714269Y-97861571D01*
X198742841Y-97804428D01*
X198771412Y-97775857D01*
X198828555Y-97747285D01*
X198971412Y-97747285D01*
X199028555Y-97775857D01*
X199057126Y-97804428D01*
X199085698Y-97861571D01*
X199085698Y-97975857D01*
X199057126Y-98033000D01*
X199028555Y-98061571D01*
X198971412Y-98090142D01*
%TO.C,C112*%
X207507126Y-71311571D02*
X207535698Y-71283000D01*
X207564269Y-71197285D01*
X207564269Y-71140142D01*
X207535698Y-71054428D01*
X207478555Y-70997285D01*
X207421412Y-70968714D01*
X207307126Y-70940142D01*
X207221412Y-70940142D01*
X207107126Y-70968714D01*
X207049983Y-70997285D01*
X206992841Y-71054428D01*
X206964269Y-71140142D01*
X206964269Y-71197285D01*
X206992841Y-71283000D01*
X207021412Y-71311571D01*
X207564269Y-71883000D02*
X207564269Y-71540142D01*
X207564269Y-71711571D02*
X206964269Y-71711571D01*
X207049983Y-71654428D01*
X207107126Y-71597285D01*
X207135698Y-71540142D01*
X207564269Y-72454428D02*
X207564269Y-72111571D01*
X207564269Y-72283000D02*
X206964269Y-72283000D01*
X207049983Y-72225857D01*
X207107126Y-72168714D01*
X207135698Y-72111571D01*
X207021412Y-72683000D02*
X206992841Y-72711571D01*
X206964269Y-72768714D01*
X206964269Y-72911571D01*
X206992841Y-72968714D01*
X207021412Y-72997285D01*
X207078555Y-73025857D01*
X207135698Y-73025857D01*
X207221412Y-72997285D01*
X207564269Y-72654428D01*
X207564269Y-73025857D01*
%TO.C,C31*%
X213407126Y-94047285D02*
X213435698Y-94018714D01*
X213464269Y-93933000D01*
X213464269Y-93875857D01*
X213435698Y-93790142D01*
X213378555Y-93733000D01*
X213321412Y-93704428D01*
X213207126Y-93675857D01*
X213121412Y-93675857D01*
X213007126Y-93704428D01*
X212949983Y-93733000D01*
X212892841Y-93790142D01*
X212864269Y-93875857D01*
X212864269Y-93933000D01*
X212892841Y-94018714D01*
X212921412Y-94047285D01*
X212864269Y-94247285D02*
X212864269Y-94618714D01*
X213092841Y-94418714D01*
X213092841Y-94504428D01*
X213121412Y-94561571D01*
X213149983Y-94590142D01*
X213207126Y-94618714D01*
X213349983Y-94618714D01*
X213407126Y-94590142D01*
X213435698Y-94561571D01*
X213464269Y-94504428D01*
X213464269Y-94333000D01*
X213435698Y-94275857D01*
X213407126Y-94247285D01*
X213464269Y-95190142D02*
X213464269Y-94847285D01*
X213464269Y-95018714D02*
X212864269Y-95018714D01*
X212949983Y-94961571D01*
X213007126Y-94904428D01*
X213035698Y-94847285D01*
%TO.C,C65*%
X218857126Y-80697285D02*
X218885698Y-80668714D01*
X218914269Y-80583000D01*
X218914269Y-80525857D01*
X218885698Y-80440142D01*
X218828555Y-80383000D01*
X218771412Y-80354428D01*
X218657126Y-80325857D01*
X218571412Y-80325857D01*
X218457126Y-80354428D01*
X218399983Y-80383000D01*
X218342841Y-80440142D01*
X218314269Y-80525857D01*
X218314269Y-80583000D01*
X218342841Y-80668714D01*
X218371412Y-80697285D01*
X218314269Y-81211571D02*
X218314269Y-81097285D01*
X218342841Y-81040142D01*
X218371412Y-81011571D01*
X218457126Y-80954428D01*
X218571412Y-80925857D01*
X218799983Y-80925857D01*
X218857126Y-80954428D01*
X218885698Y-80983000D01*
X218914269Y-81040142D01*
X218914269Y-81154428D01*
X218885698Y-81211571D01*
X218857126Y-81240142D01*
X218799983Y-81268714D01*
X218657126Y-81268714D01*
X218599983Y-81240142D01*
X218571412Y-81211571D01*
X218542841Y-81154428D01*
X218542841Y-81040142D01*
X218571412Y-80983000D01*
X218599983Y-80954428D01*
X218657126Y-80925857D01*
X218314269Y-81811571D02*
X218314269Y-81525857D01*
X218599983Y-81497285D01*
X218571412Y-81525857D01*
X218542841Y-81583000D01*
X218542841Y-81725857D01*
X218571412Y-81783000D01*
X218599983Y-81811571D01*
X218657126Y-81840142D01*
X218799983Y-81840142D01*
X218857126Y-81811571D01*
X218885698Y-81783000D01*
X218914269Y-81725857D01*
X218914269Y-81583000D01*
X218885698Y-81525857D01*
X218857126Y-81497285D01*
%TO.C,C99*%
X212878555Y-78047285D02*
X212907126Y-78075857D01*
X212992841Y-78104428D01*
X213049983Y-78104428D01*
X213135698Y-78075857D01*
X213192841Y-78018714D01*
X213221412Y-77961571D01*
X213249983Y-77847285D01*
X213249983Y-77761571D01*
X213221412Y-77647285D01*
X213192841Y-77590142D01*
X213135698Y-77533000D01*
X213049983Y-77504428D01*
X212992841Y-77504428D01*
X212907126Y-77533000D01*
X212878555Y-77561571D01*
X212592841Y-78104428D02*
X212478555Y-78104428D01*
X212421412Y-78075857D01*
X212392841Y-78047285D01*
X212335698Y-77961571D01*
X212307126Y-77847285D01*
X212307126Y-77618714D01*
X212335698Y-77561571D01*
X212364269Y-77533000D01*
X212421412Y-77504428D01*
X212535698Y-77504428D01*
X212592841Y-77533000D01*
X212621412Y-77561571D01*
X212649983Y-77618714D01*
X212649983Y-77761571D01*
X212621412Y-77818714D01*
X212592841Y-77847285D01*
X212535698Y-77875857D01*
X212421412Y-77875857D01*
X212364269Y-77847285D01*
X212335698Y-77818714D01*
X212307126Y-77761571D01*
X212021412Y-78104428D02*
X211907126Y-78104428D01*
X211849983Y-78075857D01*
X211821412Y-78047285D01*
X211764269Y-77961571D01*
X211735698Y-77847285D01*
X211735698Y-77618714D01*
X211764269Y-77561571D01*
X211792841Y-77533000D01*
X211849983Y-77504428D01*
X211964269Y-77504428D01*
X212021412Y-77533000D01*
X212049983Y-77561571D01*
X212078555Y-77618714D01*
X212078555Y-77761571D01*
X212049983Y-77818714D01*
X212021412Y-77847285D01*
X211964269Y-77875857D01*
X211849983Y-77875857D01*
X211792841Y-77847285D01*
X211764269Y-77818714D01*
X211735698Y-77761571D01*
%TO.C,C53*%
X201228555Y-88647285D02*
X201257126Y-88675857D01*
X201342841Y-88704428D01*
X201399983Y-88704428D01*
X201485698Y-88675857D01*
X201542841Y-88618714D01*
X201571412Y-88561571D01*
X201599983Y-88447285D01*
X201599983Y-88361571D01*
X201571412Y-88247285D01*
X201542841Y-88190142D01*
X201485698Y-88133000D01*
X201399983Y-88104428D01*
X201342841Y-88104428D01*
X201257126Y-88133000D01*
X201228555Y-88161571D01*
X200685698Y-88104428D02*
X200971412Y-88104428D01*
X200999983Y-88390142D01*
X200971412Y-88361571D01*
X200914269Y-88333000D01*
X200771412Y-88333000D01*
X200714269Y-88361571D01*
X200685698Y-88390142D01*
X200657126Y-88447285D01*
X200657126Y-88590142D01*
X200685698Y-88647285D01*
X200714269Y-88675857D01*
X200771412Y-88704428D01*
X200914269Y-88704428D01*
X200971412Y-88675857D01*
X200999983Y-88647285D01*
X200457126Y-88104428D02*
X200085698Y-88104428D01*
X200285698Y-88333000D01*
X200199983Y-88333000D01*
X200142841Y-88361571D01*
X200114269Y-88390142D01*
X200085698Y-88447285D01*
X200085698Y-88590142D01*
X200114269Y-88647285D01*
X200142841Y-88675857D01*
X200199983Y-88704428D01*
X200371412Y-88704428D01*
X200428555Y-88675857D01*
X200457126Y-88647285D01*
%TO.C,C115*%
X220464269Y-76097285D02*
X220492841Y-76125857D01*
X220578555Y-76154428D01*
X220635698Y-76154428D01*
X220721412Y-76125857D01*
X220778555Y-76068714D01*
X220807126Y-76011571D01*
X220835698Y-75897285D01*
X220835698Y-75811571D01*
X220807126Y-75697285D01*
X220778555Y-75640142D01*
X220721412Y-75583000D01*
X220635698Y-75554428D01*
X220578555Y-75554428D01*
X220492841Y-75583000D01*
X220464269Y-75611571D01*
X219892841Y-76154428D02*
X220235698Y-76154428D01*
X220064269Y-76154428D02*
X220064269Y-75554428D01*
X220121412Y-75640142D01*
X220178555Y-75697285D01*
X220235698Y-75725857D01*
X219321412Y-76154428D02*
X219664269Y-76154428D01*
X219492841Y-76154428D02*
X219492841Y-75554428D01*
X219549983Y-75640142D01*
X219607126Y-75697285D01*
X219664269Y-75725857D01*
X218778555Y-75554428D02*
X219064269Y-75554428D01*
X219092841Y-75840142D01*
X219064269Y-75811571D01*
X219007126Y-75783000D01*
X218864269Y-75783000D01*
X218807126Y-75811571D01*
X218778555Y-75840142D01*
X218749983Y-75897285D01*
X218749983Y-76040142D01*
X218778555Y-76097285D01*
X218807126Y-76125857D01*
X218864269Y-76154428D01*
X219007126Y-76154428D01*
X219064269Y-76125857D01*
X219092841Y-76097285D01*
%TO.C,C72*%
X220328555Y-80297285D02*
X220357126Y-80325857D01*
X220442841Y-80354428D01*
X220499983Y-80354428D01*
X220585698Y-80325857D01*
X220642841Y-80268714D01*
X220671412Y-80211571D01*
X220699983Y-80097285D01*
X220699983Y-80011571D01*
X220671412Y-79897285D01*
X220642841Y-79840142D01*
X220585698Y-79783000D01*
X220499983Y-79754428D01*
X220442841Y-79754428D01*
X220357126Y-79783000D01*
X220328555Y-79811571D01*
X220128555Y-79754428D02*
X219728555Y-79754428D01*
X219985698Y-80354428D01*
X219528555Y-79811571D02*
X219499983Y-79783000D01*
X219442841Y-79754428D01*
X219299983Y-79754428D01*
X219242841Y-79783000D01*
X219214269Y-79811571D01*
X219185698Y-79868714D01*
X219185698Y-79925857D01*
X219214269Y-80011571D01*
X219557126Y-80354428D01*
X219185698Y-80354428D01*
%TO.C,C77*%
X218428555Y-78697285D02*
X218457126Y-78725857D01*
X218542841Y-78754428D01*
X218599983Y-78754428D01*
X218685698Y-78725857D01*
X218742841Y-78668714D01*
X218771412Y-78611571D01*
X218799983Y-78497285D01*
X218799983Y-78411571D01*
X218771412Y-78297285D01*
X218742841Y-78240142D01*
X218685698Y-78183000D01*
X218599983Y-78154428D01*
X218542841Y-78154428D01*
X218457126Y-78183000D01*
X218428555Y-78211571D01*
X218228555Y-78154428D02*
X217828555Y-78154428D01*
X218085698Y-78754428D01*
X217657126Y-78154428D02*
X217257126Y-78154428D01*
X217514269Y-78754428D01*
%TO.C,C69*%
X220328555Y-81247285D02*
X220357126Y-81275857D01*
X220442841Y-81304428D01*
X220499983Y-81304428D01*
X220585698Y-81275857D01*
X220642841Y-81218714D01*
X220671412Y-81161571D01*
X220699983Y-81047285D01*
X220699983Y-80961571D01*
X220671412Y-80847285D01*
X220642841Y-80790142D01*
X220585698Y-80733000D01*
X220499983Y-80704428D01*
X220442841Y-80704428D01*
X220357126Y-80733000D01*
X220328555Y-80761571D01*
X219814269Y-80704428D02*
X219928555Y-80704428D01*
X219985698Y-80733000D01*
X220014269Y-80761571D01*
X220071412Y-80847285D01*
X220099983Y-80961571D01*
X220099983Y-81190142D01*
X220071412Y-81247285D01*
X220042841Y-81275857D01*
X219985698Y-81304428D01*
X219871412Y-81304428D01*
X219814269Y-81275857D01*
X219785698Y-81247285D01*
X219757126Y-81190142D01*
X219757126Y-81047285D01*
X219785698Y-80990142D01*
X219814269Y-80961571D01*
X219871412Y-80933000D01*
X219985698Y-80933000D01*
X220042841Y-80961571D01*
X220071412Y-80990142D01*
X220099983Y-81047285D01*
X219471412Y-81304428D02*
X219357126Y-81304428D01*
X219299983Y-81275857D01*
X219271412Y-81247285D01*
X219214269Y-81161571D01*
X219185698Y-81047285D01*
X219185698Y-80818714D01*
X219214269Y-80761571D01*
X219242841Y-80733000D01*
X219299983Y-80704428D01*
X219414269Y-80704428D01*
X219471412Y-80733000D01*
X219499983Y-80761571D01*
X219528555Y-80818714D01*
X219528555Y-80961571D01*
X219499983Y-81018714D01*
X219471412Y-81047285D01*
X219414269Y-81075857D01*
X219299983Y-81075857D01*
X219242841Y-81047285D01*
X219214269Y-81018714D01*
X219185698Y-80961571D01*
%TO.C,R47*%
X213764269Y-68397285D02*
X213478555Y-68197285D01*
X213764269Y-68054428D02*
X213164269Y-68054428D01*
X213164269Y-68283000D01*
X213192841Y-68340142D01*
X213221412Y-68368714D01*
X213278555Y-68397285D01*
X213364269Y-68397285D01*
X213421412Y-68368714D01*
X213449983Y-68340142D01*
X213478555Y-68283000D01*
X213478555Y-68054428D01*
X213364269Y-68911571D02*
X213764269Y-68911571D01*
X213135698Y-68768714D02*
X213564269Y-68625857D01*
X213564269Y-68997285D01*
X213164269Y-69168714D02*
X213164269Y-69568714D01*
X213764269Y-69311571D01*
%TO.C,C42*%
X203778555Y-95397285D02*
X203807126Y-95425857D01*
X203892841Y-95454428D01*
X203949983Y-95454428D01*
X204035698Y-95425857D01*
X204092841Y-95368714D01*
X204121412Y-95311571D01*
X204149983Y-95197285D01*
X204149983Y-95111571D01*
X204121412Y-94997285D01*
X204092841Y-94940142D01*
X204035698Y-94883000D01*
X203949983Y-94854428D01*
X203892841Y-94854428D01*
X203807126Y-94883000D01*
X203778555Y-94911571D01*
X203264269Y-95054428D02*
X203264269Y-95454428D01*
X203407126Y-94825857D02*
X203549983Y-95254428D01*
X203178555Y-95254428D01*
X202978555Y-94911571D02*
X202949983Y-94883000D01*
X202892841Y-94854428D01*
X202749983Y-94854428D01*
X202692841Y-94883000D01*
X202664269Y-94911571D01*
X202635698Y-94968714D01*
X202635698Y-95025857D01*
X202664269Y-95111571D01*
X203007126Y-95454428D01*
X202635698Y-95454428D01*
%TO.C,L1*%
X211242841Y-103804428D02*
X211528555Y-103804428D01*
X211528555Y-103204428D01*
X210728555Y-103804428D02*
X211071412Y-103804428D01*
X210899983Y-103804428D02*
X210899983Y-103204428D01*
X210957126Y-103290142D01*
X211014269Y-103347285D01*
X211071412Y-103375857D01*
%TO.C,C88*%
X203507126Y-71197285D02*
X203535698Y-71168714D01*
X203564269Y-71083000D01*
X203564269Y-71025857D01*
X203535698Y-70940142D01*
X203478555Y-70883000D01*
X203421412Y-70854428D01*
X203307126Y-70825857D01*
X203221412Y-70825857D01*
X203107126Y-70854428D01*
X203049983Y-70883000D01*
X202992841Y-70940142D01*
X202964269Y-71025857D01*
X202964269Y-71083000D01*
X202992841Y-71168714D01*
X203021412Y-71197285D01*
X203221412Y-71540142D02*
X203192841Y-71483000D01*
X203164269Y-71454428D01*
X203107126Y-71425857D01*
X203078555Y-71425857D01*
X203021412Y-71454428D01*
X202992841Y-71483000D01*
X202964269Y-71540142D01*
X202964269Y-71654428D01*
X202992841Y-71711571D01*
X203021412Y-71740142D01*
X203078555Y-71768714D01*
X203107126Y-71768714D01*
X203164269Y-71740142D01*
X203192841Y-71711571D01*
X203221412Y-71654428D01*
X203221412Y-71540142D01*
X203249983Y-71483000D01*
X203278555Y-71454428D01*
X203335698Y-71425857D01*
X203449983Y-71425857D01*
X203507126Y-71454428D01*
X203535698Y-71483000D01*
X203564269Y-71540142D01*
X203564269Y-71654428D01*
X203535698Y-71711571D01*
X203507126Y-71740142D01*
X203449983Y-71768714D01*
X203335698Y-71768714D01*
X203278555Y-71740142D01*
X203249983Y-71711571D01*
X203221412Y-71654428D01*
X203221412Y-72111571D02*
X203192841Y-72054428D01*
X203164269Y-72025857D01*
X203107126Y-71997285D01*
X203078555Y-71997285D01*
X203021412Y-72025857D01*
X202992841Y-72054428D01*
X202964269Y-72111571D01*
X202964269Y-72225857D01*
X202992841Y-72283000D01*
X203021412Y-72311571D01*
X203078555Y-72340142D01*
X203107126Y-72340142D01*
X203164269Y-72311571D01*
X203192841Y-72283000D01*
X203221412Y-72225857D01*
X203221412Y-72111571D01*
X203249983Y-72054428D01*
X203278555Y-72025857D01*
X203335698Y-71997285D01*
X203449983Y-71997285D01*
X203507126Y-72025857D01*
X203535698Y-72054428D01*
X203564269Y-72111571D01*
X203564269Y-72225857D01*
X203535698Y-72283000D01*
X203507126Y-72311571D01*
X203449983Y-72340142D01*
X203335698Y-72340142D01*
X203278555Y-72311571D01*
X203249983Y-72283000D01*
X203221412Y-72225857D01*
%TO.C,C89*%
X220328555Y-82147285D02*
X220357126Y-82175857D01*
X220442841Y-82204428D01*
X220499983Y-82204428D01*
X220585698Y-82175857D01*
X220642841Y-82118714D01*
X220671412Y-82061571D01*
X220699983Y-81947285D01*
X220699983Y-81861571D01*
X220671412Y-81747285D01*
X220642841Y-81690142D01*
X220585698Y-81633000D01*
X220499983Y-81604428D01*
X220442841Y-81604428D01*
X220357126Y-81633000D01*
X220328555Y-81661571D01*
X219985698Y-81861571D02*
X220042841Y-81833000D01*
X220071412Y-81804428D01*
X220099983Y-81747285D01*
X220099983Y-81718714D01*
X220071412Y-81661571D01*
X220042841Y-81633000D01*
X219985698Y-81604428D01*
X219871412Y-81604428D01*
X219814269Y-81633000D01*
X219785698Y-81661571D01*
X219757126Y-81718714D01*
X219757126Y-81747285D01*
X219785698Y-81804428D01*
X219814269Y-81833000D01*
X219871412Y-81861571D01*
X219985698Y-81861571D01*
X220042841Y-81890142D01*
X220071412Y-81918714D01*
X220099983Y-81975857D01*
X220099983Y-82090142D01*
X220071412Y-82147285D01*
X220042841Y-82175857D01*
X219985698Y-82204428D01*
X219871412Y-82204428D01*
X219814269Y-82175857D01*
X219785698Y-82147285D01*
X219757126Y-82090142D01*
X219757126Y-81975857D01*
X219785698Y-81918714D01*
X219814269Y-81890142D01*
X219871412Y-81861571D01*
X219471412Y-82204428D02*
X219357126Y-82204428D01*
X219299983Y-82175857D01*
X219271412Y-82147285D01*
X219214269Y-82061571D01*
X219185698Y-81947285D01*
X219185698Y-81718714D01*
X219214269Y-81661571D01*
X219242841Y-81633000D01*
X219299983Y-81604428D01*
X219414269Y-81604428D01*
X219471412Y-81633000D01*
X219499983Y-81661571D01*
X219528555Y-81718714D01*
X219528555Y-81861571D01*
X219499983Y-81918714D01*
X219471412Y-81947285D01*
X219414269Y-81975857D01*
X219299983Y-81975857D01*
X219242841Y-81947285D01*
X219214269Y-81918714D01*
X219185698Y-81861571D01*
%TO.C,C95*%
X212878555Y-79047285D02*
X212907126Y-79075857D01*
X212992841Y-79104428D01*
X213049983Y-79104428D01*
X213135698Y-79075857D01*
X213192841Y-79018714D01*
X213221412Y-78961571D01*
X213249983Y-78847285D01*
X213249983Y-78761571D01*
X213221412Y-78647285D01*
X213192841Y-78590142D01*
X213135698Y-78533000D01*
X213049983Y-78504428D01*
X212992841Y-78504428D01*
X212907126Y-78533000D01*
X212878555Y-78561571D01*
X212592841Y-79104428D02*
X212478555Y-79104428D01*
X212421412Y-79075857D01*
X212392841Y-79047285D01*
X212335698Y-78961571D01*
X212307126Y-78847285D01*
X212307126Y-78618714D01*
X212335698Y-78561571D01*
X212364269Y-78533000D01*
X212421412Y-78504428D01*
X212535698Y-78504428D01*
X212592841Y-78533000D01*
X212621412Y-78561571D01*
X212649983Y-78618714D01*
X212649983Y-78761571D01*
X212621412Y-78818714D01*
X212592841Y-78847285D01*
X212535698Y-78875857D01*
X212421412Y-78875857D01*
X212364269Y-78847285D01*
X212335698Y-78818714D01*
X212307126Y-78761571D01*
X211764269Y-78504428D02*
X212049983Y-78504428D01*
X212078555Y-78790142D01*
X212049983Y-78761571D01*
X211992841Y-78733000D01*
X211849983Y-78733000D01*
X211792841Y-78761571D01*
X211764269Y-78790142D01*
X211735698Y-78847285D01*
X211735698Y-78990142D01*
X211764269Y-79047285D01*
X211792841Y-79075857D01*
X211849983Y-79104428D01*
X211992841Y-79104428D01*
X212049983Y-79075857D01*
X212078555Y-79047285D01*
%TO.C,C114*%
X212264269Y-74547285D02*
X212292841Y-74575857D01*
X212378555Y-74604428D01*
X212435698Y-74604428D01*
X212521412Y-74575857D01*
X212578555Y-74518714D01*
X212607126Y-74461571D01*
X212635698Y-74347285D01*
X212635698Y-74261571D01*
X212607126Y-74147285D01*
X212578555Y-74090142D01*
X212521412Y-74033000D01*
X212435698Y-74004428D01*
X212378555Y-74004428D01*
X212292841Y-74033000D01*
X212264269Y-74061571D01*
X211692841Y-74604428D02*
X212035698Y-74604428D01*
X211864269Y-74604428D02*
X211864269Y-74004428D01*
X211921412Y-74090142D01*
X211978555Y-74147285D01*
X212035698Y-74175857D01*
X211121412Y-74604428D02*
X211464269Y-74604428D01*
X211292841Y-74604428D02*
X211292841Y-74004428D01*
X211349983Y-74090142D01*
X211407126Y-74147285D01*
X211464269Y-74175857D01*
X210607126Y-74204428D02*
X210607126Y-74604428D01*
X210749983Y-73975857D02*
X210892841Y-74404428D01*
X210521412Y-74404428D01*
%TO.C,C3*%
X220842841Y-70247285D02*
X220871412Y-70275857D01*
X220957126Y-70304428D01*
X221014269Y-70304428D01*
X221099983Y-70275857D01*
X221157126Y-70218714D01*
X221185698Y-70161571D01*
X221214269Y-70047285D01*
X221214269Y-69961571D01*
X221185698Y-69847285D01*
X221157126Y-69790142D01*
X221099983Y-69733000D01*
X221014269Y-69704428D01*
X220957126Y-69704428D01*
X220871412Y-69733000D01*
X220842841Y-69761571D01*
X220642841Y-69704428D02*
X220271412Y-69704428D01*
X220471412Y-69933000D01*
X220385698Y-69933000D01*
X220328555Y-69961571D01*
X220299983Y-69990142D01*
X220271412Y-70047285D01*
X220271412Y-70190142D01*
X220299983Y-70247285D01*
X220328555Y-70275857D01*
X220385698Y-70304428D01*
X220557126Y-70304428D01*
X220614269Y-70275857D01*
X220642841Y-70247285D01*
%TO.C,L2*%
X213692841Y-103754428D02*
X213978555Y-103754428D01*
X213978555Y-103154428D01*
X213521412Y-103211571D02*
X213492841Y-103183000D01*
X213435698Y-103154428D01*
X213292841Y-103154428D01*
X213235698Y-103183000D01*
X213207126Y-103211571D01*
X213178555Y-103268714D01*
X213178555Y-103325857D01*
X213207126Y-103411571D01*
X213549983Y-103754428D01*
X213178555Y-103754428D01*
%TO.C,C55*%
X195257126Y-88397285D02*
X195285698Y-88368714D01*
X195314269Y-88283000D01*
X195314269Y-88225857D01*
X195285698Y-88140142D01*
X195228555Y-88083000D01*
X195171412Y-88054428D01*
X195057126Y-88025857D01*
X194971412Y-88025857D01*
X194857126Y-88054428D01*
X194799983Y-88083000D01*
X194742841Y-88140142D01*
X194714269Y-88225857D01*
X194714269Y-88283000D01*
X194742841Y-88368714D01*
X194771412Y-88397285D01*
X194714269Y-88940142D02*
X194714269Y-88654428D01*
X194999983Y-88625857D01*
X194971412Y-88654428D01*
X194942841Y-88711571D01*
X194942841Y-88854428D01*
X194971412Y-88911571D01*
X194999983Y-88940142D01*
X195057126Y-88968714D01*
X195199983Y-88968714D01*
X195257126Y-88940142D01*
X195285698Y-88911571D01*
X195314269Y-88854428D01*
X195314269Y-88711571D01*
X195285698Y-88654428D01*
X195257126Y-88625857D01*
X194714269Y-89511571D02*
X194714269Y-89225857D01*
X194999983Y-89197285D01*
X194971412Y-89225857D01*
X194942841Y-89283000D01*
X194942841Y-89425857D01*
X194971412Y-89483000D01*
X194999983Y-89511571D01*
X195057126Y-89540142D01*
X195199983Y-89540142D01*
X195257126Y-89511571D01*
X195285698Y-89483000D01*
X195314269Y-89425857D01*
X195314269Y-89283000D01*
X195285698Y-89225857D01*
X195257126Y-89197285D01*
%TO.C,C13*%
X214978555Y-93997285D02*
X215007126Y-94025857D01*
X215092841Y-94054428D01*
X215149983Y-94054428D01*
X215235698Y-94025857D01*
X215292841Y-93968714D01*
X215321412Y-93911571D01*
X215349983Y-93797285D01*
X215349983Y-93711571D01*
X215321412Y-93597285D01*
X215292841Y-93540142D01*
X215235698Y-93483000D01*
X215149983Y-93454428D01*
X215092841Y-93454428D01*
X215007126Y-93483000D01*
X214978555Y-93511571D01*
X214407126Y-94054428D02*
X214749983Y-94054428D01*
X214578555Y-94054428D02*
X214578555Y-93454428D01*
X214635698Y-93540142D01*
X214692841Y-93597285D01*
X214749983Y-93625857D01*
X214207126Y-93454428D02*
X213835698Y-93454428D01*
X214035698Y-93683000D01*
X213949983Y-93683000D01*
X213892841Y-93711571D01*
X213864269Y-93740142D01*
X213835698Y-93797285D01*
X213835698Y-93940142D01*
X213864269Y-93997285D01*
X213892841Y-94025857D01*
X213949983Y-94054428D01*
X214121412Y-94054428D01*
X214178555Y-94025857D01*
X214207126Y-93997285D01*
%TO.C,C129*%
X220164269Y-102447285D02*
X220192841Y-102475857D01*
X220278555Y-102504428D01*
X220335698Y-102504428D01*
X220421412Y-102475857D01*
X220478555Y-102418714D01*
X220507126Y-102361571D01*
X220535698Y-102247285D01*
X220535698Y-102161571D01*
X220507126Y-102047285D01*
X220478555Y-101990142D01*
X220421412Y-101933000D01*
X220335698Y-101904428D01*
X220278555Y-101904428D01*
X220192841Y-101933000D01*
X220164269Y-101961571D01*
X219592841Y-102504428D02*
X219935698Y-102504428D01*
X219764269Y-102504428D02*
X219764269Y-101904428D01*
X219821412Y-101990142D01*
X219878555Y-102047285D01*
X219935698Y-102075857D01*
X219364269Y-101961571D02*
X219335698Y-101933000D01*
X219278555Y-101904428D01*
X219135698Y-101904428D01*
X219078555Y-101933000D01*
X219049983Y-101961571D01*
X219021412Y-102018714D01*
X219021412Y-102075857D01*
X219049983Y-102161571D01*
X219392841Y-102504428D01*
X219021412Y-102504428D01*
X218735698Y-102504428D02*
X218621412Y-102504428D01*
X218564269Y-102475857D01*
X218535698Y-102447285D01*
X218478555Y-102361571D01*
X218449983Y-102247285D01*
X218449983Y-102018714D01*
X218478555Y-101961571D01*
X218507126Y-101933000D01*
X218564269Y-101904428D01*
X218678555Y-101904428D01*
X218735698Y-101933000D01*
X218764269Y-101961571D01*
X218792841Y-102018714D01*
X218792841Y-102161571D01*
X218764269Y-102218714D01*
X218735698Y-102247285D01*
X218678555Y-102275857D01*
X218564269Y-102275857D01*
X218507126Y-102247285D01*
X218478555Y-102218714D01*
X218449983Y-102161571D01*
%TO.C,D10*%
X204328571Y-114646428D02*
X204328571Y-114046428D01*
X204185714Y-114046428D01*
X204100000Y-114075000D01*
X204042857Y-114132142D01*
X204014285Y-114189285D01*
X203985714Y-114303571D01*
X203985714Y-114389285D01*
X204014285Y-114503571D01*
X204042857Y-114560714D01*
X204100000Y-114617857D01*
X204185714Y-114646428D01*
X204328571Y-114646428D01*
X203414285Y-114646428D02*
X203757142Y-114646428D01*
X203585714Y-114646428D02*
X203585714Y-114046428D01*
X203642857Y-114132142D01*
X203700000Y-114189285D01*
X203757142Y-114217857D01*
X203042857Y-114046428D02*
X202985714Y-114046428D01*
X202928571Y-114075000D01*
X202900000Y-114103571D01*
X202871428Y-114160714D01*
X202842857Y-114275000D01*
X202842857Y-114417857D01*
X202871428Y-114532142D01*
X202900000Y-114589285D01*
X202928571Y-114617857D01*
X202985714Y-114646428D01*
X203042857Y-114646428D01*
X203100000Y-114617857D01*
X203128571Y-114589285D01*
X203157142Y-114532142D01*
X203185714Y-114417857D01*
X203185714Y-114275000D01*
X203157142Y-114160714D01*
X203128571Y-114103571D01*
X203100000Y-114075000D01*
X203042857Y-114046428D01*
%TO.C,C106*%
X202557126Y-85091571D02*
X202585698Y-85063000D01*
X202614269Y-84977285D01*
X202614269Y-84920142D01*
X202585698Y-84834428D01*
X202528555Y-84777285D01*
X202471412Y-84748714D01*
X202357126Y-84720142D01*
X202271412Y-84720142D01*
X202157126Y-84748714D01*
X202099983Y-84777285D01*
X202042841Y-84834428D01*
X202014269Y-84920142D01*
X202014269Y-84977285D01*
X202042841Y-85063000D01*
X202071412Y-85091571D01*
X202614269Y-85663000D02*
X202614269Y-85320142D01*
X202614269Y-85491571D02*
X202014269Y-85491571D01*
X202099983Y-85434428D01*
X202157126Y-85377285D01*
X202185698Y-85320142D01*
X202014269Y-86034428D02*
X202014269Y-86091571D01*
X202042841Y-86148714D01*
X202071412Y-86177285D01*
X202128555Y-86205857D01*
X202242841Y-86234428D01*
X202385698Y-86234428D01*
X202499983Y-86205857D01*
X202557126Y-86177285D01*
X202585698Y-86148714D01*
X202614269Y-86091571D01*
X202614269Y-86034428D01*
X202585698Y-85977285D01*
X202557126Y-85948714D01*
X202499983Y-85920142D01*
X202385698Y-85891571D01*
X202242841Y-85891571D01*
X202128555Y-85920142D01*
X202071412Y-85948714D01*
X202042841Y-85977285D01*
X202014269Y-86034428D01*
X202014269Y-86748714D02*
X202014269Y-86634428D01*
X202042841Y-86577285D01*
X202071412Y-86548714D01*
X202157126Y-86491571D01*
X202271412Y-86463000D01*
X202499983Y-86463000D01*
X202557126Y-86491571D01*
X202585698Y-86520142D01*
X202614269Y-86577285D01*
X202614269Y-86691571D01*
X202585698Y-86748714D01*
X202557126Y-86777285D01*
X202499983Y-86805857D01*
X202357126Y-86805857D01*
X202299983Y-86777285D01*
X202271412Y-86748714D01*
X202242841Y-86691571D01*
X202242841Y-86577285D01*
X202271412Y-86520142D01*
X202299983Y-86491571D01*
X202357126Y-86463000D01*
%TO.C,C116*%
X219557126Y-76811571D02*
X219585698Y-76783000D01*
X219614269Y-76697285D01*
X219614269Y-76640142D01*
X219585698Y-76554428D01*
X219528555Y-76497285D01*
X219471412Y-76468714D01*
X219357126Y-76440142D01*
X219271412Y-76440142D01*
X219157126Y-76468714D01*
X219099983Y-76497285D01*
X219042841Y-76554428D01*
X219014269Y-76640142D01*
X219014269Y-76697285D01*
X219042841Y-76783000D01*
X219071412Y-76811571D01*
X219614269Y-77383000D02*
X219614269Y-77040142D01*
X219614269Y-77211571D02*
X219014269Y-77211571D01*
X219099983Y-77154428D01*
X219157126Y-77097285D01*
X219185698Y-77040142D01*
X219614269Y-77954428D02*
X219614269Y-77611571D01*
X219614269Y-77783000D02*
X219014269Y-77783000D01*
X219099983Y-77725857D01*
X219157126Y-77668714D01*
X219185698Y-77611571D01*
X219014269Y-78468714D02*
X219014269Y-78354428D01*
X219042841Y-78297285D01*
X219071412Y-78268714D01*
X219157126Y-78211571D01*
X219271412Y-78183000D01*
X219499983Y-78183000D01*
X219557126Y-78211571D01*
X219585698Y-78240142D01*
X219614269Y-78297285D01*
X219614269Y-78411571D01*
X219585698Y-78468714D01*
X219557126Y-78497285D01*
X219499983Y-78525857D01*
X219357126Y-78525857D01*
X219299983Y-78497285D01*
X219271412Y-78468714D01*
X219242841Y-78411571D01*
X219242841Y-78297285D01*
X219271412Y-78240142D01*
X219299983Y-78211571D01*
X219357126Y-78183000D01*
%TO.C,C40*%
X198057126Y-100197285D02*
X198085698Y-100168714D01*
X198114269Y-100083000D01*
X198114269Y-100025857D01*
X198085698Y-99940142D01*
X198028555Y-99883000D01*
X197971412Y-99854428D01*
X197857126Y-99825857D01*
X197771412Y-99825857D01*
X197657126Y-99854428D01*
X197599983Y-99883000D01*
X197542841Y-99940142D01*
X197514269Y-100025857D01*
X197514269Y-100083000D01*
X197542841Y-100168714D01*
X197571412Y-100197285D01*
X197714269Y-100711571D02*
X198114269Y-100711571D01*
X197485698Y-100568714D02*
X197914269Y-100425857D01*
X197914269Y-100797285D01*
X197514269Y-101140142D02*
X197514269Y-101197285D01*
X197542841Y-101254428D01*
X197571412Y-101283000D01*
X197628555Y-101311571D01*
X197742841Y-101340142D01*
X197885698Y-101340142D01*
X197999983Y-101311571D01*
X198057126Y-101283000D01*
X198085698Y-101254428D01*
X198114269Y-101197285D01*
X198114269Y-101140142D01*
X198085698Y-101083000D01*
X198057126Y-101054428D01*
X197999983Y-101025857D01*
X197885698Y-100997285D01*
X197742841Y-100997285D01*
X197628555Y-101025857D01*
X197571412Y-101054428D01*
X197542841Y-101083000D01*
X197514269Y-101140142D01*
%TO.C,C67*%
X218057126Y-80647285D02*
X218085698Y-80618714D01*
X218114269Y-80533000D01*
X218114269Y-80475857D01*
X218085698Y-80390142D01*
X218028555Y-80333000D01*
X217971412Y-80304428D01*
X217857126Y-80275857D01*
X217771412Y-80275857D01*
X217657126Y-80304428D01*
X217599983Y-80333000D01*
X217542841Y-80390142D01*
X217514269Y-80475857D01*
X217514269Y-80533000D01*
X217542841Y-80618714D01*
X217571412Y-80647285D01*
X217514269Y-81161571D02*
X217514269Y-81047285D01*
X217542841Y-80990142D01*
X217571412Y-80961571D01*
X217657126Y-80904428D01*
X217771412Y-80875857D01*
X217999983Y-80875857D01*
X218057126Y-80904428D01*
X218085698Y-80933000D01*
X218114269Y-80990142D01*
X218114269Y-81104428D01*
X218085698Y-81161571D01*
X218057126Y-81190142D01*
X217999983Y-81218714D01*
X217857126Y-81218714D01*
X217799983Y-81190142D01*
X217771412Y-81161571D01*
X217742841Y-81104428D01*
X217742841Y-80990142D01*
X217771412Y-80933000D01*
X217799983Y-80904428D01*
X217857126Y-80875857D01*
X217514269Y-81418714D02*
X217514269Y-81818714D01*
X218114269Y-81561571D01*
%TO.C,C45*%
X201828555Y-94347285D02*
X201857126Y-94375857D01*
X201942841Y-94404428D01*
X201999983Y-94404428D01*
X202085698Y-94375857D01*
X202142841Y-94318714D01*
X202171412Y-94261571D01*
X202199983Y-94147285D01*
X202199983Y-94061571D01*
X202171412Y-93947285D01*
X202142841Y-93890142D01*
X202085698Y-93833000D01*
X201999983Y-93804428D01*
X201942841Y-93804428D01*
X201857126Y-93833000D01*
X201828555Y-93861571D01*
X201314269Y-94004428D02*
X201314269Y-94404428D01*
X201457126Y-93775857D02*
X201599983Y-94204428D01*
X201228555Y-94204428D01*
X200714269Y-93804428D02*
X200999983Y-93804428D01*
X201028555Y-94090142D01*
X200999983Y-94061571D01*
X200942841Y-94033000D01*
X200799983Y-94033000D01*
X200742841Y-94061571D01*
X200714269Y-94090142D01*
X200685698Y-94147285D01*
X200685698Y-94290142D01*
X200714269Y-94347285D01*
X200742841Y-94375857D01*
X200799983Y-94404428D01*
X200942841Y-94404428D01*
X200999983Y-94375857D01*
X201028555Y-94347285D01*
%TO.C,C78*%
X216907126Y-76397285D02*
X216935698Y-76368714D01*
X216964269Y-76283000D01*
X216964269Y-76225857D01*
X216935698Y-76140142D01*
X216878555Y-76083000D01*
X216821412Y-76054428D01*
X216707126Y-76025857D01*
X216621412Y-76025857D01*
X216507126Y-76054428D01*
X216449983Y-76083000D01*
X216392841Y-76140142D01*
X216364269Y-76225857D01*
X216364269Y-76283000D01*
X216392841Y-76368714D01*
X216421412Y-76397285D01*
X216364269Y-76597285D02*
X216364269Y-76997285D01*
X216964269Y-76740142D01*
X216621412Y-77311571D02*
X216592841Y-77254428D01*
X216564269Y-77225857D01*
X216507126Y-77197285D01*
X216478555Y-77197285D01*
X216421412Y-77225857D01*
X216392841Y-77254428D01*
X216364269Y-77311571D01*
X216364269Y-77425857D01*
X216392841Y-77483000D01*
X216421412Y-77511571D01*
X216478555Y-77540142D01*
X216507126Y-77540142D01*
X216564269Y-77511571D01*
X216592841Y-77483000D01*
X216621412Y-77425857D01*
X216621412Y-77311571D01*
X216649983Y-77254428D01*
X216678555Y-77225857D01*
X216735698Y-77197285D01*
X216849983Y-77197285D01*
X216907126Y-77225857D01*
X216935698Y-77254428D01*
X216964269Y-77311571D01*
X216964269Y-77425857D01*
X216935698Y-77483000D01*
X216907126Y-77511571D01*
X216849983Y-77540142D01*
X216735698Y-77540142D01*
X216678555Y-77511571D01*
X216649983Y-77483000D01*
X216621412Y-77425857D01*
%TO.C,C92*%
X212928555Y-81247285D02*
X212957126Y-81275857D01*
X213042841Y-81304428D01*
X213099983Y-81304428D01*
X213185698Y-81275857D01*
X213242841Y-81218714D01*
X213271412Y-81161571D01*
X213299983Y-81047285D01*
X213299983Y-80961571D01*
X213271412Y-80847285D01*
X213242841Y-80790142D01*
X213185698Y-80733000D01*
X213099983Y-80704428D01*
X213042841Y-80704428D01*
X212957126Y-80733000D01*
X212928555Y-80761571D01*
X212642841Y-81304428D02*
X212528555Y-81304428D01*
X212471412Y-81275857D01*
X212442841Y-81247285D01*
X212385698Y-81161571D01*
X212357126Y-81047285D01*
X212357126Y-80818714D01*
X212385698Y-80761571D01*
X212414269Y-80733000D01*
X212471412Y-80704428D01*
X212585698Y-80704428D01*
X212642841Y-80733000D01*
X212671412Y-80761571D01*
X212699983Y-80818714D01*
X212699983Y-80961571D01*
X212671412Y-81018714D01*
X212642841Y-81047285D01*
X212585698Y-81075857D01*
X212471412Y-81075857D01*
X212414269Y-81047285D01*
X212385698Y-81018714D01*
X212357126Y-80961571D01*
X212128555Y-80761571D02*
X212099983Y-80733000D01*
X212042841Y-80704428D01*
X211899983Y-80704428D01*
X211842841Y-80733000D01*
X211814269Y-80761571D01*
X211785698Y-80818714D01*
X211785698Y-80875857D01*
X211814269Y-80961571D01*
X212157126Y-81304428D01*
X211785698Y-81304428D01*
%TO.C,C8*%
X215192841Y-101547285D02*
X215221412Y-101575857D01*
X215307126Y-101604428D01*
X215364269Y-101604428D01*
X215449983Y-101575857D01*
X215507126Y-101518714D01*
X215535698Y-101461571D01*
X215564269Y-101347285D01*
X215564269Y-101261571D01*
X215535698Y-101147285D01*
X215507126Y-101090142D01*
X215449983Y-101033000D01*
X215364269Y-101004428D01*
X215307126Y-101004428D01*
X215221412Y-101033000D01*
X215192841Y-101061571D01*
X214849983Y-101261571D02*
X214907126Y-101233000D01*
X214935698Y-101204428D01*
X214964269Y-101147285D01*
X214964269Y-101118714D01*
X214935698Y-101061571D01*
X214907126Y-101033000D01*
X214849983Y-101004428D01*
X214735698Y-101004428D01*
X214678555Y-101033000D01*
X214649983Y-101061571D01*
X214621412Y-101118714D01*
X214621412Y-101147285D01*
X214649983Y-101204428D01*
X214678555Y-101233000D01*
X214735698Y-101261571D01*
X214849983Y-101261571D01*
X214907126Y-101290142D01*
X214935698Y-101318714D01*
X214964269Y-101375857D01*
X214964269Y-101490142D01*
X214935698Y-101547285D01*
X214907126Y-101575857D01*
X214849983Y-101604428D01*
X214735698Y-101604428D01*
X214678555Y-101575857D01*
X214649983Y-101547285D01*
X214621412Y-101490142D01*
X214621412Y-101375857D01*
X214649983Y-101318714D01*
X214678555Y-101290142D01*
X214735698Y-101261571D01*
%TO.C,C27*%
X214907126Y-86247285D02*
X214935698Y-86218714D01*
X214964269Y-86133000D01*
X214964269Y-86075857D01*
X214935698Y-85990142D01*
X214878555Y-85933000D01*
X214821412Y-85904428D01*
X214707126Y-85875857D01*
X214621412Y-85875857D01*
X214507126Y-85904428D01*
X214449983Y-85933000D01*
X214392841Y-85990142D01*
X214364269Y-86075857D01*
X214364269Y-86133000D01*
X214392841Y-86218714D01*
X214421412Y-86247285D01*
X214421412Y-86475857D02*
X214392841Y-86504428D01*
X214364269Y-86561571D01*
X214364269Y-86704428D01*
X214392841Y-86761571D01*
X214421412Y-86790142D01*
X214478555Y-86818714D01*
X214535698Y-86818714D01*
X214621412Y-86790142D01*
X214964269Y-86447285D01*
X214964269Y-86818714D01*
X214364269Y-87018714D02*
X214364269Y-87418714D01*
X214964269Y-87161571D01*
%TO.C,C83*%
X215728555Y-79347285D02*
X215757126Y-79375857D01*
X215842841Y-79404428D01*
X215899983Y-79404428D01*
X215985698Y-79375857D01*
X216042841Y-79318714D01*
X216071412Y-79261571D01*
X216099983Y-79147285D01*
X216099983Y-79061571D01*
X216071412Y-78947285D01*
X216042841Y-78890142D01*
X215985698Y-78833000D01*
X215899983Y-78804428D01*
X215842841Y-78804428D01*
X215757126Y-78833000D01*
X215728555Y-78861571D01*
X215385698Y-79061571D02*
X215442841Y-79033000D01*
X215471412Y-79004428D01*
X215499983Y-78947285D01*
X215499983Y-78918714D01*
X215471412Y-78861571D01*
X215442841Y-78833000D01*
X215385698Y-78804428D01*
X215271412Y-78804428D01*
X215214269Y-78833000D01*
X215185698Y-78861571D01*
X215157126Y-78918714D01*
X215157126Y-78947285D01*
X215185698Y-79004428D01*
X215214269Y-79033000D01*
X215271412Y-79061571D01*
X215385698Y-79061571D01*
X215442841Y-79090142D01*
X215471412Y-79118714D01*
X215499983Y-79175857D01*
X215499983Y-79290142D01*
X215471412Y-79347285D01*
X215442841Y-79375857D01*
X215385698Y-79404428D01*
X215271412Y-79404428D01*
X215214269Y-79375857D01*
X215185698Y-79347285D01*
X215157126Y-79290142D01*
X215157126Y-79175857D01*
X215185698Y-79118714D01*
X215214269Y-79090142D01*
X215271412Y-79061571D01*
X214957126Y-78804428D02*
X214585698Y-78804428D01*
X214785698Y-79033000D01*
X214699983Y-79033000D01*
X214642841Y-79061571D01*
X214614269Y-79090142D01*
X214585698Y-79147285D01*
X214585698Y-79290142D01*
X214614269Y-79347285D01*
X214642841Y-79375857D01*
X214699983Y-79404428D01*
X214871412Y-79404428D01*
X214928555Y-79375857D01*
X214957126Y-79347285D01*
%TO.C,R28*%
X202678555Y-96954428D02*
X202878555Y-96668714D01*
X203021412Y-96954428D02*
X203021412Y-96354428D01*
X202792841Y-96354428D01*
X202735698Y-96383000D01*
X202707126Y-96411571D01*
X202678555Y-96468714D01*
X202678555Y-96554428D01*
X202707126Y-96611571D01*
X202735698Y-96640142D01*
X202792841Y-96668714D01*
X203021412Y-96668714D01*
X202449983Y-96411571D02*
X202421412Y-96383000D01*
X202364269Y-96354428D01*
X202221412Y-96354428D01*
X202164269Y-96383000D01*
X202135698Y-96411571D01*
X202107126Y-96468714D01*
X202107126Y-96525857D01*
X202135698Y-96611571D01*
X202478555Y-96954428D01*
X202107126Y-96954428D01*
X201764269Y-96611571D02*
X201821412Y-96583000D01*
X201849983Y-96554428D01*
X201878555Y-96497285D01*
X201878555Y-96468714D01*
X201849983Y-96411571D01*
X201821412Y-96383000D01*
X201764269Y-96354428D01*
X201649983Y-96354428D01*
X201592841Y-96383000D01*
X201564269Y-96411571D01*
X201535698Y-96468714D01*
X201535698Y-96497285D01*
X201564269Y-96554428D01*
X201592841Y-96583000D01*
X201649983Y-96611571D01*
X201764269Y-96611571D01*
X201821412Y-96640142D01*
X201849983Y-96668714D01*
X201878555Y-96725857D01*
X201878555Y-96840142D01*
X201849983Y-96897285D01*
X201821412Y-96925857D01*
X201764269Y-96954428D01*
X201649983Y-96954428D01*
X201592841Y-96925857D01*
X201564269Y-96897285D01*
X201535698Y-96840142D01*
X201535698Y-96725857D01*
X201564269Y-96668714D01*
X201592841Y-96640142D01*
X201649983Y-96611571D01*
%TO.C,C29*%
X209278555Y-93297285D02*
X209307126Y-93325857D01*
X209392841Y-93354428D01*
X209449983Y-93354428D01*
X209535698Y-93325857D01*
X209592841Y-93268714D01*
X209621412Y-93211571D01*
X209649983Y-93097285D01*
X209649983Y-93011571D01*
X209621412Y-92897285D01*
X209592841Y-92840142D01*
X209535698Y-92783000D01*
X209449983Y-92754428D01*
X209392841Y-92754428D01*
X209307126Y-92783000D01*
X209278555Y-92811571D01*
X209049983Y-92811571D02*
X209021412Y-92783000D01*
X208964269Y-92754428D01*
X208821412Y-92754428D01*
X208764269Y-92783000D01*
X208735698Y-92811571D01*
X208707126Y-92868714D01*
X208707126Y-92925857D01*
X208735698Y-93011571D01*
X209078555Y-93354428D01*
X208707126Y-93354428D01*
X208421412Y-93354428D02*
X208307126Y-93354428D01*
X208249983Y-93325857D01*
X208221412Y-93297285D01*
X208164269Y-93211571D01*
X208135698Y-93097285D01*
X208135698Y-92868714D01*
X208164269Y-92811571D01*
X208192841Y-92783000D01*
X208249983Y-92754428D01*
X208364269Y-92754428D01*
X208421412Y-92783000D01*
X208449983Y-92811571D01*
X208478555Y-92868714D01*
X208478555Y-93011571D01*
X208449983Y-93068714D01*
X208421412Y-93097285D01*
X208364269Y-93125857D01*
X208249983Y-93125857D01*
X208192841Y-93097285D01*
X208164269Y-93068714D01*
X208135698Y-93011571D01*
%TO.C,C97*%
X198178555Y-66047285D02*
X198207126Y-66075857D01*
X198292841Y-66104428D01*
X198349983Y-66104428D01*
X198435698Y-66075857D01*
X198492841Y-66018714D01*
X198521412Y-65961571D01*
X198549983Y-65847285D01*
X198549983Y-65761571D01*
X198521412Y-65647285D01*
X198492841Y-65590142D01*
X198435698Y-65533000D01*
X198349983Y-65504428D01*
X198292841Y-65504428D01*
X198207126Y-65533000D01*
X198178555Y-65561571D01*
X197892841Y-66104428D02*
X197778555Y-66104428D01*
X197721412Y-66075857D01*
X197692841Y-66047285D01*
X197635698Y-65961571D01*
X197607126Y-65847285D01*
X197607126Y-65618714D01*
X197635698Y-65561571D01*
X197664269Y-65533000D01*
X197721412Y-65504428D01*
X197835698Y-65504428D01*
X197892841Y-65533000D01*
X197921412Y-65561571D01*
X197949983Y-65618714D01*
X197949983Y-65761571D01*
X197921412Y-65818714D01*
X197892841Y-65847285D01*
X197835698Y-65875857D01*
X197721412Y-65875857D01*
X197664269Y-65847285D01*
X197635698Y-65818714D01*
X197607126Y-65761571D01*
X197407126Y-65504428D02*
X197007126Y-65504428D01*
X197264269Y-66104428D01*
%TO.C,C82*%
X215728555Y-76397285D02*
X215757126Y-76425857D01*
X215842841Y-76454428D01*
X215899983Y-76454428D01*
X215985698Y-76425857D01*
X216042841Y-76368714D01*
X216071412Y-76311571D01*
X216099983Y-76197285D01*
X216099983Y-76111571D01*
X216071412Y-75997285D01*
X216042841Y-75940142D01*
X215985698Y-75883000D01*
X215899983Y-75854428D01*
X215842841Y-75854428D01*
X215757126Y-75883000D01*
X215728555Y-75911571D01*
X215385698Y-76111571D02*
X215442841Y-76083000D01*
X215471412Y-76054428D01*
X215499983Y-75997285D01*
X215499983Y-75968714D01*
X215471412Y-75911571D01*
X215442841Y-75883000D01*
X215385698Y-75854428D01*
X215271412Y-75854428D01*
X215214269Y-75883000D01*
X215185698Y-75911571D01*
X215157126Y-75968714D01*
X215157126Y-75997285D01*
X215185698Y-76054428D01*
X215214269Y-76083000D01*
X215271412Y-76111571D01*
X215385698Y-76111571D01*
X215442841Y-76140142D01*
X215471412Y-76168714D01*
X215499983Y-76225857D01*
X215499983Y-76340142D01*
X215471412Y-76397285D01*
X215442841Y-76425857D01*
X215385698Y-76454428D01*
X215271412Y-76454428D01*
X215214269Y-76425857D01*
X215185698Y-76397285D01*
X215157126Y-76340142D01*
X215157126Y-76225857D01*
X215185698Y-76168714D01*
X215214269Y-76140142D01*
X215271412Y-76111571D01*
X214928555Y-75911571D02*
X214899983Y-75883000D01*
X214842841Y-75854428D01*
X214699983Y-75854428D01*
X214642841Y-75883000D01*
X214614269Y-75911571D01*
X214585698Y-75968714D01*
X214585698Y-76025857D01*
X214614269Y-76111571D01*
X214957126Y-76454428D01*
X214585698Y-76454428D01*
%TO.C,R27*%
X211764269Y-90697285D02*
X211478555Y-90497285D01*
X211764269Y-90354428D02*
X211164269Y-90354428D01*
X211164269Y-90583000D01*
X211192841Y-90640142D01*
X211221412Y-90668714D01*
X211278555Y-90697285D01*
X211364269Y-90697285D01*
X211421412Y-90668714D01*
X211449983Y-90640142D01*
X211478555Y-90583000D01*
X211478555Y-90354428D01*
X211221412Y-90925857D02*
X211192841Y-90954428D01*
X211164269Y-91011571D01*
X211164269Y-91154428D01*
X211192841Y-91211571D01*
X211221412Y-91240142D01*
X211278555Y-91268714D01*
X211335698Y-91268714D01*
X211421412Y-91240142D01*
X211764269Y-90897285D01*
X211764269Y-91268714D01*
X211164269Y-91468714D02*
X211164269Y-91868714D01*
X211764269Y-91611571D01*
%TO.C,C52*%
X198478555Y-88797285D02*
X198507126Y-88825857D01*
X198592841Y-88854428D01*
X198649983Y-88854428D01*
X198735698Y-88825857D01*
X198792841Y-88768714D01*
X198821412Y-88711571D01*
X198849983Y-88597285D01*
X198849983Y-88511571D01*
X198821412Y-88397285D01*
X198792841Y-88340142D01*
X198735698Y-88283000D01*
X198649983Y-88254428D01*
X198592841Y-88254428D01*
X198507126Y-88283000D01*
X198478555Y-88311571D01*
X197935698Y-88254428D02*
X198221412Y-88254428D01*
X198249983Y-88540142D01*
X198221412Y-88511571D01*
X198164269Y-88483000D01*
X198021412Y-88483000D01*
X197964269Y-88511571D01*
X197935698Y-88540142D01*
X197907126Y-88597285D01*
X197907126Y-88740142D01*
X197935698Y-88797285D01*
X197964269Y-88825857D01*
X198021412Y-88854428D01*
X198164269Y-88854428D01*
X198221412Y-88825857D01*
X198249983Y-88797285D01*
X197678555Y-88311571D02*
X197649983Y-88283000D01*
X197592841Y-88254428D01*
X197449983Y-88254428D01*
X197392841Y-88283000D01*
X197364269Y-88311571D01*
X197335698Y-88368714D01*
X197335698Y-88425857D01*
X197364269Y-88511571D01*
X197707126Y-88854428D01*
X197335698Y-88854428D01*
%TO.C,C63*%
X219218555Y-64827285D02*
X219247126Y-64855857D01*
X219332841Y-64884428D01*
X219389983Y-64884428D01*
X219475698Y-64855857D01*
X219532841Y-64798714D01*
X219561412Y-64741571D01*
X219589983Y-64627285D01*
X219589983Y-64541571D01*
X219561412Y-64427285D01*
X219532841Y-64370142D01*
X219475698Y-64313000D01*
X219389983Y-64284428D01*
X219332841Y-64284428D01*
X219247126Y-64313000D01*
X219218555Y-64341571D01*
X218704269Y-64284428D02*
X218818555Y-64284428D01*
X218875698Y-64313000D01*
X218904269Y-64341571D01*
X218961412Y-64427285D01*
X218989983Y-64541571D01*
X218989983Y-64770142D01*
X218961412Y-64827285D01*
X218932841Y-64855857D01*
X218875698Y-64884428D01*
X218761412Y-64884428D01*
X218704269Y-64855857D01*
X218675698Y-64827285D01*
X218647126Y-64770142D01*
X218647126Y-64627285D01*
X218675698Y-64570142D01*
X218704269Y-64541571D01*
X218761412Y-64513000D01*
X218875698Y-64513000D01*
X218932841Y-64541571D01*
X218961412Y-64570142D01*
X218989983Y-64627285D01*
X218447126Y-64284428D02*
X218075698Y-64284428D01*
X218275698Y-64513000D01*
X218189983Y-64513000D01*
X218132841Y-64541571D01*
X218104269Y-64570142D01*
X218075698Y-64627285D01*
X218075698Y-64770142D01*
X218104269Y-64827285D01*
X218132841Y-64855857D01*
X218189983Y-64884428D01*
X218361412Y-64884428D01*
X218418555Y-64855857D01*
X218447126Y-64827285D01*
%TO.C,C98*%
X201907126Y-68647285D02*
X201935698Y-68618714D01*
X201964269Y-68533000D01*
X201964269Y-68475857D01*
X201935698Y-68390142D01*
X201878555Y-68333000D01*
X201821412Y-68304428D01*
X201707126Y-68275857D01*
X201621412Y-68275857D01*
X201507126Y-68304428D01*
X201449983Y-68333000D01*
X201392841Y-68390142D01*
X201364269Y-68475857D01*
X201364269Y-68533000D01*
X201392841Y-68618714D01*
X201421412Y-68647285D01*
X201964269Y-68933000D02*
X201964269Y-69047285D01*
X201935698Y-69104428D01*
X201907126Y-69133000D01*
X201821412Y-69190142D01*
X201707126Y-69218714D01*
X201478555Y-69218714D01*
X201421412Y-69190142D01*
X201392841Y-69161571D01*
X201364269Y-69104428D01*
X201364269Y-68990142D01*
X201392841Y-68933000D01*
X201421412Y-68904428D01*
X201478555Y-68875857D01*
X201621412Y-68875857D01*
X201678555Y-68904428D01*
X201707126Y-68933000D01*
X201735698Y-68990142D01*
X201735698Y-69104428D01*
X201707126Y-69161571D01*
X201678555Y-69190142D01*
X201621412Y-69218714D01*
X201621412Y-69561571D02*
X201592841Y-69504428D01*
X201564269Y-69475857D01*
X201507126Y-69447285D01*
X201478555Y-69447285D01*
X201421412Y-69475857D01*
X201392841Y-69504428D01*
X201364269Y-69561571D01*
X201364269Y-69675857D01*
X201392841Y-69733000D01*
X201421412Y-69761571D01*
X201478555Y-69790142D01*
X201507126Y-69790142D01*
X201564269Y-69761571D01*
X201592841Y-69733000D01*
X201621412Y-69675857D01*
X201621412Y-69561571D01*
X201649983Y-69504428D01*
X201678555Y-69475857D01*
X201735698Y-69447285D01*
X201849983Y-69447285D01*
X201907126Y-69475857D01*
X201935698Y-69504428D01*
X201964269Y-69561571D01*
X201964269Y-69675857D01*
X201935698Y-69733000D01*
X201907126Y-69761571D01*
X201849983Y-69790142D01*
X201735698Y-69790142D01*
X201678555Y-69761571D01*
X201649983Y-69733000D01*
X201621412Y-69675857D01*
%TO.C,C84*%
X218378555Y-79697285D02*
X218407126Y-79725857D01*
X218492841Y-79754428D01*
X218549983Y-79754428D01*
X218635698Y-79725857D01*
X218692841Y-79668714D01*
X218721412Y-79611571D01*
X218749983Y-79497285D01*
X218749983Y-79411571D01*
X218721412Y-79297285D01*
X218692841Y-79240142D01*
X218635698Y-79183000D01*
X218549983Y-79154428D01*
X218492841Y-79154428D01*
X218407126Y-79183000D01*
X218378555Y-79211571D01*
X218035698Y-79411571D02*
X218092841Y-79383000D01*
X218121412Y-79354428D01*
X218149983Y-79297285D01*
X218149983Y-79268714D01*
X218121412Y-79211571D01*
X218092841Y-79183000D01*
X218035698Y-79154428D01*
X217921412Y-79154428D01*
X217864269Y-79183000D01*
X217835698Y-79211571D01*
X217807126Y-79268714D01*
X217807126Y-79297285D01*
X217835698Y-79354428D01*
X217864269Y-79383000D01*
X217921412Y-79411571D01*
X218035698Y-79411571D01*
X218092841Y-79440142D01*
X218121412Y-79468714D01*
X218149983Y-79525857D01*
X218149983Y-79640142D01*
X218121412Y-79697285D01*
X218092841Y-79725857D01*
X218035698Y-79754428D01*
X217921412Y-79754428D01*
X217864269Y-79725857D01*
X217835698Y-79697285D01*
X217807126Y-79640142D01*
X217807126Y-79525857D01*
X217835698Y-79468714D01*
X217864269Y-79440142D01*
X217921412Y-79411571D01*
X217292841Y-79354428D02*
X217292841Y-79754428D01*
X217435698Y-79125857D02*
X217578555Y-79554428D01*
X217207126Y-79554428D01*
%TO.C,R48*%
X209008555Y-68604428D02*
X209208555Y-68318714D01*
X209351412Y-68604428D02*
X209351412Y-68004428D01*
X209122841Y-68004428D01*
X209065698Y-68033000D01*
X209037126Y-68061571D01*
X209008555Y-68118714D01*
X209008555Y-68204428D01*
X209037126Y-68261571D01*
X209065698Y-68290142D01*
X209122841Y-68318714D01*
X209351412Y-68318714D01*
X208494269Y-68204428D02*
X208494269Y-68604428D01*
X208637126Y-67975857D02*
X208779983Y-68404428D01*
X208408555Y-68404428D01*
X208094269Y-68261571D02*
X208151412Y-68233000D01*
X208179983Y-68204428D01*
X208208555Y-68147285D01*
X208208555Y-68118714D01*
X208179983Y-68061571D01*
X208151412Y-68033000D01*
X208094269Y-68004428D01*
X207979983Y-68004428D01*
X207922841Y-68033000D01*
X207894269Y-68061571D01*
X207865698Y-68118714D01*
X207865698Y-68147285D01*
X207894269Y-68204428D01*
X207922841Y-68233000D01*
X207979983Y-68261571D01*
X208094269Y-68261571D01*
X208151412Y-68290142D01*
X208179983Y-68318714D01*
X208208555Y-68375857D01*
X208208555Y-68490142D01*
X208179983Y-68547285D01*
X208151412Y-68575857D01*
X208094269Y-68604428D01*
X207979983Y-68604428D01*
X207922841Y-68575857D01*
X207894269Y-68547285D01*
X207865698Y-68490142D01*
X207865698Y-68375857D01*
X207894269Y-68318714D01*
X207922841Y-68290142D01*
X207979983Y-68261571D01*
%TO.C,C57*%
X199957126Y-89647285D02*
X199985698Y-89618714D01*
X200014269Y-89533000D01*
X200014269Y-89475857D01*
X199985698Y-89390142D01*
X199928555Y-89333000D01*
X199871412Y-89304428D01*
X199757126Y-89275857D01*
X199671412Y-89275857D01*
X199557126Y-89304428D01*
X199499983Y-89333000D01*
X199442841Y-89390142D01*
X199414269Y-89475857D01*
X199414269Y-89533000D01*
X199442841Y-89618714D01*
X199471412Y-89647285D01*
X199414269Y-90190142D02*
X199414269Y-89904428D01*
X199699983Y-89875857D01*
X199671412Y-89904428D01*
X199642841Y-89961571D01*
X199642841Y-90104428D01*
X199671412Y-90161571D01*
X199699983Y-90190142D01*
X199757126Y-90218714D01*
X199899983Y-90218714D01*
X199957126Y-90190142D01*
X199985698Y-90161571D01*
X200014269Y-90104428D01*
X200014269Y-89961571D01*
X199985698Y-89904428D01*
X199957126Y-89875857D01*
X199414269Y-90418714D02*
X199414269Y-90818714D01*
X200014269Y-90561571D01*
%TO.C,C73*%
X206178555Y-65297285D02*
X206207126Y-65325857D01*
X206292841Y-65354428D01*
X206349983Y-65354428D01*
X206435698Y-65325857D01*
X206492841Y-65268714D01*
X206521412Y-65211571D01*
X206549983Y-65097285D01*
X206549983Y-65011571D01*
X206521412Y-64897285D01*
X206492841Y-64840142D01*
X206435698Y-64783000D01*
X206349983Y-64754428D01*
X206292841Y-64754428D01*
X206207126Y-64783000D01*
X206178555Y-64811571D01*
X205978555Y-64754428D02*
X205578555Y-64754428D01*
X205835698Y-65354428D01*
X205407126Y-64754428D02*
X205035698Y-64754428D01*
X205235698Y-64983000D01*
X205149983Y-64983000D01*
X205092841Y-65011571D01*
X205064269Y-65040142D01*
X205035698Y-65097285D01*
X205035698Y-65240142D01*
X205064269Y-65297285D01*
X205092841Y-65325857D01*
X205149983Y-65354428D01*
X205321412Y-65354428D01*
X205378555Y-65325857D01*
X205407126Y-65297285D01*
%TO.C,L4*%
X206392841Y-121904428D02*
X206678555Y-121904428D01*
X206678555Y-121304428D01*
X205935698Y-121504428D02*
X205935698Y-121904428D01*
X206078555Y-121275857D02*
X206221412Y-121704428D01*
X205849983Y-121704428D01*
%TO.C,C91*%
X219778555Y-75047285D02*
X219807126Y-75075857D01*
X219892841Y-75104428D01*
X219949983Y-75104428D01*
X220035698Y-75075857D01*
X220092841Y-75018714D01*
X220121412Y-74961571D01*
X220149983Y-74847285D01*
X220149983Y-74761571D01*
X220121412Y-74647285D01*
X220092841Y-74590142D01*
X220035698Y-74533000D01*
X219949983Y-74504428D01*
X219892841Y-74504428D01*
X219807126Y-74533000D01*
X219778555Y-74561571D01*
X219492841Y-75104428D02*
X219378555Y-75104428D01*
X219321412Y-75075857D01*
X219292841Y-75047285D01*
X219235698Y-74961571D01*
X219207126Y-74847285D01*
X219207126Y-74618714D01*
X219235698Y-74561571D01*
X219264269Y-74533000D01*
X219321412Y-74504428D01*
X219435698Y-74504428D01*
X219492841Y-74533000D01*
X219521412Y-74561571D01*
X219549983Y-74618714D01*
X219549983Y-74761571D01*
X219521412Y-74818714D01*
X219492841Y-74847285D01*
X219435698Y-74875857D01*
X219321412Y-74875857D01*
X219264269Y-74847285D01*
X219235698Y-74818714D01*
X219207126Y-74761571D01*
X218635698Y-75104428D02*
X218978555Y-75104428D01*
X218807126Y-75104428D02*
X218807126Y-74504428D01*
X218864269Y-74590142D01*
X218921412Y-74647285D01*
X218978555Y-74675857D01*
%TO.C,C32*%
X193707126Y-88447285D02*
X193735698Y-88418714D01*
X193764269Y-88333000D01*
X193764269Y-88275857D01*
X193735698Y-88190142D01*
X193678555Y-88133000D01*
X193621412Y-88104428D01*
X193507126Y-88075857D01*
X193421412Y-88075857D01*
X193307126Y-88104428D01*
X193249983Y-88133000D01*
X193192841Y-88190142D01*
X193164269Y-88275857D01*
X193164269Y-88333000D01*
X193192841Y-88418714D01*
X193221412Y-88447285D01*
X193164269Y-88647285D02*
X193164269Y-89018714D01*
X193392841Y-88818714D01*
X193392841Y-88904428D01*
X193421412Y-88961571D01*
X193449983Y-88990142D01*
X193507126Y-89018714D01*
X193649983Y-89018714D01*
X193707126Y-88990142D01*
X193735698Y-88961571D01*
X193764269Y-88904428D01*
X193764269Y-88733000D01*
X193735698Y-88675857D01*
X193707126Y-88647285D01*
X193221412Y-89247285D02*
X193192841Y-89275857D01*
X193164269Y-89333000D01*
X193164269Y-89475857D01*
X193192841Y-89533000D01*
X193221412Y-89561571D01*
X193278555Y-89590142D01*
X193335698Y-89590142D01*
X193421412Y-89561571D01*
X193764269Y-89218714D01*
X193764269Y-89590142D01*
%TO.C,C34*%
X197007126Y-88447285D02*
X197035698Y-88418714D01*
X197064269Y-88333000D01*
X197064269Y-88275857D01*
X197035698Y-88190142D01*
X196978555Y-88133000D01*
X196921412Y-88104428D01*
X196807126Y-88075857D01*
X196721412Y-88075857D01*
X196607126Y-88104428D01*
X196549983Y-88133000D01*
X196492841Y-88190142D01*
X196464269Y-88275857D01*
X196464269Y-88333000D01*
X196492841Y-88418714D01*
X196521412Y-88447285D01*
X196464269Y-88647285D02*
X196464269Y-89018714D01*
X196692841Y-88818714D01*
X196692841Y-88904428D01*
X196721412Y-88961571D01*
X196749983Y-88990142D01*
X196807126Y-89018714D01*
X196949983Y-89018714D01*
X197007126Y-88990142D01*
X197035698Y-88961571D01*
X197064269Y-88904428D01*
X197064269Y-88733000D01*
X197035698Y-88675857D01*
X197007126Y-88647285D01*
X196664269Y-89533000D02*
X197064269Y-89533000D01*
X196435698Y-89390142D02*
X196864269Y-89247285D01*
X196864269Y-89618714D01*
%TO.C,C38*%
X197257126Y-93697285D02*
X197285698Y-93668714D01*
X197314269Y-93583000D01*
X197314269Y-93525857D01*
X197285698Y-93440142D01*
X197228555Y-93383000D01*
X197171412Y-93354428D01*
X197057126Y-93325857D01*
X196971412Y-93325857D01*
X196857126Y-93354428D01*
X196799983Y-93383000D01*
X196742841Y-93440142D01*
X196714269Y-93525857D01*
X196714269Y-93583000D01*
X196742841Y-93668714D01*
X196771412Y-93697285D01*
X196714269Y-93897285D02*
X196714269Y-94268714D01*
X196942841Y-94068714D01*
X196942841Y-94154428D01*
X196971412Y-94211571D01*
X196999983Y-94240142D01*
X197057126Y-94268714D01*
X197199983Y-94268714D01*
X197257126Y-94240142D01*
X197285698Y-94211571D01*
X197314269Y-94154428D01*
X197314269Y-93983000D01*
X197285698Y-93925857D01*
X197257126Y-93897285D01*
X196971412Y-94611571D02*
X196942841Y-94554428D01*
X196914269Y-94525857D01*
X196857126Y-94497285D01*
X196828555Y-94497285D01*
X196771412Y-94525857D01*
X196742841Y-94554428D01*
X196714269Y-94611571D01*
X196714269Y-94725857D01*
X196742841Y-94783000D01*
X196771412Y-94811571D01*
X196828555Y-94840142D01*
X196857126Y-94840142D01*
X196914269Y-94811571D01*
X196942841Y-94783000D01*
X196971412Y-94725857D01*
X196971412Y-94611571D01*
X196999983Y-94554428D01*
X197028555Y-94525857D01*
X197085698Y-94497285D01*
X197199983Y-94497285D01*
X197257126Y-94525857D01*
X197285698Y-94554428D01*
X197314269Y-94611571D01*
X197314269Y-94725857D01*
X197285698Y-94783000D01*
X197257126Y-94811571D01*
X197199983Y-94840142D01*
X197085698Y-94840142D01*
X197028555Y-94811571D01*
X196999983Y-94783000D01*
X196971412Y-94725857D01*
%TO.C,C79*%
X215728555Y-77497285D02*
X215757126Y-77525857D01*
X215842841Y-77554428D01*
X215899983Y-77554428D01*
X215985698Y-77525857D01*
X216042841Y-77468714D01*
X216071412Y-77411571D01*
X216099983Y-77297285D01*
X216099983Y-77211571D01*
X216071412Y-77097285D01*
X216042841Y-77040142D01*
X215985698Y-76983000D01*
X215899983Y-76954428D01*
X215842841Y-76954428D01*
X215757126Y-76983000D01*
X215728555Y-77011571D01*
X215528555Y-76954428D02*
X215128555Y-76954428D01*
X215385698Y-77554428D01*
X214871412Y-77554428D02*
X214757126Y-77554428D01*
X214699983Y-77525857D01*
X214671412Y-77497285D01*
X214614269Y-77411571D01*
X214585698Y-77297285D01*
X214585698Y-77068714D01*
X214614269Y-77011571D01*
X214642841Y-76983000D01*
X214699983Y-76954428D01*
X214814269Y-76954428D01*
X214871412Y-76983000D01*
X214899983Y-77011571D01*
X214928555Y-77068714D01*
X214928555Y-77211571D01*
X214899983Y-77268714D01*
X214871412Y-77297285D01*
X214814269Y-77325857D01*
X214699983Y-77325857D01*
X214642841Y-77297285D01*
X214614269Y-77268714D01*
X214585698Y-77211571D01*
%TO.C,C9*%
X216807126Y-94983000D02*
X216835698Y-94954428D01*
X216864269Y-94868714D01*
X216864269Y-94811571D01*
X216835698Y-94725857D01*
X216778555Y-94668714D01*
X216721412Y-94640142D01*
X216607126Y-94611571D01*
X216521412Y-94611571D01*
X216407126Y-94640142D01*
X216349983Y-94668714D01*
X216292841Y-94725857D01*
X216264269Y-94811571D01*
X216264269Y-94868714D01*
X216292841Y-94954428D01*
X216321412Y-94983000D01*
X216864269Y-95268714D02*
X216864269Y-95383000D01*
X216835698Y-95440142D01*
X216807126Y-95468714D01*
X216721412Y-95525857D01*
X216607126Y-95554428D01*
X216378555Y-95554428D01*
X216321412Y-95525857D01*
X216292841Y-95497285D01*
X216264269Y-95440142D01*
X216264269Y-95325857D01*
X216292841Y-95268714D01*
X216321412Y-95240142D01*
X216378555Y-95211571D01*
X216521412Y-95211571D01*
X216578555Y-95240142D01*
X216607126Y-95268714D01*
X216635698Y-95325857D01*
X216635698Y-95440142D01*
X216607126Y-95497285D01*
X216578555Y-95525857D01*
X216521412Y-95554428D01*
%TO.C,R10*%
X215764269Y-55997285D02*
X215478555Y-55797285D01*
X215764269Y-55654428D02*
X215164269Y-55654428D01*
X215164269Y-55883000D01*
X215192841Y-55940142D01*
X215221412Y-55968714D01*
X215278555Y-55997285D01*
X215364269Y-55997285D01*
X215421412Y-55968714D01*
X215449983Y-55940142D01*
X215478555Y-55883000D01*
X215478555Y-55654428D01*
X215764269Y-56568714D02*
X215764269Y-56225857D01*
X215764269Y-56397285D02*
X215164269Y-56397285D01*
X215249983Y-56340142D01*
X215307126Y-56283000D01*
X215335698Y-56225857D01*
X215164269Y-56940142D02*
X215164269Y-56997285D01*
X215192841Y-57054428D01*
X215221412Y-57083000D01*
X215278555Y-57111571D01*
X215392841Y-57140142D01*
X215535698Y-57140142D01*
X215649983Y-57111571D01*
X215707126Y-57083000D01*
X215735698Y-57054428D01*
X215764269Y-56997285D01*
X215764269Y-56940142D01*
X215735698Y-56883000D01*
X215707126Y-56854428D01*
X215649983Y-56825857D01*
X215535698Y-56797285D01*
X215392841Y-56797285D01*
X215278555Y-56825857D01*
X215221412Y-56854428D01*
X215192841Y-56883000D01*
X215164269Y-56940142D01*
%TO.C,R49*%
X218178555Y-104454428D02*
X218378555Y-104168714D01*
X218521412Y-104454428D02*
X218521412Y-103854428D01*
X218292841Y-103854428D01*
X218235698Y-103883000D01*
X218207126Y-103911571D01*
X218178555Y-103968714D01*
X218178555Y-104054428D01*
X218207126Y-104111571D01*
X218235698Y-104140142D01*
X218292841Y-104168714D01*
X218521412Y-104168714D01*
X217664269Y-104054428D02*
X217664269Y-104454428D01*
X217807126Y-103825857D02*
X217949983Y-104254428D01*
X217578555Y-104254428D01*
X217321412Y-104454428D02*
X217207126Y-104454428D01*
X217149983Y-104425857D01*
X217121412Y-104397285D01*
X217064269Y-104311571D01*
X217035698Y-104197285D01*
X217035698Y-103968714D01*
X217064269Y-103911571D01*
X217092841Y-103883000D01*
X217149983Y-103854428D01*
X217264269Y-103854428D01*
X217321412Y-103883000D01*
X217349983Y-103911571D01*
X217378555Y-103968714D01*
X217378555Y-104111571D01*
X217349983Y-104168714D01*
X217321412Y-104197285D01*
X217264269Y-104225857D01*
X217149983Y-104225857D01*
X217092841Y-104197285D01*
X217064269Y-104168714D01*
X217035698Y-104111571D01*
%TO.C,C128*%
X222264269Y-109497285D02*
X222292841Y-109525857D01*
X222378555Y-109554428D01*
X222435698Y-109554428D01*
X222521412Y-109525857D01*
X222578555Y-109468714D01*
X222607126Y-109411571D01*
X222635698Y-109297285D01*
X222635698Y-109211571D01*
X222607126Y-109097285D01*
X222578555Y-109040142D01*
X222521412Y-108983000D01*
X222435698Y-108954428D01*
X222378555Y-108954428D01*
X222292841Y-108983000D01*
X222264269Y-109011571D01*
X221692841Y-109554428D02*
X222035698Y-109554428D01*
X221864269Y-109554428D02*
X221864269Y-108954428D01*
X221921412Y-109040142D01*
X221978555Y-109097285D01*
X222035698Y-109125857D01*
X221464269Y-109011571D02*
X221435698Y-108983000D01*
X221378555Y-108954428D01*
X221235698Y-108954428D01*
X221178555Y-108983000D01*
X221149983Y-109011571D01*
X221121412Y-109068714D01*
X221121412Y-109125857D01*
X221149983Y-109211571D01*
X221492841Y-109554428D01*
X221121412Y-109554428D01*
X220778555Y-109211571D02*
X220835698Y-109183000D01*
X220864269Y-109154428D01*
X220892841Y-109097285D01*
X220892841Y-109068714D01*
X220864269Y-109011571D01*
X220835698Y-108983000D01*
X220778555Y-108954428D01*
X220664269Y-108954428D01*
X220607126Y-108983000D01*
X220578555Y-109011571D01*
X220549983Y-109068714D01*
X220549983Y-109097285D01*
X220578555Y-109154428D01*
X220607126Y-109183000D01*
X220664269Y-109211571D01*
X220778555Y-109211571D01*
X220835698Y-109240142D01*
X220864269Y-109268714D01*
X220892841Y-109325857D01*
X220892841Y-109440142D01*
X220864269Y-109497285D01*
X220835698Y-109525857D01*
X220778555Y-109554428D01*
X220664269Y-109554428D01*
X220607126Y-109525857D01*
X220578555Y-109497285D01*
X220549983Y-109440142D01*
X220549983Y-109325857D01*
X220578555Y-109268714D01*
X220607126Y-109240142D01*
X220664269Y-109211571D01*
%TO.C,C20*%
X213078555Y-97397285D02*
X213107126Y-97425857D01*
X213192841Y-97454428D01*
X213249983Y-97454428D01*
X213335698Y-97425857D01*
X213392841Y-97368714D01*
X213421412Y-97311571D01*
X213449983Y-97197285D01*
X213449983Y-97111571D01*
X213421412Y-96997285D01*
X213392841Y-96940142D01*
X213335698Y-96883000D01*
X213249983Y-96854428D01*
X213192841Y-96854428D01*
X213107126Y-96883000D01*
X213078555Y-96911571D01*
X212849983Y-96911571D02*
X212821412Y-96883000D01*
X212764269Y-96854428D01*
X212621412Y-96854428D01*
X212564269Y-96883000D01*
X212535698Y-96911571D01*
X212507126Y-96968714D01*
X212507126Y-97025857D01*
X212535698Y-97111571D01*
X212878555Y-97454428D01*
X212507126Y-97454428D01*
X212135698Y-96854428D02*
X212078555Y-96854428D01*
X212021412Y-96883000D01*
X211992841Y-96911571D01*
X211964269Y-96968714D01*
X211935698Y-97083000D01*
X211935698Y-97225857D01*
X211964269Y-97340142D01*
X211992841Y-97397285D01*
X212021412Y-97425857D01*
X212078555Y-97454428D01*
X212135698Y-97454428D01*
X212192841Y-97425857D01*
X212221412Y-97397285D01*
X212249983Y-97340142D01*
X212278555Y-97225857D01*
X212278555Y-97083000D01*
X212249983Y-96968714D01*
X212221412Y-96911571D01*
X212192841Y-96883000D01*
X212135698Y-96854428D01*
%TO.C,R46*%
X200394269Y-64147285D02*
X200108555Y-63947285D01*
X200394269Y-63804428D02*
X199794269Y-63804428D01*
X199794269Y-64033000D01*
X199822841Y-64090142D01*
X199851412Y-64118714D01*
X199908555Y-64147285D01*
X199994269Y-64147285D01*
X200051412Y-64118714D01*
X200079983Y-64090142D01*
X200108555Y-64033000D01*
X200108555Y-63804428D01*
X199994269Y-64661571D02*
X200394269Y-64661571D01*
X199765698Y-64518714D02*
X200194269Y-64375857D01*
X200194269Y-64747285D01*
X199794269Y-65233000D02*
X199794269Y-65118714D01*
X199822841Y-65061571D01*
X199851412Y-65033000D01*
X199937126Y-64975857D01*
X200051412Y-64947285D01*
X200279983Y-64947285D01*
X200337126Y-64975857D01*
X200365698Y-65004428D01*
X200394269Y-65061571D01*
X200394269Y-65175857D01*
X200365698Y-65233000D01*
X200337126Y-65261571D01*
X200279983Y-65290142D01*
X200137126Y-65290142D01*
X200079983Y-65261571D01*
X200051412Y-65233000D01*
X200022841Y-65175857D01*
X200022841Y-65061571D01*
X200051412Y-65004428D01*
X200079983Y-64975857D01*
X200137126Y-64947285D01*
%TO.C,C19*%
X216307126Y-90297285D02*
X216335698Y-90268714D01*
X216364269Y-90183000D01*
X216364269Y-90125857D01*
X216335698Y-90040142D01*
X216278555Y-89983000D01*
X216221412Y-89954428D01*
X216107126Y-89925857D01*
X216021412Y-89925857D01*
X215907126Y-89954428D01*
X215849983Y-89983000D01*
X215792841Y-90040142D01*
X215764269Y-90125857D01*
X215764269Y-90183000D01*
X215792841Y-90268714D01*
X215821412Y-90297285D01*
X216364269Y-90868714D02*
X216364269Y-90525857D01*
X216364269Y-90697285D02*
X215764269Y-90697285D01*
X215849983Y-90640142D01*
X215907126Y-90583000D01*
X215935698Y-90525857D01*
X216364269Y-91154428D02*
X216364269Y-91268714D01*
X216335698Y-91325857D01*
X216307126Y-91354428D01*
X216221412Y-91411571D01*
X216107126Y-91440142D01*
X215878555Y-91440142D01*
X215821412Y-91411571D01*
X215792841Y-91383000D01*
X215764269Y-91325857D01*
X215764269Y-91211571D01*
X215792841Y-91154428D01*
X215821412Y-91125857D01*
X215878555Y-91097285D01*
X216021412Y-91097285D01*
X216078555Y-91125857D01*
X216107126Y-91154428D01*
X216135698Y-91211571D01*
X216135698Y-91325857D01*
X216107126Y-91383000D01*
X216078555Y-91411571D01*
X216021412Y-91440142D01*
%TO.C,C2*%
X221157126Y-66283000D02*
X221185698Y-66254428D01*
X221214269Y-66168714D01*
X221214269Y-66111571D01*
X221185698Y-66025857D01*
X221128555Y-65968714D01*
X221071412Y-65940142D01*
X220957126Y-65911571D01*
X220871412Y-65911571D01*
X220757126Y-65940142D01*
X220699983Y-65968714D01*
X220642841Y-66025857D01*
X220614269Y-66111571D01*
X220614269Y-66168714D01*
X220642841Y-66254428D01*
X220671412Y-66283000D01*
X220671412Y-66511571D02*
X220642841Y-66540142D01*
X220614269Y-66597285D01*
X220614269Y-66740142D01*
X220642841Y-66797285D01*
X220671412Y-66825857D01*
X220728555Y-66854428D01*
X220785698Y-66854428D01*
X220871412Y-66825857D01*
X221214269Y-66483000D01*
X221214269Y-66854428D01*
%TO.C,C71*%
X214557126Y-109447285D02*
X214585698Y-109418714D01*
X214614269Y-109333000D01*
X214614269Y-109275857D01*
X214585698Y-109190142D01*
X214528555Y-109133000D01*
X214471412Y-109104428D01*
X214357126Y-109075857D01*
X214271412Y-109075857D01*
X214157126Y-109104428D01*
X214099983Y-109133000D01*
X214042841Y-109190142D01*
X214014269Y-109275857D01*
X214014269Y-109333000D01*
X214042841Y-109418714D01*
X214071412Y-109447285D01*
X214014269Y-109647285D02*
X214014269Y-110047285D01*
X214614269Y-109790142D01*
X214614269Y-110590142D02*
X214614269Y-110247285D01*
X214614269Y-110418714D02*
X214014269Y-110418714D01*
X214099983Y-110361571D01*
X214157126Y-110304428D01*
X214185698Y-110247285D01*
%TO.C,C44*%
X196657126Y-99097285D02*
X196685698Y-99068714D01*
X196714269Y-98983000D01*
X196714269Y-98925857D01*
X196685698Y-98840142D01*
X196628555Y-98783000D01*
X196571412Y-98754428D01*
X196457126Y-98725857D01*
X196371412Y-98725857D01*
X196257126Y-98754428D01*
X196199983Y-98783000D01*
X196142841Y-98840142D01*
X196114269Y-98925857D01*
X196114269Y-98983000D01*
X196142841Y-99068714D01*
X196171412Y-99097285D01*
X196314269Y-99611571D02*
X196714269Y-99611571D01*
X196085698Y-99468714D02*
X196514269Y-99325857D01*
X196514269Y-99697285D01*
X196314269Y-100183000D02*
X196714269Y-100183000D01*
X196085698Y-100040142D02*
X196514269Y-99897285D01*
X196514269Y-100268714D01*
%TO.C,C90*%
X202307126Y-73647285D02*
X202335698Y-73618714D01*
X202364269Y-73533000D01*
X202364269Y-73475857D01*
X202335698Y-73390142D01*
X202278555Y-73333000D01*
X202221412Y-73304428D01*
X202107126Y-73275857D01*
X202021412Y-73275857D01*
X201907126Y-73304428D01*
X201849983Y-73333000D01*
X201792841Y-73390142D01*
X201764269Y-73475857D01*
X201764269Y-73533000D01*
X201792841Y-73618714D01*
X201821412Y-73647285D01*
X202364269Y-73933000D02*
X202364269Y-74047285D01*
X202335698Y-74104428D01*
X202307126Y-74133000D01*
X202221412Y-74190142D01*
X202107126Y-74218714D01*
X201878555Y-74218714D01*
X201821412Y-74190142D01*
X201792841Y-74161571D01*
X201764269Y-74104428D01*
X201764269Y-73990142D01*
X201792841Y-73933000D01*
X201821412Y-73904428D01*
X201878555Y-73875857D01*
X202021412Y-73875857D01*
X202078555Y-73904428D01*
X202107126Y-73933000D01*
X202135698Y-73990142D01*
X202135698Y-74104428D01*
X202107126Y-74161571D01*
X202078555Y-74190142D01*
X202021412Y-74218714D01*
X201764269Y-74590142D02*
X201764269Y-74647285D01*
X201792841Y-74704428D01*
X201821412Y-74733000D01*
X201878555Y-74761571D01*
X201992841Y-74790142D01*
X202135698Y-74790142D01*
X202249983Y-74761571D01*
X202307126Y-74733000D01*
X202335698Y-74704428D01*
X202364269Y-74647285D01*
X202364269Y-74590142D01*
X202335698Y-74533000D01*
X202307126Y-74504428D01*
X202249983Y-74475857D01*
X202135698Y-74447285D01*
X201992841Y-74447285D01*
X201878555Y-74475857D01*
X201821412Y-74504428D01*
X201792841Y-74533000D01*
X201764269Y-74590142D01*
%TO.C,C37*%
X203728555Y-92497285D02*
X203757126Y-92525857D01*
X203842841Y-92554428D01*
X203899983Y-92554428D01*
X203985698Y-92525857D01*
X204042841Y-92468714D01*
X204071412Y-92411571D01*
X204099983Y-92297285D01*
X204099983Y-92211571D01*
X204071412Y-92097285D01*
X204042841Y-92040142D01*
X203985698Y-91983000D01*
X203899983Y-91954428D01*
X203842841Y-91954428D01*
X203757126Y-91983000D01*
X203728555Y-92011571D01*
X203528555Y-91954428D02*
X203157126Y-91954428D01*
X203357126Y-92183000D01*
X203271412Y-92183000D01*
X203214269Y-92211571D01*
X203185698Y-92240142D01*
X203157126Y-92297285D01*
X203157126Y-92440142D01*
X203185698Y-92497285D01*
X203214269Y-92525857D01*
X203271412Y-92554428D01*
X203442841Y-92554428D01*
X203499983Y-92525857D01*
X203528555Y-92497285D01*
X202957126Y-91954428D02*
X202557126Y-91954428D01*
X202814269Y-92554428D01*
%TO.C,C33*%
X191748555Y-89447285D02*
X191777126Y-89475857D01*
X191862841Y-89504428D01*
X191919983Y-89504428D01*
X192005698Y-89475857D01*
X192062841Y-89418714D01*
X192091412Y-89361571D01*
X192119983Y-89247285D01*
X192119983Y-89161571D01*
X192091412Y-89047285D01*
X192062841Y-88990142D01*
X192005698Y-88933000D01*
X191919983Y-88904428D01*
X191862841Y-88904428D01*
X191777126Y-88933000D01*
X191748555Y-88961571D01*
X191548555Y-88904428D02*
X191177126Y-88904428D01*
X191377126Y-89133000D01*
X191291412Y-89133000D01*
X191234269Y-89161571D01*
X191205698Y-89190142D01*
X191177126Y-89247285D01*
X191177126Y-89390142D01*
X191205698Y-89447285D01*
X191234269Y-89475857D01*
X191291412Y-89504428D01*
X191462841Y-89504428D01*
X191519983Y-89475857D01*
X191548555Y-89447285D01*
X190977126Y-88904428D02*
X190605698Y-88904428D01*
X190805698Y-89133000D01*
X190719983Y-89133000D01*
X190662841Y-89161571D01*
X190634269Y-89190142D01*
X190605698Y-89247285D01*
X190605698Y-89390142D01*
X190634269Y-89447285D01*
X190662841Y-89475857D01*
X190719983Y-89504428D01*
X190891412Y-89504428D01*
X190948555Y-89475857D01*
X190977126Y-89447285D01*
%TO.C,C102*%
X188464269Y-107997285D02*
X188492841Y-108025857D01*
X188578555Y-108054428D01*
X188635698Y-108054428D01*
X188721412Y-108025857D01*
X188778555Y-107968714D01*
X188807126Y-107911571D01*
X188835698Y-107797285D01*
X188835698Y-107711571D01*
X188807126Y-107597285D01*
X188778555Y-107540142D01*
X188721412Y-107483000D01*
X188635698Y-107454428D01*
X188578555Y-107454428D01*
X188492841Y-107483000D01*
X188464269Y-107511571D01*
X187892841Y-108054428D02*
X188235698Y-108054428D01*
X188064269Y-108054428D02*
X188064269Y-107454428D01*
X188121412Y-107540142D01*
X188178555Y-107597285D01*
X188235698Y-107625857D01*
X187521412Y-107454428D02*
X187464269Y-107454428D01*
X187407126Y-107483000D01*
X187378555Y-107511571D01*
X187349983Y-107568714D01*
X187321412Y-107683000D01*
X187321412Y-107825857D01*
X187349983Y-107940142D01*
X187378555Y-107997285D01*
X187407126Y-108025857D01*
X187464269Y-108054428D01*
X187521412Y-108054428D01*
X187578555Y-108025857D01*
X187607126Y-107997285D01*
X187635698Y-107940142D01*
X187664269Y-107825857D01*
X187664269Y-107683000D01*
X187635698Y-107568714D01*
X187607126Y-107511571D01*
X187578555Y-107483000D01*
X187521412Y-107454428D01*
X187092841Y-107511571D02*
X187064269Y-107483000D01*
X187007126Y-107454428D01*
X186864269Y-107454428D01*
X186807126Y-107483000D01*
X186778555Y-107511571D01*
X186749983Y-107568714D01*
X186749983Y-107625857D01*
X186778555Y-107711571D01*
X187121412Y-108054428D01*
X186749983Y-108054428D01*
%TO.C,C48*%
X194257126Y-99097285D02*
X194285698Y-99068714D01*
X194314269Y-98983000D01*
X194314269Y-98925857D01*
X194285698Y-98840142D01*
X194228555Y-98783000D01*
X194171412Y-98754428D01*
X194057126Y-98725857D01*
X193971412Y-98725857D01*
X193857126Y-98754428D01*
X193799983Y-98783000D01*
X193742841Y-98840142D01*
X193714269Y-98925857D01*
X193714269Y-98983000D01*
X193742841Y-99068714D01*
X193771412Y-99097285D01*
X193914269Y-99611571D02*
X194314269Y-99611571D01*
X193685698Y-99468714D02*
X194114269Y-99325857D01*
X194114269Y-99697285D01*
X193971412Y-100011571D02*
X193942841Y-99954428D01*
X193914269Y-99925857D01*
X193857126Y-99897285D01*
X193828555Y-99897285D01*
X193771412Y-99925857D01*
X193742841Y-99954428D01*
X193714269Y-100011571D01*
X193714269Y-100125857D01*
X193742841Y-100183000D01*
X193771412Y-100211571D01*
X193828555Y-100240142D01*
X193857126Y-100240142D01*
X193914269Y-100211571D01*
X193942841Y-100183000D01*
X193971412Y-100125857D01*
X193971412Y-100011571D01*
X193999983Y-99954428D01*
X194028555Y-99925857D01*
X194085698Y-99897285D01*
X194199983Y-99897285D01*
X194257126Y-99925857D01*
X194285698Y-99954428D01*
X194314269Y-100011571D01*
X194314269Y-100125857D01*
X194285698Y-100183000D01*
X194257126Y-100211571D01*
X194199983Y-100240142D01*
X194085698Y-100240142D01*
X194028555Y-100211571D01*
X193999983Y-100183000D01*
X193971412Y-100125857D01*
%TO.C,C26*%
X213507126Y-86247285D02*
X213535698Y-86218714D01*
X213564269Y-86133000D01*
X213564269Y-86075857D01*
X213535698Y-85990142D01*
X213478555Y-85933000D01*
X213421412Y-85904428D01*
X213307126Y-85875857D01*
X213221412Y-85875857D01*
X213107126Y-85904428D01*
X213049983Y-85933000D01*
X212992841Y-85990142D01*
X212964269Y-86075857D01*
X212964269Y-86133000D01*
X212992841Y-86218714D01*
X213021412Y-86247285D01*
X213021412Y-86475857D02*
X212992841Y-86504428D01*
X212964269Y-86561571D01*
X212964269Y-86704428D01*
X212992841Y-86761571D01*
X213021412Y-86790142D01*
X213078555Y-86818714D01*
X213135698Y-86818714D01*
X213221412Y-86790142D01*
X213564269Y-86447285D01*
X213564269Y-86818714D01*
X212964269Y-87333000D02*
X212964269Y-87218714D01*
X212992841Y-87161571D01*
X213021412Y-87133000D01*
X213107126Y-87075857D01*
X213221412Y-87047285D01*
X213449983Y-87047285D01*
X213507126Y-87075857D01*
X213535698Y-87104428D01*
X213564269Y-87161571D01*
X213564269Y-87275857D01*
X213535698Y-87333000D01*
X213507126Y-87361571D01*
X213449983Y-87390142D01*
X213307126Y-87390142D01*
X213249983Y-87361571D01*
X213221412Y-87333000D01*
X213192841Y-87275857D01*
X213192841Y-87161571D01*
X213221412Y-87104428D01*
X213249983Y-87075857D01*
X213307126Y-87047285D01*
%TO.C,L3*%
X190414269Y-98083000D02*
X190414269Y-97797285D01*
X189814269Y-97797285D01*
X189814269Y-98225857D02*
X189814269Y-98597285D01*
X190042841Y-98397285D01*
X190042841Y-98483000D01*
X190071412Y-98540142D01*
X190099983Y-98568714D01*
X190157126Y-98597285D01*
X190299983Y-98597285D01*
X190357126Y-98568714D01*
X190385698Y-98540142D01*
X190414269Y-98483000D01*
X190414269Y-98311571D01*
X190385698Y-98254428D01*
X190357126Y-98225857D01*
%TO.C,C25*%
X215807126Y-94597285D02*
X215835698Y-94568714D01*
X215864269Y-94483000D01*
X215864269Y-94425857D01*
X215835698Y-94340142D01*
X215778555Y-94283000D01*
X215721412Y-94254428D01*
X215607126Y-94225857D01*
X215521412Y-94225857D01*
X215407126Y-94254428D01*
X215349983Y-94283000D01*
X215292841Y-94340142D01*
X215264269Y-94425857D01*
X215264269Y-94483000D01*
X215292841Y-94568714D01*
X215321412Y-94597285D01*
X215321412Y-94825857D02*
X215292841Y-94854428D01*
X215264269Y-94911571D01*
X215264269Y-95054428D01*
X215292841Y-95111571D01*
X215321412Y-95140142D01*
X215378555Y-95168714D01*
X215435698Y-95168714D01*
X215521412Y-95140142D01*
X215864269Y-94797285D01*
X215864269Y-95168714D01*
X215264269Y-95711571D02*
X215264269Y-95425857D01*
X215549983Y-95397285D01*
X215521412Y-95425857D01*
X215492841Y-95483000D01*
X215492841Y-95625857D01*
X215521412Y-95683000D01*
X215549983Y-95711571D01*
X215607126Y-95740142D01*
X215749983Y-95740142D01*
X215807126Y-95711571D01*
X215835698Y-95683000D01*
X215864269Y-95625857D01*
X215864269Y-95483000D01*
X215835698Y-95425857D01*
X215807126Y-95397285D01*
%TO.C,C94*%
X214107126Y-78447285D02*
X214135698Y-78418714D01*
X214164269Y-78333000D01*
X214164269Y-78275857D01*
X214135698Y-78190142D01*
X214078555Y-78133000D01*
X214021412Y-78104428D01*
X213907126Y-78075857D01*
X213821412Y-78075857D01*
X213707126Y-78104428D01*
X213649983Y-78133000D01*
X213592841Y-78190142D01*
X213564269Y-78275857D01*
X213564269Y-78333000D01*
X213592841Y-78418714D01*
X213621412Y-78447285D01*
X214164269Y-78733000D02*
X214164269Y-78847285D01*
X214135698Y-78904428D01*
X214107126Y-78933000D01*
X214021412Y-78990142D01*
X213907126Y-79018714D01*
X213678555Y-79018714D01*
X213621412Y-78990142D01*
X213592841Y-78961571D01*
X213564269Y-78904428D01*
X213564269Y-78790142D01*
X213592841Y-78733000D01*
X213621412Y-78704428D01*
X213678555Y-78675857D01*
X213821412Y-78675857D01*
X213878555Y-78704428D01*
X213907126Y-78733000D01*
X213935698Y-78790142D01*
X213935698Y-78904428D01*
X213907126Y-78961571D01*
X213878555Y-78990142D01*
X213821412Y-79018714D01*
X213764269Y-79533000D02*
X214164269Y-79533000D01*
X213535698Y-79390142D02*
X213964269Y-79247285D01*
X213964269Y-79618714D01*
%TO.C,C87*%
X215478555Y-74687285D02*
X215507126Y-74715857D01*
X215592841Y-74744428D01*
X215649983Y-74744428D01*
X215735698Y-74715857D01*
X215792841Y-74658714D01*
X215821412Y-74601571D01*
X215849983Y-74487285D01*
X215849983Y-74401571D01*
X215821412Y-74287285D01*
X215792841Y-74230142D01*
X215735698Y-74173000D01*
X215649983Y-74144428D01*
X215592841Y-74144428D01*
X215507126Y-74173000D01*
X215478555Y-74201571D01*
X215135698Y-74401571D02*
X215192841Y-74373000D01*
X215221412Y-74344428D01*
X215249983Y-74287285D01*
X215249983Y-74258714D01*
X215221412Y-74201571D01*
X215192841Y-74173000D01*
X215135698Y-74144428D01*
X215021412Y-74144428D01*
X214964269Y-74173000D01*
X214935698Y-74201571D01*
X214907126Y-74258714D01*
X214907126Y-74287285D01*
X214935698Y-74344428D01*
X214964269Y-74373000D01*
X215021412Y-74401571D01*
X215135698Y-74401571D01*
X215192841Y-74430142D01*
X215221412Y-74458714D01*
X215249983Y-74515857D01*
X215249983Y-74630142D01*
X215221412Y-74687285D01*
X215192841Y-74715857D01*
X215135698Y-74744428D01*
X215021412Y-74744428D01*
X214964269Y-74715857D01*
X214935698Y-74687285D01*
X214907126Y-74630142D01*
X214907126Y-74515857D01*
X214935698Y-74458714D01*
X214964269Y-74430142D01*
X215021412Y-74401571D01*
X214707126Y-74144428D02*
X214307126Y-74144428D01*
X214564269Y-74744428D01*
%TO.C,R23*%
X206614269Y-95247285D02*
X206328555Y-95047285D01*
X206614269Y-94904428D02*
X206014269Y-94904428D01*
X206014269Y-95133000D01*
X206042841Y-95190142D01*
X206071412Y-95218714D01*
X206128555Y-95247285D01*
X206214269Y-95247285D01*
X206271412Y-95218714D01*
X206299983Y-95190142D01*
X206328555Y-95133000D01*
X206328555Y-94904428D01*
X206071412Y-95475857D02*
X206042841Y-95504428D01*
X206014269Y-95561571D01*
X206014269Y-95704428D01*
X206042841Y-95761571D01*
X206071412Y-95790142D01*
X206128555Y-95818714D01*
X206185698Y-95818714D01*
X206271412Y-95790142D01*
X206614269Y-95447285D01*
X206614269Y-95818714D01*
X206014269Y-96018714D02*
X206014269Y-96390142D01*
X206242841Y-96190142D01*
X206242841Y-96275857D01*
X206271412Y-96333000D01*
X206299983Y-96361571D01*
X206357126Y-96390142D01*
X206499983Y-96390142D01*
X206557126Y-96361571D01*
X206585698Y-96333000D01*
X206614269Y-96275857D01*
X206614269Y-96104428D01*
X206585698Y-96047285D01*
X206557126Y-96018714D01*
%TO.C,C66*%
X217157126Y-80697285D02*
X217185698Y-80668714D01*
X217214269Y-80583000D01*
X217214269Y-80525857D01*
X217185698Y-80440142D01*
X217128555Y-80383000D01*
X217071412Y-80354428D01*
X216957126Y-80325857D01*
X216871412Y-80325857D01*
X216757126Y-80354428D01*
X216699983Y-80383000D01*
X216642841Y-80440142D01*
X216614269Y-80525857D01*
X216614269Y-80583000D01*
X216642841Y-80668714D01*
X216671412Y-80697285D01*
X216614269Y-81211571D02*
X216614269Y-81097285D01*
X216642841Y-81040142D01*
X216671412Y-81011571D01*
X216757126Y-80954428D01*
X216871412Y-80925857D01*
X217099983Y-80925857D01*
X217157126Y-80954428D01*
X217185698Y-80983000D01*
X217214269Y-81040142D01*
X217214269Y-81154428D01*
X217185698Y-81211571D01*
X217157126Y-81240142D01*
X217099983Y-81268714D01*
X216957126Y-81268714D01*
X216899983Y-81240142D01*
X216871412Y-81211571D01*
X216842841Y-81154428D01*
X216842841Y-81040142D01*
X216871412Y-80983000D01*
X216899983Y-80954428D01*
X216957126Y-80925857D01*
X216614269Y-81783000D02*
X216614269Y-81668714D01*
X216642841Y-81611571D01*
X216671412Y-81583000D01*
X216757126Y-81525857D01*
X216871412Y-81497285D01*
X217099983Y-81497285D01*
X217157126Y-81525857D01*
X217185698Y-81554428D01*
X217214269Y-81611571D01*
X217214269Y-81725857D01*
X217185698Y-81783000D01*
X217157126Y-81811571D01*
X217099983Y-81840142D01*
X216957126Y-81840142D01*
X216899983Y-81811571D01*
X216871412Y-81783000D01*
X216842841Y-81725857D01*
X216842841Y-81611571D01*
X216871412Y-81554428D01*
X216899983Y-81525857D01*
X216957126Y-81497285D01*
%TO.C,C93*%
X197708555Y-82847285D02*
X197737126Y-82875857D01*
X197822841Y-82904428D01*
X197879983Y-82904428D01*
X197965698Y-82875857D01*
X198022841Y-82818714D01*
X198051412Y-82761571D01*
X198079983Y-82647285D01*
X198079983Y-82561571D01*
X198051412Y-82447285D01*
X198022841Y-82390142D01*
X197965698Y-82333000D01*
X197879983Y-82304428D01*
X197822841Y-82304428D01*
X197737126Y-82333000D01*
X197708555Y-82361571D01*
X197422841Y-82904428D02*
X197308555Y-82904428D01*
X197251412Y-82875857D01*
X197222841Y-82847285D01*
X197165698Y-82761571D01*
X197137126Y-82647285D01*
X197137126Y-82418714D01*
X197165698Y-82361571D01*
X197194269Y-82333000D01*
X197251412Y-82304428D01*
X197365698Y-82304428D01*
X197422841Y-82333000D01*
X197451412Y-82361571D01*
X197479983Y-82418714D01*
X197479983Y-82561571D01*
X197451412Y-82618714D01*
X197422841Y-82647285D01*
X197365698Y-82675857D01*
X197251412Y-82675857D01*
X197194269Y-82647285D01*
X197165698Y-82618714D01*
X197137126Y-82561571D01*
X196937126Y-82304428D02*
X196565698Y-82304428D01*
X196765698Y-82533000D01*
X196679983Y-82533000D01*
X196622841Y-82561571D01*
X196594269Y-82590142D01*
X196565698Y-82647285D01*
X196565698Y-82790142D01*
X196594269Y-82847285D01*
X196622841Y-82875857D01*
X196679983Y-82904428D01*
X196851412Y-82904428D01*
X196908555Y-82875857D01*
X196937126Y-82847285D01*
%TO.C,C81*%
X218428555Y-77697285D02*
X218457126Y-77725857D01*
X218542841Y-77754428D01*
X218599983Y-77754428D01*
X218685698Y-77725857D01*
X218742841Y-77668714D01*
X218771412Y-77611571D01*
X218799983Y-77497285D01*
X218799983Y-77411571D01*
X218771412Y-77297285D01*
X218742841Y-77240142D01*
X218685698Y-77183000D01*
X218599983Y-77154428D01*
X218542841Y-77154428D01*
X218457126Y-77183000D01*
X218428555Y-77211571D01*
X218085698Y-77411571D02*
X218142841Y-77383000D01*
X218171412Y-77354428D01*
X218199983Y-77297285D01*
X218199983Y-77268714D01*
X218171412Y-77211571D01*
X218142841Y-77183000D01*
X218085698Y-77154428D01*
X217971412Y-77154428D01*
X217914269Y-77183000D01*
X217885698Y-77211571D01*
X217857126Y-77268714D01*
X217857126Y-77297285D01*
X217885698Y-77354428D01*
X217914269Y-77383000D01*
X217971412Y-77411571D01*
X218085698Y-77411571D01*
X218142841Y-77440142D01*
X218171412Y-77468714D01*
X218199983Y-77525857D01*
X218199983Y-77640142D01*
X218171412Y-77697285D01*
X218142841Y-77725857D01*
X218085698Y-77754428D01*
X217971412Y-77754428D01*
X217914269Y-77725857D01*
X217885698Y-77697285D01*
X217857126Y-77640142D01*
X217857126Y-77525857D01*
X217885698Y-77468714D01*
X217914269Y-77440142D01*
X217971412Y-77411571D01*
X217285698Y-77754428D02*
X217628555Y-77754428D01*
X217457126Y-77754428D02*
X217457126Y-77154428D01*
X217514269Y-77240142D01*
X217571412Y-77297285D01*
X217628555Y-77325857D01*
%TO.C,C109*%
X215307126Y-80461571D02*
X215335698Y-80433000D01*
X215364269Y-80347285D01*
X215364269Y-80290142D01*
X215335698Y-80204428D01*
X215278555Y-80147285D01*
X215221412Y-80118714D01*
X215107126Y-80090142D01*
X215021412Y-80090142D01*
X214907126Y-80118714D01*
X214849983Y-80147285D01*
X214792841Y-80204428D01*
X214764269Y-80290142D01*
X214764269Y-80347285D01*
X214792841Y-80433000D01*
X214821412Y-80461571D01*
X215364269Y-81033000D02*
X215364269Y-80690142D01*
X215364269Y-80861571D02*
X214764269Y-80861571D01*
X214849983Y-80804428D01*
X214907126Y-80747285D01*
X214935698Y-80690142D01*
X214764269Y-81404428D02*
X214764269Y-81461571D01*
X214792841Y-81518714D01*
X214821412Y-81547285D01*
X214878555Y-81575857D01*
X214992841Y-81604428D01*
X215135698Y-81604428D01*
X215249983Y-81575857D01*
X215307126Y-81547285D01*
X215335698Y-81518714D01*
X215364269Y-81461571D01*
X215364269Y-81404428D01*
X215335698Y-81347285D01*
X215307126Y-81318714D01*
X215249983Y-81290142D01*
X215135698Y-81261571D01*
X214992841Y-81261571D01*
X214878555Y-81290142D01*
X214821412Y-81318714D01*
X214792841Y-81347285D01*
X214764269Y-81404428D01*
X215364269Y-81890142D02*
X215364269Y-82004428D01*
X215335698Y-82061571D01*
X215307126Y-82090142D01*
X215221412Y-82147285D01*
X215107126Y-82175857D01*
X214878555Y-82175857D01*
X214821412Y-82147285D01*
X214792841Y-82118714D01*
X214764269Y-82061571D01*
X214764269Y-81947285D01*
X214792841Y-81890142D01*
X214821412Y-81861571D01*
X214878555Y-81833000D01*
X215021412Y-81833000D01*
X215078555Y-81861571D01*
X215107126Y-81890142D01*
X215135698Y-81947285D01*
X215135698Y-82061571D01*
X215107126Y-82118714D01*
X215078555Y-82147285D01*
X215021412Y-82175857D01*
%TO.C,C46*%
X195607126Y-99047285D02*
X195635698Y-99018714D01*
X195664269Y-98933000D01*
X195664269Y-98875857D01*
X195635698Y-98790142D01*
X195578555Y-98733000D01*
X195521412Y-98704428D01*
X195407126Y-98675857D01*
X195321412Y-98675857D01*
X195207126Y-98704428D01*
X195149983Y-98733000D01*
X195092841Y-98790142D01*
X195064269Y-98875857D01*
X195064269Y-98933000D01*
X195092841Y-99018714D01*
X195121412Y-99047285D01*
X195264269Y-99561571D02*
X195664269Y-99561571D01*
X195035698Y-99418714D02*
X195464269Y-99275857D01*
X195464269Y-99647285D01*
X195064269Y-100133000D02*
X195064269Y-100018714D01*
X195092841Y-99961571D01*
X195121412Y-99933000D01*
X195207126Y-99875857D01*
X195321412Y-99847285D01*
X195549983Y-99847285D01*
X195607126Y-99875857D01*
X195635698Y-99904428D01*
X195664269Y-99961571D01*
X195664269Y-100075857D01*
X195635698Y-100133000D01*
X195607126Y-100161571D01*
X195549983Y-100190142D01*
X195407126Y-100190142D01*
X195349983Y-100161571D01*
X195321412Y-100133000D01*
X195292841Y-100075857D01*
X195292841Y-99961571D01*
X195321412Y-99904428D01*
X195349983Y-99875857D01*
X195407126Y-99847285D01*
%TO.C,C11*%
X206886395Y-87897285D02*
X206914966Y-87925857D01*
X207000681Y-87954428D01*
X207057823Y-87954428D01*
X207143538Y-87925857D01*
X207200681Y-87868714D01*
X207229252Y-87811571D01*
X207257823Y-87697285D01*
X207257823Y-87611571D01*
X207229252Y-87497285D01*
X207200681Y-87440142D01*
X207143538Y-87383000D01*
X207057823Y-87354428D01*
X207000681Y-87354428D01*
X206914966Y-87383000D01*
X206886395Y-87411571D01*
X206314966Y-87954428D02*
X206657823Y-87954428D01*
X206486395Y-87954428D02*
X206486395Y-87354428D01*
X206543538Y-87440142D01*
X206600681Y-87497285D01*
X206657823Y-87525857D01*
X205743538Y-87954428D02*
X206086395Y-87954428D01*
X205914966Y-87954428D02*
X205914966Y-87354428D01*
X205972109Y-87440142D01*
X206029252Y-87497285D01*
X206086395Y-87525857D01*
%TO.C,C108*%
X214307126Y-80511571D02*
X214335698Y-80483000D01*
X214364269Y-80397285D01*
X214364269Y-80340142D01*
X214335698Y-80254428D01*
X214278555Y-80197285D01*
X214221412Y-80168714D01*
X214107126Y-80140142D01*
X214021412Y-80140142D01*
X213907126Y-80168714D01*
X213849983Y-80197285D01*
X213792841Y-80254428D01*
X213764269Y-80340142D01*
X213764269Y-80397285D01*
X213792841Y-80483000D01*
X213821412Y-80511571D01*
X214364269Y-81083000D02*
X214364269Y-80740142D01*
X214364269Y-80911571D02*
X213764269Y-80911571D01*
X213849983Y-80854428D01*
X213907126Y-80797285D01*
X213935698Y-80740142D01*
X213764269Y-81454428D02*
X213764269Y-81511571D01*
X213792841Y-81568714D01*
X213821412Y-81597285D01*
X213878555Y-81625857D01*
X213992841Y-81654428D01*
X214135698Y-81654428D01*
X214249983Y-81625857D01*
X214307126Y-81597285D01*
X214335698Y-81568714D01*
X214364269Y-81511571D01*
X214364269Y-81454428D01*
X214335698Y-81397285D01*
X214307126Y-81368714D01*
X214249983Y-81340142D01*
X214135698Y-81311571D01*
X213992841Y-81311571D01*
X213878555Y-81340142D01*
X213821412Y-81368714D01*
X213792841Y-81397285D01*
X213764269Y-81454428D01*
X214021412Y-81997285D02*
X213992841Y-81940142D01*
X213964269Y-81911571D01*
X213907126Y-81883000D01*
X213878555Y-81883000D01*
X213821412Y-81911571D01*
X213792841Y-81940142D01*
X213764269Y-81997285D01*
X213764269Y-82111571D01*
X213792841Y-82168714D01*
X213821412Y-82197285D01*
X213878555Y-82225857D01*
X213907126Y-82225857D01*
X213964269Y-82197285D01*
X213992841Y-82168714D01*
X214021412Y-82111571D01*
X214021412Y-81997285D01*
X214049983Y-81940142D01*
X214078555Y-81911571D01*
X214135698Y-81883000D01*
X214249983Y-81883000D01*
X214307126Y-81911571D01*
X214335698Y-81940142D01*
X214364269Y-81997285D01*
X214364269Y-82111571D01*
X214335698Y-82168714D01*
X214307126Y-82197285D01*
X214249983Y-82225857D01*
X214135698Y-82225857D01*
X214078555Y-82197285D01*
X214049983Y-82168714D01*
X214021412Y-82111571D01*
%TO.C,C14*%
X208178555Y-95447285D02*
X208207126Y-95475857D01*
X208292841Y-95504428D01*
X208349983Y-95504428D01*
X208435698Y-95475857D01*
X208492841Y-95418714D01*
X208521412Y-95361571D01*
X208549983Y-95247285D01*
X208549983Y-95161571D01*
X208521412Y-95047285D01*
X208492841Y-94990142D01*
X208435698Y-94933000D01*
X208349983Y-94904428D01*
X208292841Y-94904428D01*
X208207126Y-94933000D01*
X208178555Y-94961571D01*
X207607126Y-95504428D02*
X207949983Y-95504428D01*
X207778555Y-95504428D02*
X207778555Y-94904428D01*
X207835698Y-94990142D01*
X207892841Y-95047285D01*
X207949983Y-95075857D01*
X207092841Y-95104428D02*
X207092841Y-95504428D01*
X207235698Y-94875857D02*
X207378555Y-95304428D01*
X207007126Y-95304428D01*
%TO.C,C86*%
X215988555Y-67067285D02*
X216017126Y-67095857D01*
X216102841Y-67124428D01*
X216159983Y-67124428D01*
X216245698Y-67095857D01*
X216302841Y-67038714D01*
X216331412Y-66981571D01*
X216359983Y-66867285D01*
X216359983Y-66781571D01*
X216331412Y-66667285D01*
X216302841Y-66610142D01*
X216245698Y-66553000D01*
X216159983Y-66524428D01*
X216102841Y-66524428D01*
X216017126Y-66553000D01*
X215988555Y-66581571D01*
X215645698Y-66781571D02*
X215702841Y-66753000D01*
X215731412Y-66724428D01*
X215759983Y-66667285D01*
X215759983Y-66638714D01*
X215731412Y-66581571D01*
X215702841Y-66553000D01*
X215645698Y-66524428D01*
X215531412Y-66524428D01*
X215474269Y-66553000D01*
X215445698Y-66581571D01*
X215417126Y-66638714D01*
X215417126Y-66667285D01*
X215445698Y-66724428D01*
X215474269Y-66753000D01*
X215531412Y-66781571D01*
X215645698Y-66781571D01*
X215702841Y-66810142D01*
X215731412Y-66838714D01*
X215759983Y-66895857D01*
X215759983Y-67010142D01*
X215731412Y-67067285D01*
X215702841Y-67095857D01*
X215645698Y-67124428D01*
X215531412Y-67124428D01*
X215474269Y-67095857D01*
X215445698Y-67067285D01*
X215417126Y-67010142D01*
X215417126Y-66895857D01*
X215445698Y-66838714D01*
X215474269Y-66810142D01*
X215531412Y-66781571D01*
X214902841Y-66524428D02*
X215017126Y-66524428D01*
X215074269Y-66553000D01*
X215102841Y-66581571D01*
X215159983Y-66667285D01*
X215188555Y-66781571D01*
X215188555Y-67010142D01*
X215159983Y-67067285D01*
X215131412Y-67095857D01*
X215074269Y-67124428D01*
X214959983Y-67124428D01*
X214902841Y-67095857D01*
X214874269Y-67067285D01*
X214845698Y-67010142D01*
X214845698Y-66867285D01*
X214874269Y-66810142D01*
X214902841Y-66781571D01*
X214959983Y-66753000D01*
X215074269Y-66753000D01*
X215131412Y-66781571D01*
X215159983Y-66810142D01*
X215188555Y-66867285D01*
%TO.C,C76*%
X216957126Y-78197285D02*
X216985698Y-78168714D01*
X217014269Y-78083000D01*
X217014269Y-78025857D01*
X216985698Y-77940142D01*
X216928555Y-77883000D01*
X216871412Y-77854428D01*
X216757126Y-77825857D01*
X216671412Y-77825857D01*
X216557126Y-77854428D01*
X216499983Y-77883000D01*
X216442841Y-77940142D01*
X216414269Y-78025857D01*
X216414269Y-78083000D01*
X216442841Y-78168714D01*
X216471412Y-78197285D01*
X216414269Y-78397285D02*
X216414269Y-78797285D01*
X217014269Y-78540142D01*
X216414269Y-79283000D02*
X216414269Y-79168714D01*
X216442841Y-79111571D01*
X216471412Y-79083000D01*
X216557126Y-79025857D01*
X216671412Y-78997285D01*
X216899983Y-78997285D01*
X216957126Y-79025857D01*
X216985698Y-79054428D01*
X217014269Y-79111571D01*
X217014269Y-79225857D01*
X216985698Y-79283000D01*
X216957126Y-79311571D01*
X216899983Y-79340142D01*
X216757126Y-79340142D01*
X216699983Y-79311571D01*
X216671412Y-79283000D01*
X216642841Y-79225857D01*
X216642841Y-79111571D01*
X216671412Y-79054428D01*
X216699983Y-79025857D01*
X216757126Y-78997285D01*
%TO.C,C105*%
X196407126Y-85211571D02*
X196435698Y-85183000D01*
X196464269Y-85097285D01*
X196464269Y-85040142D01*
X196435698Y-84954428D01*
X196378555Y-84897285D01*
X196321412Y-84868714D01*
X196207126Y-84840142D01*
X196121412Y-84840142D01*
X196007126Y-84868714D01*
X195949983Y-84897285D01*
X195892841Y-84954428D01*
X195864269Y-85040142D01*
X195864269Y-85097285D01*
X195892841Y-85183000D01*
X195921412Y-85211571D01*
X196464269Y-85783000D02*
X196464269Y-85440142D01*
X196464269Y-85611571D02*
X195864269Y-85611571D01*
X195949983Y-85554428D01*
X196007126Y-85497285D01*
X196035698Y-85440142D01*
X195864269Y-86154428D02*
X195864269Y-86211571D01*
X195892841Y-86268714D01*
X195921412Y-86297285D01*
X195978555Y-86325857D01*
X196092841Y-86354428D01*
X196235698Y-86354428D01*
X196349983Y-86325857D01*
X196407126Y-86297285D01*
X196435698Y-86268714D01*
X196464269Y-86211571D01*
X196464269Y-86154428D01*
X196435698Y-86097285D01*
X196407126Y-86068714D01*
X196349983Y-86040142D01*
X196235698Y-86011571D01*
X196092841Y-86011571D01*
X195978555Y-86040142D01*
X195921412Y-86068714D01*
X195892841Y-86097285D01*
X195864269Y-86154428D01*
X195864269Y-86897285D02*
X195864269Y-86611571D01*
X196149983Y-86583000D01*
X196121412Y-86611571D01*
X196092841Y-86668714D01*
X196092841Y-86811571D01*
X196121412Y-86868714D01*
X196149983Y-86897285D01*
X196207126Y-86925857D01*
X196349983Y-86925857D01*
X196407126Y-86897285D01*
X196435698Y-86868714D01*
X196464269Y-86811571D01*
X196464269Y-86668714D01*
X196435698Y-86611571D01*
X196407126Y-86583000D01*
%TO.C,C85*%
X215728555Y-78447285D02*
X215757126Y-78475857D01*
X215842841Y-78504428D01*
X215899983Y-78504428D01*
X215985698Y-78475857D01*
X216042841Y-78418714D01*
X216071412Y-78361571D01*
X216099983Y-78247285D01*
X216099983Y-78161571D01*
X216071412Y-78047285D01*
X216042841Y-77990142D01*
X215985698Y-77933000D01*
X215899983Y-77904428D01*
X215842841Y-77904428D01*
X215757126Y-77933000D01*
X215728555Y-77961571D01*
X215385698Y-78161571D02*
X215442841Y-78133000D01*
X215471412Y-78104428D01*
X215499983Y-78047285D01*
X215499983Y-78018714D01*
X215471412Y-77961571D01*
X215442841Y-77933000D01*
X215385698Y-77904428D01*
X215271412Y-77904428D01*
X215214269Y-77933000D01*
X215185698Y-77961571D01*
X215157126Y-78018714D01*
X215157126Y-78047285D01*
X215185698Y-78104428D01*
X215214269Y-78133000D01*
X215271412Y-78161571D01*
X215385698Y-78161571D01*
X215442841Y-78190142D01*
X215471412Y-78218714D01*
X215499983Y-78275857D01*
X215499983Y-78390142D01*
X215471412Y-78447285D01*
X215442841Y-78475857D01*
X215385698Y-78504428D01*
X215271412Y-78504428D01*
X215214269Y-78475857D01*
X215185698Y-78447285D01*
X215157126Y-78390142D01*
X215157126Y-78275857D01*
X215185698Y-78218714D01*
X215214269Y-78190142D01*
X215271412Y-78161571D01*
X214614269Y-77904428D02*
X214899983Y-77904428D01*
X214928555Y-78190142D01*
X214899983Y-78161571D01*
X214842841Y-78133000D01*
X214699983Y-78133000D01*
X214642841Y-78161571D01*
X214614269Y-78190142D01*
X214585698Y-78247285D01*
X214585698Y-78390142D01*
X214614269Y-78447285D01*
X214642841Y-78475857D01*
X214699983Y-78504428D01*
X214842841Y-78504428D01*
X214899983Y-78475857D01*
X214928555Y-78447285D01*
%TO.C,R25*%
X205614269Y-95247285D02*
X205328555Y-95047285D01*
X205614269Y-94904428D02*
X205014269Y-94904428D01*
X205014269Y-95133000D01*
X205042841Y-95190142D01*
X205071412Y-95218714D01*
X205128555Y-95247285D01*
X205214269Y-95247285D01*
X205271412Y-95218714D01*
X205299983Y-95190142D01*
X205328555Y-95133000D01*
X205328555Y-94904428D01*
X205071412Y-95475857D02*
X205042841Y-95504428D01*
X205014269Y-95561571D01*
X205014269Y-95704428D01*
X205042841Y-95761571D01*
X205071412Y-95790142D01*
X205128555Y-95818714D01*
X205185698Y-95818714D01*
X205271412Y-95790142D01*
X205614269Y-95447285D01*
X205614269Y-95818714D01*
X205014269Y-96361571D02*
X205014269Y-96075857D01*
X205299983Y-96047285D01*
X205271412Y-96075857D01*
X205242841Y-96133000D01*
X205242841Y-96275857D01*
X205271412Y-96333000D01*
X205299983Y-96361571D01*
X205357126Y-96390142D01*
X205499983Y-96390142D01*
X205557126Y-96361571D01*
X205585698Y-96333000D01*
X205614269Y-96275857D01*
X205614269Y-96133000D01*
X205585698Y-96075857D01*
X205557126Y-96047285D01*
%TO.C,C75*%
X205178555Y-71647285D02*
X205207126Y-71675857D01*
X205292841Y-71704428D01*
X205349983Y-71704428D01*
X205435698Y-71675857D01*
X205492841Y-71618714D01*
X205521412Y-71561571D01*
X205549983Y-71447285D01*
X205549983Y-71361571D01*
X205521412Y-71247285D01*
X205492841Y-71190142D01*
X205435698Y-71133000D01*
X205349983Y-71104428D01*
X205292841Y-71104428D01*
X205207126Y-71133000D01*
X205178555Y-71161571D01*
X204978555Y-71104428D02*
X204578555Y-71104428D01*
X204835698Y-71704428D01*
X204064269Y-71104428D02*
X204349983Y-71104428D01*
X204378555Y-71390142D01*
X204349983Y-71361571D01*
X204292841Y-71333000D01*
X204149983Y-71333000D01*
X204092841Y-71361571D01*
X204064269Y-71390142D01*
X204035698Y-71447285D01*
X204035698Y-71590142D01*
X204064269Y-71647285D01*
X204092841Y-71675857D01*
X204149983Y-71704428D01*
X204292841Y-71704428D01*
X204349983Y-71675857D01*
X204378555Y-71647285D01*
%TO.C,C113*%
X212064269Y-66797285D02*
X212092841Y-66825857D01*
X212178555Y-66854428D01*
X212235698Y-66854428D01*
X212321412Y-66825857D01*
X212378555Y-66768714D01*
X212407126Y-66711571D01*
X212435698Y-66597285D01*
X212435698Y-66511571D01*
X212407126Y-66397285D01*
X212378555Y-66340142D01*
X212321412Y-66283000D01*
X212235698Y-66254428D01*
X212178555Y-66254428D01*
X212092841Y-66283000D01*
X212064269Y-66311571D01*
X211492841Y-66854428D02*
X211835698Y-66854428D01*
X211664269Y-66854428D02*
X211664269Y-66254428D01*
X211721412Y-66340142D01*
X211778555Y-66397285D01*
X211835698Y-66425857D01*
X210921412Y-66854428D02*
X211264269Y-66854428D01*
X211092841Y-66854428D02*
X211092841Y-66254428D01*
X211149983Y-66340142D01*
X211207126Y-66397285D01*
X211264269Y-66425857D01*
X210721412Y-66254428D02*
X210349983Y-66254428D01*
X210549983Y-66483000D01*
X210464269Y-66483000D01*
X210407126Y-66511571D01*
X210378555Y-66540142D01*
X210349983Y-66597285D01*
X210349983Y-66740142D01*
X210378555Y-66797285D01*
X210407126Y-66825857D01*
X210464269Y-66854428D01*
X210635698Y-66854428D01*
X210692841Y-66825857D01*
X210721412Y-66797285D01*
%TO.C,C64*%
X218728555Y-73497285D02*
X218757126Y-73525857D01*
X218842841Y-73554428D01*
X218899983Y-73554428D01*
X218985698Y-73525857D01*
X219042841Y-73468714D01*
X219071412Y-73411571D01*
X219099983Y-73297285D01*
X219099983Y-73211571D01*
X219071412Y-73097285D01*
X219042841Y-73040142D01*
X218985698Y-72983000D01*
X218899983Y-72954428D01*
X218842841Y-72954428D01*
X218757126Y-72983000D01*
X218728555Y-73011571D01*
X218214269Y-72954428D02*
X218328555Y-72954428D01*
X218385698Y-72983000D01*
X218414269Y-73011571D01*
X218471412Y-73097285D01*
X218499983Y-73211571D01*
X218499983Y-73440142D01*
X218471412Y-73497285D01*
X218442841Y-73525857D01*
X218385698Y-73554428D01*
X218271412Y-73554428D01*
X218214269Y-73525857D01*
X218185698Y-73497285D01*
X218157126Y-73440142D01*
X218157126Y-73297285D01*
X218185698Y-73240142D01*
X218214269Y-73211571D01*
X218271412Y-73183000D01*
X218385698Y-73183000D01*
X218442841Y-73211571D01*
X218471412Y-73240142D01*
X218499983Y-73297285D01*
X217642841Y-73154428D02*
X217642841Y-73554428D01*
X217785698Y-72925857D02*
X217928555Y-73354428D01*
X217557126Y-73354428D01*
D10*
%TO.C,J1*%
X186333333Y-57035380D02*
X186333333Y-57749666D01*
X186380952Y-57892523D01*
X186476190Y-57987761D01*
X186619047Y-58035380D01*
X186714285Y-58035380D01*
X185333333Y-58035380D02*
X185904761Y-58035380D01*
X185619047Y-58035380D02*
X185619047Y-57035380D01*
X185714285Y-57178238D01*
X185809523Y-57273476D01*
X185904761Y-57321095D01*
D12*
%TO.C,C24*%
X217807126Y-94397285D02*
X217835698Y-94368714D01*
X217864269Y-94283000D01*
X217864269Y-94225857D01*
X217835698Y-94140142D01*
X217778555Y-94083000D01*
X217721412Y-94054428D01*
X217607126Y-94025857D01*
X217521412Y-94025857D01*
X217407126Y-94054428D01*
X217349983Y-94083000D01*
X217292841Y-94140142D01*
X217264269Y-94225857D01*
X217264269Y-94283000D01*
X217292841Y-94368714D01*
X217321412Y-94397285D01*
X217321412Y-94625857D02*
X217292841Y-94654428D01*
X217264269Y-94711571D01*
X217264269Y-94854428D01*
X217292841Y-94911571D01*
X217321412Y-94940142D01*
X217378555Y-94968714D01*
X217435698Y-94968714D01*
X217521412Y-94940142D01*
X217864269Y-94597285D01*
X217864269Y-94968714D01*
X217464269Y-95483000D02*
X217864269Y-95483000D01*
X217235698Y-95340142D02*
X217664269Y-95197285D01*
X217664269Y-95568714D01*
%TO.C,C10*%
X208978555Y-87897285D02*
X209007126Y-87925857D01*
X209092841Y-87954428D01*
X209149983Y-87954428D01*
X209235698Y-87925857D01*
X209292841Y-87868714D01*
X209321412Y-87811571D01*
X209349983Y-87697285D01*
X209349983Y-87611571D01*
X209321412Y-87497285D01*
X209292841Y-87440142D01*
X209235698Y-87383000D01*
X209149983Y-87354428D01*
X209092841Y-87354428D01*
X209007126Y-87383000D01*
X208978555Y-87411571D01*
X208407126Y-87954428D02*
X208749983Y-87954428D01*
X208578555Y-87954428D02*
X208578555Y-87354428D01*
X208635698Y-87440142D01*
X208692841Y-87497285D01*
X208749983Y-87525857D01*
X208035698Y-87354428D02*
X207978555Y-87354428D01*
X207921412Y-87383000D01*
X207892841Y-87411571D01*
X207864269Y-87468714D01*
X207835698Y-87583000D01*
X207835698Y-87725857D01*
X207864269Y-87840142D01*
X207892841Y-87897285D01*
X207921412Y-87925857D01*
X207978555Y-87954428D01*
X208035698Y-87954428D01*
X208092841Y-87925857D01*
X208121412Y-87897285D01*
X208149983Y-87840142D01*
X208178555Y-87725857D01*
X208178555Y-87583000D01*
X208149983Y-87468714D01*
X208121412Y-87411571D01*
X208092841Y-87383000D01*
X208035698Y-87354428D01*
%TO.C,C118*%
X220764269Y-114597285D02*
X220792841Y-114625857D01*
X220878555Y-114654428D01*
X220935698Y-114654428D01*
X221021412Y-114625857D01*
X221078555Y-114568714D01*
X221107126Y-114511571D01*
X221135698Y-114397285D01*
X221135698Y-114311571D01*
X221107126Y-114197285D01*
X221078555Y-114140142D01*
X221021412Y-114083000D01*
X220935698Y-114054428D01*
X220878555Y-114054428D01*
X220792841Y-114083000D01*
X220764269Y-114111571D01*
X220192841Y-114654428D02*
X220535698Y-114654428D01*
X220364269Y-114654428D02*
X220364269Y-114054428D01*
X220421412Y-114140142D01*
X220478555Y-114197285D01*
X220535698Y-114225857D01*
X219621412Y-114654428D02*
X219964269Y-114654428D01*
X219792841Y-114654428D02*
X219792841Y-114054428D01*
X219849983Y-114140142D01*
X219907126Y-114197285D01*
X219964269Y-114225857D01*
X219278555Y-114311571D02*
X219335698Y-114283000D01*
X219364269Y-114254428D01*
X219392841Y-114197285D01*
X219392841Y-114168714D01*
X219364269Y-114111571D01*
X219335698Y-114083000D01*
X219278555Y-114054428D01*
X219164269Y-114054428D01*
X219107126Y-114083000D01*
X219078555Y-114111571D01*
X219049983Y-114168714D01*
X219049983Y-114197285D01*
X219078555Y-114254428D01*
X219107126Y-114283000D01*
X219164269Y-114311571D01*
X219278555Y-114311571D01*
X219335698Y-114340142D01*
X219364269Y-114368714D01*
X219392841Y-114425857D01*
X219392841Y-114540142D01*
X219364269Y-114597285D01*
X219335698Y-114625857D01*
X219278555Y-114654428D01*
X219164269Y-114654428D01*
X219107126Y-114625857D01*
X219078555Y-114597285D01*
X219049983Y-114540142D01*
X219049983Y-114425857D01*
X219078555Y-114368714D01*
X219107126Y-114340142D01*
X219164269Y-114311571D01*
%TO.C,R42*%
X221778555Y-111504428D02*
X221978555Y-111218714D01*
X222121412Y-111504428D02*
X222121412Y-110904428D01*
X221892841Y-110904428D01*
X221835698Y-110933000D01*
X221807126Y-110961571D01*
X221778555Y-111018714D01*
X221778555Y-111104428D01*
X221807126Y-111161571D01*
X221835698Y-111190142D01*
X221892841Y-111218714D01*
X222121412Y-111218714D01*
X221264269Y-111104428D02*
X221264269Y-111504428D01*
X221407126Y-110875857D02*
X221549983Y-111304428D01*
X221178555Y-111304428D01*
X220978555Y-110961571D02*
X220949983Y-110933000D01*
X220892841Y-110904428D01*
X220749983Y-110904428D01*
X220692841Y-110933000D01*
X220664269Y-110961571D01*
X220635698Y-111018714D01*
X220635698Y-111075857D01*
X220664269Y-111161571D01*
X221007126Y-111504428D01*
X220635698Y-111504428D01*
%TO.C,C117*%
X220657126Y-76861571D02*
X220685698Y-76833000D01*
X220714269Y-76747285D01*
X220714269Y-76690142D01*
X220685698Y-76604428D01*
X220628555Y-76547285D01*
X220571412Y-76518714D01*
X220457126Y-76490142D01*
X220371412Y-76490142D01*
X220257126Y-76518714D01*
X220199983Y-76547285D01*
X220142841Y-76604428D01*
X220114269Y-76690142D01*
X220114269Y-76747285D01*
X220142841Y-76833000D01*
X220171412Y-76861571D01*
X220714269Y-77433000D02*
X220714269Y-77090142D01*
X220714269Y-77261571D02*
X220114269Y-77261571D01*
X220199983Y-77204428D01*
X220257126Y-77147285D01*
X220285698Y-77090142D01*
X220714269Y-78004428D02*
X220714269Y-77661571D01*
X220714269Y-77833000D02*
X220114269Y-77833000D01*
X220199983Y-77775857D01*
X220257126Y-77718714D01*
X220285698Y-77661571D01*
X220114269Y-78204428D02*
X220114269Y-78604428D01*
X220714269Y-78347285D01*
%TO.C,C74*%
X203578555Y-66397285D02*
X203607126Y-66425857D01*
X203692841Y-66454428D01*
X203749983Y-66454428D01*
X203835698Y-66425857D01*
X203892841Y-66368714D01*
X203921412Y-66311571D01*
X203949983Y-66197285D01*
X203949983Y-66111571D01*
X203921412Y-65997285D01*
X203892841Y-65940142D01*
X203835698Y-65883000D01*
X203749983Y-65854428D01*
X203692841Y-65854428D01*
X203607126Y-65883000D01*
X203578555Y-65911571D01*
X203378555Y-65854428D02*
X202978555Y-65854428D01*
X203235698Y-66454428D01*
X202492841Y-66054428D02*
X202492841Y-66454428D01*
X202635698Y-65825857D02*
X202778555Y-66254428D01*
X202407126Y-66254428D01*
%TO.C,R11*%
X212764269Y-55997285D02*
X212478555Y-55797285D01*
X212764269Y-55654428D02*
X212164269Y-55654428D01*
X212164269Y-55883000D01*
X212192841Y-55940142D01*
X212221412Y-55968714D01*
X212278555Y-55997285D01*
X212364269Y-55997285D01*
X212421412Y-55968714D01*
X212449983Y-55940142D01*
X212478555Y-55883000D01*
X212478555Y-55654428D01*
X212764269Y-56568714D02*
X212764269Y-56225857D01*
X212764269Y-56397285D02*
X212164269Y-56397285D01*
X212249983Y-56340142D01*
X212307126Y-56283000D01*
X212335698Y-56225857D01*
X212764269Y-57140142D02*
X212764269Y-56797285D01*
X212764269Y-56968714D02*
X212164269Y-56968714D01*
X212249983Y-56911571D01*
X212307126Y-56854428D01*
X212335698Y-56797285D01*
%TO.C,R26*%
X213214269Y-90797285D02*
X212928555Y-90597285D01*
X213214269Y-90454428D02*
X212614269Y-90454428D01*
X212614269Y-90683000D01*
X212642841Y-90740142D01*
X212671412Y-90768714D01*
X212728555Y-90797285D01*
X212814269Y-90797285D01*
X212871412Y-90768714D01*
X212899983Y-90740142D01*
X212928555Y-90683000D01*
X212928555Y-90454428D01*
X212671412Y-91025857D02*
X212642841Y-91054428D01*
X212614269Y-91111571D01*
X212614269Y-91254428D01*
X212642841Y-91311571D01*
X212671412Y-91340142D01*
X212728555Y-91368714D01*
X212785698Y-91368714D01*
X212871412Y-91340142D01*
X213214269Y-90997285D01*
X213214269Y-91368714D01*
X212614269Y-91883000D02*
X212614269Y-91768714D01*
X212642841Y-91711571D01*
X212671412Y-91683000D01*
X212757126Y-91625857D01*
X212871412Y-91597285D01*
X213099983Y-91597285D01*
X213157126Y-91625857D01*
X213185698Y-91654428D01*
X213214269Y-91711571D01*
X213214269Y-91825857D01*
X213185698Y-91883000D01*
X213157126Y-91911571D01*
X213099983Y-91940142D01*
X212957126Y-91940142D01*
X212899983Y-91911571D01*
X212871412Y-91883000D01*
X212842841Y-91825857D01*
X212842841Y-91711571D01*
X212871412Y-91654428D01*
X212899983Y-91625857D01*
X212957126Y-91597285D01*
%TO.C,R14*%
X208264269Y-55997285D02*
X207978555Y-55797285D01*
X208264269Y-55654428D02*
X207664269Y-55654428D01*
X207664269Y-55883000D01*
X207692841Y-55940142D01*
X207721412Y-55968714D01*
X207778555Y-55997285D01*
X207864269Y-55997285D01*
X207921412Y-55968714D01*
X207949983Y-55940142D01*
X207978555Y-55883000D01*
X207978555Y-55654428D01*
X208264269Y-56568714D02*
X208264269Y-56225857D01*
X208264269Y-56397285D02*
X207664269Y-56397285D01*
X207749983Y-56340142D01*
X207807126Y-56283000D01*
X207835698Y-56225857D01*
X207864269Y-57083000D02*
X208264269Y-57083000D01*
X207635698Y-56940142D02*
X208064269Y-56797285D01*
X208064269Y-57168714D01*
%TO.C,C70*%
X220278555Y-79397285D02*
X220307126Y-79425857D01*
X220392841Y-79454428D01*
X220449983Y-79454428D01*
X220535698Y-79425857D01*
X220592841Y-79368714D01*
X220621412Y-79311571D01*
X220649983Y-79197285D01*
X220649983Y-79111571D01*
X220621412Y-78997285D01*
X220592841Y-78940142D01*
X220535698Y-78883000D01*
X220449983Y-78854428D01*
X220392841Y-78854428D01*
X220307126Y-78883000D01*
X220278555Y-78911571D01*
X220078555Y-78854428D02*
X219678555Y-78854428D01*
X219935698Y-79454428D01*
X219335698Y-78854428D02*
X219278555Y-78854428D01*
X219221412Y-78883000D01*
X219192841Y-78911571D01*
X219164269Y-78968714D01*
X219135698Y-79083000D01*
X219135698Y-79225857D01*
X219164269Y-79340142D01*
X219192841Y-79397285D01*
X219221412Y-79425857D01*
X219278555Y-79454428D01*
X219335698Y-79454428D01*
X219392841Y-79425857D01*
X219421412Y-79397285D01*
X219449983Y-79340142D01*
X219478555Y-79225857D01*
X219478555Y-79083000D01*
X219449983Y-78968714D01*
X219421412Y-78911571D01*
X219392841Y-78883000D01*
X219335698Y-78854428D01*
%TO.C,D8*%
X210475698Y-63854428D02*
X210475698Y-63254428D01*
X210332841Y-63254428D01*
X210247126Y-63283000D01*
X210189983Y-63340142D01*
X210161412Y-63397285D01*
X210132841Y-63511571D01*
X210132841Y-63597285D01*
X210161412Y-63711571D01*
X210189983Y-63768714D01*
X210247126Y-63825857D01*
X210332841Y-63854428D01*
X210475698Y-63854428D01*
X209789983Y-63511571D02*
X209847126Y-63483000D01*
X209875698Y-63454428D01*
X209904269Y-63397285D01*
X209904269Y-63368714D01*
X209875698Y-63311571D01*
X209847126Y-63283000D01*
X209789983Y-63254428D01*
X209675698Y-63254428D01*
X209618555Y-63283000D01*
X209589983Y-63311571D01*
X209561412Y-63368714D01*
X209561412Y-63397285D01*
X209589983Y-63454428D01*
X209618555Y-63483000D01*
X209675698Y-63511571D01*
X209789983Y-63511571D01*
X209847126Y-63540142D01*
X209875698Y-63568714D01*
X209904269Y-63625857D01*
X209904269Y-63740142D01*
X209875698Y-63797285D01*
X209847126Y-63825857D01*
X209789983Y-63854428D01*
X209675698Y-63854428D01*
X209618555Y-63825857D01*
X209589983Y-63797285D01*
X209561412Y-63740142D01*
X209561412Y-63625857D01*
X209589983Y-63568714D01*
X209618555Y-63540142D01*
X209675698Y-63511571D01*
%TO.C,C51*%
X195678555Y-92797285D02*
X195707126Y-92825857D01*
X195792841Y-92854428D01*
X195849983Y-92854428D01*
X195935698Y-92825857D01*
X195992841Y-92768714D01*
X196021412Y-92711571D01*
X196049983Y-92597285D01*
X196049983Y-92511571D01*
X196021412Y-92397285D01*
X195992841Y-92340142D01*
X195935698Y-92283000D01*
X195849983Y-92254428D01*
X195792841Y-92254428D01*
X195707126Y-92283000D01*
X195678555Y-92311571D01*
X195135698Y-92254428D02*
X195421412Y-92254428D01*
X195449983Y-92540142D01*
X195421412Y-92511571D01*
X195364269Y-92483000D01*
X195221412Y-92483000D01*
X195164269Y-92511571D01*
X195135698Y-92540142D01*
X195107126Y-92597285D01*
X195107126Y-92740142D01*
X195135698Y-92797285D01*
X195164269Y-92825857D01*
X195221412Y-92854428D01*
X195364269Y-92854428D01*
X195421412Y-92825857D01*
X195449983Y-92797285D01*
X194535698Y-92854428D02*
X194878555Y-92854428D01*
X194707126Y-92854428D02*
X194707126Y-92254428D01*
X194764269Y-92340142D01*
X194821412Y-92397285D01*
X194878555Y-92425857D01*
%TO.C,C16*%
X218917126Y-89947285D02*
X218945698Y-89918714D01*
X218974269Y-89833000D01*
X218974269Y-89775857D01*
X218945698Y-89690142D01*
X218888555Y-89633000D01*
X218831412Y-89604428D01*
X218717126Y-89575857D01*
X218631412Y-89575857D01*
X218517126Y-89604428D01*
X218459983Y-89633000D01*
X218402841Y-89690142D01*
X218374269Y-89775857D01*
X218374269Y-89833000D01*
X218402841Y-89918714D01*
X218431412Y-89947285D01*
X218974269Y-90518714D02*
X218974269Y-90175857D01*
X218974269Y-90347285D02*
X218374269Y-90347285D01*
X218459983Y-90290142D01*
X218517126Y-90233000D01*
X218545698Y-90175857D01*
X218374269Y-91033000D02*
X218374269Y-90918714D01*
X218402841Y-90861571D01*
X218431412Y-90833000D01*
X218517126Y-90775857D01*
X218631412Y-90747285D01*
X218859983Y-90747285D01*
X218917126Y-90775857D01*
X218945698Y-90804428D01*
X218974269Y-90861571D01*
X218974269Y-90975857D01*
X218945698Y-91033000D01*
X218917126Y-91061571D01*
X218859983Y-91090142D01*
X218717126Y-91090142D01*
X218659983Y-91061571D01*
X218631412Y-91033000D01*
X218602841Y-90975857D01*
X218602841Y-90861571D01*
X218631412Y-90804428D01*
X218659983Y-90775857D01*
X218717126Y-90747285D01*
%TO.C,C18*%
X206378555Y-90997285D02*
X206407126Y-91025857D01*
X206492841Y-91054428D01*
X206549983Y-91054428D01*
X206635698Y-91025857D01*
X206692841Y-90968714D01*
X206721412Y-90911571D01*
X206749983Y-90797285D01*
X206749983Y-90711571D01*
X206721412Y-90597285D01*
X206692841Y-90540142D01*
X206635698Y-90483000D01*
X206549983Y-90454428D01*
X206492841Y-90454428D01*
X206407126Y-90483000D01*
X206378555Y-90511571D01*
X205807126Y-91054428D02*
X206149983Y-91054428D01*
X205978555Y-91054428D02*
X205978555Y-90454428D01*
X206035698Y-90540142D01*
X206092841Y-90597285D01*
X206149983Y-90625857D01*
X205464269Y-90711571D02*
X205521412Y-90683000D01*
X205549983Y-90654428D01*
X205578555Y-90597285D01*
X205578555Y-90568714D01*
X205549983Y-90511571D01*
X205521412Y-90483000D01*
X205464269Y-90454428D01*
X205349983Y-90454428D01*
X205292841Y-90483000D01*
X205264269Y-90511571D01*
X205235698Y-90568714D01*
X205235698Y-90597285D01*
X205264269Y-90654428D01*
X205292841Y-90683000D01*
X205349983Y-90711571D01*
X205464269Y-90711571D01*
X205521412Y-90740142D01*
X205549983Y-90768714D01*
X205578555Y-90825857D01*
X205578555Y-90940142D01*
X205549983Y-90997285D01*
X205521412Y-91025857D01*
X205464269Y-91054428D01*
X205349983Y-91054428D01*
X205292841Y-91025857D01*
X205264269Y-90997285D01*
X205235698Y-90940142D01*
X205235698Y-90825857D01*
X205264269Y-90768714D01*
X205292841Y-90740142D01*
X205349983Y-90711571D01*
%TO.C,D9*%
X218642857Y-55746428D02*
X218642857Y-55146428D01*
X218500000Y-55146428D01*
X218414285Y-55175000D01*
X218357142Y-55232142D01*
X218328571Y-55289285D01*
X218300000Y-55403571D01*
X218300000Y-55489285D01*
X218328571Y-55603571D01*
X218357142Y-55660714D01*
X218414285Y-55717857D01*
X218500000Y-55746428D01*
X218642857Y-55746428D01*
X218014285Y-55746428D02*
X217900000Y-55746428D01*
X217842857Y-55717857D01*
X217814285Y-55689285D01*
X217757142Y-55603571D01*
X217728571Y-55489285D01*
X217728571Y-55260714D01*
X217757142Y-55203571D01*
X217785714Y-55175000D01*
X217842857Y-55146428D01*
X217957142Y-55146428D01*
X218014285Y-55175000D01*
X218042857Y-55203571D01*
X218071428Y-55260714D01*
X218071428Y-55403571D01*
X218042857Y-55460714D01*
X218014285Y-55489285D01*
X217957142Y-55517857D01*
X217842857Y-55517857D01*
X217785714Y-55489285D01*
X217757142Y-55460714D01*
X217728571Y-55403571D01*
%TO.C,C56*%
X202158555Y-90487285D02*
X202187126Y-90515857D01*
X202272841Y-90544428D01*
X202329983Y-90544428D01*
X202415698Y-90515857D01*
X202472841Y-90458714D01*
X202501412Y-90401571D01*
X202529983Y-90287285D01*
X202529983Y-90201571D01*
X202501412Y-90087285D01*
X202472841Y-90030142D01*
X202415698Y-89973000D01*
X202329983Y-89944428D01*
X202272841Y-89944428D01*
X202187126Y-89973000D01*
X202158555Y-90001571D01*
X201615698Y-89944428D02*
X201901412Y-89944428D01*
X201929983Y-90230142D01*
X201901412Y-90201571D01*
X201844269Y-90173000D01*
X201701412Y-90173000D01*
X201644269Y-90201571D01*
X201615698Y-90230142D01*
X201587126Y-90287285D01*
X201587126Y-90430142D01*
X201615698Y-90487285D01*
X201644269Y-90515857D01*
X201701412Y-90544428D01*
X201844269Y-90544428D01*
X201901412Y-90515857D01*
X201929983Y-90487285D01*
X201072841Y-89944428D02*
X201187126Y-89944428D01*
X201244269Y-89973000D01*
X201272841Y-90001571D01*
X201329983Y-90087285D01*
X201358555Y-90201571D01*
X201358555Y-90430142D01*
X201329983Y-90487285D01*
X201301412Y-90515857D01*
X201244269Y-90544428D01*
X201129983Y-90544428D01*
X201072841Y-90515857D01*
X201044269Y-90487285D01*
X201015698Y-90430142D01*
X201015698Y-90287285D01*
X201044269Y-90230142D01*
X201072841Y-90201571D01*
X201129983Y-90173000D01*
X201244269Y-90173000D01*
X201301412Y-90201571D01*
X201329983Y-90230142D01*
X201358555Y-90287285D01*
D14*
%TO.C,R29*%
X200339200Y-97389015D02*
X200646482Y-97389015D01*
X200339200Y-98149015D02*
X200646482Y-98149015D01*
%TO.C,C12*%
X211000677Y-94493000D02*
X210785005Y-94493000D01*
X211000677Y-93773000D02*
X210785005Y-93773000D01*
%TO.C,C43*%
X193662841Y-95880836D02*
X193662841Y-95665164D01*
X194382841Y-95880836D02*
X194382841Y-95665164D01*
%TO.C,C111*%
X206652841Y-74115836D02*
X206652841Y-73900164D01*
X205932841Y-74115836D02*
X205932841Y-73900164D01*
%TO.C,R13*%
X209872841Y-58436641D02*
X209872841Y-58129359D01*
X209112841Y-58436641D02*
X209112841Y-58129359D01*
%TO.C,R8*%
X203546482Y-121703000D02*
X203239200Y-121703000D01*
X203546482Y-122463000D02*
X203239200Y-122463000D01*
%TO.C,C107*%
X205452841Y-80415836D02*
X205452841Y-80200164D01*
X204732841Y-80415836D02*
X204732841Y-80200164D01*
%TO.C,C96*%
X201700677Y-78943000D02*
X201485005Y-78943000D01*
X201700677Y-79663000D02*
X201485005Y-79663000D01*
%TO.C,C131*%
X219620677Y-109923000D02*
X219405005Y-109923000D01*
X219620677Y-110643000D02*
X219405005Y-110643000D01*
%TO.C,C17*%
X211282841Y-88490836D02*
X211282841Y-88275164D01*
X212002841Y-88490836D02*
X212002841Y-88275164D01*
%TO.C,C110*%
X208057841Y-72444252D02*
X208057841Y-71921748D01*
X209527841Y-72444252D02*
X209527841Y-71921748D01*
%TO.C,C54*%
X195632841Y-90945164D02*
X195632841Y-91160836D01*
X196352841Y-90945164D02*
X196352841Y-91160836D01*
%TO.C,C101*%
X202732841Y-76490836D02*
X202732841Y-76275164D01*
X203452841Y-76490836D02*
X203452841Y-76275164D01*
%TO.C,R45*%
X201572841Y-66169359D02*
X201572841Y-66476641D01*
X200812841Y-66169359D02*
X200812841Y-66476641D01*
%TO.C,C100*%
X201800677Y-76443000D02*
X201585005Y-76443000D01*
X201800677Y-75723000D02*
X201585005Y-75723000D01*
%TO.C,R24*%
X210012841Y-95936641D02*
X210012841Y-95629359D01*
X210772841Y-95936641D02*
X210772841Y-95629359D01*
%TO.C,C36*%
X199730677Y-92633000D02*
X199515005Y-92633000D01*
X199730677Y-91913000D02*
X199515005Y-91913000D01*
%TO.C,C47*%
X195782841Y-95880836D02*
X195782841Y-95665164D01*
X195062841Y-95880836D02*
X195062841Y-95665164D01*
D10*
%TO.C,J2*%
X227392841Y-58548000D02*
X222373341Y-58548000D01*
X222373341Y-95818000D02*
X222373341Y-93338000D01*
X229612341Y-95818000D02*
X229612341Y-93338000D01*
X222373341Y-58548000D02*
X222373341Y-61028000D01*
X227392841Y-95818000D02*
X222373341Y-95818000D01*
X229612341Y-58548000D02*
X229612341Y-61028000D01*
X221492841Y-92783000D02*
G75*
G03*
X221492841Y-92783000I-100000J0D01*
G01*
D14*
%TO.C,R9*%
X213612841Y-58436641D02*
X213612841Y-58129359D01*
X214372841Y-58436641D02*
X214372841Y-58129359D01*
%TO.C,C30*%
X206633421Y-94343000D02*
X206352261Y-94343000D01*
X206633421Y-93323000D02*
X206352261Y-93323000D01*
%TO.C,R12*%
X211372841Y-58436641D02*
X211372841Y-58129359D01*
X210612841Y-58436641D02*
X210612841Y-58129359D01*
%TO.C,C7*%
X210354093Y-97923000D02*
X208931589Y-97923000D01*
X210354093Y-100643000D02*
X208931589Y-100643000D01*
%TO.C,C49*%
X196782841Y-95880836D02*
X196782841Y-95665164D01*
X196062841Y-95880836D02*
X196062841Y-95665164D01*
%TO.C,C41*%
X191757841Y-97021748D02*
X191757841Y-97544252D01*
X193227841Y-97021748D02*
X193227841Y-97544252D01*
%TO.C,C80*%
X207500677Y-75223000D02*
X207285005Y-75223000D01*
X207500677Y-75943000D02*
X207285005Y-75943000D01*
%TO.C,C35*%
X198252841Y-91545164D02*
X198252841Y-91760836D01*
X197532841Y-91545164D02*
X197532841Y-91760836D01*
%TO.C,C21*%
X219352841Y-95725164D02*
X219352841Y-95940836D01*
X218632841Y-95725164D02*
X218632841Y-95940836D01*
%TO.C,C15*%
X208982841Y-96425164D02*
X208982841Y-96640836D01*
X209702841Y-96425164D02*
X209702841Y-96640836D01*
%TO.C,C39*%
X198682841Y-95880836D02*
X198682841Y-95665164D01*
X197962841Y-95880836D02*
X197962841Y-95665164D01*
%TO.C,C112*%
X206932841Y-74115836D02*
X206932841Y-73900164D01*
X207652841Y-74115836D02*
X207652841Y-73900164D01*
%TO.C,C31*%
X211932841Y-94325164D02*
X211932841Y-94540836D01*
X212652841Y-94325164D02*
X212652841Y-94540836D01*
%TO.C,C65*%
X208202841Y-80420836D02*
X208202841Y-80205164D01*
X207482841Y-80420836D02*
X207482841Y-80205164D01*
%TO.C,C99*%
X201800677Y-76823000D02*
X201585005Y-76823000D01*
X201800677Y-77543000D02*
X201585005Y-77543000D01*
%TO.C,C53*%
X198512841Y-89715164D02*
X198512841Y-89930836D01*
X199232841Y-89715164D02*
X199232841Y-89930836D01*
%TO.C,C115*%
X209430677Y-75653000D02*
X209215005Y-75653000D01*
X209430677Y-74933000D02*
X209215005Y-74933000D01*
%TO.C,C72*%
X209470677Y-78673000D02*
X209255005Y-78673000D01*
X209470677Y-79393000D02*
X209255005Y-79393000D01*
%TO.C,C77*%
X207500677Y-78076332D02*
X207285005Y-78076332D01*
X207500677Y-77356332D02*
X207285005Y-77356332D01*
%TO.C,C69*%
X209135005Y-80263000D02*
X209350677Y-80263000D01*
X209135005Y-79543000D02*
X209350677Y-79543000D01*
%TO.C,R47*%
X213902841Y-70696641D02*
X213902841Y-70389359D01*
X213142841Y-70696641D02*
X213142841Y-70389359D01*
%TO.C,C42*%
X201515005Y-95533000D02*
X201730677Y-95533000D01*
X201515005Y-94813000D02*
X201730677Y-94813000D01*
%TO.C,C88*%
X202632841Y-71723580D02*
X202632841Y-71442420D01*
X201612841Y-71723580D02*
X201612841Y-71442420D01*
%TO.C,C89*%
X209350677Y-80463000D02*
X209135005Y-80463000D01*
X209350677Y-81183000D02*
X209135005Y-81183000D01*
%TO.C,C95*%
X201700677Y-77823000D02*
X201485005Y-77823000D01*
X201700677Y-78543000D02*
X201485005Y-78543000D01*
%TO.C,C114*%
X211291589Y-73598000D02*
X211814093Y-73598000D01*
X211291589Y-72128000D02*
X211814093Y-72128000D01*
%TO.C,C3*%
X219155005Y-70383000D02*
X219370677Y-70383000D01*
X219155005Y-69663000D02*
X219370677Y-69663000D01*
%TO.C,C55*%
X194672841Y-90395164D02*
X194672841Y-90610836D01*
X195392841Y-90395164D02*
X195392841Y-90610836D01*
%TO.C,C13*%
X214352841Y-94875164D02*
X214352841Y-95090836D01*
X213632841Y-94875164D02*
X213632841Y-95090836D01*
%TO.C,C129*%
X219620677Y-103533000D02*
X219405005Y-103533000D01*
X219620677Y-102813000D02*
X219405005Y-102813000D01*
%TO.C,D10*%
X205152841Y-115003000D02*
X205152841Y-119983000D01*
X202432841Y-115003000D02*
X202432841Y-119983000D01*
X202432841Y-115003000D02*
X205152841Y-115003000D01*
%TO.C,C106*%
X201597841Y-85501748D02*
X201597841Y-86024252D01*
X200127841Y-85501748D02*
X200127841Y-86024252D01*
%TO.C,C116*%
X208512841Y-76545164D02*
X208512841Y-76760836D01*
X209232841Y-76545164D02*
X209232841Y-76760836D01*
%TO.C,C40*%
X198332841Y-98132420D02*
X198332841Y-98413580D01*
X197312841Y-98132420D02*
X197312841Y-98413580D01*
%TO.C,C67*%
X206532841Y-80415836D02*
X206532841Y-80200164D01*
X207252841Y-80415836D02*
X207252841Y-80200164D01*
%TO.C,C45*%
X199830677Y-94813000D02*
X199615005Y-94813000D01*
X199830677Y-95533000D02*
X199615005Y-95533000D01*
%TO.C,C78*%
X205652841Y-76175164D02*
X205652841Y-76390836D01*
X206372841Y-76175164D02*
X206372841Y-76390836D01*
%TO.C,C92*%
X201700677Y-80743000D02*
X201485005Y-80743000D01*
X201700677Y-80023000D02*
X201485005Y-80023000D01*
%TO.C,C8*%
X214381589Y-97923000D02*
X215804093Y-97923000D01*
X214381589Y-100643000D02*
X215804093Y-100643000D01*
%TO.C,C27*%
X214800677Y-87623000D02*
X214585005Y-87623000D01*
X214800677Y-88343000D02*
X214585005Y-88343000D01*
%TO.C,C83*%
X204485005Y-78423000D02*
X204700677Y-78423000D01*
X204485005Y-79143000D02*
X204700677Y-79143000D01*
%TO.C,R28*%
X200646482Y-97053000D02*
X200339200Y-97053000D01*
X200646482Y-96293000D02*
X200339200Y-96293000D01*
%TO.C,C29*%
X209000677Y-93773000D02*
X208785005Y-93773000D01*
X209000677Y-94493000D02*
X208785005Y-94493000D01*
%TO.C,C97*%
X196442841Y-69184252D02*
X196442841Y-67761748D01*
X199162841Y-69184252D02*
X199162841Y-67761748D01*
%TO.C,C82*%
X204485005Y-75223000D02*
X204700677Y-75223000D01*
X204485005Y-75943000D02*
X204700677Y-75943000D01*
%TO.C,R27*%
X211446482Y-92203000D02*
X211139200Y-92203000D01*
X211446482Y-92963000D02*
X211139200Y-92963000D01*
%TO.C,C52*%
X198252841Y-89675164D02*
X198252841Y-89890836D01*
X197532841Y-89675164D02*
X197532841Y-89890836D01*
%TO.C,C63*%
X217482841Y-67894252D02*
X217482841Y-66471748D01*
X220202841Y-67894252D02*
X220202841Y-66471748D01*
%TO.C,C98*%
X199667841Y-69294252D02*
X199667841Y-68771748D01*
X201137841Y-69294252D02*
X201137841Y-68771748D01*
%TO.C,C84*%
X207500677Y-78423000D02*
X207285005Y-78423000D01*
X207500677Y-79143000D02*
X207285005Y-79143000D01*
%TO.C,R48*%
X208469200Y-68993000D02*
X208776482Y-68993000D01*
X208469200Y-69753000D02*
X208776482Y-69753000D01*
%TO.C,C57*%
X199780677Y-91723000D02*
X199565005Y-91723000D01*
X199780677Y-91003000D02*
X199565005Y-91003000D01*
%TO.C,C73*%
X207152841Y-68494252D02*
X207152841Y-67071748D01*
X204432841Y-68494252D02*
X204432841Y-67071748D01*
%TO.C,L4*%
X205732841Y-119882622D02*
X205732841Y-119083378D01*
X206852841Y-119882622D02*
X206852841Y-119083378D01*
%TO.C,C91*%
X209100677Y-73973000D02*
X208885005Y-73973000D01*
X209100677Y-74693000D02*
X208885005Y-74693000D01*
%TO.C,C32*%
X193355005Y-89813000D02*
X193570677Y-89813000D01*
X193355005Y-90533000D02*
X193570677Y-90533000D01*
%TO.C,C34*%
X196552841Y-90425164D02*
X196552841Y-90640836D01*
X197272841Y-90425164D02*
X197272841Y-90640836D01*
%TO.C,C38*%
X197062841Y-95880836D02*
X197062841Y-95665164D01*
X197782841Y-95880836D02*
X197782841Y-95665164D01*
%TO.C,C79*%
X204485005Y-76289666D02*
X204700677Y-76289666D01*
X204485005Y-77009666D02*
X204700677Y-77009666D01*
%TO.C,C9*%
X216952841Y-96565164D02*
X216952841Y-96780836D01*
X216232841Y-96565164D02*
X216232841Y-96780836D01*
%TO.C,R10*%
X215872841Y-58436641D02*
X215872841Y-58129359D01*
X215112841Y-58436641D02*
X215112841Y-58129359D01*
%TO.C,R49*%
X219686482Y-103783000D02*
X219379200Y-103783000D01*
X219686482Y-104543000D02*
X219379200Y-104543000D01*
%TO.C,C128*%
X219620677Y-108923000D02*
X219405005Y-108923000D01*
X219620677Y-109643000D02*
X219405005Y-109643000D01*
%TO.C,C20*%
X212600677Y-96543000D02*
X212385005Y-96543000D01*
X212600677Y-95823000D02*
X212385005Y-95823000D01*
%TO.C,R46*%
X200502841Y-66159359D02*
X200502841Y-66466641D01*
X199742841Y-66159359D02*
X199742841Y-66466641D01*
%TO.C,C19*%
X216152261Y-92763000D02*
X216433421Y-92763000D01*
X216152261Y-91743000D02*
X216433421Y-91743000D01*
%TO.C,C2*%
X221302841Y-68220836D02*
X221302841Y-68005164D01*
X220582841Y-68220836D02*
X220582841Y-68005164D01*
%TO.C,C71*%
X214982841Y-105848000D02*
X218402841Y-105848000D01*
X214982841Y-112783000D02*
X214982841Y-105848000D01*
X218402841Y-105848000D02*
X218402841Y-112783000D01*
%TO.C,C44*%
X196782841Y-97565164D02*
X196782841Y-97780836D01*
X196062841Y-97565164D02*
X196062841Y-97780836D01*
%TO.C,C90*%
X202642841Y-74035164D02*
X202642841Y-74250836D01*
X203362841Y-74035164D02*
X203362841Y-74250836D01*
%TO.C,C37*%
X201415005Y-92633000D02*
X201630677Y-92633000D01*
X201415005Y-91913000D02*
X201630677Y-91913000D01*
%TO.C,C33*%
X191470677Y-90523000D02*
X191255005Y-90523000D01*
X191470677Y-89803000D02*
X191255005Y-89803000D01*
%TO.C,C102*%
X183857841Y-106693000D02*
X183857841Y-103273000D01*
X190792841Y-106693000D02*
X183857841Y-106693000D01*
X183857841Y-103273000D02*
X190792841Y-103273000D01*
%TO.C,C48*%
X193662841Y-97565164D02*
X193662841Y-97780836D01*
X194382841Y-97565164D02*
X194382841Y-97780836D01*
%TO.C,C26*%
X212932841Y-88490836D02*
X212932841Y-88275164D01*
X213652841Y-88490836D02*
X213652841Y-88275164D01*
%TO.C,C25*%
X215232841Y-96565164D02*
X215232841Y-96780836D01*
X215952841Y-96565164D02*
X215952841Y-96780836D01*
%TO.C,C94*%
X203452841Y-78290836D02*
X203452841Y-78075164D01*
X202732841Y-78290836D02*
X202732841Y-78075164D01*
%TO.C,C87*%
X214831589Y-72058000D02*
X215354093Y-72058000D01*
X214831589Y-73528000D02*
X215354093Y-73528000D01*
%TO.C,R23*%
X206262841Y-97586641D02*
X206262841Y-97279359D01*
X207022841Y-97586641D02*
X207022841Y-97279359D01*
%TO.C,C66*%
X206352841Y-80415836D02*
X206352841Y-80200164D01*
X205632841Y-80415836D02*
X205632841Y-80200164D01*
%TO.C,C93*%
X197584093Y-80488000D02*
X197061589Y-80488000D01*
X197584093Y-81958000D02*
X197061589Y-81958000D01*
%TO.C,C81*%
X207500677Y-76289666D02*
X207285005Y-76289666D01*
X207500677Y-77009666D02*
X207285005Y-77009666D01*
%TO.C,C109*%
X204552841Y-80415836D02*
X204552841Y-80200164D01*
X203832841Y-80415836D02*
X203832841Y-80200164D01*
%TO.C,C46*%
X195062841Y-97565164D02*
X195062841Y-97780836D01*
X195782841Y-97565164D02*
X195782841Y-97780836D01*
%TO.C,C11*%
X206608517Y-89043000D02*
X206392845Y-89043000D01*
X206608517Y-88323000D02*
X206392845Y-88323000D01*
%TO.C,C108*%
X203652841Y-80415836D02*
X203652841Y-80200164D01*
X202932841Y-80415836D02*
X202932841Y-80200164D01*
%TO.C,C14*%
X208152841Y-96545164D02*
X208152841Y-96760836D01*
X207432841Y-96545164D02*
X207432841Y-96760836D01*
%TO.C,C86*%
X214262841Y-70164252D02*
X214262841Y-68741748D01*
X216982841Y-70164252D02*
X216982841Y-68741748D01*
%TO.C,C76*%
X205662841Y-78190836D02*
X205662841Y-77975164D01*
X206382841Y-78190836D02*
X206382841Y-77975164D01*
%TO.C,C105*%
X199632841Y-85171748D02*
X199632841Y-86594252D01*
X196912841Y-85171748D02*
X196912841Y-86594252D01*
%TO.C,C85*%
X204485005Y-77356332D02*
X204700677Y-77356332D01*
X204485005Y-78076332D02*
X204700677Y-78076332D01*
%TO.C,R25*%
X205972841Y-97279359D02*
X205972841Y-97586641D01*
X205212841Y-97279359D02*
X205212841Y-97586641D01*
%TO.C,C75*%
X205477841Y-73644252D02*
X205477841Y-73121748D01*
X204007841Y-73644252D02*
X204007841Y-73121748D01*
%TO.C,C113*%
X212752841Y-69924252D02*
X212752841Y-68501748D01*
X210032841Y-69924252D02*
X210032841Y-68501748D01*
%TO.C,C64*%
X218711589Y-72668000D02*
X219234093Y-72668000D01*
X218711589Y-71198000D02*
X219234093Y-71198000D01*
D10*
%TO.C,J1*%
X182373341Y-58548000D02*
X182373341Y-61028000D01*
X187392841Y-95818000D02*
X182373341Y-95818000D01*
X189612341Y-58548000D02*
X189612341Y-61028000D01*
X182373341Y-95818000D02*
X182373341Y-93338000D01*
X189612341Y-95818000D02*
X189612341Y-93338000D01*
X187392841Y-58548000D02*
X182373341Y-58548000D01*
X181492841Y-92783000D02*
G75*
G03*
X181492841Y-92783000I-100000J0D01*
G01*
D14*
%TO.C,C24*%
X217952841Y-96565164D02*
X217952841Y-96780836D01*
X217232841Y-96565164D02*
X217232841Y-96780836D01*
%TO.C,C10*%
X208700677Y-88323000D02*
X208485005Y-88323000D01*
X208700677Y-89043000D02*
X208485005Y-89043000D01*
%TO.C,C118*%
X219732841Y-112890836D02*
X219732841Y-112675164D01*
X220452841Y-112890836D02*
X220452841Y-112675164D01*
%TO.C,R42*%
X219686482Y-111663000D02*
X219379200Y-111663000D01*
X219686482Y-110903000D02*
X219379200Y-110903000D01*
%TO.C,C117*%
X209462841Y-76525164D02*
X209462841Y-76740836D01*
X210182841Y-76525164D02*
X210182841Y-76740836D01*
%TO.C,C74*%
X202482841Y-68694252D02*
X202482841Y-68171748D01*
X203952841Y-68694252D02*
X203952841Y-68171748D01*
%TO.C,R11*%
X212112841Y-58436641D02*
X212112841Y-58129359D01*
X212872841Y-58436641D02*
X212872841Y-58129359D01*
%TO.C,R26*%
X213039200Y-92203000D02*
X213346482Y-92203000D01*
X213039200Y-92963000D02*
X213346482Y-92963000D01*
%TO.C,R14*%
X207612841Y-58436641D02*
X207612841Y-58129359D01*
X208372841Y-58436641D02*
X208372841Y-58129359D01*
%TO.C,C70*%
X209470677Y-77713000D02*
X209255005Y-77713000D01*
X209470677Y-78433000D02*
X209255005Y-78433000D01*
%TO.C,D8*%
X213112841Y-60083000D02*
X213112841Y-62803000D01*
X213112841Y-62803000D02*
X208132841Y-62803000D01*
X213112841Y-60083000D02*
X208132841Y-60083000D01*
%TO.C,C51*%
X199204093Y-92978000D02*
X198681589Y-92978000D01*
X199204093Y-94448000D02*
X198681589Y-94448000D01*
%TO.C,C16*%
X217192841Y-90225164D02*
X217192841Y-90440836D01*
X217912841Y-90225164D02*
X217912841Y-90440836D01*
%TO.C,C18*%
X206133421Y-91623000D02*
X205852261Y-91623000D01*
X206133421Y-92643000D02*
X205852261Y-92643000D01*
%TO.C,D9*%
X216840000Y-56095000D02*
X219560000Y-56095000D01*
X216840000Y-56095000D02*
X216840000Y-61075000D01*
X219560000Y-56095000D02*
X219560000Y-61075000D01*
%TO.C,C56*%
X201755005Y-90753000D02*
X201970677Y-90753000D01*
X201755005Y-91473000D02*
X201970677Y-91473000D01*
%TD*%
M02*
