%TF.GenerationSoftware,KiCad,Pcbnew,(6.0.0)*%
%TF.CreationDate,2022-08-10T17:12:35-04:00*%
%TF.ProjectId,ecp5u85-bse-usb,65637035-7538-4352-9d62-73652d757362,B*%
%TF.SameCoordinates,Original*%
%TF.FileFunction,Legend,Top*%
%TF.FilePolarity,Positive*%
%FSLAX46Y46*%
G04 Gerber Fmt 4.6, Leading zero omitted, Abs format (unit mm)*
G04 Created by KiCad (PCBNEW (6.0.0)) date 2022-08-10 17:12:35*
%MOMM*%
%LPD*%
G01*
G04 APERTURE LIST*
%ADD10C,0.150000*%
%ADD11C,0.200000*%
%ADD12C,0.120000*%
%ADD13C,0.010200*%
G04 APERTURE END LIST*
D10*
X227251666Y-119141666D02*
X227485000Y-119841666D01*
X227718333Y-119141666D01*
X228238333Y-119918333D02*
X228051666Y-119651666D01*
X227918333Y-119918333D02*
X227918333Y-119358333D01*
X228131666Y-119358333D01*
X228185000Y-119385000D01*
X228211666Y-119411666D01*
X228238333Y-119465000D01*
X228238333Y-119545000D01*
X228211666Y-119598333D01*
X228185000Y-119625000D01*
X228131666Y-119651666D01*
X227918333Y-119651666D01*
X228451666Y-119758333D02*
X228718333Y-119758333D01*
X228398333Y-119918333D02*
X228585000Y-119358333D01*
X228771666Y-119918333D01*
X228958333Y-119918333D02*
X228958333Y-119358333D01*
X229145000Y-119758333D01*
X229331666Y-119358333D01*
X229331666Y-119918333D01*
X196359507Y-63999666D02*
X196759507Y-63999666D01*
X196559507Y-64699666D02*
X196559507Y-63999666D01*
X196992841Y-64699666D02*
X196992841Y-63999666D01*
X197226174Y-64499666D01*
X197459507Y-63999666D01*
X197459507Y-64699666D01*
X197759507Y-64666333D02*
X197859507Y-64699666D01*
X198026174Y-64699666D01*
X198092841Y-64666333D01*
X198126174Y-64633000D01*
X198159507Y-64566333D01*
X198159507Y-64499666D01*
X198126174Y-64433000D01*
X198092841Y-64399666D01*
X198026174Y-64366333D01*
X197892841Y-64333000D01*
X197826174Y-64299666D01*
X197792841Y-64266333D01*
X197759507Y-64199666D01*
X197759507Y-64133000D01*
X197792841Y-64066333D01*
X197826174Y-64033000D01*
X197892841Y-63999666D01*
X198059507Y-63999666D01*
X198159507Y-64033000D01*
X224911841Y-66566333D02*
X224911841Y-65866333D01*
X225809507Y-65999666D02*
X225476174Y-66233000D01*
X225809507Y-66399666D02*
X225109507Y-66399666D01*
X225109507Y-66133000D01*
X225142841Y-66066333D01*
X225176174Y-66033000D01*
X225242841Y-65999666D01*
X225342841Y-65999666D01*
X225409507Y-66033000D01*
X225442841Y-66066333D01*
X225476174Y-66133000D01*
X225476174Y-66399666D01*
X224911841Y-65866333D02*
X224911841Y-65233000D01*
X225442841Y-65699666D02*
X225442841Y-65466333D01*
X225809507Y-65366333D02*
X225809507Y-65699666D01*
X225109507Y-65699666D01*
X225109507Y-65366333D01*
X224911841Y-65233000D02*
X224911841Y-64566333D01*
X225776174Y-65099666D02*
X225809507Y-64999666D01*
X225809507Y-64833000D01*
X225776174Y-64766333D01*
X225742841Y-64733000D01*
X225676174Y-64699666D01*
X225609507Y-64699666D01*
X225542841Y-64733000D01*
X225509507Y-64766333D01*
X225476174Y-64833000D01*
X225442841Y-64966333D01*
X225409507Y-65033000D01*
X225376174Y-65066333D01*
X225309507Y-65099666D01*
X225242841Y-65099666D01*
X225176174Y-65066333D01*
X225142841Y-65033000D01*
X225109507Y-64966333D01*
X225109507Y-64799666D01*
X225142841Y-64699666D01*
X224911841Y-64566333D02*
X224911841Y-63933000D01*
X225442841Y-64399666D02*
X225442841Y-64166333D01*
X225809507Y-64066333D02*
X225809507Y-64399666D01*
X225109507Y-64399666D01*
X225109507Y-64066333D01*
X224911841Y-63933000D02*
X224911841Y-63399666D01*
X225109507Y-63866333D02*
X225109507Y-63466333D01*
X225809507Y-63666333D02*
X225109507Y-63666333D01*
X194259507Y-64033000D02*
X194192841Y-63999666D01*
X194092841Y-63999666D01*
X193992841Y-64033000D01*
X193926174Y-64099666D01*
X193892841Y-64166333D01*
X193859507Y-64299666D01*
X193859507Y-64399666D01*
X193892841Y-64533000D01*
X193926174Y-64599666D01*
X193992841Y-64666333D01*
X194092841Y-64699666D01*
X194159507Y-64699666D01*
X194259507Y-64666333D01*
X194292841Y-64633000D01*
X194292841Y-64399666D01*
X194159507Y-64399666D01*
X194592841Y-64699666D02*
X194592841Y-63999666D01*
X194992841Y-64699666D01*
X194992841Y-63999666D01*
X195326174Y-64699666D02*
X195326174Y-63999666D01*
X195492841Y-63999666D01*
X195592841Y-64033000D01*
X195659507Y-64099666D01*
X195692841Y-64166333D01*
X195726174Y-64299666D01*
X195726174Y-64399666D01*
X195692841Y-64533000D01*
X195659507Y-64599666D01*
X195592841Y-64666333D01*
X195492841Y-64699666D01*
X195326174Y-64699666D01*
X221192841Y-94858333D02*
X221226174Y-94825000D01*
X221292841Y-94791666D01*
X221459507Y-94791666D01*
X221526174Y-94825000D01*
X221559507Y-94858333D01*
X221592841Y-94925000D01*
X221592841Y-94991666D01*
X221559507Y-95091666D01*
X221159507Y-95491666D01*
X221592841Y-95491666D01*
X221892841Y-95425000D02*
X221926174Y-95458333D01*
X221892841Y-95491666D01*
X221859507Y-95458333D01*
X221892841Y-95425000D01*
X221892841Y-95491666D01*
X222559507Y-94791666D02*
X222226174Y-94791666D01*
X222192841Y-95125000D01*
X222226174Y-95091666D01*
X222292841Y-95058333D01*
X222459507Y-95058333D01*
X222526174Y-95091666D01*
X222559507Y-95125000D01*
X222592841Y-95191666D01*
X222592841Y-95358333D01*
X222559507Y-95425000D01*
X222526174Y-95458333D01*
X222459507Y-95491666D01*
X222292841Y-95491666D01*
X222226174Y-95458333D01*
X222192841Y-95425000D01*
X222792841Y-94791666D02*
X223026174Y-95491666D01*
X223259507Y-94791666D01*
X201490260Y-63999666D02*
X201890260Y-63999666D01*
X201690260Y-64699666D02*
X201690260Y-63999666D01*
X202523593Y-64633000D02*
X202490260Y-64666333D01*
X202390260Y-64699666D01*
X202323593Y-64699666D01*
X202223593Y-64666333D01*
X202156926Y-64599666D01*
X202123593Y-64533000D01*
X202090260Y-64399666D01*
X202090260Y-64299666D01*
X202123593Y-64166333D01*
X202156926Y-64099666D01*
X202223593Y-64033000D01*
X202323593Y-63999666D01*
X202390260Y-63999666D01*
X202490260Y-64033000D01*
X202523593Y-64066333D01*
X202823593Y-64699666D02*
X202823593Y-63999666D01*
X203223593Y-64699666D02*
X202923593Y-64299666D01*
X203223593Y-63999666D02*
X202823593Y-64399666D01*
X225359507Y-94799666D02*
X225792841Y-94799666D01*
X225559507Y-95066333D01*
X225659507Y-95066333D01*
X225726174Y-95099666D01*
X225759507Y-95133000D01*
X225792841Y-95199666D01*
X225792841Y-95366333D01*
X225759507Y-95433000D01*
X225726174Y-95466333D01*
X225659507Y-95499666D01*
X225459507Y-95499666D01*
X225392841Y-95466333D01*
X225359507Y-95433000D01*
X226092841Y-95433000D02*
X226126174Y-95466333D01*
X226092841Y-95499666D01*
X226059507Y-95466333D01*
X226092841Y-95433000D01*
X226092841Y-95499666D01*
X226359507Y-94799666D02*
X226792841Y-94799666D01*
X226559507Y-95066333D01*
X226659507Y-95066333D01*
X226726174Y-95099666D01*
X226759507Y-95133000D01*
X226792841Y-95199666D01*
X226792841Y-95366333D01*
X226759507Y-95433000D01*
X226726174Y-95466333D01*
X226659507Y-95499666D01*
X226459507Y-95499666D01*
X226392841Y-95466333D01*
X226359507Y-95433000D01*
X226992841Y-94799666D02*
X227226174Y-95499666D01*
X227459507Y-94799666D01*
X222811841Y-68193000D02*
X222811841Y-67493000D01*
X223709507Y-67626333D02*
X223376174Y-67859666D01*
X223709507Y-68026333D02*
X223009507Y-68026333D01*
X223009507Y-67759666D01*
X223042841Y-67693000D01*
X223076174Y-67659666D01*
X223142841Y-67626333D01*
X223242841Y-67626333D01*
X223309507Y-67659666D01*
X223342841Y-67693000D01*
X223376174Y-67759666D01*
X223376174Y-68026333D01*
X222811841Y-67493000D02*
X222811841Y-66859666D01*
X223342841Y-67326333D02*
X223342841Y-67093000D01*
X223709507Y-66993000D02*
X223709507Y-67326333D01*
X223009507Y-67326333D01*
X223009507Y-66993000D01*
X222811841Y-66859666D02*
X222811841Y-66193000D01*
X223676174Y-66726333D02*
X223709507Y-66626333D01*
X223709507Y-66459666D01*
X223676174Y-66393000D01*
X223642841Y-66359666D01*
X223576174Y-66326333D01*
X223509507Y-66326333D01*
X223442841Y-66359666D01*
X223409507Y-66393000D01*
X223376174Y-66459666D01*
X223342841Y-66593000D01*
X223309507Y-66659666D01*
X223276174Y-66693000D01*
X223209507Y-66726333D01*
X223142841Y-66726333D01*
X223076174Y-66693000D01*
X223042841Y-66659666D01*
X223009507Y-66593000D01*
X223009507Y-66426333D01*
X223042841Y-66326333D01*
X222811841Y-66193000D02*
X222811841Y-65559666D01*
X223342841Y-66026333D02*
X223342841Y-65793000D01*
X223709507Y-65693000D02*
X223709507Y-66026333D01*
X223009507Y-66026333D01*
X223009507Y-65693000D01*
X222811841Y-65559666D02*
X222811841Y-65026333D01*
X223009507Y-65493000D02*
X223009507Y-65093000D01*
X223709507Y-65293000D02*
X223009507Y-65293000D01*
X222811841Y-65026333D02*
X222811841Y-64466333D01*
X223786174Y-64573000D02*
X223519507Y-64759666D01*
X223786174Y-64893000D02*
X223226174Y-64893000D01*
X223226174Y-64679666D01*
X223252841Y-64626333D01*
X223279507Y-64599666D01*
X223332841Y-64573000D01*
X223412841Y-64573000D01*
X223466174Y-64599666D01*
X223492841Y-64626333D01*
X223519507Y-64679666D01*
X223519507Y-64893000D01*
X222811841Y-64466333D02*
X222811841Y-63959666D01*
X223492841Y-64333000D02*
X223492841Y-64146333D01*
X223786174Y-64066333D02*
X223786174Y-64333000D01*
X223226174Y-64333000D01*
X223226174Y-64066333D01*
X222811841Y-63959666D02*
X222811841Y-63373000D01*
X223839507Y-63453000D02*
X223812841Y-63506333D01*
X223759507Y-63559666D01*
X223679507Y-63639666D01*
X223652841Y-63693000D01*
X223652841Y-63746333D01*
X223786174Y-63719666D02*
X223759507Y-63773000D01*
X223706174Y-63826333D01*
X223599507Y-63853000D01*
X223412841Y-63853000D01*
X223306174Y-63826333D01*
X223252841Y-63773000D01*
X223226174Y-63719666D01*
X223226174Y-63613000D01*
X223252841Y-63559666D01*
X223306174Y-63506333D01*
X223412841Y-63479666D01*
X223599507Y-63479666D01*
X223706174Y-63506333D01*
X223759507Y-63559666D01*
X223786174Y-63613000D01*
X223786174Y-63719666D01*
X221492841Y-121599666D02*
X221092841Y-121599666D01*
X221292841Y-121599666D02*
X221292841Y-120899666D01*
X221226174Y-120999666D01*
X221159507Y-121066333D01*
X221092841Y-121099666D01*
X221792841Y-121533000D02*
X221826174Y-121566333D01*
X221792841Y-121599666D01*
X221759507Y-121566333D01*
X221792841Y-121533000D01*
X221792841Y-121599666D01*
X222492841Y-121599666D02*
X222092841Y-121599666D01*
X222292841Y-121599666D02*
X222292841Y-120899666D01*
X222226174Y-120999666D01*
X222159507Y-121066333D01*
X222092841Y-121099666D01*
X222692841Y-120899666D02*
X222926174Y-121599666D01*
X223159507Y-120899666D01*
D11*
X209828555Y-58435380D02*
X209257126Y-58435380D01*
X209542841Y-58435380D02*
X209542841Y-57435380D01*
X209447602Y-57578238D01*
X209352364Y-57673476D01*
X209257126Y-57721095D01*
D10*
X203976174Y-63999666D02*
X204376174Y-63999666D01*
X204176174Y-64699666D02*
X204176174Y-63999666D01*
X204609507Y-64699666D02*
X204609507Y-63999666D01*
X204776174Y-63999666D01*
X204876174Y-64033000D01*
X204942841Y-64099666D01*
X204976174Y-64166333D01*
X205009507Y-64299666D01*
X205009507Y-64399666D01*
X204976174Y-64533000D01*
X204942841Y-64599666D01*
X204876174Y-64666333D01*
X204776174Y-64699666D01*
X204609507Y-64699666D01*
X205442841Y-63999666D02*
X205576174Y-63999666D01*
X205642841Y-64033000D01*
X205709507Y-64099666D01*
X205742841Y-64233000D01*
X205742841Y-64466333D01*
X205709507Y-64599666D01*
X205642841Y-64666333D01*
X205576174Y-64699666D01*
X205442841Y-64699666D01*
X205376174Y-64666333D01*
X205309507Y-64599666D01*
X205276174Y-64466333D01*
X205276174Y-64233000D01*
X205309507Y-64099666D01*
X205376174Y-64033000D01*
X205442841Y-63999666D01*
X199076174Y-63999666D02*
X199476174Y-63999666D01*
X199276174Y-64699666D02*
X199276174Y-63999666D01*
X199709507Y-64699666D02*
X199709507Y-63999666D01*
X199876174Y-63999666D01*
X199976174Y-64033000D01*
X200042841Y-64099666D01*
X200076174Y-64166333D01*
X200109507Y-64299666D01*
X200109507Y-64399666D01*
X200076174Y-64533000D01*
X200042841Y-64599666D01*
X199976174Y-64666333D01*
X199876174Y-64699666D01*
X199709507Y-64699666D01*
X200409507Y-64699666D02*
X200409507Y-63999666D01*
D11*
X207995221Y-57435380D02*
X208090460Y-57435380D01*
X208185698Y-57483000D01*
X208233317Y-57530619D01*
X208280936Y-57625857D01*
X208328555Y-57816333D01*
X208328555Y-58054428D01*
X208280936Y-58244904D01*
X208233317Y-58340142D01*
X208185698Y-58387761D01*
X208090460Y-58435380D01*
X207995221Y-58435380D01*
X207899983Y-58387761D01*
X207852364Y-58340142D01*
X207804745Y-58244904D01*
X207757126Y-58054428D01*
X207757126Y-57816333D01*
X207804745Y-57625857D01*
X207852364Y-57530619D01*
X207899983Y-57483000D01*
X207995221Y-57435380D01*
D10*
X191159507Y-64099666D02*
X191592841Y-64099666D01*
X191359507Y-64366333D01*
X191459507Y-64366333D01*
X191526174Y-64399666D01*
X191559507Y-64433000D01*
X191592841Y-64499666D01*
X191592841Y-64666333D01*
X191559507Y-64733000D01*
X191526174Y-64766333D01*
X191459507Y-64799666D01*
X191259507Y-64799666D01*
X191192841Y-64766333D01*
X191159507Y-64733000D01*
X191892841Y-64733000D02*
X191926174Y-64766333D01*
X191892841Y-64799666D01*
X191859507Y-64766333D01*
X191892841Y-64733000D01*
X191892841Y-64799666D01*
X192159507Y-64099666D02*
X192592841Y-64099666D01*
X192359507Y-64366333D01*
X192459507Y-64366333D01*
X192526174Y-64399666D01*
X192559507Y-64433000D01*
X192592841Y-64499666D01*
X192592841Y-64666333D01*
X192559507Y-64733000D01*
X192526174Y-64766333D01*
X192459507Y-64799666D01*
X192259507Y-64799666D01*
X192192841Y-64766333D01*
X192159507Y-64733000D01*
X192792841Y-64099666D02*
X193026174Y-64799666D01*
X193259507Y-64099666D01*
D11*
X210757126Y-57530619D02*
X210804745Y-57483000D01*
X210899983Y-57435380D01*
X211138079Y-57435380D01*
X211233317Y-57483000D01*
X211280936Y-57530619D01*
X211328555Y-57625857D01*
X211328555Y-57721095D01*
X211280936Y-57863952D01*
X210709507Y-58435380D01*
X211328555Y-58435380D01*
X212209507Y-57435380D02*
X212828555Y-57435380D01*
X212495221Y-57816333D01*
X212638079Y-57816333D01*
X212733317Y-57863952D01*
X212780936Y-57911571D01*
X212828555Y-58006809D01*
X212828555Y-58244904D01*
X212780936Y-58340142D01*
X212733317Y-58387761D01*
X212638079Y-58435380D01*
X212352364Y-58435380D01*
X212257126Y-58387761D01*
X212209507Y-58340142D01*
D10*
%TO.C,D6*%
X209764269Y-53225857D02*
X209164269Y-53225857D01*
X209164269Y-53083000D01*
X209192841Y-52997285D01*
X209249983Y-52940142D01*
X209307126Y-52911571D01*
X209421412Y-52883000D01*
X209507126Y-52883000D01*
X209621412Y-52911571D01*
X209678555Y-52940142D01*
X209735698Y-52997285D01*
X209764269Y-53083000D01*
X209764269Y-53225857D01*
X209164269Y-52368714D02*
X209164269Y-52483000D01*
X209192841Y-52540142D01*
X209221412Y-52568714D01*
X209307126Y-52625857D01*
X209421412Y-52654428D01*
X209649983Y-52654428D01*
X209707126Y-52625857D01*
X209735698Y-52597285D01*
X209764269Y-52540142D01*
X209764269Y-52425857D01*
X209735698Y-52368714D01*
X209707126Y-52340142D01*
X209649983Y-52311571D01*
X209507126Y-52311571D01*
X209449983Y-52340142D01*
X209421412Y-52368714D01*
X209392841Y-52425857D01*
X209392841Y-52540142D01*
X209421412Y-52597285D01*
X209449983Y-52625857D01*
X209507126Y-52654428D01*
%TO.C,C61*%
X188714285Y-99160714D02*
X188742857Y-99189285D01*
X188771428Y-99275000D01*
X188771428Y-99332142D01*
X188742857Y-99417857D01*
X188685714Y-99475000D01*
X188628571Y-99503571D01*
X188514285Y-99532142D01*
X188428571Y-99532142D01*
X188314285Y-99503571D01*
X188257142Y-99475000D01*
X188200000Y-99417857D01*
X188171428Y-99332142D01*
X188171428Y-99275000D01*
X188200000Y-99189285D01*
X188228571Y-99160714D01*
X188171428Y-98646428D02*
X188171428Y-98760714D01*
X188200000Y-98817857D01*
X188228571Y-98846428D01*
X188314285Y-98903571D01*
X188428571Y-98932142D01*
X188657142Y-98932142D01*
X188714285Y-98903571D01*
X188742857Y-98875000D01*
X188771428Y-98817857D01*
X188771428Y-98703571D01*
X188742857Y-98646428D01*
X188714285Y-98617857D01*
X188657142Y-98589285D01*
X188514285Y-98589285D01*
X188457142Y-98617857D01*
X188428571Y-98646428D01*
X188400000Y-98703571D01*
X188400000Y-98817857D01*
X188428571Y-98875000D01*
X188457142Y-98903571D01*
X188514285Y-98932142D01*
X188771428Y-98017857D02*
X188771428Y-98360714D01*
X188771428Y-98189285D02*
X188171428Y-98189285D01*
X188257142Y-98246428D01*
X188314285Y-98303571D01*
X188342857Y-98360714D01*
%TO.C,C68*%
X218907126Y-82918714D02*
X218935698Y-82947285D01*
X218964269Y-83033000D01*
X218964269Y-83090142D01*
X218935698Y-83175857D01*
X218878555Y-83233000D01*
X218821412Y-83261571D01*
X218707126Y-83290142D01*
X218621412Y-83290142D01*
X218507126Y-83261571D01*
X218449983Y-83233000D01*
X218392841Y-83175857D01*
X218364269Y-83090142D01*
X218364269Y-83033000D01*
X218392841Y-82947285D01*
X218421412Y-82918714D01*
X218364269Y-82404428D02*
X218364269Y-82518714D01*
X218392841Y-82575857D01*
X218421412Y-82604428D01*
X218507126Y-82661571D01*
X218621412Y-82690142D01*
X218849983Y-82690142D01*
X218907126Y-82661571D01*
X218935698Y-82633000D01*
X218964269Y-82575857D01*
X218964269Y-82461571D01*
X218935698Y-82404428D01*
X218907126Y-82375857D01*
X218849983Y-82347285D01*
X218707126Y-82347285D01*
X218649983Y-82375857D01*
X218621412Y-82404428D01*
X218592841Y-82461571D01*
X218592841Y-82575857D01*
X218621412Y-82633000D01*
X218649983Y-82661571D01*
X218707126Y-82690142D01*
X218621412Y-82004428D02*
X218592841Y-82061571D01*
X218564269Y-82090142D01*
X218507126Y-82118714D01*
X218478555Y-82118714D01*
X218421412Y-82090142D01*
X218392841Y-82061571D01*
X218364269Y-82004428D01*
X218364269Y-81890142D01*
X218392841Y-81833000D01*
X218421412Y-81804428D01*
X218478555Y-81775857D01*
X218507126Y-81775857D01*
X218564269Y-81804428D01*
X218592841Y-81833000D01*
X218621412Y-81890142D01*
X218621412Y-82004428D01*
X218649983Y-82061571D01*
X218678555Y-82090142D01*
X218735698Y-82118714D01*
X218849983Y-82118714D01*
X218907126Y-82090142D01*
X218935698Y-82061571D01*
X218964269Y-82004428D01*
X218964269Y-81890142D01*
X218935698Y-81833000D01*
X218907126Y-81804428D01*
X218849983Y-81775857D01*
X218735698Y-81775857D01*
X218678555Y-81804428D01*
X218649983Y-81833000D01*
X218621412Y-81890142D01*
%TO.C,C130*%
X219257126Y-102204428D02*
X219285698Y-102233000D01*
X219314269Y-102318714D01*
X219314269Y-102375857D01*
X219285698Y-102461571D01*
X219228555Y-102518714D01*
X219171412Y-102547285D01*
X219057126Y-102575857D01*
X218971412Y-102575857D01*
X218857126Y-102547285D01*
X218799983Y-102518714D01*
X218742841Y-102461571D01*
X218714269Y-102375857D01*
X218714269Y-102318714D01*
X218742841Y-102233000D01*
X218771412Y-102204428D01*
X219314269Y-101633000D02*
X219314269Y-101975857D01*
X219314269Y-101804428D02*
X218714269Y-101804428D01*
X218799983Y-101861571D01*
X218857126Y-101918714D01*
X218885698Y-101975857D01*
X218714269Y-101433000D02*
X218714269Y-101061571D01*
X218942841Y-101261571D01*
X218942841Y-101175857D01*
X218971412Y-101118714D01*
X218999983Y-101090142D01*
X219057126Y-101061571D01*
X219199983Y-101061571D01*
X219257126Y-101090142D01*
X219285698Y-101118714D01*
X219314269Y-101175857D01*
X219314269Y-101347285D01*
X219285698Y-101404428D01*
X219257126Y-101433000D01*
X218714269Y-100690142D02*
X218714269Y-100633000D01*
X218742841Y-100575857D01*
X218771412Y-100547285D01*
X218828555Y-100518714D01*
X218942841Y-100490142D01*
X219085698Y-100490142D01*
X219199983Y-100518714D01*
X219257126Y-100547285D01*
X219285698Y-100575857D01*
X219314269Y-100633000D01*
X219314269Y-100690142D01*
X219285698Y-100747285D01*
X219257126Y-100775857D01*
X219199983Y-100804428D01*
X219085698Y-100833000D01*
X218942841Y-100833000D01*
X218828555Y-100804428D01*
X218771412Y-100775857D01*
X218742841Y-100747285D01*
X218714269Y-100690142D01*
%TO.C,Y1*%
X190914285Y-98110714D02*
X190914285Y-98396428D01*
X190714285Y-97796428D02*
X190914285Y-98110714D01*
X191114285Y-97796428D01*
X191628571Y-98396428D02*
X191285714Y-98396428D01*
X191457142Y-98396428D02*
X191457142Y-97796428D01*
X191400000Y-97882142D01*
X191342857Y-97939285D01*
X191285714Y-97967857D01*
%TO.C,R50*%
X217457126Y-104504428D02*
X217257126Y-104218714D01*
X217114269Y-104504428D02*
X217114269Y-103904428D01*
X217342841Y-103904428D01*
X217399983Y-103933000D01*
X217428555Y-103961571D01*
X217457126Y-104018714D01*
X217457126Y-104104428D01*
X217428555Y-104161571D01*
X217399983Y-104190142D01*
X217342841Y-104218714D01*
X217114269Y-104218714D01*
X217999983Y-103904428D02*
X217714269Y-103904428D01*
X217685698Y-104190142D01*
X217714269Y-104161571D01*
X217771412Y-104133000D01*
X217914269Y-104133000D01*
X217971412Y-104161571D01*
X217999983Y-104190142D01*
X218028555Y-104247285D01*
X218028555Y-104390142D01*
X217999983Y-104447285D01*
X217971412Y-104475857D01*
X217914269Y-104504428D01*
X217771412Y-104504428D01*
X217714269Y-104475857D01*
X217685698Y-104447285D01*
X218399983Y-103904428D02*
X218457126Y-103904428D01*
X218514269Y-103933000D01*
X218542841Y-103961571D01*
X218571412Y-104018714D01*
X218599983Y-104133000D01*
X218599983Y-104275857D01*
X218571412Y-104390142D01*
X218542841Y-104447285D01*
X218514269Y-104475857D01*
X218457126Y-104504428D01*
X218399983Y-104504428D01*
X218342841Y-104475857D01*
X218314269Y-104447285D01*
X218285698Y-104390142D01*
X218257126Y-104275857D01*
X218257126Y-104133000D01*
X218285698Y-104018714D01*
X218314269Y-103961571D01*
X218342841Y-103933000D01*
X218399983Y-103904428D01*
%TO.C,C5*%
X217142841Y-84347285D02*
X217114269Y-84375857D01*
X217028555Y-84404428D01*
X216971412Y-84404428D01*
X216885698Y-84375857D01*
X216828555Y-84318714D01*
X216799983Y-84261571D01*
X216771412Y-84147285D01*
X216771412Y-84061571D01*
X216799983Y-83947285D01*
X216828555Y-83890142D01*
X216885698Y-83833000D01*
X216971412Y-83804428D01*
X217028555Y-83804428D01*
X217114269Y-83833000D01*
X217142841Y-83861571D01*
X217685698Y-83804428D02*
X217399983Y-83804428D01*
X217371412Y-84090142D01*
X217399983Y-84061571D01*
X217457126Y-84033000D01*
X217599983Y-84033000D01*
X217657126Y-84061571D01*
X217685698Y-84090142D01*
X217714269Y-84147285D01*
X217714269Y-84290142D01*
X217685698Y-84347285D01*
X217657126Y-84375857D01*
X217599983Y-84404428D01*
X217457126Y-84404428D01*
X217399983Y-84375857D01*
X217371412Y-84347285D01*
%TO.C,C123*%
X229307126Y-117354428D02*
X229335698Y-117383000D01*
X229364269Y-117468714D01*
X229364269Y-117525857D01*
X229335698Y-117611571D01*
X229278555Y-117668714D01*
X229221412Y-117697285D01*
X229107126Y-117725857D01*
X229021412Y-117725857D01*
X228907126Y-117697285D01*
X228849983Y-117668714D01*
X228792841Y-117611571D01*
X228764269Y-117525857D01*
X228764269Y-117468714D01*
X228792841Y-117383000D01*
X228821412Y-117354428D01*
X229364269Y-116783000D02*
X229364269Y-117125857D01*
X229364269Y-116954428D02*
X228764269Y-116954428D01*
X228849983Y-117011571D01*
X228907126Y-117068714D01*
X228935698Y-117125857D01*
X228821412Y-116554428D02*
X228792841Y-116525857D01*
X228764269Y-116468714D01*
X228764269Y-116325857D01*
X228792841Y-116268714D01*
X228821412Y-116240142D01*
X228878555Y-116211571D01*
X228935698Y-116211571D01*
X229021412Y-116240142D01*
X229364269Y-116583000D01*
X229364269Y-116211571D01*
X228764269Y-116011571D02*
X228764269Y-115640142D01*
X228992841Y-115840142D01*
X228992841Y-115754428D01*
X229021412Y-115697285D01*
X229049983Y-115668714D01*
X229107126Y-115640142D01*
X229249983Y-115640142D01*
X229307126Y-115668714D01*
X229335698Y-115697285D01*
X229364269Y-115754428D01*
X229364269Y-115925857D01*
X229335698Y-115983000D01*
X229307126Y-116011571D01*
%TO.C,R16*%
X209314269Y-66418714D02*
X209028555Y-66618714D01*
X209314269Y-66761571D02*
X208714269Y-66761571D01*
X208714269Y-66533000D01*
X208742841Y-66475857D01*
X208771412Y-66447285D01*
X208828555Y-66418714D01*
X208914269Y-66418714D01*
X208971412Y-66447285D01*
X208999983Y-66475857D01*
X209028555Y-66533000D01*
X209028555Y-66761571D01*
X209314269Y-65847285D02*
X209314269Y-66190142D01*
X209314269Y-66018714D02*
X208714269Y-66018714D01*
X208799983Y-66075857D01*
X208857126Y-66133000D01*
X208885698Y-66190142D01*
X208714269Y-65333000D02*
X208714269Y-65447285D01*
X208742841Y-65504428D01*
X208771412Y-65533000D01*
X208857126Y-65590142D01*
X208971412Y-65618714D01*
X209199983Y-65618714D01*
X209257126Y-65590142D01*
X209285698Y-65561571D01*
X209314269Y-65504428D01*
X209314269Y-65390142D01*
X209285698Y-65333000D01*
X209257126Y-65304428D01*
X209199983Y-65275857D01*
X209057126Y-65275857D01*
X208999983Y-65304428D01*
X208971412Y-65333000D01*
X208942841Y-65390142D01*
X208942841Y-65504428D01*
X208971412Y-65561571D01*
X208999983Y-65590142D01*
X209057126Y-65618714D01*
%TO.C,U6*%
X213050913Y-112560583D02*
X213394365Y-112217132D01*
X213414568Y-112156522D01*
X213414568Y-112116116D01*
X213394365Y-112055507D01*
X213313553Y-111974695D01*
X213252944Y-111954492D01*
X213212538Y-111954492D01*
X213151928Y-111974695D01*
X212808477Y-112318147D01*
X212424619Y-111934289D02*
X212505431Y-112015101D01*
X212566040Y-112035304D01*
X212606446Y-112035304D01*
X212707461Y-112015101D01*
X212808477Y-111954492D01*
X212970101Y-111792867D01*
X212990304Y-111732258D01*
X212990304Y-111691852D01*
X212970101Y-111631243D01*
X212889289Y-111550431D01*
X212828680Y-111530228D01*
X212788274Y-111530228D01*
X212727664Y-111550431D01*
X212626649Y-111651446D01*
X212606446Y-111712055D01*
X212606446Y-111752461D01*
X212626649Y-111813071D01*
X212707461Y-111893883D01*
X212768071Y-111914086D01*
X212808477Y-111914086D01*
X212869086Y-111893883D01*
%TO.C,R37*%
X196964269Y-100468714D02*
X196678555Y-100668714D01*
X196964269Y-100811571D02*
X196364269Y-100811571D01*
X196364269Y-100583000D01*
X196392841Y-100525857D01*
X196421412Y-100497285D01*
X196478555Y-100468714D01*
X196564269Y-100468714D01*
X196621412Y-100497285D01*
X196649983Y-100525857D01*
X196678555Y-100583000D01*
X196678555Y-100811571D01*
X196364269Y-100268714D02*
X196364269Y-99897285D01*
X196592841Y-100097285D01*
X196592841Y-100011571D01*
X196621412Y-99954428D01*
X196649983Y-99925857D01*
X196707126Y-99897285D01*
X196849983Y-99897285D01*
X196907126Y-99925857D01*
X196935698Y-99954428D01*
X196964269Y-100011571D01*
X196964269Y-100183000D01*
X196935698Y-100240142D01*
X196907126Y-100268714D01*
X196364269Y-99697285D02*
X196364269Y-99297285D01*
X196964269Y-99554428D01*
%TO.C,U4*%
X205985698Y-87104428D02*
X205985698Y-87590142D01*
X206014269Y-87647285D01*
X206042841Y-87675857D01*
X206099983Y-87704428D01*
X206214269Y-87704428D01*
X206271412Y-87675857D01*
X206299983Y-87647285D01*
X206328555Y-87590142D01*
X206328555Y-87104428D01*
X206871412Y-87304428D02*
X206871412Y-87704428D01*
X206728555Y-87075857D02*
X206585698Y-87504428D01*
X206957126Y-87504428D01*
%TO.C,U9*%
X223635698Y-100454428D02*
X223635698Y-100940142D01*
X223664269Y-100997285D01*
X223692841Y-101025857D01*
X223749983Y-101054428D01*
X223864269Y-101054428D01*
X223921412Y-101025857D01*
X223949983Y-100997285D01*
X223978555Y-100940142D01*
X223978555Y-100454428D01*
X224292841Y-101054428D02*
X224407126Y-101054428D01*
X224464269Y-101025857D01*
X224492841Y-100997285D01*
X224549983Y-100911571D01*
X224578555Y-100797285D01*
X224578555Y-100568714D01*
X224549983Y-100511571D01*
X224521412Y-100483000D01*
X224464269Y-100454428D01*
X224349983Y-100454428D01*
X224292841Y-100483000D01*
X224264269Y-100511571D01*
X224235698Y-100568714D01*
X224235698Y-100711571D01*
X224264269Y-100768714D01*
X224292841Y-100797285D01*
X224349983Y-100825857D01*
X224464269Y-100825857D01*
X224521412Y-100797285D01*
X224549983Y-100768714D01*
X224578555Y-100711571D01*
%TO.C,D11*%
X195714269Y-109711571D02*
X195114269Y-109711571D01*
X195114269Y-109568714D01*
X195142841Y-109483000D01*
X195199983Y-109425857D01*
X195257126Y-109397285D01*
X195371412Y-109368714D01*
X195457126Y-109368714D01*
X195571412Y-109397285D01*
X195628555Y-109425857D01*
X195685698Y-109483000D01*
X195714269Y-109568714D01*
X195714269Y-109711571D01*
X195714269Y-108797285D02*
X195714269Y-109140142D01*
X195714269Y-108968714D02*
X195114269Y-108968714D01*
X195199983Y-109025857D01*
X195257126Y-109083000D01*
X195285698Y-109140142D01*
X195714269Y-108225857D02*
X195714269Y-108568714D01*
X195714269Y-108397285D02*
X195114269Y-108397285D01*
X195199983Y-108454428D01*
X195257126Y-108511571D01*
X195285698Y-108568714D01*
%TO.C,R30*%
X183335499Y-91354428D02*
X183135499Y-91068714D01*
X182992642Y-91354428D02*
X182992642Y-90754428D01*
X183221214Y-90754428D01*
X183278356Y-90783000D01*
X183306928Y-90811571D01*
X183335499Y-90868714D01*
X183335499Y-90954428D01*
X183306928Y-91011571D01*
X183278356Y-91040142D01*
X183221214Y-91068714D01*
X182992642Y-91068714D01*
X183535499Y-90754428D02*
X183906928Y-90754428D01*
X183706928Y-90983000D01*
X183792642Y-90983000D01*
X183849785Y-91011571D01*
X183878356Y-91040142D01*
X183906928Y-91097285D01*
X183906928Y-91240142D01*
X183878356Y-91297285D01*
X183849785Y-91325857D01*
X183792642Y-91354428D01*
X183621214Y-91354428D01*
X183564071Y-91325857D01*
X183535499Y-91297285D01*
X184278356Y-90754428D02*
X184335499Y-90754428D01*
X184392642Y-90783000D01*
X184421214Y-90811571D01*
X184449785Y-90868714D01*
X184478356Y-90983000D01*
X184478356Y-91125857D01*
X184449785Y-91240142D01*
X184421214Y-91297285D01*
X184392642Y-91325857D01*
X184335499Y-91354428D01*
X184278356Y-91354428D01*
X184221214Y-91325857D01*
X184192642Y-91297285D01*
X184164071Y-91240142D01*
X184135499Y-91125857D01*
X184135499Y-90983000D01*
X184164071Y-90868714D01*
X184192642Y-90811571D01*
X184221214Y-90783000D01*
X184278356Y-90754428D01*
%TO.C,C58*%
X205417105Y-111254218D02*
X205457511Y-111254218D01*
X205538323Y-111294624D01*
X205578729Y-111335030D01*
X205619135Y-111415842D01*
X205619135Y-111496654D01*
X205598932Y-111557264D01*
X205538323Y-111658279D01*
X205477714Y-111718888D01*
X205376698Y-111779497D01*
X205316089Y-111799700D01*
X205235277Y-111799700D01*
X205154465Y-111759294D01*
X205114059Y-111718888D01*
X205073653Y-111638076D01*
X205073653Y-111597670D01*
X204649389Y-111254218D02*
X204851419Y-111456248D01*
X205073653Y-111274421D01*
X205033247Y-111274421D01*
X204972637Y-111254218D01*
X204871622Y-111153203D01*
X204851419Y-111092593D01*
X204851419Y-111052187D01*
X204871622Y-110991578D01*
X204972637Y-110890563D01*
X205033247Y-110870360D01*
X205073653Y-110870360D01*
X205134262Y-110890563D01*
X205235277Y-110991578D01*
X205255480Y-111052187D01*
X205255480Y-111092593D01*
X204568576Y-110809751D02*
X204588779Y-110870360D01*
X204588779Y-110910766D01*
X204568576Y-110971375D01*
X204548373Y-110991578D01*
X204487764Y-111011781D01*
X204447358Y-111011781D01*
X204386749Y-110991578D01*
X204305937Y-110910766D01*
X204285734Y-110850157D01*
X204285734Y-110809751D01*
X204305937Y-110749142D01*
X204326140Y-110728938D01*
X204386749Y-110708735D01*
X204427155Y-110708735D01*
X204487764Y-110728938D01*
X204568576Y-110809751D01*
X204629186Y-110829954D01*
X204669592Y-110829954D01*
X204730201Y-110809751D01*
X204811013Y-110728938D01*
X204831216Y-110668329D01*
X204831216Y-110627923D01*
X204811013Y-110567314D01*
X204730201Y-110486502D01*
X204669592Y-110466299D01*
X204629186Y-110466299D01*
X204568576Y-110486502D01*
X204487764Y-110567314D01*
X204467561Y-110627923D01*
X204467561Y-110668329D01*
X204487764Y-110728938D01*
%TO.C,R39*%
X189407126Y-94354428D02*
X189207126Y-94068714D01*
X189064269Y-94354428D02*
X189064269Y-93754428D01*
X189292841Y-93754428D01*
X189349983Y-93783000D01*
X189378555Y-93811571D01*
X189407126Y-93868714D01*
X189407126Y-93954428D01*
X189378555Y-94011571D01*
X189349983Y-94040142D01*
X189292841Y-94068714D01*
X189064269Y-94068714D01*
X189607126Y-93754428D02*
X189978555Y-93754428D01*
X189778555Y-93983000D01*
X189864269Y-93983000D01*
X189921412Y-94011571D01*
X189949983Y-94040142D01*
X189978555Y-94097285D01*
X189978555Y-94240142D01*
X189949983Y-94297285D01*
X189921412Y-94325857D01*
X189864269Y-94354428D01*
X189692841Y-94354428D01*
X189635698Y-94325857D01*
X189607126Y-94297285D01*
X190264269Y-94354428D02*
X190378555Y-94354428D01*
X190435698Y-94325857D01*
X190464269Y-94297285D01*
X190521412Y-94211571D01*
X190549983Y-94097285D01*
X190549983Y-93868714D01*
X190521412Y-93811571D01*
X190492841Y-93783000D01*
X190435698Y-93754428D01*
X190321412Y-93754428D01*
X190264269Y-93783000D01*
X190235698Y-93811571D01*
X190207126Y-93868714D01*
X190207126Y-94011571D01*
X190235698Y-94068714D01*
X190264269Y-94097285D01*
X190321412Y-94125857D01*
X190435698Y-94125857D01*
X190492841Y-94097285D01*
X190521412Y-94068714D01*
X190549983Y-94011571D01*
%TO.C,C1*%
X197717126Y-76783000D02*
X197745698Y-76811571D01*
X197774269Y-76897285D01*
X197774269Y-76954428D01*
X197745698Y-77040142D01*
X197688555Y-77097285D01*
X197631412Y-77125857D01*
X197517126Y-77154428D01*
X197431412Y-77154428D01*
X197317126Y-77125857D01*
X197259983Y-77097285D01*
X197202841Y-77040142D01*
X197174269Y-76954428D01*
X197174269Y-76897285D01*
X197202841Y-76811571D01*
X197231412Y-76783000D01*
X197774269Y-76211571D02*
X197774269Y-76554428D01*
X197774269Y-76383000D02*
X197174269Y-76383000D01*
X197259983Y-76440142D01*
X197317126Y-76497285D01*
X197345698Y-76554428D01*
%TO.C,C124*%
X229307126Y-114304428D02*
X229335698Y-114333000D01*
X229364269Y-114418714D01*
X229364269Y-114475857D01*
X229335698Y-114561571D01*
X229278555Y-114618714D01*
X229221412Y-114647285D01*
X229107126Y-114675857D01*
X229021412Y-114675857D01*
X228907126Y-114647285D01*
X228849983Y-114618714D01*
X228792841Y-114561571D01*
X228764269Y-114475857D01*
X228764269Y-114418714D01*
X228792841Y-114333000D01*
X228821412Y-114304428D01*
X229364269Y-113733000D02*
X229364269Y-114075857D01*
X229364269Y-113904428D02*
X228764269Y-113904428D01*
X228849983Y-113961571D01*
X228907126Y-114018714D01*
X228935698Y-114075857D01*
X228821412Y-113504428D02*
X228792841Y-113475857D01*
X228764269Y-113418714D01*
X228764269Y-113275857D01*
X228792841Y-113218714D01*
X228821412Y-113190142D01*
X228878555Y-113161571D01*
X228935698Y-113161571D01*
X229021412Y-113190142D01*
X229364269Y-113533000D01*
X229364269Y-113161571D01*
X228964269Y-112647285D02*
X229364269Y-112647285D01*
X228735698Y-112790142D02*
X229164269Y-112933000D01*
X229164269Y-112561571D01*
%TO.C,R40*%
X183807126Y-102154428D02*
X183607126Y-101868714D01*
X183464269Y-102154428D02*
X183464269Y-101554428D01*
X183692841Y-101554428D01*
X183749983Y-101583000D01*
X183778555Y-101611571D01*
X183807126Y-101668714D01*
X183807126Y-101754428D01*
X183778555Y-101811571D01*
X183749983Y-101840142D01*
X183692841Y-101868714D01*
X183464269Y-101868714D01*
X184321412Y-101754428D02*
X184321412Y-102154428D01*
X184178555Y-101525857D02*
X184035698Y-101954428D01*
X184407126Y-101954428D01*
X184749983Y-101554428D02*
X184807126Y-101554428D01*
X184864269Y-101583000D01*
X184892841Y-101611571D01*
X184921412Y-101668714D01*
X184949983Y-101783000D01*
X184949983Y-101925857D01*
X184921412Y-102040142D01*
X184892841Y-102097285D01*
X184864269Y-102125857D01*
X184807126Y-102154428D01*
X184749983Y-102154428D01*
X184692841Y-102125857D01*
X184664269Y-102097285D01*
X184635698Y-102040142D01*
X184607126Y-101925857D01*
X184607126Y-101783000D01*
X184635698Y-101668714D01*
X184664269Y-101611571D01*
X184692841Y-101583000D01*
X184749983Y-101554428D01*
%TO.C,U8*%
X189639269Y-105825142D02*
X190124983Y-105825142D01*
X190182126Y-105796571D01*
X190210698Y-105768000D01*
X190239269Y-105710857D01*
X190239269Y-105596571D01*
X190210698Y-105539428D01*
X190182126Y-105510857D01*
X190124983Y-105482285D01*
X189639269Y-105482285D01*
X189896412Y-105110857D02*
X189867841Y-105168000D01*
X189839269Y-105196571D01*
X189782126Y-105225142D01*
X189753555Y-105225142D01*
X189696412Y-105196571D01*
X189667841Y-105168000D01*
X189639269Y-105110857D01*
X189639269Y-104996571D01*
X189667841Y-104939428D01*
X189696412Y-104910857D01*
X189753555Y-104882285D01*
X189782126Y-104882285D01*
X189839269Y-104910857D01*
X189867841Y-104939428D01*
X189896412Y-104996571D01*
X189896412Y-105110857D01*
X189924983Y-105168000D01*
X189953555Y-105196571D01*
X190010698Y-105225142D01*
X190124983Y-105225142D01*
X190182126Y-105196571D01*
X190210698Y-105168000D01*
X190239269Y-105110857D01*
X190239269Y-104996571D01*
X190210698Y-104939428D01*
X190182126Y-104910857D01*
X190124983Y-104882285D01*
X190010698Y-104882285D01*
X189953555Y-104910857D01*
X189924983Y-104939428D01*
X189896412Y-104996571D01*
%TO.C,C23*%
X217907126Y-87268714D02*
X217935698Y-87297285D01*
X217964269Y-87383000D01*
X217964269Y-87440142D01*
X217935698Y-87525857D01*
X217878555Y-87583000D01*
X217821412Y-87611571D01*
X217707126Y-87640142D01*
X217621412Y-87640142D01*
X217507126Y-87611571D01*
X217449983Y-87583000D01*
X217392841Y-87525857D01*
X217364269Y-87440142D01*
X217364269Y-87383000D01*
X217392841Y-87297285D01*
X217421412Y-87268714D01*
X217421412Y-87040142D02*
X217392841Y-87011571D01*
X217364269Y-86954428D01*
X217364269Y-86811571D01*
X217392841Y-86754428D01*
X217421412Y-86725857D01*
X217478555Y-86697285D01*
X217535698Y-86697285D01*
X217621412Y-86725857D01*
X217964269Y-87068714D01*
X217964269Y-86697285D01*
X217364269Y-86497285D02*
X217364269Y-86125857D01*
X217592841Y-86325857D01*
X217592841Y-86240142D01*
X217621412Y-86183000D01*
X217649983Y-86154428D01*
X217707126Y-86125857D01*
X217849983Y-86125857D01*
X217907126Y-86154428D01*
X217935698Y-86183000D01*
X217964269Y-86240142D01*
X217964269Y-86411571D01*
X217935698Y-86468714D01*
X217907126Y-86497285D01*
%TO.C,C59*%
X208617105Y-108004218D02*
X208657511Y-108004218D01*
X208738323Y-108044624D01*
X208778729Y-108085030D01*
X208819135Y-108165842D01*
X208819135Y-108246654D01*
X208798932Y-108307264D01*
X208738323Y-108408279D01*
X208677714Y-108468888D01*
X208576698Y-108529497D01*
X208516089Y-108549700D01*
X208435277Y-108549700D01*
X208354465Y-108509294D01*
X208314059Y-108468888D01*
X208273653Y-108388076D01*
X208273653Y-108347670D01*
X207849389Y-108004218D02*
X208051419Y-108206248D01*
X208273653Y-108024421D01*
X208233247Y-108024421D01*
X208172637Y-108004218D01*
X208071622Y-107903203D01*
X208051419Y-107842593D01*
X208051419Y-107802187D01*
X208071622Y-107741578D01*
X208172637Y-107640563D01*
X208233247Y-107620360D01*
X208273653Y-107620360D01*
X208334262Y-107640563D01*
X208435277Y-107741578D01*
X208455480Y-107802187D01*
X208455480Y-107842593D01*
X208051419Y-107357720D02*
X207970607Y-107276908D01*
X207909998Y-107256705D01*
X207869592Y-107256705D01*
X207768576Y-107276908D01*
X207667561Y-107337517D01*
X207505937Y-107499142D01*
X207485734Y-107559751D01*
X207485734Y-107600157D01*
X207505937Y-107660766D01*
X207586749Y-107741578D01*
X207647358Y-107761781D01*
X207687764Y-107761781D01*
X207748373Y-107741578D01*
X207849389Y-107640563D01*
X207869592Y-107579954D01*
X207869592Y-107539548D01*
X207849389Y-107478938D01*
X207768576Y-107398126D01*
X207707967Y-107377923D01*
X207667561Y-107377923D01*
X207606952Y-107398126D01*
%TO.C,D2*%
X214264269Y-53225857D02*
X213664269Y-53225857D01*
X213664269Y-53083000D01*
X213692841Y-52997285D01*
X213749983Y-52940142D01*
X213807126Y-52911571D01*
X213921412Y-52883000D01*
X214007126Y-52883000D01*
X214121412Y-52911571D01*
X214178555Y-52940142D01*
X214235698Y-52997285D01*
X214264269Y-53083000D01*
X214264269Y-53225857D01*
X213721412Y-52654428D02*
X213692841Y-52625857D01*
X213664269Y-52568714D01*
X213664269Y-52425857D01*
X213692841Y-52368714D01*
X213721412Y-52340142D01*
X213778555Y-52311571D01*
X213835698Y-52311571D01*
X213921412Y-52340142D01*
X214264269Y-52683000D01*
X214264269Y-52311571D01*
%TO.C,R38*%
X185857126Y-102274428D02*
X185657126Y-101988714D01*
X185514269Y-102274428D02*
X185514269Y-101674428D01*
X185742841Y-101674428D01*
X185799983Y-101703000D01*
X185828555Y-101731571D01*
X185857126Y-101788714D01*
X185857126Y-101874428D01*
X185828555Y-101931571D01*
X185799983Y-101960142D01*
X185742841Y-101988714D01*
X185514269Y-101988714D01*
X186057126Y-101674428D02*
X186428555Y-101674428D01*
X186228555Y-101903000D01*
X186314269Y-101903000D01*
X186371412Y-101931571D01*
X186399983Y-101960142D01*
X186428555Y-102017285D01*
X186428555Y-102160142D01*
X186399983Y-102217285D01*
X186371412Y-102245857D01*
X186314269Y-102274428D01*
X186142841Y-102274428D01*
X186085698Y-102245857D01*
X186057126Y-102217285D01*
X186771412Y-101931571D02*
X186714269Y-101903000D01*
X186685698Y-101874428D01*
X186657126Y-101817285D01*
X186657126Y-101788714D01*
X186685698Y-101731571D01*
X186714269Y-101703000D01*
X186771412Y-101674428D01*
X186885698Y-101674428D01*
X186942841Y-101703000D01*
X186971412Y-101731571D01*
X186999983Y-101788714D01*
X186999983Y-101817285D01*
X186971412Y-101874428D01*
X186942841Y-101903000D01*
X186885698Y-101931571D01*
X186771412Y-101931571D01*
X186714269Y-101960142D01*
X186685698Y-101988714D01*
X186657126Y-102045857D01*
X186657126Y-102160142D01*
X186685698Y-102217285D01*
X186714269Y-102245857D01*
X186771412Y-102274428D01*
X186885698Y-102274428D01*
X186942841Y-102245857D01*
X186971412Y-102217285D01*
X186999983Y-102160142D01*
X186999983Y-102045857D01*
X186971412Y-101988714D01*
X186942841Y-101960142D01*
X186885698Y-101931571D01*
%TO.C,R21*%
X223507126Y-54304428D02*
X223307126Y-54018714D01*
X223164269Y-54304428D02*
X223164269Y-53704428D01*
X223392841Y-53704428D01*
X223449983Y-53733000D01*
X223478555Y-53761571D01*
X223507126Y-53818714D01*
X223507126Y-53904428D01*
X223478555Y-53961571D01*
X223449983Y-53990142D01*
X223392841Y-54018714D01*
X223164269Y-54018714D01*
X223735698Y-53761571D02*
X223764269Y-53733000D01*
X223821412Y-53704428D01*
X223964269Y-53704428D01*
X224021412Y-53733000D01*
X224049983Y-53761571D01*
X224078555Y-53818714D01*
X224078555Y-53875857D01*
X224049983Y-53961571D01*
X223707126Y-54304428D01*
X224078555Y-54304428D01*
X224649983Y-54304428D02*
X224307126Y-54304428D01*
X224478555Y-54304428D02*
X224478555Y-53704428D01*
X224421412Y-53790142D01*
X224364269Y-53847285D01*
X224307126Y-53875857D01*
%TO.C,U5*%
X206833754Y-118688583D02*
X207177206Y-118345132D01*
X207197409Y-118284522D01*
X207197409Y-118244116D01*
X207177206Y-118183507D01*
X207096394Y-118102695D01*
X207035785Y-118082492D01*
X206995379Y-118082492D01*
X206934769Y-118102695D01*
X206591318Y-118446147D01*
X206187257Y-118042086D02*
X206389287Y-118244116D01*
X206611521Y-118062289D01*
X206571115Y-118062289D01*
X206510505Y-118042086D01*
X206409490Y-117941071D01*
X206389287Y-117880461D01*
X206389287Y-117840055D01*
X206409490Y-117779446D01*
X206510505Y-117678431D01*
X206571115Y-117658228D01*
X206611521Y-117658228D01*
X206672130Y-117678431D01*
X206773145Y-117779446D01*
X206793348Y-117840055D01*
X206793348Y-117880461D01*
%TO.C,U7*%
X193285698Y-87754428D02*
X193285698Y-88240142D01*
X193314269Y-88297285D01*
X193342841Y-88325857D01*
X193399983Y-88354428D01*
X193514269Y-88354428D01*
X193571412Y-88325857D01*
X193599983Y-88297285D01*
X193628555Y-88240142D01*
X193628555Y-87754428D01*
X193857126Y-87754428D02*
X194257126Y-87754428D01*
X193999983Y-88354428D01*
%TO.C,D1*%
X200749983Y-125554428D02*
X200749983Y-124954428D01*
X200892841Y-124954428D01*
X200978555Y-124983000D01*
X201035698Y-125040142D01*
X201064269Y-125097285D01*
X201092841Y-125211571D01*
X201092841Y-125297285D01*
X201064269Y-125411571D01*
X201035698Y-125468714D01*
X200978555Y-125525857D01*
X200892841Y-125554428D01*
X200749983Y-125554428D01*
X201664269Y-125554428D02*
X201321412Y-125554428D01*
X201492841Y-125554428D02*
X201492841Y-124954428D01*
X201435698Y-125040142D01*
X201378555Y-125097285D01*
X201321412Y-125125857D01*
%TO.C,C6*%
X224557126Y-59833000D02*
X224585698Y-59861571D01*
X224614269Y-59947285D01*
X224614269Y-60004428D01*
X224585698Y-60090142D01*
X224528555Y-60147285D01*
X224471412Y-60175857D01*
X224357126Y-60204428D01*
X224271412Y-60204428D01*
X224157126Y-60175857D01*
X224099983Y-60147285D01*
X224042841Y-60090142D01*
X224014269Y-60004428D01*
X224014269Y-59947285D01*
X224042841Y-59861571D01*
X224071412Y-59833000D01*
X224014269Y-59318714D02*
X224014269Y-59433000D01*
X224042841Y-59490142D01*
X224071412Y-59518714D01*
X224157126Y-59575857D01*
X224271412Y-59604428D01*
X224499983Y-59604428D01*
X224557126Y-59575857D01*
X224585698Y-59547285D01*
X224614269Y-59490142D01*
X224614269Y-59375857D01*
X224585698Y-59318714D01*
X224557126Y-59290142D01*
X224499983Y-59261571D01*
X224357126Y-59261571D01*
X224299983Y-59290142D01*
X224271412Y-59318714D01*
X224242841Y-59375857D01*
X224242841Y-59490142D01*
X224271412Y-59547285D01*
X224299983Y-59575857D01*
X224357126Y-59604428D01*
%TO.C,C103*%
X228707126Y-102804428D02*
X228735698Y-102833000D01*
X228764269Y-102918714D01*
X228764269Y-102975857D01*
X228735698Y-103061571D01*
X228678555Y-103118714D01*
X228621412Y-103147285D01*
X228507126Y-103175857D01*
X228421412Y-103175857D01*
X228307126Y-103147285D01*
X228249983Y-103118714D01*
X228192841Y-103061571D01*
X228164269Y-102975857D01*
X228164269Y-102918714D01*
X228192841Y-102833000D01*
X228221412Y-102804428D01*
X228764269Y-102233000D02*
X228764269Y-102575857D01*
X228764269Y-102404428D02*
X228164269Y-102404428D01*
X228249983Y-102461571D01*
X228307126Y-102518714D01*
X228335698Y-102575857D01*
X228164269Y-101861571D02*
X228164269Y-101804428D01*
X228192841Y-101747285D01*
X228221412Y-101718714D01*
X228278555Y-101690142D01*
X228392841Y-101661571D01*
X228535698Y-101661571D01*
X228649983Y-101690142D01*
X228707126Y-101718714D01*
X228735698Y-101747285D01*
X228764269Y-101804428D01*
X228764269Y-101861571D01*
X228735698Y-101918714D01*
X228707126Y-101947285D01*
X228649983Y-101975857D01*
X228535698Y-102004428D01*
X228392841Y-102004428D01*
X228278555Y-101975857D01*
X228221412Y-101947285D01*
X228192841Y-101918714D01*
X228164269Y-101861571D01*
X228164269Y-101461571D02*
X228164269Y-101090142D01*
X228392841Y-101290142D01*
X228392841Y-101204428D01*
X228421412Y-101147285D01*
X228449983Y-101118714D01*
X228507126Y-101090142D01*
X228649983Y-101090142D01*
X228707126Y-101118714D01*
X228735698Y-101147285D01*
X228764269Y-101204428D01*
X228764269Y-101375857D01*
X228735698Y-101433000D01*
X228707126Y-101461571D01*
%TO.C,C127*%
X219271412Y-99197285D02*
X219242841Y-99225857D01*
X219157126Y-99254428D01*
X219099983Y-99254428D01*
X219014269Y-99225857D01*
X218957126Y-99168714D01*
X218928555Y-99111571D01*
X218899983Y-98997285D01*
X218899983Y-98911571D01*
X218928555Y-98797285D01*
X218957126Y-98740142D01*
X219014269Y-98683000D01*
X219099983Y-98654428D01*
X219157126Y-98654428D01*
X219242841Y-98683000D01*
X219271412Y-98711571D01*
X219842841Y-99254428D02*
X219499983Y-99254428D01*
X219671412Y-99254428D02*
X219671412Y-98654428D01*
X219614269Y-98740142D01*
X219557126Y-98797285D01*
X219499983Y-98825857D01*
X220071412Y-98711571D02*
X220099983Y-98683000D01*
X220157126Y-98654428D01*
X220299983Y-98654428D01*
X220357126Y-98683000D01*
X220385698Y-98711571D01*
X220414269Y-98768714D01*
X220414269Y-98825857D01*
X220385698Y-98911571D01*
X220042841Y-99254428D01*
X220414269Y-99254428D01*
X220614269Y-98654428D02*
X221014269Y-98654428D01*
X220757126Y-99254428D01*
%TO.C,R19*%
X213214269Y-66418714D02*
X212928555Y-66618714D01*
X213214269Y-66761571D02*
X212614269Y-66761571D01*
X212614269Y-66533000D01*
X212642841Y-66475857D01*
X212671412Y-66447285D01*
X212728555Y-66418714D01*
X212814269Y-66418714D01*
X212871412Y-66447285D01*
X212899983Y-66475857D01*
X212928555Y-66533000D01*
X212928555Y-66761571D01*
X213214269Y-65847285D02*
X213214269Y-66190142D01*
X213214269Y-66018714D02*
X212614269Y-66018714D01*
X212699983Y-66075857D01*
X212757126Y-66133000D01*
X212785698Y-66190142D01*
X213214269Y-65561571D02*
X213214269Y-65447285D01*
X213185698Y-65390142D01*
X213157126Y-65361571D01*
X213071412Y-65304428D01*
X212957126Y-65275857D01*
X212728555Y-65275857D01*
X212671412Y-65304428D01*
X212642841Y-65333000D01*
X212614269Y-65390142D01*
X212614269Y-65504428D01*
X212642841Y-65561571D01*
X212671412Y-65590142D01*
X212728555Y-65618714D01*
X212871412Y-65618714D01*
X212928555Y-65590142D01*
X212957126Y-65561571D01*
X212985698Y-65504428D01*
X212985698Y-65390142D01*
X212957126Y-65333000D01*
X212928555Y-65304428D01*
X212871412Y-65275857D01*
%TO.C,C62*%
X194214285Y-102860714D02*
X194242857Y-102889285D01*
X194271428Y-102975000D01*
X194271428Y-103032142D01*
X194242857Y-103117857D01*
X194185714Y-103175000D01*
X194128571Y-103203571D01*
X194014285Y-103232142D01*
X193928571Y-103232142D01*
X193814285Y-103203571D01*
X193757142Y-103175000D01*
X193700000Y-103117857D01*
X193671428Y-103032142D01*
X193671428Y-102975000D01*
X193700000Y-102889285D01*
X193728571Y-102860714D01*
X193671428Y-102346428D02*
X193671428Y-102460714D01*
X193700000Y-102517857D01*
X193728571Y-102546428D01*
X193814285Y-102603571D01*
X193928571Y-102632142D01*
X194157142Y-102632142D01*
X194214285Y-102603571D01*
X194242857Y-102575000D01*
X194271428Y-102517857D01*
X194271428Y-102403571D01*
X194242857Y-102346428D01*
X194214285Y-102317857D01*
X194157142Y-102289285D01*
X194014285Y-102289285D01*
X193957142Y-102317857D01*
X193928571Y-102346428D01*
X193900000Y-102403571D01*
X193900000Y-102517857D01*
X193928571Y-102575000D01*
X193957142Y-102603571D01*
X194014285Y-102632142D01*
X193728571Y-102060714D02*
X193700000Y-102032142D01*
X193671428Y-101975000D01*
X193671428Y-101832142D01*
X193700000Y-101775000D01*
X193728571Y-101746428D01*
X193785714Y-101717857D01*
X193842857Y-101717857D01*
X193928571Y-101746428D01*
X194271428Y-102089285D01*
X194271428Y-101717857D01*
%TO.C,C119*%
X217771412Y-114497285D02*
X217742841Y-114525857D01*
X217657126Y-114554428D01*
X217599983Y-114554428D01*
X217514269Y-114525857D01*
X217457126Y-114468714D01*
X217428555Y-114411571D01*
X217399983Y-114297285D01*
X217399983Y-114211571D01*
X217428555Y-114097285D01*
X217457126Y-114040142D01*
X217514269Y-113983000D01*
X217599983Y-113954428D01*
X217657126Y-113954428D01*
X217742841Y-113983000D01*
X217771412Y-114011571D01*
X218342841Y-114554428D02*
X217999983Y-114554428D01*
X218171412Y-114554428D02*
X218171412Y-113954428D01*
X218114269Y-114040142D01*
X218057126Y-114097285D01*
X217999983Y-114125857D01*
X218914269Y-114554428D02*
X218571412Y-114554428D01*
X218742841Y-114554428D02*
X218742841Y-113954428D01*
X218685698Y-114040142D01*
X218628555Y-114097285D01*
X218571412Y-114125857D01*
X219199983Y-114554428D02*
X219314269Y-114554428D01*
X219371412Y-114525857D01*
X219399983Y-114497285D01*
X219457126Y-114411571D01*
X219485698Y-114297285D01*
X219485698Y-114068714D01*
X219457126Y-114011571D01*
X219428555Y-113983000D01*
X219371412Y-113954428D01*
X219257126Y-113954428D01*
X219199983Y-113983000D01*
X219171412Y-114011571D01*
X219142841Y-114068714D01*
X219142841Y-114211571D01*
X219171412Y-114268714D01*
X219199983Y-114297285D01*
X219257126Y-114325857D01*
X219371412Y-114325857D01*
X219428555Y-114297285D01*
X219457126Y-114268714D01*
X219485698Y-114211571D01*
%TO.C,R31*%
X183335499Y-90354428D02*
X183135499Y-90068714D01*
X182992642Y-90354428D02*
X182992642Y-89754428D01*
X183221214Y-89754428D01*
X183278356Y-89783000D01*
X183306928Y-89811571D01*
X183335499Y-89868714D01*
X183335499Y-89954428D01*
X183306928Y-90011571D01*
X183278356Y-90040142D01*
X183221214Y-90068714D01*
X182992642Y-90068714D01*
X183535499Y-89754428D02*
X183906928Y-89754428D01*
X183706928Y-89983000D01*
X183792642Y-89983000D01*
X183849785Y-90011571D01*
X183878356Y-90040142D01*
X183906928Y-90097285D01*
X183906928Y-90240142D01*
X183878356Y-90297285D01*
X183849785Y-90325857D01*
X183792642Y-90354428D01*
X183621214Y-90354428D01*
X183564071Y-90325857D01*
X183535499Y-90297285D01*
X184478356Y-90354428D02*
X184135499Y-90354428D01*
X184306928Y-90354428D02*
X184306928Y-89754428D01*
X184249785Y-89840142D01*
X184192642Y-89897285D01*
X184135499Y-89925857D01*
%TO.C,R41*%
X217357126Y-110604428D02*
X217157126Y-110318714D01*
X217014269Y-110604428D02*
X217014269Y-110004428D01*
X217242841Y-110004428D01*
X217299983Y-110033000D01*
X217328555Y-110061571D01*
X217357126Y-110118714D01*
X217357126Y-110204428D01*
X217328555Y-110261571D01*
X217299983Y-110290142D01*
X217242841Y-110318714D01*
X217014269Y-110318714D01*
X217871412Y-110204428D02*
X217871412Y-110604428D01*
X217728555Y-109975857D02*
X217585698Y-110404428D01*
X217957126Y-110404428D01*
X218499983Y-110604428D02*
X218157126Y-110604428D01*
X218328555Y-110604428D02*
X218328555Y-110004428D01*
X218271412Y-110090142D01*
X218214269Y-110147285D01*
X218157126Y-110175857D01*
%TO.C,R1*%
X189392841Y-93354428D02*
X189192841Y-93068714D01*
X189049983Y-93354428D02*
X189049983Y-92754428D01*
X189278555Y-92754428D01*
X189335698Y-92783000D01*
X189364269Y-92811571D01*
X189392841Y-92868714D01*
X189392841Y-92954428D01*
X189364269Y-93011571D01*
X189335698Y-93040142D01*
X189278555Y-93068714D01*
X189049983Y-93068714D01*
X189964269Y-93354428D02*
X189621412Y-93354428D01*
X189792841Y-93354428D02*
X189792841Y-92754428D01*
X189735698Y-92840142D01*
X189678555Y-92897285D01*
X189621412Y-92925857D01*
%TO.C,C104*%
X224057126Y-118104428D02*
X224085698Y-118133000D01*
X224114269Y-118218714D01*
X224114269Y-118275857D01*
X224085698Y-118361571D01*
X224028555Y-118418714D01*
X223971412Y-118447285D01*
X223857126Y-118475857D01*
X223771412Y-118475857D01*
X223657126Y-118447285D01*
X223599983Y-118418714D01*
X223542841Y-118361571D01*
X223514269Y-118275857D01*
X223514269Y-118218714D01*
X223542841Y-118133000D01*
X223571412Y-118104428D01*
X224114269Y-117533000D02*
X224114269Y-117875857D01*
X224114269Y-117704428D02*
X223514269Y-117704428D01*
X223599983Y-117761571D01*
X223657126Y-117818714D01*
X223685698Y-117875857D01*
X223514269Y-117161571D02*
X223514269Y-117104428D01*
X223542841Y-117047285D01*
X223571412Y-117018714D01*
X223628555Y-116990142D01*
X223742841Y-116961571D01*
X223885698Y-116961571D01*
X223999983Y-116990142D01*
X224057126Y-117018714D01*
X224085698Y-117047285D01*
X224114269Y-117104428D01*
X224114269Y-117161571D01*
X224085698Y-117218714D01*
X224057126Y-117247285D01*
X223999983Y-117275857D01*
X223885698Y-117304428D01*
X223742841Y-117304428D01*
X223628555Y-117275857D01*
X223571412Y-117247285D01*
X223542841Y-117218714D01*
X223514269Y-117161571D01*
X223714269Y-116447285D02*
X224114269Y-116447285D01*
X223485698Y-116590142D02*
X223914269Y-116733000D01*
X223914269Y-116361571D01*
%TO.C,C126*%
X227471412Y-98997285D02*
X227442841Y-99025857D01*
X227357126Y-99054428D01*
X227299983Y-99054428D01*
X227214269Y-99025857D01*
X227157126Y-98968714D01*
X227128555Y-98911571D01*
X227099983Y-98797285D01*
X227099983Y-98711571D01*
X227128555Y-98597285D01*
X227157126Y-98540142D01*
X227214269Y-98483000D01*
X227299983Y-98454428D01*
X227357126Y-98454428D01*
X227442841Y-98483000D01*
X227471412Y-98511571D01*
X228042841Y-99054428D02*
X227699983Y-99054428D01*
X227871412Y-99054428D02*
X227871412Y-98454428D01*
X227814269Y-98540142D01*
X227757126Y-98597285D01*
X227699983Y-98625857D01*
X228271412Y-98511571D02*
X228299983Y-98483000D01*
X228357126Y-98454428D01*
X228499983Y-98454428D01*
X228557126Y-98483000D01*
X228585698Y-98511571D01*
X228614269Y-98568714D01*
X228614269Y-98625857D01*
X228585698Y-98711571D01*
X228242841Y-99054428D01*
X228614269Y-99054428D01*
X229128555Y-98454428D02*
X229014269Y-98454428D01*
X228957126Y-98483000D01*
X228928555Y-98511571D01*
X228871412Y-98597285D01*
X228842841Y-98711571D01*
X228842841Y-98940142D01*
X228871412Y-98997285D01*
X228899983Y-99025857D01*
X228957126Y-99054428D01*
X229071412Y-99054428D01*
X229128555Y-99025857D01*
X229157126Y-98997285D01*
X229185698Y-98940142D01*
X229185698Y-98797285D01*
X229157126Y-98740142D01*
X229128555Y-98711571D01*
X229071412Y-98683000D01*
X228957126Y-98683000D01*
X228899983Y-98711571D01*
X228871412Y-98740142D01*
X228842841Y-98797285D01*
%TO.C,R22*%
X202307126Y-66654428D02*
X202107126Y-66368714D01*
X201964269Y-66654428D02*
X201964269Y-66054428D01*
X202192841Y-66054428D01*
X202249983Y-66083000D01*
X202278555Y-66111571D01*
X202307126Y-66168714D01*
X202307126Y-66254428D01*
X202278555Y-66311571D01*
X202249983Y-66340142D01*
X202192841Y-66368714D01*
X201964269Y-66368714D01*
X202535698Y-66111571D02*
X202564269Y-66083000D01*
X202621412Y-66054428D01*
X202764269Y-66054428D01*
X202821412Y-66083000D01*
X202849983Y-66111571D01*
X202878555Y-66168714D01*
X202878555Y-66225857D01*
X202849983Y-66311571D01*
X202507126Y-66654428D01*
X202878555Y-66654428D01*
X203107126Y-66111571D02*
X203135698Y-66083000D01*
X203192841Y-66054428D01*
X203335698Y-66054428D01*
X203392841Y-66083000D01*
X203421412Y-66111571D01*
X203449983Y-66168714D01*
X203449983Y-66225857D01*
X203421412Y-66311571D01*
X203078555Y-66654428D01*
X203449983Y-66654428D01*
%TO.C,R17*%
X211314269Y-66418714D02*
X211028555Y-66618714D01*
X211314269Y-66761571D02*
X210714269Y-66761571D01*
X210714269Y-66533000D01*
X210742841Y-66475857D01*
X210771412Y-66447285D01*
X210828555Y-66418714D01*
X210914269Y-66418714D01*
X210971412Y-66447285D01*
X210999983Y-66475857D01*
X211028555Y-66533000D01*
X211028555Y-66761571D01*
X211314269Y-65847285D02*
X211314269Y-66190142D01*
X211314269Y-66018714D02*
X210714269Y-66018714D01*
X210799983Y-66075857D01*
X210857126Y-66133000D01*
X210885698Y-66190142D01*
X210714269Y-65647285D02*
X210714269Y-65247285D01*
X211314269Y-65504428D01*
%TO.C,C120*%
X217771412Y-116497285D02*
X217742841Y-116525857D01*
X217657126Y-116554428D01*
X217599983Y-116554428D01*
X217514269Y-116525857D01*
X217457126Y-116468714D01*
X217428555Y-116411571D01*
X217399983Y-116297285D01*
X217399983Y-116211571D01*
X217428555Y-116097285D01*
X217457126Y-116040142D01*
X217514269Y-115983000D01*
X217599983Y-115954428D01*
X217657126Y-115954428D01*
X217742841Y-115983000D01*
X217771412Y-116011571D01*
X218342841Y-116554428D02*
X217999983Y-116554428D01*
X218171412Y-116554428D02*
X218171412Y-115954428D01*
X218114269Y-116040142D01*
X218057126Y-116097285D01*
X217999983Y-116125857D01*
X218571412Y-116011571D02*
X218599983Y-115983000D01*
X218657126Y-115954428D01*
X218799983Y-115954428D01*
X218857126Y-115983000D01*
X218885698Y-116011571D01*
X218914269Y-116068714D01*
X218914269Y-116125857D01*
X218885698Y-116211571D01*
X218542841Y-116554428D01*
X218914269Y-116554428D01*
X219285698Y-115954428D02*
X219342841Y-115954428D01*
X219399983Y-115983000D01*
X219428555Y-116011571D01*
X219457126Y-116068714D01*
X219485698Y-116183000D01*
X219485698Y-116325857D01*
X219457126Y-116440142D01*
X219428555Y-116497285D01*
X219399983Y-116525857D01*
X219342841Y-116554428D01*
X219285698Y-116554428D01*
X219228555Y-116525857D01*
X219199983Y-116497285D01*
X219171412Y-116440142D01*
X219142841Y-116325857D01*
X219142841Y-116183000D01*
X219171412Y-116068714D01*
X219199983Y-116011571D01*
X219228555Y-115983000D01*
X219285698Y-115954428D01*
%TO.C,R36*%
X183335499Y-94354428D02*
X183135499Y-94068714D01*
X182992642Y-94354428D02*
X182992642Y-93754428D01*
X183221214Y-93754428D01*
X183278356Y-93783000D01*
X183306928Y-93811571D01*
X183335499Y-93868714D01*
X183335499Y-93954428D01*
X183306928Y-94011571D01*
X183278356Y-94040142D01*
X183221214Y-94068714D01*
X182992642Y-94068714D01*
X183535499Y-93754428D02*
X183906928Y-93754428D01*
X183706928Y-93983000D01*
X183792642Y-93983000D01*
X183849785Y-94011571D01*
X183878356Y-94040142D01*
X183906928Y-94097285D01*
X183906928Y-94240142D01*
X183878356Y-94297285D01*
X183849785Y-94325857D01*
X183792642Y-94354428D01*
X183621214Y-94354428D01*
X183564071Y-94325857D01*
X183535499Y-94297285D01*
X184421214Y-93754428D02*
X184306928Y-93754428D01*
X184249785Y-93783000D01*
X184221214Y-93811571D01*
X184164071Y-93897285D01*
X184135499Y-94011571D01*
X184135499Y-94240142D01*
X184164071Y-94297285D01*
X184192642Y-94325857D01*
X184249785Y-94354428D01*
X184364071Y-94354428D01*
X184421214Y-94325857D01*
X184449785Y-94297285D01*
X184478356Y-94240142D01*
X184478356Y-94097285D01*
X184449785Y-94040142D01*
X184421214Y-94011571D01*
X184364071Y-93983000D01*
X184249785Y-93983000D01*
X184192642Y-94011571D01*
X184164071Y-94040142D01*
X184135499Y-94097285D01*
%TO.C,R18*%
X212264269Y-66418714D02*
X211978555Y-66618714D01*
X212264269Y-66761571D02*
X211664269Y-66761571D01*
X211664269Y-66533000D01*
X211692841Y-66475857D01*
X211721412Y-66447285D01*
X211778555Y-66418714D01*
X211864269Y-66418714D01*
X211921412Y-66447285D01*
X211949983Y-66475857D01*
X211978555Y-66533000D01*
X211978555Y-66761571D01*
X212264269Y-65847285D02*
X212264269Y-66190142D01*
X212264269Y-66018714D02*
X211664269Y-66018714D01*
X211749983Y-66075857D01*
X211807126Y-66133000D01*
X211835698Y-66190142D01*
X211921412Y-65504428D02*
X211892841Y-65561571D01*
X211864269Y-65590142D01*
X211807126Y-65618714D01*
X211778555Y-65618714D01*
X211721412Y-65590142D01*
X211692841Y-65561571D01*
X211664269Y-65504428D01*
X211664269Y-65390142D01*
X211692841Y-65333000D01*
X211721412Y-65304428D01*
X211778555Y-65275857D01*
X211807126Y-65275857D01*
X211864269Y-65304428D01*
X211892841Y-65333000D01*
X211921412Y-65390142D01*
X211921412Y-65504428D01*
X211949983Y-65561571D01*
X211978555Y-65590142D01*
X212035698Y-65618714D01*
X212149983Y-65618714D01*
X212207126Y-65590142D01*
X212235698Y-65561571D01*
X212264269Y-65504428D01*
X212264269Y-65390142D01*
X212235698Y-65333000D01*
X212207126Y-65304428D01*
X212149983Y-65275857D01*
X212035698Y-65275857D01*
X211978555Y-65304428D01*
X211949983Y-65333000D01*
X211921412Y-65390142D01*
%TO.C,D5*%
X211264269Y-53225857D02*
X210664269Y-53225857D01*
X210664269Y-53083000D01*
X210692841Y-52997285D01*
X210749983Y-52940142D01*
X210807126Y-52911571D01*
X210921412Y-52883000D01*
X211007126Y-52883000D01*
X211121412Y-52911571D01*
X211178555Y-52940142D01*
X211235698Y-52997285D01*
X211264269Y-53083000D01*
X211264269Y-53225857D01*
X210664269Y-52340142D02*
X210664269Y-52625857D01*
X210949983Y-52654428D01*
X210921412Y-52625857D01*
X210892841Y-52568714D01*
X210892841Y-52425857D01*
X210921412Y-52368714D01*
X210949983Y-52340142D01*
X211007126Y-52311571D01*
X211149983Y-52311571D01*
X211207126Y-52340142D01*
X211235698Y-52368714D01*
X211264269Y-52425857D01*
X211264269Y-52568714D01*
X211235698Y-52625857D01*
X211207126Y-52654428D01*
%TO.C,R44*%
X217407126Y-109554428D02*
X217207126Y-109268714D01*
X217064269Y-109554428D02*
X217064269Y-108954428D01*
X217292841Y-108954428D01*
X217349983Y-108983000D01*
X217378555Y-109011571D01*
X217407126Y-109068714D01*
X217407126Y-109154428D01*
X217378555Y-109211571D01*
X217349983Y-109240142D01*
X217292841Y-109268714D01*
X217064269Y-109268714D01*
X217921412Y-109154428D02*
X217921412Y-109554428D01*
X217778555Y-108925857D02*
X217635698Y-109354428D01*
X218007126Y-109354428D01*
X218492841Y-109154428D02*
X218492841Y-109554428D01*
X218349983Y-108925857D02*
X218207126Y-109354428D01*
X218578555Y-109354428D01*
%TO.C,R20*%
X210314269Y-66418714D02*
X210028555Y-66618714D01*
X210314269Y-66761571D02*
X209714269Y-66761571D01*
X209714269Y-66533000D01*
X209742841Y-66475857D01*
X209771412Y-66447285D01*
X209828555Y-66418714D01*
X209914269Y-66418714D01*
X209971412Y-66447285D01*
X209999983Y-66475857D01*
X210028555Y-66533000D01*
X210028555Y-66761571D01*
X209771412Y-66190142D02*
X209742841Y-66161571D01*
X209714269Y-66104428D01*
X209714269Y-65961571D01*
X209742841Y-65904428D01*
X209771412Y-65875857D01*
X209828555Y-65847285D01*
X209885698Y-65847285D01*
X209971412Y-65875857D01*
X210314269Y-66218714D01*
X210314269Y-65847285D01*
X209714269Y-65475857D02*
X209714269Y-65418714D01*
X209742841Y-65361571D01*
X209771412Y-65333000D01*
X209828555Y-65304428D01*
X209942841Y-65275857D01*
X210085698Y-65275857D01*
X210199983Y-65304428D01*
X210257126Y-65333000D01*
X210285698Y-65361571D01*
X210314269Y-65418714D01*
X210314269Y-65475857D01*
X210285698Y-65533000D01*
X210257126Y-65561571D01*
X210199983Y-65590142D01*
X210085698Y-65618714D01*
X209942841Y-65618714D01*
X209828555Y-65590142D01*
X209771412Y-65561571D01*
X209742841Y-65533000D01*
X209714269Y-65475857D01*
%TO.C,R33*%
X183335499Y-93354428D02*
X183135499Y-93068714D01*
X182992642Y-93354428D02*
X182992642Y-92754428D01*
X183221214Y-92754428D01*
X183278356Y-92783000D01*
X183306928Y-92811571D01*
X183335499Y-92868714D01*
X183335499Y-92954428D01*
X183306928Y-93011571D01*
X183278356Y-93040142D01*
X183221214Y-93068714D01*
X182992642Y-93068714D01*
X183535499Y-92754428D02*
X183906928Y-92754428D01*
X183706928Y-92983000D01*
X183792642Y-92983000D01*
X183849785Y-93011571D01*
X183878356Y-93040142D01*
X183906928Y-93097285D01*
X183906928Y-93240142D01*
X183878356Y-93297285D01*
X183849785Y-93325857D01*
X183792642Y-93354428D01*
X183621214Y-93354428D01*
X183564071Y-93325857D01*
X183535499Y-93297285D01*
X184106928Y-92754428D02*
X184478356Y-92754428D01*
X184278356Y-92983000D01*
X184364071Y-92983000D01*
X184421214Y-93011571D01*
X184449785Y-93040142D01*
X184478356Y-93097285D01*
X184478356Y-93240142D01*
X184449785Y-93297285D01*
X184421214Y-93325857D01*
X184364071Y-93354428D01*
X184192642Y-93354428D01*
X184135499Y-93325857D01*
X184106928Y-93297285D01*
D11*
%TO.C,J4*%
X221409507Y-124735380D02*
X221409507Y-125449666D01*
X221361888Y-125592523D01*
X221266650Y-125687761D01*
X221123793Y-125735380D01*
X221028555Y-125735380D01*
X222314269Y-125068714D02*
X222314269Y-125735380D01*
X222076174Y-124687761D02*
X221838079Y-125402047D01*
X222457126Y-125402047D01*
D10*
%TO.C,D4*%
X212764269Y-53225857D02*
X212164269Y-53225857D01*
X212164269Y-53083000D01*
X212192841Y-52997285D01*
X212249983Y-52940142D01*
X212307126Y-52911571D01*
X212421412Y-52883000D01*
X212507126Y-52883000D01*
X212621412Y-52911571D01*
X212678555Y-52940142D01*
X212735698Y-52997285D01*
X212764269Y-53083000D01*
X212764269Y-53225857D01*
X212364269Y-52368714D02*
X212764269Y-52368714D01*
X212135698Y-52511571D02*
X212564269Y-52654428D01*
X212564269Y-52283000D01*
%TO.C,D3*%
X215764269Y-53225857D02*
X215164269Y-53225857D01*
X215164269Y-53083000D01*
X215192841Y-52997285D01*
X215249983Y-52940142D01*
X215307126Y-52911571D01*
X215421412Y-52883000D01*
X215507126Y-52883000D01*
X215621412Y-52911571D01*
X215678555Y-52940142D01*
X215735698Y-52997285D01*
X215764269Y-53083000D01*
X215764269Y-53225857D01*
X215164269Y-52683000D02*
X215164269Y-52311571D01*
X215392841Y-52511571D01*
X215392841Y-52425857D01*
X215421412Y-52368714D01*
X215449983Y-52340142D01*
X215507126Y-52311571D01*
X215649983Y-52311571D01*
X215707126Y-52340142D01*
X215735698Y-52368714D01*
X215764269Y-52425857D01*
X215764269Y-52597285D01*
X215735698Y-52654428D01*
X215707126Y-52683000D01*
%TO.C,C60*%
X189357126Y-92297285D02*
X189328555Y-92325857D01*
X189242841Y-92354428D01*
X189185698Y-92354428D01*
X189099983Y-92325857D01*
X189042841Y-92268714D01*
X189014269Y-92211571D01*
X188985698Y-92097285D01*
X188985698Y-92011571D01*
X189014269Y-91897285D01*
X189042841Y-91840142D01*
X189099983Y-91783000D01*
X189185698Y-91754428D01*
X189242841Y-91754428D01*
X189328555Y-91783000D01*
X189357126Y-91811571D01*
X189871412Y-91754428D02*
X189757126Y-91754428D01*
X189699983Y-91783000D01*
X189671412Y-91811571D01*
X189614269Y-91897285D01*
X189585698Y-92011571D01*
X189585698Y-92240142D01*
X189614269Y-92297285D01*
X189642841Y-92325857D01*
X189699983Y-92354428D01*
X189814269Y-92354428D01*
X189871412Y-92325857D01*
X189899983Y-92297285D01*
X189928555Y-92240142D01*
X189928555Y-92097285D01*
X189899983Y-92040142D01*
X189871412Y-92011571D01*
X189814269Y-91983000D01*
X189699983Y-91983000D01*
X189642841Y-92011571D01*
X189614269Y-92040142D01*
X189585698Y-92097285D01*
X190299983Y-91754428D02*
X190357126Y-91754428D01*
X190414269Y-91783000D01*
X190442841Y-91811571D01*
X190471412Y-91868714D01*
X190499983Y-91983000D01*
X190499983Y-92125857D01*
X190471412Y-92240142D01*
X190442841Y-92297285D01*
X190414269Y-92325857D01*
X190357126Y-92354428D01*
X190299983Y-92354428D01*
X190242841Y-92325857D01*
X190214269Y-92297285D01*
X190185698Y-92240142D01*
X190157126Y-92125857D01*
X190157126Y-91983000D01*
X190185698Y-91868714D01*
X190214269Y-91811571D01*
X190242841Y-91783000D01*
X190299983Y-91754428D01*
%TO.C,R34*%
X183335499Y-89354428D02*
X183135499Y-89068714D01*
X182992642Y-89354428D02*
X182992642Y-88754428D01*
X183221214Y-88754428D01*
X183278356Y-88783000D01*
X183306928Y-88811571D01*
X183335499Y-88868714D01*
X183335499Y-88954428D01*
X183306928Y-89011571D01*
X183278356Y-89040142D01*
X183221214Y-89068714D01*
X182992642Y-89068714D01*
X183535499Y-88754428D02*
X183906928Y-88754428D01*
X183706928Y-88983000D01*
X183792642Y-88983000D01*
X183849785Y-89011571D01*
X183878356Y-89040142D01*
X183906928Y-89097285D01*
X183906928Y-89240142D01*
X183878356Y-89297285D01*
X183849785Y-89325857D01*
X183792642Y-89354428D01*
X183621214Y-89354428D01*
X183564071Y-89325857D01*
X183535499Y-89297285D01*
X184421214Y-88954428D02*
X184421214Y-89354428D01*
X184278356Y-88725857D02*
X184135499Y-89154428D01*
X184506928Y-89154428D01*
%TO.C,C22*%
X215007126Y-87268714D02*
X215035698Y-87297285D01*
X215064269Y-87383000D01*
X215064269Y-87440142D01*
X215035698Y-87525857D01*
X214978555Y-87583000D01*
X214921412Y-87611571D01*
X214807126Y-87640142D01*
X214721412Y-87640142D01*
X214607126Y-87611571D01*
X214549983Y-87583000D01*
X214492841Y-87525857D01*
X214464269Y-87440142D01*
X214464269Y-87383000D01*
X214492841Y-87297285D01*
X214521412Y-87268714D01*
X214521412Y-87040142D02*
X214492841Y-87011571D01*
X214464269Y-86954428D01*
X214464269Y-86811571D01*
X214492841Y-86754428D01*
X214521412Y-86725857D01*
X214578555Y-86697285D01*
X214635698Y-86697285D01*
X214721412Y-86725857D01*
X215064269Y-87068714D01*
X215064269Y-86697285D01*
X214521412Y-86468714D02*
X214492841Y-86440142D01*
X214464269Y-86383000D01*
X214464269Y-86240142D01*
X214492841Y-86183000D01*
X214521412Y-86154428D01*
X214578555Y-86125857D01*
X214635698Y-86125857D01*
X214721412Y-86154428D01*
X215064269Y-86497285D01*
X215064269Y-86125857D01*
%TO.C,D7*%
X208264269Y-53225857D02*
X207664269Y-53225857D01*
X207664269Y-53083000D01*
X207692841Y-52997285D01*
X207749983Y-52940142D01*
X207807126Y-52911571D01*
X207921412Y-52883000D01*
X208007126Y-52883000D01*
X208121412Y-52911571D01*
X208178555Y-52940142D01*
X208235698Y-52997285D01*
X208264269Y-53083000D01*
X208264269Y-53225857D01*
X207664269Y-52683000D02*
X207664269Y-52283000D01*
X208264269Y-52540142D01*
%TO.C,U2*%
X193385698Y-73604428D02*
X193385698Y-74090142D01*
X193414269Y-74147285D01*
X193442841Y-74175857D01*
X193499983Y-74204428D01*
X193614269Y-74204428D01*
X193671412Y-74175857D01*
X193699983Y-74147285D01*
X193728555Y-74090142D01*
X193728555Y-73604428D01*
X193985698Y-73661571D02*
X194014269Y-73633000D01*
X194071412Y-73604428D01*
X194214269Y-73604428D01*
X194271412Y-73633000D01*
X194299983Y-73661571D01*
X194328555Y-73718714D01*
X194328555Y-73775857D01*
X194299983Y-73861571D01*
X193957126Y-74204428D01*
X194328555Y-74204428D01*
%TO.C,C121*%
X228707126Y-111354428D02*
X228735698Y-111383000D01*
X228764269Y-111468714D01*
X228764269Y-111525857D01*
X228735698Y-111611571D01*
X228678555Y-111668714D01*
X228621412Y-111697285D01*
X228507126Y-111725857D01*
X228421412Y-111725857D01*
X228307126Y-111697285D01*
X228249983Y-111668714D01*
X228192841Y-111611571D01*
X228164269Y-111525857D01*
X228164269Y-111468714D01*
X228192841Y-111383000D01*
X228221412Y-111354428D01*
X228764269Y-110783000D02*
X228764269Y-111125857D01*
X228764269Y-110954428D02*
X228164269Y-110954428D01*
X228249983Y-111011571D01*
X228307126Y-111068714D01*
X228335698Y-111125857D01*
X228221412Y-110554428D02*
X228192841Y-110525857D01*
X228164269Y-110468714D01*
X228164269Y-110325857D01*
X228192841Y-110268714D01*
X228221412Y-110240142D01*
X228278555Y-110211571D01*
X228335698Y-110211571D01*
X228421412Y-110240142D01*
X228764269Y-110583000D01*
X228764269Y-110211571D01*
X228764269Y-109640142D02*
X228764269Y-109983000D01*
X228764269Y-109811571D02*
X228164269Y-109811571D01*
X228249983Y-109868714D01*
X228307126Y-109925857D01*
X228335698Y-109983000D01*
D11*
%TO.C,J3*%
X189259507Y-62635380D02*
X189259507Y-63349666D01*
X189211888Y-63492523D01*
X189116650Y-63587761D01*
X188973793Y-63635380D01*
X188878555Y-63635380D01*
X189640460Y-62635380D02*
X190259507Y-62635380D01*
X189926174Y-63016333D01*
X190069031Y-63016333D01*
X190164269Y-63063952D01*
X190211888Y-63111571D01*
X190259507Y-63206809D01*
X190259507Y-63444904D01*
X190211888Y-63540142D01*
X190164269Y-63587761D01*
X190069031Y-63635380D01*
X189783317Y-63635380D01*
X189688079Y-63587761D01*
X189640460Y-63540142D01*
D10*
%TO.C,U1*%
X197635698Y-67604428D02*
X197635698Y-68090142D01*
X197664269Y-68147285D01*
X197692841Y-68175857D01*
X197749983Y-68204428D01*
X197864269Y-68204428D01*
X197921412Y-68175857D01*
X197949983Y-68147285D01*
X197978555Y-68090142D01*
X197978555Y-67604428D01*
X198578555Y-68204428D02*
X198235698Y-68204428D01*
X198407126Y-68204428D02*
X198407126Y-67604428D01*
X198349983Y-67690142D01*
X198292841Y-67747285D01*
X198235698Y-67775857D01*
%TO.C,C28*%
X222307126Y-89768714D02*
X222335698Y-89797285D01*
X222364269Y-89883000D01*
X222364269Y-89940142D01*
X222335698Y-90025857D01*
X222278555Y-90083000D01*
X222221412Y-90111571D01*
X222107126Y-90140142D01*
X222021412Y-90140142D01*
X221907126Y-90111571D01*
X221849983Y-90083000D01*
X221792841Y-90025857D01*
X221764269Y-89940142D01*
X221764269Y-89883000D01*
X221792841Y-89797285D01*
X221821412Y-89768714D01*
X221821412Y-89540142D02*
X221792841Y-89511571D01*
X221764269Y-89454428D01*
X221764269Y-89311571D01*
X221792841Y-89254428D01*
X221821412Y-89225857D01*
X221878555Y-89197285D01*
X221935698Y-89197285D01*
X222021412Y-89225857D01*
X222364269Y-89568714D01*
X222364269Y-89197285D01*
X222021412Y-88854428D02*
X221992841Y-88911571D01*
X221964269Y-88940142D01*
X221907126Y-88968714D01*
X221878555Y-88968714D01*
X221821412Y-88940142D01*
X221792841Y-88911571D01*
X221764269Y-88854428D01*
X221764269Y-88740142D01*
X221792841Y-88683000D01*
X221821412Y-88654428D01*
X221878555Y-88625857D01*
X221907126Y-88625857D01*
X221964269Y-88654428D01*
X221992841Y-88683000D01*
X222021412Y-88740142D01*
X222021412Y-88854428D01*
X222049983Y-88911571D01*
X222078555Y-88940142D01*
X222135698Y-88968714D01*
X222249983Y-88968714D01*
X222307126Y-88940142D01*
X222335698Y-88911571D01*
X222364269Y-88854428D01*
X222364269Y-88740142D01*
X222335698Y-88683000D01*
X222307126Y-88654428D01*
X222249983Y-88625857D01*
X222135698Y-88625857D01*
X222078555Y-88654428D01*
X222049983Y-88683000D01*
X222021412Y-88740142D01*
%TO.C,Q1*%
X185235698Y-96661571D02*
X185178555Y-96633000D01*
X185121412Y-96575857D01*
X185035698Y-96490142D01*
X184978555Y-96461571D01*
X184921412Y-96461571D01*
X184949983Y-96604428D02*
X184892841Y-96575857D01*
X184835698Y-96518714D01*
X184807126Y-96404428D01*
X184807126Y-96204428D01*
X184835698Y-96090142D01*
X184892841Y-96033000D01*
X184949983Y-96004428D01*
X185064269Y-96004428D01*
X185121412Y-96033000D01*
X185178555Y-96090142D01*
X185207126Y-96204428D01*
X185207126Y-96404428D01*
X185178555Y-96518714D01*
X185121412Y-96575857D01*
X185064269Y-96604428D01*
X184949983Y-96604428D01*
X185778555Y-96604428D02*
X185435698Y-96604428D01*
X185607126Y-96604428D02*
X185607126Y-96004428D01*
X185549983Y-96090142D01*
X185492841Y-96147285D01*
X185435698Y-96175857D01*
%TO.C,U3*%
X223771412Y-57225857D02*
X223285698Y-57225857D01*
X223228555Y-57254428D01*
X223199983Y-57283000D01*
X223171412Y-57340142D01*
X223171412Y-57454428D01*
X223199983Y-57511571D01*
X223228555Y-57540142D01*
X223285698Y-57568714D01*
X223771412Y-57568714D01*
X223771412Y-57797285D02*
X223771412Y-58168714D01*
X223542841Y-57968714D01*
X223542841Y-58054428D01*
X223514269Y-58111571D01*
X223485698Y-58140142D01*
X223428555Y-58168714D01*
X223285698Y-58168714D01*
X223228555Y-58140142D01*
X223199983Y-58111571D01*
X223171412Y-58054428D01*
X223171412Y-57883000D01*
X223199983Y-57825857D01*
X223228555Y-57797285D01*
D11*
%TO.C,J5*%
X194659507Y-111335380D02*
X194659507Y-112049666D01*
X194611888Y-112192523D01*
X194516650Y-112287761D01*
X194373793Y-112335380D01*
X194278555Y-112335380D01*
X195611888Y-111335380D02*
X195135698Y-111335380D01*
X195088079Y-111811571D01*
X195135698Y-111763952D01*
X195230936Y-111716333D01*
X195469031Y-111716333D01*
X195564269Y-111763952D01*
X195611888Y-111811571D01*
X195659507Y-111906809D01*
X195659507Y-112144904D01*
X195611888Y-112240142D01*
X195564269Y-112287761D01*
X195469031Y-112335380D01*
X195230936Y-112335380D01*
X195135698Y-112287761D01*
X195088079Y-112240142D01*
D10*
%TO.C,C4*%
X217142841Y-85597285D02*
X217114269Y-85625857D01*
X217028555Y-85654428D01*
X216971412Y-85654428D01*
X216885698Y-85625857D01*
X216828555Y-85568714D01*
X216799983Y-85511571D01*
X216771412Y-85397285D01*
X216771412Y-85311571D01*
X216799983Y-85197285D01*
X216828555Y-85140142D01*
X216885698Y-85083000D01*
X216971412Y-85054428D01*
X217028555Y-85054428D01*
X217114269Y-85083000D01*
X217142841Y-85111571D01*
X217657126Y-85254428D02*
X217657126Y-85654428D01*
X217514269Y-85025857D02*
X217371412Y-85454428D01*
X217742841Y-85454428D01*
%TO.C,C125*%
X215871412Y-107897285D02*
X215842841Y-107925857D01*
X215757126Y-107954428D01*
X215699983Y-107954428D01*
X215614269Y-107925857D01*
X215557126Y-107868714D01*
X215528555Y-107811571D01*
X215499983Y-107697285D01*
X215499983Y-107611571D01*
X215528555Y-107497285D01*
X215557126Y-107440142D01*
X215614269Y-107383000D01*
X215699983Y-107354428D01*
X215757126Y-107354428D01*
X215842841Y-107383000D01*
X215871412Y-107411571D01*
X216442841Y-107954428D02*
X216099983Y-107954428D01*
X216271412Y-107954428D02*
X216271412Y-107354428D01*
X216214269Y-107440142D01*
X216157126Y-107497285D01*
X216099983Y-107525857D01*
X216671412Y-107411571D02*
X216699983Y-107383000D01*
X216757126Y-107354428D01*
X216899983Y-107354428D01*
X216957126Y-107383000D01*
X216985698Y-107411571D01*
X217014269Y-107468714D01*
X217014269Y-107525857D01*
X216985698Y-107611571D01*
X216642841Y-107954428D01*
X217014269Y-107954428D01*
X217557126Y-107354428D02*
X217271412Y-107354428D01*
X217242841Y-107640142D01*
X217271412Y-107611571D01*
X217328555Y-107583000D01*
X217471412Y-107583000D01*
X217528555Y-107611571D01*
X217557126Y-107640142D01*
X217585698Y-107697285D01*
X217585698Y-107840142D01*
X217557126Y-107897285D01*
X217528555Y-107925857D01*
X217471412Y-107954428D01*
X217328555Y-107954428D01*
X217271412Y-107925857D01*
X217242841Y-107897285D01*
%TO.C,R43*%
X217357126Y-111554428D02*
X217157126Y-111268714D01*
X217014269Y-111554428D02*
X217014269Y-110954428D01*
X217242841Y-110954428D01*
X217299983Y-110983000D01*
X217328555Y-111011571D01*
X217357126Y-111068714D01*
X217357126Y-111154428D01*
X217328555Y-111211571D01*
X217299983Y-111240142D01*
X217242841Y-111268714D01*
X217014269Y-111268714D01*
X217871412Y-111154428D02*
X217871412Y-111554428D01*
X217728555Y-110925857D02*
X217585698Y-111354428D01*
X217957126Y-111354428D01*
X218128555Y-110954428D02*
X218499983Y-110954428D01*
X218299983Y-111183000D01*
X218385698Y-111183000D01*
X218442841Y-111211571D01*
X218471412Y-111240142D01*
X218499983Y-111297285D01*
X218499983Y-111440142D01*
X218471412Y-111497285D01*
X218442841Y-111525857D01*
X218385698Y-111554428D01*
X218214269Y-111554428D01*
X218157126Y-111525857D01*
X218128555Y-111497285D01*
%TO.C,U10*%
X218849983Y-66304428D02*
X218849983Y-66790142D01*
X218878555Y-66847285D01*
X218907126Y-66875857D01*
X218964269Y-66904428D01*
X219078555Y-66904428D01*
X219135698Y-66875857D01*
X219164269Y-66847285D01*
X219192841Y-66790142D01*
X219192841Y-66304428D01*
X219792841Y-66904428D02*
X219449983Y-66904428D01*
X219621412Y-66904428D02*
X219621412Y-66304428D01*
X219564269Y-66390142D01*
X219507126Y-66447285D01*
X219449983Y-66475857D01*
X220164269Y-66304428D02*
X220221412Y-66304428D01*
X220278555Y-66333000D01*
X220307126Y-66361571D01*
X220335698Y-66418714D01*
X220364269Y-66533000D01*
X220364269Y-66675857D01*
X220335698Y-66790142D01*
X220307126Y-66847285D01*
X220278555Y-66875857D01*
X220221412Y-66904428D01*
X220164269Y-66904428D01*
X220107126Y-66875857D01*
X220078555Y-66847285D01*
X220049983Y-66790142D01*
X220021412Y-66675857D01*
X220021412Y-66533000D01*
X220049983Y-66418714D01*
X220078555Y-66361571D01*
X220107126Y-66333000D01*
X220164269Y-66304428D01*
%TO.C,R15*%
X215307126Y-70554428D02*
X215107126Y-70268714D01*
X214964269Y-70554428D02*
X214964269Y-69954428D01*
X215192841Y-69954428D01*
X215249983Y-69983000D01*
X215278555Y-70011571D01*
X215307126Y-70068714D01*
X215307126Y-70154428D01*
X215278555Y-70211571D01*
X215249983Y-70240142D01*
X215192841Y-70268714D01*
X214964269Y-70268714D01*
X215878555Y-70554428D02*
X215535698Y-70554428D01*
X215707126Y-70554428D02*
X215707126Y-69954428D01*
X215649983Y-70040142D01*
X215592841Y-70097285D01*
X215535698Y-70125857D01*
X216421412Y-69954428D02*
X216135698Y-69954428D01*
X216107126Y-70240142D01*
X216135698Y-70211571D01*
X216192841Y-70183000D01*
X216335698Y-70183000D01*
X216392841Y-70211571D01*
X216421412Y-70240142D01*
X216449983Y-70297285D01*
X216449983Y-70440142D01*
X216421412Y-70497285D01*
X216392841Y-70525857D01*
X216335698Y-70554428D01*
X216192841Y-70554428D01*
X216135698Y-70525857D01*
X216107126Y-70497285D01*
%TO.C,C122*%
X216821412Y-112497285D02*
X216792841Y-112525857D01*
X216707126Y-112554428D01*
X216649983Y-112554428D01*
X216564269Y-112525857D01*
X216507126Y-112468714D01*
X216478555Y-112411571D01*
X216449983Y-112297285D01*
X216449983Y-112211571D01*
X216478555Y-112097285D01*
X216507126Y-112040142D01*
X216564269Y-111983000D01*
X216649983Y-111954428D01*
X216707126Y-111954428D01*
X216792841Y-111983000D01*
X216821412Y-112011571D01*
X217392841Y-112554428D02*
X217049983Y-112554428D01*
X217221412Y-112554428D02*
X217221412Y-111954428D01*
X217164269Y-112040142D01*
X217107126Y-112097285D01*
X217049983Y-112125857D01*
X217621412Y-112011571D02*
X217649983Y-111983000D01*
X217707126Y-111954428D01*
X217849983Y-111954428D01*
X217907126Y-111983000D01*
X217935698Y-112011571D01*
X217964269Y-112068714D01*
X217964269Y-112125857D01*
X217935698Y-112211571D01*
X217592841Y-112554428D01*
X217964269Y-112554428D01*
X218192841Y-112011571D02*
X218221412Y-111983000D01*
X218278555Y-111954428D01*
X218421412Y-111954428D01*
X218478555Y-111983000D01*
X218507126Y-112011571D01*
X218535698Y-112068714D01*
X218535698Y-112125857D01*
X218507126Y-112211571D01*
X218164269Y-112554428D01*
X218535698Y-112554428D01*
%TO.C,R32*%
X183335499Y-92354428D02*
X183135499Y-92068714D01*
X182992642Y-92354428D02*
X182992642Y-91754428D01*
X183221214Y-91754428D01*
X183278356Y-91783000D01*
X183306928Y-91811571D01*
X183335499Y-91868714D01*
X183335499Y-91954428D01*
X183306928Y-92011571D01*
X183278356Y-92040142D01*
X183221214Y-92068714D01*
X182992642Y-92068714D01*
X183535499Y-91754428D02*
X183906928Y-91754428D01*
X183706928Y-91983000D01*
X183792642Y-91983000D01*
X183849785Y-92011571D01*
X183878356Y-92040142D01*
X183906928Y-92097285D01*
X183906928Y-92240142D01*
X183878356Y-92297285D01*
X183849785Y-92325857D01*
X183792642Y-92354428D01*
X183621214Y-92354428D01*
X183564071Y-92325857D01*
X183535499Y-92297285D01*
X184135499Y-91811571D02*
X184164071Y-91783000D01*
X184221214Y-91754428D01*
X184364071Y-91754428D01*
X184421214Y-91783000D01*
X184449785Y-91811571D01*
X184478356Y-91868714D01*
X184478356Y-91925857D01*
X184449785Y-92011571D01*
X184106928Y-92354428D01*
X184478356Y-92354428D01*
%TO.C,Q2*%
X187935698Y-113711571D02*
X187878555Y-113683000D01*
X187821412Y-113625857D01*
X187735698Y-113540142D01*
X187678555Y-113511571D01*
X187621412Y-113511571D01*
X187649983Y-113654428D02*
X187592841Y-113625857D01*
X187535698Y-113568714D01*
X187507126Y-113454428D01*
X187507126Y-113254428D01*
X187535698Y-113140142D01*
X187592841Y-113083000D01*
X187649983Y-113054428D01*
X187764269Y-113054428D01*
X187821412Y-113083000D01*
X187878555Y-113140142D01*
X187907126Y-113254428D01*
X187907126Y-113454428D01*
X187878555Y-113568714D01*
X187821412Y-113625857D01*
X187764269Y-113654428D01*
X187649983Y-113654428D01*
X188135698Y-113111571D02*
X188164269Y-113083000D01*
X188221412Y-113054428D01*
X188364269Y-113054428D01*
X188421412Y-113083000D01*
X188449983Y-113111571D01*
X188478555Y-113168714D01*
X188478555Y-113225857D01*
X188449983Y-113311571D01*
X188107126Y-113654428D01*
X188478555Y-113654428D01*
%TO.C,*%
%TO.C,C50*%
X208107126Y-120097285D02*
X208078555Y-120125857D01*
X207992841Y-120154428D01*
X207935698Y-120154428D01*
X207849983Y-120125857D01*
X207792841Y-120068714D01*
X207764269Y-120011571D01*
X207735698Y-119897285D01*
X207735698Y-119811571D01*
X207764269Y-119697285D01*
X207792841Y-119640142D01*
X207849983Y-119583000D01*
X207935698Y-119554428D01*
X207992841Y-119554428D01*
X208078555Y-119583000D01*
X208107126Y-119611571D01*
X208649983Y-119554428D02*
X208364269Y-119554428D01*
X208335698Y-119840142D01*
X208364269Y-119811571D01*
X208421412Y-119783000D01*
X208564269Y-119783000D01*
X208621412Y-119811571D01*
X208649983Y-119840142D01*
X208678555Y-119897285D01*
X208678555Y-120040142D01*
X208649983Y-120097285D01*
X208621412Y-120125857D01*
X208564269Y-120154428D01*
X208421412Y-120154428D01*
X208364269Y-120125857D01*
X208335698Y-120097285D01*
X209049983Y-119554428D02*
X209107126Y-119554428D01*
X209164269Y-119583000D01*
X209192841Y-119611571D01*
X209221412Y-119668714D01*
X209249983Y-119783000D01*
X209249983Y-119925857D01*
X209221412Y-120040142D01*
X209192841Y-120097285D01*
X209164269Y-120125857D01*
X209107126Y-120154428D01*
X209049983Y-120154428D01*
X208992841Y-120125857D01*
X208964269Y-120097285D01*
X208935698Y-120040142D01*
X208907126Y-119925857D01*
X208907126Y-119783000D01*
X208935698Y-119668714D01*
X208964269Y-119611571D01*
X208992841Y-119583000D01*
X209049983Y-119554428D01*
%TO.C,R35*%
X183314285Y-95354428D02*
X183114285Y-95068714D01*
X182971428Y-95354428D02*
X182971428Y-94754428D01*
X183200000Y-94754428D01*
X183257142Y-94783000D01*
X183285714Y-94811571D01*
X183314285Y-94868714D01*
X183314285Y-94954428D01*
X183285714Y-95011571D01*
X183257142Y-95040142D01*
X183200000Y-95068714D01*
X182971428Y-95068714D01*
X183514285Y-94754428D02*
X183885714Y-94754428D01*
X183685714Y-94983000D01*
X183771428Y-94983000D01*
X183828571Y-95011571D01*
X183857142Y-95040142D01*
X183885714Y-95097285D01*
X183885714Y-95240142D01*
X183857142Y-95297285D01*
X183828571Y-95325857D01*
X183771428Y-95354428D01*
X183600000Y-95354428D01*
X183542857Y-95325857D01*
X183514285Y-95297285D01*
X184428571Y-94754428D02*
X184142857Y-94754428D01*
X184114285Y-95040142D01*
X184142857Y-95011571D01*
X184200000Y-94983000D01*
X184342857Y-94983000D01*
X184400000Y-95011571D01*
X184428571Y-95040142D01*
X184457142Y-95097285D01*
X184457142Y-95240142D01*
X184428571Y-95297285D01*
X184400000Y-95325857D01*
X184342857Y-95354428D01*
X184200000Y-95354428D01*
X184142857Y-95325857D01*
X184114285Y-95297285D01*
D12*
%TO.C,D6*%
X210227841Y-53710501D02*
X208757841Y-53710501D01*
X208757841Y-53710501D02*
X208757841Y-55995501D01*
X210227841Y-55995501D02*
X210227841Y-53710501D01*
%TO.C,C61*%
X188140000Y-100567164D02*
X188140000Y-100782836D01*
X188860000Y-100567164D02*
X188860000Y-100782836D01*
%TO.C,C68*%
X216431589Y-82918000D02*
X216954093Y-82918000D01*
X216431589Y-81448000D02*
X216954093Y-81448000D01*
%TO.C,C130*%
X219619487Y-102813000D02*
X219403815Y-102813000D01*
X219619487Y-103533000D02*
X219403815Y-103533000D01*
%TO.C,Y1*%
X189200000Y-102225000D02*
X193200000Y-102225000D01*
X189200000Y-98925000D02*
X189200000Y-102225000D01*
%TO.C,R50*%
X219685292Y-103783000D02*
X219378010Y-103783000D01*
X219685292Y-104543000D02*
X219378010Y-104543000D01*
%TO.C,C5*%
X215675005Y-83993000D02*
X215890677Y-83993000D01*
X215675005Y-84713000D02*
X215890677Y-84713000D01*
%TO.C,C123*%
X226781589Y-115548000D02*
X227304093Y-115548000D01*
X226781589Y-117018000D02*
X227304093Y-117018000D01*
%TO.C,R16*%
X208662842Y-63879358D02*
X208662842Y-64186640D01*
X209422842Y-63879358D02*
X209422842Y-64186640D01*
%TO.C,U6*%
X212660088Y-113270348D02*
X211705493Y-112315753D01*
X210361991Y-114932049D02*
X209725594Y-114295652D01*
%TO.C,R37*%
X197072841Y-98053165D02*
X197072841Y-97745883D01*
X196312841Y-98053165D02*
X196312841Y-97745883D01*
%TO.C,U4*%
X219992841Y-96153000D02*
X205992841Y-96153000D01*
X205992841Y-88153000D02*
X218992841Y-88153000D01*
X219992841Y-89153000D02*
X219992841Y-96153000D01*
X218992841Y-88153000D02*
X219992841Y-89153000D01*
X205992841Y-96153000D02*
X205992841Y-88153000D01*
%TO.C,TP3*%
X222792841Y-119933000D02*
G75*
G03*
X222792841Y-119933000I-700000J0D01*
G01*
%TO.C,U9*%
X222445201Y-113020593D02*
X220882701Y-113020593D01*
X225810201Y-101530593D02*
X227372701Y-101530593D01*
X227372701Y-113020593D02*
X227372701Y-110208093D01*
X220882701Y-113020593D02*
X220882701Y-110208093D01*
X225810201Y-113020593D02*
X227372701Y-113020593D01*
X225810201Y-101530593D02*
X227372701Y-101530593D01*
X224131651Y-101530593D02*
X220882701Y-101530593D01*
X220882701Y-101530593D02*
X220882701Y-107283000D01*
X225810201Y-101530593D02*
X227372701Y-101530593D01*
X227372701Y-101530593D02*
X227372701Y-104343093D01*
X227372701Y-101530593D02*
X227372701Y-104343093D01*
X227372701Y-101530593D02*
X227372701Y-104343093D01*
%TO.C,D11*%
X192742841Y-107483000D02*
X192742841Y-110033000D01*
X194442841Y-107483000D02*
X194442841Y-110033000D01*
X194442841Y-107483000D02*
X192742841Y-107483000D01*
%TO.C,R30*%
X185839200Y-91463000D02*
X186146482Y-91463000D01*
X185839200Y-90703000D02*
X186146482Y-90703000D01*
%TO.C,C58*%
X205744686Y-110533658D02*
X205592183Y-110381155D01*
X206253803Y-110024541D02*
X206101300Y-109872038D01*
%TO.C,R39*%
X187749200Y-93703000D02*
X188056482Y-93703000D01*
X187749200Y-94463000D02*
X188056482Y-94463000D01*
%TO.C,C1*%
X196702841Y-76575164D02*
X196702841Y-76790836D01*
X195982841Y-76575164D02*
X195982841Y-76790836D01*
%TO.C,C124*%
X226781589Y-113548000D02*
X227304093Y-113548000D01*
X226781589Y-115018000D02*
X227304093Y-115018000D01*
%TO.C,R40*%
X184346482Y-101213000D02*
X184039200Y-101213000D01*
X184346482Y-100453000D02*
X184039200Y-100453000D01*
%TO.C,U8*%
X186857841Y-104693000D02*
X186857841Y-106103000D01*
X189177841Y-106103000D02*
X189177841Y-104018000D01*
%TO.C,C23*%
X216332841Y-86990836D02*
X216332841Y-86775164D01*
X217052841Y-86990836D02*
X217052841Y-86775164D01*
%TO.C,C59*%
X206903803Y-109374541D02*
X206751300Y-109222038D01*
X206394686Y-109883658D02*
X206242183Y-109731155D01*
%TO.C,D2*%
X214727841Y-55995501D02*
X214727841Y-53710501D01*
X214727841Y-53710501D02*
X213257841Y-53710501D01*
X213257841Y-53710501D02*
X213257841Y-55995501D01*
%TO.C,kibuzzard-6234B8C8*%
G36*
X213399804Y-60362099D02*
G01*
X213399804Y-59661271D01*
X213539821Y-59661271D01*
X213547322Y-59718500D01*
X213569825Y-59747948D01*
X213599273Y-59758505D01*
X213637611Y-59760172D01*
X214255466Y-59760172D01*
X214312140Y-59753504D01*
X214343811Y-59724056D01*
X214354368Y-59662382D01*
X214346867Y-59605152D01*
X214324364Y-59575704D01*
X214295471Y-59565147D01*
X214256578Y-59563481D01*
X213638723Y-59563481D01*
X213580938Y-59569037D01*
X213550100Y-59599318D01*
X213539821Y-59661271D01*
X213399804Y-59661271D01*
X213399804Y-59377902D01*
X213540933Y-59377902D01*
X213547600Y-59432353D01*
X213573715Y-59464024D01*
X213635389Y-59474581D01*
X214255466Y-59474581D01*
X214294360Y-59472914D01*
X214324364Y-59462357D01*
X214346867Y-59433464D01*
X214354368Y-59377902D01*
X214346867Y-59320672D01*
X214324364Y-59291224D01*
X214295471Y-59280667D01*
X214256578Y-59279001D01*
X213890976Y-59279001D01*
X213931475Y-59247947D01*
X213984815Y-59207387D01*
X214050996Y-59157319D01*
X214130019Y-59097743D01*
X214221882Y-59028661D01*
X214326586Y-58950071D01*
X214347700Y-58922289D01*
X214354368Y-58862282D01*
X214346867Y-58805052D01*
X214324364Y-58775604D01*
X214295471Y-58765047D01*
X214256578Y-58763381D01*
X213639834Y-58763381D01*
X213583160Y-58770048D01*
X213559824Y-58783939D01*
X213546489Y-58812831D01*
X213540933Y-58863949D01*
X213547600Y-58916733D01*
X213573715Y-58948404D01*
X213635389Y-58958961D01*
X214010991Y-58958961D01*
X213970894Y-58989582D01*
X213918758Y-59028846D01*
X213854583Y-59076753D01*
X213778370Y-59133303D01*
X213690118Y-59198497D01*
X213589828Y-59272333D01*
X213560935Y-59297892D01*
X213547045Y-59325117D01*
X213540933Y-59377902D01*
X213399804Y-59377902D01*
X213399804Y-58575579D01*
X213539821Y-58575579D01*
X213547322Y-58632809D01*
X213569825Y-58662257D01*
X213599273Y-58672814D01*
X213637611Y-58674481D01*
X214255466Y-58674481D01*
X214312140Y-58667813D01*
X214343811Y-58638365D01*
X214354368Y-58576691D01*
X214346867Y-58519461D01*
X214324364Y-58490013D01*
X214295471Y-58479456D01*
X214256578Y-58477789D01*
X213638723Y-58477789D01*
X213580938Y-58483346D01*
X213550100Y-58513627D01*
X213539821Y-58575579D01*
X213399804Y-58575579D01*
X213399804Y-58335549D01*
X213538710Y-58335549D01*
X213548711Y-58392223D01*
X213572603Y-58411114D01*
X213618720Y-58416671D01*
X213665393Y-58411114D01*
X213691507Y-58388889D01*
X213699841Y-58336661D01*
X213699841Y-58123301D01*
X214257689Y-58123301D01*
X214296027Y-58121634D01*
X214324920Y-58111632D01*
X214347700Y-58082740D01*
X214354368Y-58027733D01*
X214347700Y-57972171D01*
X214324920Y-57942722D01*
X214296583Y-57932721D01*
X214258800Y-57931054D01*
X213699841Y-57931054D01*
X213699841Y-57718806D01*
X213689840Y-57662132D01*
X213665948Y-57643241D01*
X213619831Y-57637684D01*
X213573159Y-57643241D01*
X213547045Y-57665466D01*
X213538710Y-57717694D01*
X213538710Y-58335549D01*
X213399804Y-58335549D01*
X213399804Y-56989455D01*
X214585878Y-56989455D01*
X214585878Y-60362099D01*
X213399804Y-60362099D01*
G37*
%TO.C,R38*%
X186396482Y-100453000D02*
X186089200Y-100453000D01*
X186396482Y-101213000D02*
X186089200Y-101213000D01*
%TO.C,R21*%
X223872841Y-55636641D02*
X223872841Y-55329359D01*
X223112841Y-55636641D02*
X223112841Y-55329359D01*
D11*
%TO.C,U5*%
X207076457Y-117086211D02*
X207659820Y-117669574D01*
D13*
X208610879Y-117715536D02*
X208610879Y-117715536D01*
X208617950Y-117708465D02*
X208617950Y-117708465D01*
D11*
X209056356Y-115106312D02*
X209869529Y-115919485D01*
D13*
X208610878Y-117715537D02*
G75*
G03*
X208617950Y-117708465I3536J3536D01*
G01*
X208617949Y-117708466D02*
G75*
G03*
X208610879Y-117715536I-3535J-3535D01*
G01*
D12*
%TO.C,U7*%
X200232841Y-96383000D02*
X200232841Y-95733000D01*
X193662841Y-89163000D02*
X193012841Y-89163000D01*
X199582841Y-89163000D02*
X200232841Y-89163000D01*
X199582841Y-96383000D02*
X200232841Y-96383000D01*
X193012841Y-96383000D02*
X193012841Y-95733000D01*
X200232841Y-89163000D02*
X200232841Y-89813000D01*
X193662841Y-96383000D02*
X193012841Y-96383000D01*
%TO.C,D1*%
X204877841Y-124548000D02*
X202592841Y-124548000D01*
X202592841Y-126018000D02*
X204877841Y-126018000D01*
X204877841Y-126018000D02*
X204877841Y-124548000D01*
%TO.C,kibuzzard-623B3E64*%
G36*
X196627410Y-65677739D02*
G01*
X200558272Y-65677739D01*
X200558272Y-66888261D01*
X196627410Y-66888261D01*
X196627410Y-66495064D01*
X197090431Y-66495064D01*
X197129325Y-66565628D01*
X197138215Y-66574518D01*
X197209335Y-66624524D01*
X197270176Y-66648694D01*
X197339351Y-66656750D01*
X197421583Y-66646811D01*
X197493444Y-66616992D01*
X197554933Y-66567295D01*
X197601853Y-66504633D01*
X197630005Y-66435920D01*
X197639388Y-66361158D01*
X197639388Y-65931104D01*
X197635642Y-65909990D01*
X197700507Y-65909990D01*
X197706063Y-65956663D01*
X197728288Y-65982777D01*
X197780517Y-65991112D01*
X197993877Y-65991112D01*
X197993877Y-66548959D01*
X197995544Y-66587297D01*
X198005545Y-66616190D01*
X198034438Y-66638970D01*
X198089445Y-66645638D01*
X198145007Y-66638970D01*
X198174455Y-66616190D01*
X198184457Y-66587853D01*
X198185437Y-66565628D01*
X198512831Y-66565628D01*
X198528944Y-66603410D01*
X198577283Y-66636748D01*
X198636735Y-66655639D01*
X198672295Y-66645082D01*
X198692298Y-66624524D01*
X198709522Y-66592298D01*
X198767307Y-66472283D01*
X199075124Y-66472283D01*
X199132909Y-66592298D01*
X199150133Y-66625635D01*
X199170135Y-66646749D01*
X199205695Y-66656750D01*
X199265147Y-66637859D01*
X199313487Y-66603688D01*
X199329600Y-66565628D01*
X199310709Y-66508954D01*
X199175745Y-66230030D01*
X199374050Y-66230030D01*
X199381690Y-66315145D01*
X199404609Y-66393801D01*
X199442808Y-66465997D01*
X199496287Y-66531735D01*
X199560115Y-66586429D01*
X199629359Y-66625497D01*
X199704022Y-66648937D01*
X199784101Y-66656750D01*
X199871612Y-66650708D01*
X199947455Y-66632581D01*
X200011629Y-66602369D01*
X200064136Y-66560072D01*
X200095251Y-66492285D01*
X200095251Y-66247810D01*
X200084139Y-66185580D01*
X200010796Y-66154465D01*
X199815216Y-66154465D01*
X199761876Y-66164467D01*
X199743540Y-66188914D01*
X199738540Y-66236142D01*
X199742985Y-66282815D01*
X199761876Y-66308929D01*
X199810771Y-66317819D01*
X199898560Y-66317819D01*
X199898560Y-66438945D01*
X199846609Y-66453947D01*
X199788546Y-66458948D01*
X199708536Y-66442140D01*
X199637416Y-66391717D01*
X199600374Y-66343687D01*
X199578149Y-66289235D01*
X199570741Y-66228364D01*
X199587132Y-66141408D01*
X199636305Y-66072789D01*
X199706591Y-66028200D01*
X199786324Y-66013337D01*
X199846331Y-66020977D01*
X199897449Y-66043896D01*
X199965235Y-66074455D01*
X200002739Y-66059731D01*
X200044134Y-66015559D01*
X200069692Y-65952774D01*
X200039689Y-65903323D01*
X199960296Y-65855169D01*
X199877693Y-65826276D01*
X199791880Y-65816645D01*
X199710203Y-65824042D01*
X199634082Y-65846232D01*
X199563518Y-65883216D01*
X199498510Y-65934994D01*
X199444059Y-65997814D01*
X199405165Y-66067927D01*
X199381829Y-66145332D01*
X199374050Y-66230030D01*
X199175745Y-66230030D01*
X199010671Y-65888877D01*
X198974000Y-65845538D01*
X198921771Y-65831092D01*
X198868987Y-65846649D01*
X198831760Y-65887765D01*
X198531722Y-66508954D01*
X198512831Y-66565628D01*
X198185437Y-66565628D01*
X198186123Y-66550070D01*
X198186123Y-65991112D01*
X198398372Y-65991112D01*
X198455046Y-65981110D01*
X198473937Y-65957219D01*
X198479493Y-65911102D01*
X198473937Y-65864429D01*
X198451712Y-65838315D01*
X198399483Y-65829980D01*
X197781628Y-65829980D01*
X197724955Y-65839982D01*
X197706063Y-65863874D01*
X197700507Y-65909990D01*
X197635642Y-65909990D01*
X197627165Y-65862207D01*
X197597717Y-65838315D01*
X197533820Y-65831092D01*
X197464922Y-65852205D01*
X197448253Y-65883043D01*
X197442697Y-65937772D01*
X197442697Y-66353379D01*
X197414916Y-66430055D01*
X197344352Y-66458948D01*
X197303096Y-66449780D01*
X197264897Y-66422277D01*
X197198222Y-66385605D01*
X197129325Y-66425610D01*
X197090431Y-66495064D01*
X196627410Y-66495064D01*
X196627410Y-65677739D01*
G37*
G36*
X198995114Y-66307818D02*
G01*
X198847317Y-66307818D01*
X198920660Y-66155577D01*
X198995114Y-66307818D01*
G37*
%TO.C,C6*%
X223752841Y-59940836D02*
X223752841Y-59725164D01*
X223032841Y-59940836D02*
X223032841Y-59725164D01*
%TO.C,kibuzzard-623B3B2E*%
G36*
X203269545Y-118447762D02*
G01*
X203304470Y-118539837D01*
X203304470Y-118743037D01*
X203023483Y-118743037D01*
X203023483Y-118543012D01*
X203059201Y-118447762D01*
X203164770Y-118401725D01*
X203269545Y-118447762D01*
G37*
G36*
X204255912Y-117778896D02*
G01*
X204255912Y-124187104D01*
X202529770Y-124187104D01*
X202529770Y-123715088D01*
X202742495Y-123715088D01*
X202753211Y-123796844D01*
X202785358Y-123838913D01*
X202827426Y-123853994D01*
X202882195Y-123856375D01*
X203763258Y-123856375D01*
X203845808Y-123846850D01*
X203889861Y-123804781D01*
X203904545Y-123716675D01*
X203893830Y-123634919D01*
X203861683Y-123592850D01*
X203819614Y-123577769D01*
X203764845Y-123575388D01*
X203585458Y-123575388D01*
X203585458Y-123376950D01*
X203574169Y-123283817D01*
X203540302Y-123192800D01*
X203483858Y-123103900D01*
X203426112Y-123044766D01*
X203351301Y-122997537D01*
X203262997Y-122966581D01*
X203164770Y-122956263D01*
X203066345Y-122966581D01*
X202977445Y-122997537D01*
X202902039Y-123044766D01*
X202844095Y-123103900D01*
X202787651Y-123192624D01*
X202753784Y-123283111D01*
X202742495Y-123375363D01*
X202742495Y-123715088D01*
X202529770Y-123715088D01*
X202529770Y-122306975D01*
X202728208Y-122306975D01*
X202739320Y-122414925D01*
X202772658Y-122519700D01*
X202825442Y-122616934D01*
X202894895Y-122702263D01*
X202982009Y-122773700D01*
X203087776Y-122829263D01*
X203207037Y-122864981D01*
X203334633Y-122876888D01*
X203451115Y-122866321D01*
X203559264Y-122834620D01*
X203659078Y-122781786D01*
X203750558Y-122707819D01*
X203826956Y-122618770D01*
X203881526Y-122520692D01*
X203914269Y-122413586D01*
X203925183Y-122297450D01*
X203914120Y-122181563D01*
X203880931Y-122075200D01*
X203825617Y-121978363D01*
X203748176Y-121891050D01*
X203655010Y-121818819D01*
X203552517Y-121767225D01*
X203440698Y-121736269D01*
X203319551Y-121725950D01*
X203198852Y-121736765D01*
X203088372Y-121769209D01*
X202988111Y-121823284D01*
X202898070Y-121898988D01*
X202823755Y-121989376D01*
X202770673Y-122087503D01*
X202738824Y-122193370D01*
X202728208Y-122306975D01*
X202529770Y-122306975D01*
X202529770Y-120305137D01*
X202732970Y-120305137D01*
X202749639Y-120358319D01*
X202783770Y-120387687D01*
X202837745Y-120408325D01*
X203371145Y-120582950D01*
X202820283Y-120765512D01*
X202768689Y-120809962D01*
X202742495Y-120885369D01*
X202753608Y-120951250D01*
X202789326Y-121000859D01*
X202845683Y-121032213D01*
X203367970Y-121205250D01*
X202837745Y-121379875D01*
X202759958Y-121415594D01*
X202734558Y-121472744D01*
X202750433Y-121556088D01*
X202793692Y-121635859D01*
X202850445Y-121662450D01*
X202928233Y-121644988D01*
X203809295Y-121338600D01*
X203833108Y-121327488D01*
X203880733Y-121283831D01*
X203904545Y-121200488D01*
X203868033Y-121113175D01*
X203836283Y-121087775D01*
X203809295Y-121073488D01*
X203785038Y-121065296D01*
X203719887Y-121043262D01*
X203613842Y-121007384D01*
X203466903Y-120957663D01*
X203279070Y-120894100D01*
X203826758Y-120708362D01*
X203878351Y-120663119D01*
X203904545Y-120582156D01*
X203878351Y-120501194D01*
X203836283Y-120459125D01*
X203809295Y-120448012D01*
X202928233Y-120143212D01*
X202850445Y-120124162D01*
X202793295Y-120150753D01*
X202748845Y-120230525D01*
X202732970Y-120305137D01*
X202529770Y-120305137D01*
X202529770Y-119892387D01*
X202742495Y-119892387D01*
X202771864Y-120006687D01*
X202882195Y-120036850D01*
X203764845Y-120036850D01*
X203845808Y-120027325D01*
X203891051Y-119985256D01*
X203906133Y-119897150D01*
X203906133Y-119268500D01*
X203896608Y-119185950D01*
X203854539Y-119141897D01*
X203766433Y-119127212D01*
X203684676Y-119137928D01*
X203642608Y-119170075D01*
X203627526Y-119212144D01*
X203625145Y-119266912D01*
X203625145Y-119755862D01*
X203464808Y-119755862D01*
X203464808Y-119444712D01*
X203455283Y-119362162D01*
X203413214Y-119316919D01*
X203325108Y-119301837D01*
X203243351Y-119312553D01*
X203201283Y-119344700D01*
X203186201Y-119386769D01*
X203183820Y-119441537D01*
X203183820Y-119755862D01*
X203023483Y-119755862D01*
X203023483Y-119268500D01*
X203013958Y-119185950D01*
X202971889Y-119141897D01*
X202883783Y-119127212D01*
X202802026Y-119137928D01*
X202759958Y-119170075D01*
X202744876Y-119212144D01*
X202742495Y-119266912D01*
X202742495Y-119892387D01*
X202529770Y-119892387D01*
X202529770Y-118882737D01*
X202742495Y-118882737D01*
X202753211Y-118964494D01*
X202785358Y-119006562D01*
X202827426Y-119021644D01*
X202882195Y-119024025D01*
X203763258Y-119024025D01*
X203845808Y-119014500D01*
X203889861Y-118972431D01*
X203904545Y-118884325D01*
X203893830Y-118802569D01*
X203861683Y-118760500D01*
X203819614Y-118745419D01*
X203764845Y-118743037D01*
X203585458Y-118743037D01*
X203585458Y-118543012D01*
X203582283Y-118493800D01*
X203728509Y-118432064D01*
X203824288Y-118390789D01*
X203869620Y-118369975D01*
X203900576Y-118340606D01*
X203915658Y-118289806D01*
X203893433Y-118208050D01*
X203847395Y-118134231D01*
X203791833Y-118109625D01*
X203709283Y-118133437D01*
X203608212Y-118177887D01*
X203525133Y-118213871D01*
X203460045Y-118241387D01*
X203375731Y-118175242D01*
X203277306Y-118135554D01*
X203164770Y-118122325D01*
X203066345Y-118132644D01*
X202977445Y-118163600D01*
X202902039Y-118210431D01*
X202844095Y-118268375D01*
X202787651Y-118357099D01*
X202753784Y-118447586D01*
X202742495Y-118539837D01*
X202742495Y-118882737D01*
X202529770Y-118882737D01*
X202529770Y-117778896D01*
X204255912Y-117778896D01*
G37*
G36*
X203269545Y-123281700D02*
G01*
X203304470Y-123375363D01*
X203304470Y-123575388D01*
X203023483Y-123575388D01*
X203023483Y-123376950D01*
X203059201Y-123281700D01*
X203164770Y-123235663D01*
X203269545Y-123281700D01*
G37*
G36*
X203418065Y-122016992D02*
G01*
X203494794Y-122047154D01*
X203558470Y-122097425D01*
X203622764Y-122193469D01*
X203644195Y-122300625D01*
X203622169Y-122407980D01*
X203556089Y-122504619D01*
X203491442Y-122555331D01*
X203414978Y-122585758D01*
X203326695Y-122595900D01*
X203238413Y-122585846D01*
X203161948Y-122555683D01*
X203097301Y-122505413D01*
X203031222Y-122409369D01*
X203009195Y-122302213D01*
X203031023Y-122194858D01*
X203096508Y-122098219D01*
X203161066Y-122047507D01*
X203238324Y-122017080D01*
X203328283Y-122006938D01*
X203418065Y-122016992D01*
G37*
%TO.C,C103*%
X229002841Y-104823580D02*
X229002841Y-104542420D01*
X227982841Y-104823580D02*
X227982841Y-104542420D01*
%TO.C,C127*%
X221492902Y-99548000D02*
X220970398Y-99548000D01*
X221492902Y-101018000D02*
X220970398Y-101018000D01*
%TO.C,TP5*%
X226892841Y-96583000D02*
G75*
G03*
X226892841Y-96583000I-700000J0D01*
G01*
%TO.C,R19*%
X213322842Y-63879358D02*
X213322842Y-64186640D01*
X212562842Y-63879358D02*
X212562842Y-64186640D01*
%TO.C,C62*%
X194260000Y-100682836D02*
X194260000Y-100467164D01*
X193540000Y-100682836D02*
X193540000Y-100467164D01*
%TO.C,C119*%
X221488953Y-113548000D02*
X220966449Y-113548000D01*
X221488953Y-115018000D02*
X220966449Y-115018000D01*
%TO.C,R31*%
X185839200Y-89703000D02*
X186146482Y-89703000D01*
X185839200Y-90463000D02*
X186146482Y-90463000D01*
%TO.C,TP1*%
X226092841Y-62533000D02*
G75*
G03*
X226092841Y-62533000I-700000J0D01*
G01*
%TO.C,R41*%
X219378010Y-110663000D02*
X219685292Y-110663000D01*
X219378010Y-109903000D02*
X219685292Y-109903000D01*
%TO.C,R1*%
X187749200Y-93463000D02*
X188056482Y-93463000D01*
X187749200Y-92703000D02*
X188056482Y-92703000D01*
%TO.C,C104*%
X223321651Y-114635013D02*
X223321651Y-114916173D01*
X224341651Y-114635013D02*
X224341651Y-114916173D01*
%TO.C,C126*%
X226670399Y-100918000D02*
X227192903Y-100918000D01*
X226670399Y-99448000D02*
X227192903Y-99448000D01*
%TO.C,R22*%
X202489200Y-65813000D02*
X202796482Y-65813000D01*
X202489200Y-65053000D02*
X202796482Y-65053000D01*
%TO.C,R17*%
X211422842Y-63879358D02*
X211422842Y-64186640D01*
X210662842Y-63879358D02*
X210662842Y-64186640D01*
%TO.C,C120*%
X221488953Y-117018000D02*
X220966449Y-117018000D01*
X221488953Y-115548000D02*
X220966449Y-115548000D01*
%TO.C,R36*%
X185839200Y-94463000D02*
X186146482Y-94463000D01*
X185839200Y-93703000D02*
X186146482Y-93703000D01*
%TO.C,R18*%
X212372842Y-63879358D02*
X212372842Y-64186640D01*
X211612842Y-63879358D02*
X211612842Y-64186640D01*
%TO.C,D5*%
X211727841Y-55995501D02*
X211727841Y-53710501D01*
X210257841Y-53710501D02*
X210257841Y-55995501D01*
X211727841Y-53710501D02*
X210257841Y-53710501D01*
%TO.C,R44*%
X219378010Y-108903000D02*
X219685292Y-108903000D01*
X219378010Y-109663000D02*
X219685292Y-109663000D01*
%TO.C,R20*%
X210422842Y-63879358D02*
X210422842Y-64186640D01*
X209662842Y-63879358D02*
X209662842Y-64186640D01*
%TO.C,kibuzzard-6234B857*%
G36*
X216096991Y-57003901D02*
G01*
X216096991Y-60362099D01*
X214888691Y-60362099D01*
X214888691Y-60124291D01*
X215036488Y-60124291D01*
X215043989Y-60181521D01*
X215066491Y-60210969D01*
X215095384Y-60221526D01*
X215134278Y-60223193D01*
X215752133Y-60223193D01*
X215823253Y-60209858D01*
X215844089Y-60180409D01*
X215851034Y-60125403D01*
X215851034Y-59922044D01*
X215843464Y-59840193D01*
X215820752Y-59764663D01*
X215782900Y-59695453D01*
X215729908Y-59632563D01*
X215666323Y-59580300D01*
X215596697Y-59542969D01*
X215521027Y-59520570D01*
X215439316Y-59513104D01*
X215357917Y-59520744D01*
X215283185Y-59543663D01*
X215215121Y-59581862D01*
X215153725Y-59635341D01*
X215102920Y-59698891D01*
X215066630Y-59767302D01*
X215044857Y-59840575D01*
X215037599Y-59918710D01*
X215036488Y-60124291D01*
X214888691Y-60124291D01*
X214888691Y-59058603D01*
X215027598Y-59058603D01*
X215035376Y-59134168D01*
X215058713Y-59207510D01*
X215095662Y-59275574D01*
X215144279Y-59335304D01*
X215205259Y-59385310D01*
X215279296Y-59424204D01*
X215362778Y-59449207D01*
X215452095Y-59457541D01*
X215533633Y-59450144D01*
X215609337Y-59427954D01*
X215679207Y-59390970D01*
X215743243Y-59339193D01*
X215796722Y-59276859D01*
X215834921Y-59208205D01*
X215857840Y-59133230D01*
X215865480Y-59051935D01*
X215857736Y-58970814D01*
X215834504Y-58896360D01*
X215795784Y-58828574D01*
X215741576Y-58767455D01*
X215676359Y-58716893D01*
X215604614Y-58680777D01*
X215526341Y-58659108D01*
X215441538Y-58651885D01*
X215357049Y-58659455D01*
X215279713Y-58682167D01*
X215209530Y-58720019D01*
X215146501Y-58773011D01*
X215094481Y-58836283D01*
X215057324Y-58904972D01*
X215035029Y-58979079D01*
X215027598Y-59058603D01*
X214888691Y-59058603D01*
X214888691Y-58482975D01*
X215038710Y-58482975D01*
X215045378Y-58537426D01*
X215071492Y-58569097D01*
X215133166Y-58579654D01*
X215753244Y-58579654D01*
X215792138Y-58577987D01*
X215822141Y-58567430D01*
X215844644Y-58538537D01*
X215852145Y-58482975D01*
X215844644Y-58425746D01*
X215822141Y-58396297D01*
X215793249Y-58385741D01*
X215754355Y-58384074D01*
X215388754Y-58384074D01*
X215429253Y-58353020D01*
X215482593Y-58312460D01*
X215548774Y-58262392D01*
X215627796Y-58202817D01*
X215719659Y-58133734D01*
X215824364Y-58055144D01*
X215845478Y-58027362D01*
X215852145Y-57967355D01*
X215844644Y-57910126D01*
X215822141Y-57880677D01*
X215793249Y-57870121D01*
X215754355Y-57868454D01*
X215137611Y-57868454D01*
X215080938Y-57875121D01*
X215057601Y-57889012D01*
X215044266Y-57917904D01*
X215038710Y-57969022D01*
X215045378Y-58021806D01*
X215071492Y-58053477D01*
X215133166Y-58064034D01*
X215508769Y-58064034D01*
X215468671Y-58094655D01*
X215416535Y-58133919D01*
X215352360Y-58181826D01*
X215276147Y-58238377D01*
X215187895Y-58303570D01*
X215087605Y-58377406D01*
X215058713Y-58402965D01*
X215044822Y-58430191D01*
X215038710Y-58482975D01*
X214888691Y-58482975D01*
X214888691Y-57678430D01*
X215037599Y-57678430D01*
X215058157Y-57758440D01*
X215135389Y-57779554D01*
X215753244Y-57779554D01*
X215809918Y-57772886D01*
X215841588Y-57743438D01*
X215852145Y-57681764D01*
X215852145Y-57241709D01*
X215845478Y-57183924D01*
X215816030Y-57153087D01*
X215754355Y-57142807D01*
X215697126Y-57150308D01*
X215667678Y-57172811D01*
X215657121Y-57202259D01*
X215655454Y-57240597D01*
X215655454Y-57582862D01*
X215543218Y-57582862D01*
X215543218Y-57365057D01*
X215536550Y-57307272D01*
X215507102Y-57275602D01*
X215445428Y-57265045D01*
X215388198Y-57272546D01*
X215358750Y-57295049D01*
X215348193Y-57324497D01*
X215346526Y-57362835D01*
X215346526Y-57582862D01*
X215234290Y-57582862D01*
X215234290Y-57241709D01*
X215227623Y-57183924D01*
X215198175Y-57153087D01*
X215136500Y-57142807D01*
X215079271Y-57150308D01*
X215049823Y-57172811D01*
X215039266Y-57202259D01*
X215037599Y-57240597D01*
X215037599Y-57678430D01*
X214888691Y-57678430D01*
X214888691Y-57003901D01*
X216096991Y-57003901D01*
G37*
G36*
X215527799Y-59725908D02*
G01*
X215594891Y-59774248D01*
X215639480Y-59842589D01*
X215654343Y-59918710D01*
X215654343Y-60026501D01*
X215234290Y-60026501D01*
X215234290Y-59919821D01*
X215249431Y-59840784D01*
X215294853Y-59772581D01*
X215362778Y-59725491D01*
X215445428Y-59709795D01*
X215527799Y-59725908D01*
G37*
G36*
X215510498Y-58855614D02*
G01*
X215564208Y-58876728D01*
X215608781Y-58911918D01*
X215653787Y-58979148D01*
X215668789Y-59054158D01*
X215653370Y-59129306D01*
X215607115Y-59196953D01*
X215561862Y-59232451D01*
X215508337Y-59253750D01*
X215446539Y-59260850D01*
X215384741Y-59253812D01*
X215331216Y-59232698D01*
X215285963Y-59197509D01*
X215239708Y-59130278D01*
X215224289Y-59055269D01*
X215239569Y-58980120D01*
X215285408Y-58912473D01*
X215330598Y-58876975D01*
X215384679Y-58855676D01*
X215447650Y-58848576D01*
X215510498Y-58855614D01*
G37*
%TO.C,R33*%
X185839200Y-92703000D02*
X186146482Y-92703000D01*
X185839200Y-93463000D02*
X186146482Y-93463000D01*
%TO.C,D4*%
X211757841Y-53710501D02*
X211757841Y-55995501D01*
X213227841Y-53710501D02*
X211757841Y-53710501D01*
X213227841Y-55995501D02*
X213227841Y-53710501D01*
%TO.C,D3*%
X216227841Y-53710501D02*
X214757841Y-53710501D01*
X214757841Y-53710501D02*
X214757841Y-55995501D01*
X216227841Y-55995501D02*
X216227841Y-53710501D01*
%TO.C,C60*%
X187785005Y-92443000D02*
X188000677Y-92443000D01*
X187785005Y-91723000D02*
X188000677Y-91723000D01*
%TO.C,R34*%
X185839200Y-88703000D02*
X186146482Y-88703000D01*
X185839200Y-89463000D02*
X186146482Y-89463000D01*
%TO.C,C22*%
X216102841Y-86990836D02*
X216102841Y-86775164D01*
X215382841Y-86990836D02*
X215382841Y-86775164D01*
%TO.C,TP6*%
X222692841Y-96583000D02*
G75*
G03*
X222692841Y-96583000I-700000J0D01*
G01*
%TO.C,D7*%
X208727841Y-55993000D02*
X208727841Y-53708000D01*
X208727841Y-53708000D02*
X207257841Y-53708000D01*
X207257841Y-53708000D02*
X207257841Y-55993000D01*
%TO.C,U2*%
X195542841Y-75733000D02*
X195542841Y-75033000D01*
X192142841Y-80233000D02*
X195542841Y-80233000D01*
X195542841Y-80233000D02*
X195542841Y-79533000D01*
X192142841Y-79533000D02*
X192142841Y-80233000D01*
X195542841Y-75033000D02*
X192942841Y-75033000D01*
%TO.C,C121*%
X229002841Y-107642420D02*
X229002841Y-107923580D01*
X227982841Y-107642420D02*
X227982841Y-107923580D01*
%TO.C,J3*%
X195162841Y-61415071D02*
X195162841Y-61018000D01*
X202782841Y-61415071D02*
X202782841Y-61018000D01*
X199482841Y-52358000D02*
X200242841Y-52358000D01*
X196942841Y-52358000D02*
X197702841Y-52358000D01*
X196942841Y-58358000D02*
X196942841Y-52358000D01*
X192522841Y-58358000D02*
X192522841Y-52358000D01*
X192282841Y-58358000D02*
X192282841Y-52358000D01*
X202022841Y-61415071D02*
X202022841Y-61018000D01*
X200242841Y-61415071D02*
X200242841Y-61018000D01*
X197702841Y-61415071D02*
X197702841Y-61018000D01*
X204562841Y-52358000D02*
X205322841Y-52358000D01*
X199482841Y-61415071D02*
X199482841Y-61018000D01*
X206272841Y-61018000D02*
X206272841Y-58358000D01*
X191862841Y-52358000D02*
X192622841Y-52358000D01*
X191922841Y-58358000D02*
X191922841Y-52358000D01*
X192242841Y-63728000D02*
X190972841Y-63728000D01*
X205322841Y-61415071D02*
X205322841Y-61018000D01*
X192042841Y-58358000D02*
X192042841Y-52358000D01*
X190972841Y-63728000D02*
X190972841Y-62458000D01*
X195162841Y-52358000D02*
X195162841Y-58358000D01*
X192622841Y-61348000D02*
X192622841Y-61018000D01*
X192622841Y-52358000D02*
X192622841Y-58358000D01*
X190912841Y-61018000D02*
X206272841Y-61018000D01*
X191862841Y-58358000D02*
X191862841Y-52358000D01*
X201132841Y-61018000D02*
X201132841Y-58358000D01*
X204562841Y-58358000D02*
X204562841Y-52358000D01*
X206272841Y-58358000D02*
X190912841Y-58358000D01*
X205322841Y-52358000D02*
X205322841Y-58358000D01*
X202782841Y-52358000D02*
X202782841Y-58358000D01*
X194402841Y-52358000D02*
X195162841Y-52358000D01*
X202022841Y-52358000D02*
X202782841Y-52358000D01*
X197702841Y-52358000D02*
X197702841Y-58358000D01*
X202022841Y-58358000D02*
X202022841Y-52358000D01*
X198592841Y-61018000D02*
X198592841Y-58358000D01*
X194402841Y-58358000D02*
X194402841Y-52358000D01*
X194402841Y-61415071D02*
X194402841Y-61018000D01*
X190912841Y-58358000D02*
X190912841Y-61018000D01*
X193512841Y-61018000D02*
X193512841Y-58358000D01*
X196942841Y-61415071D02*
X196942841Y-61018000D01*
X196052841Y-61018000D02*
X196052841Y-58358000D01*
X192162841Y-58358000D02*
X192162841Y-52358000D01*
X199482841Y-58358000D02*
X199482841Y-52358000D01*
X192402841Y-58358000D02*
X192402841Y-52358000D01*
X203672841Y-61018000D02*
X203672841Y-58358000D01*
X191862841Y-61348000D02*
X191862841Y-61018000D01*
X204562841Y-61415071D02*
X204562841Y-61018000D01*
X200242841Y-52358000D02*
X200242841Y-58358000D01*
%TO.C,U1*%
X214612841Y-68563000D02*
X214612841Y-72813000D01*
X201622841Y-85803000D02*
X197372841Y-85803000D01*
X197372841Y-85803000D02*
X197372841Y-81553000D01*
X201622841Y-68563000D02*
X197372841Y-68563000D01*
X197372841Y-85803000D02*
X197372841Y-81553000D01*
X197372841Y-85803000D02*
X197372841Y-81553000D01*
X214612841Y-84683000D02*
X214612841Y-81553000D01*
X201622841Y-85803000D02*
X197372841Y-85803000D01*
X213492841Y-85803000D02*
X214612841Y-84683000D01*
X210362841Y-68563000D02*
X214612841Y-68563000D01*
X210362841Y-85803000D02*
X213492841Y-85803000D01*
X197372841Y-68563000D02*
X197372841Y-72813000D01*
X201622841Y-85803000D02*
X197372841Y-85803000D01*
%TO.C,C28*%
X221502841Y-89325164D02*
X221502841Y-89540836D01*
X220782841Y-89325164D02*
X220782841Y-89540836D01*
%TO.C,TP2*%
X224032841Y-62543000D02*
G75*
G03*
X224032841Y-62543000I-700000J0D01*
G01*
%TO.C,Q1*%
X185292841Y-100093000D02*
X184642841Y-100093000D01*
X185292841Y-100093000D02*
X185942841Y-100093000D01*
X185292841Y-96973000D02*
X183617841Y-96973000D01*
X185292841Y-96973000D02*
X185942841Y-96973000D01*
%TO.C,kibuzzard-623B3E4D*%
G36*
X211457987Y-59851119D02*
G01*
X211490213Y-59925017D01*
X211457987Y-59998360D01*
X211393534Y-60022807D01*
X211251294Y-60022807D01*
X211251294Y-59826116D01*
X211391312Y-59826116D01*
X211457987Y-59851119D01*
G37*
G36*
X212157704Y-60688816D02*
G01*
X208427978Y-60688816D01*
X208427978Y-60061701D01*
X208890999Y-60061701D01*
X208896625Y-60134210D01*
X208913502Y-60202830D01*
X208941630Y-60267560D01*
X208981010Y-60328401D01*
X209030878Y-60380630D01*
X209093802Y-60421746D01*
X209167145Y-60448416D01*
X209248266Y-60457306D01*
X209329526Y-60448555D01*
X209403285Y-60422302D01*
X209466904Y-60381880D01*
X209517744Y-60330624D01*
X209557610Y-60268949D01*
X209559070Y-60265615D01*
X209681098Y-60265615D01*
X209709990Y-60329512D01*
X209719992Y-60341736D01*
X209752218Y-60375629D01*
X209802224Y-60410634D01*
X209877789Y-60442304D01*
X209925851Y-60451889D01*
X209976690Y-60455084D01*
X210043489Y-60448540D01*
X210107571Y-60428907D01*
X210168937Y-60396187D01*
X210211164Y-60359933D01*
X210221327Y-60345070D01*
X210345625Y-60345070D01*
X210352293Y-60401744D01*
X210381741Y-60433414D01*
X210443415Y-60443971D01*
X210883470Y-60443971D01*
X210941255Y-60437304D01*
X210972093Y-60407855D01*
X210982372Y-60346181D01*
X210982081Y-60343959D01*
X211054603Y-60343959D01*
X211061270Y-60401744D01*
X211090719Y-60432581D01*
X211152393Y-60442860D01*
X211209622Y-60435359D01*
X211239070Y-60412856D01*
X211249627Y-60383408D01*
X211251294Y-60345070D01*
X211251294Y-60219499D01*
X211391312Y-60219499D01*
X211425760Y-60217276D01*
X211468976Y-60319635D01*
X211497868Y-60386680D01*
X211512438Y-60418412D01*
X211532996Y-60440082D01*
X211568556Y-60450639D01*
X211625785Y-60435081D01*
X211677459Y-60402855D01*
X211694683Y-60363961D01*
X211678014Y-60306176D01*
X211646899Y-60235426D01*
X211621711Y-60177271D01*
X211602449Y-60131710D01*
X211648751Y-60072690D01*
X211676532Y-60003793D01*
X211685793Y-59925017D01*
X211678570Y-59856120D01*
X211656900Y-59793890D01*
X211624119Y-59741105D01*
X211583558Y-59700545D01*
X211521451Y-59661034D01*
X211458110Y-59637327D01*
X211393534Y-59629425D01*
X211153504Y-59629425D01*
X211096275Y-59636926D01*
X211066827Y-59659429D01*
X211056270Y-59688877D01*
X211054603Y-59727215D01*
X211054603Y-60343959D01*
X210982081Y-60343959D01*
X210974871Y-60288952D01*
X210952368Y-60259504D01*
X210922920Y-60248947D01*
X210884582Y-60247280D01*
X210542317Y-60247280D01*
X210542317Y-60135044D01*
X210760122Y-60135044D01*
X210817907Y-60128376D01*
X210849577Y-60098928D01*
X210860134Y-60037254D01*
X210852633Y-59980024D01*
X210830130Y-59950576D01*
X210800682Y-59940019D01*
X210762344Y-59938352D01*
X210542317Y-59938352D01*
X210542317Y-59826116D01*
X210883470Y-59826116D01*
X210941255Y-59819449D01*
X210972093Y-59790000D01*
X210982372Y-59728326D01*
X210974871Y-59671097D01*
X210952368Y-59641649D01*
X210922920Y-59631092D01*
X210884582Y-59629425D01*
X210446749Y-59629425D01*
X210366739Y-59649983D01*
X210345625Y-59727215D01*
X210345625Y-60345070D01*
X210221327Y-60345070D01*
X210244502Y-60311177D01*
X210266171Y-60251864D01*
X210273394Y-60183939D01*
X210266310Y-60117402D01*
X210245057Y-60062257D01*
X210213248Y-60020168D01*
X210174493Y-59992804D01*
X210130321Y-59974329D01*
X210082259Y-59958910D01*
X210034198Y-59946826D01*
X209990025Y-59938352D01*
X209919461Y-59912794D01*
X209891124Y-59863343D01*
X209915016Y-59815559D01*
X209975023Y-59798335D01*
X210034475Y-59812781D01*
X210051700Y-59827227D01*
X210064479Y-59838340D01*
X210122264Y-59860565D01*
X210161713Y-59846674D01*
X210200052Y-59805002D01*
X210226722Y-59743884D01*
X210192273Y-59689432D01*
X210164492Y-59668319D01*
X210088371Y-59633314D01*
X210030447Y-59620396D01*
X209966689Y-59616090D01*
X209888840Y-59624177D01*
X209822721Y-59648440D01*
X209768331Y-59688877D01*
X209727894Y-59740179D01*
X209703632Y-59797038D01*
X209695544Y-59859454D01*
X209702628Y-59925434D01*
X209723881Y-59981135D01*
X209755691Y-60024891D01*
X209794445Y-60055034D01*
X209838340Y-60076842D01*
X209885568Y-60095594D01*
X209932796Y-60110457D01*
X209976690Y-60120597D01*
X210047255Y-60145600D01*
X210075592Y-60188384D01*
X210064109Y-60235303D01*
X210029660Y-60263455D01*
X209972245Y-60272839D01*
X209918905Y-60255614D01*
X209874455Y-60219499D01*
X209825005Y-60177827D01*
X209787778Y-60163936D01*
X209728882Y-60190606D01*
X209693044Y-60232695D01*
X209681098Y-60265615D01*
X209559070Y-60265615D01*
X209586086Y-60203941D01*
X209603171Y-60135599D01*
X209608867Y-60063924D01*
X209608867Y-59728326D01*
X209602199Y-59670541D01*
X209587753Y-59647205D01*
X209558860Y-59633870D01*
X209508298Y-59628314D01*
X209455514Y-59634981D01*
X209423288Y-59659429D01*
X209412175Y-59720547D01*
X209412175Y-60060590D01*
X209402174Y-60134766D01*
X209372170Y-60199496D01*
X209321886Y-60244502D01*
X209251044Y-60259504D01*
X209172145Y-60240612D01*
X209122139Y-60190606D01*
X209097136Y-60127820D01*
X209088802Y-60061701D01*
X209088802Y-59728326D01*
X209075467Y-59658317D01*
X209046574Y-59634981D01*
X208989900Y-59628314D01*
X208933227Y-59634981D01*
X208903223Y-59658317D01*
X208892666Y-59687765D01*
X208890999Y-59727215D01*
X208890999Y-60061701D01*
X208427978Y-60061701D01*
X208427978Y-59477184D01*
X212157704Y-59477184D01*
X212157704Y-60688816D01*
G37*
%TO.C,U3*%
X222602841Y-57683000D02*
X222602841Y-60683000D01*
X217382841Y-54683000D02*
X217382841Y-60683000D01*
%TO.C,J5*%
X199592841Y-113483000D02*
X199592841Y-115483000D01*
X190392841Y-113483000D02*
X193192841Y-113483000D01*
X190152841Y-113243000D02*
X191892841Y-113243000D01*
X196792841Y-113483000D02*
X199592841Y-113483000D01*
X190152841Y-114983000D02*
X190152841Y-113243000D01*
X199592841Y-119083000D02*
X199592841Y-128083000D01*
X190392841Y-128083000D02*
X190392841Y-113483000D01*
X199592841Y-128083000D02*
X190392841Y-128083000D01*
%TO.C,C4*%
X215665005Y-85723000D02*
X215880677Y-85723000D01*
X215665005Y-85003000D02*
X215880677Y-85003000D01*
%TO.C,C125*%
X219233421Y-107173000D02*
X218952261Y-107173000D01*
X219233421Y-108193000D02*
X218952261Y-108193000D01*
%TO.C,TP4*%
X226892841Y-119983000D02*
G75*
G03*
X226892841Y-119983000I-700000J0D01*
G01*
%TO.C,R43*%
X219685292Y-110903000D02*
X219378010Y-110903000D01*
X219685292Y-111663000D02*
X219378010Y-111663000D01*
%TO.C,U10*%
X220592841Y-67283000D02*
X219092841Y-67283000D01*
X220592841Y-71483000D02*
X218592841Y-71483000D01*
%TO.C,R15*%
X215312841Y-71836641D02*
X215312841Y-71529359D01*
X216072841Y-71836641D02*
X216072841Y-71529359D01*
%TO.C,C122*%
X219485005Y-111923000D02*
X219700677Y-111923000D01*
X219485005Y-112643000D02*
X219700677Y-112643000D01*
%TO.C,R32*%
X185839200Y-91703000D02*
X186146482Y-91703000D01*
X185839200Y-92463000D02*
X186146482Y-92463000D01*
%TO.C,Q2*%
X188017841Y-107458000D02*
X189967841Y-107458000D01*
X188017841Y-107458000D02*
X184567841Y-107458000D01*
X188017841Y-112578000D02*
X189967841Y-112578000D01*
X188017841Y-112578000D02*
X186067841Y-112578000D01*
%TO.C,C50*%
X208600677Y-120723000D02*
X208385005Y-120723000D01*
X208600677Y-121443000D02*
X208385005Y-121443000D01*
%TO.C,R35*%
X185839200Y-94704112D02*
X186146482Y-94704112D01*
X185839200Y-95464112D02*
X186146482Y-95464112D01*
%TD*%
M02*
