%FSLAX45Y45*%
G04 Gerber Fmt 4.5, Leading zero omitted, Abs format (unit mm)*
G04 Created by KiCad (PCBNEW (6.0.0)) date 2022-03-24 09:58:29*
%MOMM*%
%LPD*%
G01*
G04 APERTURE LIST*
%TA.AperFunction,Profile*%
%ADD10C,0.050000*%
%TD*%
%ADD11C,0.200000*%
%ADD12C,0.020000*%
%ADD13C,0.030000*%
%ADD14C,0.040000*%
%ADD15C,0.060000*%
%ADD16C,0.083500*%
%ADD17C,0.100000*%
%ADD18C,0.160000*%
%ADD19C,0.250000*%
G04 APERTURE END LIST*
D10*
X23099284Y-5468300D02*
G75*
G03*
X22799284Y-5168300I-300000J0D01*
G01*
X18399284Y-5168300D02*
X22799284Y-5168300D01*
X18099284Y-12368300D02*
G75*
G03*
X18399284Y-12668300I300000J0D01*
G01*
X22799284Y-12668300D02*
X18399284Y-12668300D01*
X22799284Y-12668300D02*
G75*
G03*
X23099284Y-12368300I0J300000D01*
G01*
X18099284Y-5468300D02*
X18099284Y-12368300D01*
X18399284Y-5168300D02*
G75*
G03*
X18099284Y-5468300I0J-300000D01*
G01*
X23099284Y-5468300D02*
X23099284Y-12368300D01*
D11*
D12*
X18194284Y-12023300D02*
X18214284Y-12043300D01*
X18214284Y-12023300D02*
X18194284Y-12043300D01*
X18211059Y-9787657D02*
X18231059Y-9807657D01*
X18231059Y-9787657D02*
X18211059Y-9807657D01*
X18214284Y-10958300D02*
X18234284Y-10978300D01*
X18234284Y-10958300D02*
X18214284Y-10978300D01*
X18243163Y-10562888D02*
X18263163Y-10582888D01*
X18263163Y-10562888D02*
X18243163Y-10582888D01*
X18244284Y-11348300D02*
X18264284Y-11368300D01*
X18264284Y-11348300D02*
X18244284Y-11368300D01*
X18263284Y-11640300D02*
X18283284Y-11660300D01*
X18283284Y-11640300D02*
X18263284Y-11660300D01*
X18264284Y-10173300D02*
X18284284Y-10193300D01*
X18284284Y-10173300D02*
X18264284Y-10193300D01*
X18274284Y-5903300D02*
X18294284Y-5923300D01*
X18294284Y-5903300D02*
X18274284Y-5923300D01*
X18359284Y-9393300D02*
X18379284Y-9413300D01*
X18379284Y-9393300D02*
X18359284Y-9413300D01*
X18399284Y-11178300D02*
X18419284Y-11198300D01*
X18419284Y-11178300D02*
X18399284Y-11198300D01*
X18425063Y-9507718D02*
X18445063Y-9527718D01*
X18445063Y-9507718D02*
X18425063Y-9527718D01*
X18439284Y-6978300D02*
X18459284Y-6998300D01*
X18459284Y-6978300D02*
X18439284Y-6998300D01*
X18442328Y-7766344D02*
X18462328Y-7786344D01*
X18462328Y-7766344D02*
X18442328Y-7786344D01*
X18444997Y-6568300D02*
X18464997Y-6588300D01*
X18464997Y-6568300D02*
X18444997Y-6588300D01*
X18444997Y-6608300D02*
X18464997Y-6628300D01*
X18464997Y-6608300D02*
X18444997Y-6628300D01*
X18445284Y-8427300D02*
X18465284Y-8447300D01*
X18465284Y-8427300D02*
X18445284Y-8447300D01*
X18448205Y-6163300D02*
X18468205Y-6183300D01*
X18468205Y-6163300D02*
X18448205Y-6183300D01*
X18448205Y-6203300D02*
X18468205Y-6223300D01*
X18468205Y-6203300D02*
X18448205Y-6223300D01*
X18448794Y-7898300D02*
X18468794Y-7918300D01*
X18468794Y-7898300D02*
X18448794Y-7918300D01*
X18451811Y-8328300D02*
X18471811Y-8348300D01*
X18471811Y-8328300D02*
X18451811Y-8348300D01*
X18451811Y-8368300D02*
X18471811Y-8388300D01*
X18471811Y-8368300D02*
X18451811Y-8388300D01*
X18454284Y-8248300D02*
X18474284Y-8268300D01*
X18474284Y-8248300D02*
X18454284Y-8268300D01*
X18454841Y-7493300D02*
X18474841Y-7513300D01*
X18474841Y-7493300D02*
X18454841Y-7513300D01*
X18454841Y-7608300D02*
X18474841Y-7628300D01*
X18474841Y-7608300D02*
X18454841Y-7628300D01*
X18454841Y-7648300D02*
X18474841Y-7668300D01*
X18474841Y-7648300D02*
X18454841Y-7668300D01*
X18454841Y-8008568D02*
X18474841Y-8028568D01*
X18474841Y-8008568D02*
X18454841Y-8028568D01*
X18454841Y-8048568D02*
X18474841Y-8068568D01*
X18474841Y-8048568D02*
X18454841Y-8068568D01*
X18454841Y-8648300D02*
X18474841Y-8668300D01*
X18474841Y-8648300D02*
X18454841Y-8668300D01*
X18454841Y-8688300D02*
X18474841Y-8708300D01*
X18474841Y-8688300D02*
X18454841Y-8708300D01*
X18455469Y-8488300D02*
X18475469Y-8508300D01*
X18475469Y-8488300D02*
X18455469Y-8508300D01*
X18455469Y-8528300D02*
X18475469Y-8548300D01*
X18475469Y-8528300D02*
X18455469Y-8548300D01*
X18456138Y-7449616D02*
X18476138Y-7469616D01*
X18476138Y-7449616D02*
X18456138Y-7469616D01*
X18457605Y-6724577D02*
X18477605Y-6744577D01*
X18477605Y-6724577D02*
X18457605Y-6744577D01*
X18457671Y-6764716D02*
X18477671Y-6784716D01*
X18477671Y-6764716D02*
X18457671Y-6784716D01*
X18459284Y-6888300D02*
X18479284Y-6908300D01*
X18479284Y-6888300D02*
X18459284Y-6908300D01*
X18459284Y-6928300D02*
X18479284Y-6948300D01*
X18479284Y-6928300D02*
X18459284Y-6948300D01*
X18459284Y-8590300D02*
X18479284Y-8610300D01*
X18479284Y-8590300D02*
X18459284Y-8610300D01*
X18464284Y-7288300D02*
X18484284Y-7308300D01*
X18484284Y-7288300D02*
X18464284Y-7308300D01*
X18464284Y-7328300D02*
X18484284Y-7348300D01*
X18484284Y-7328300D02*
X18464284Y-7348300D01*
X18469284Y-6453300D02*
X18489284Y-6473300D01*
X18489284Y-6453300D02*
X18469284Y-6473300D01*
X18489284Y-7088300D02*
X18509284Y-7108300D01*
X18509284Y-7088300D02*
X18489284Y-7108300D01*
X18489284Y-7128300D02*
X18509284Y-7148300D01*
X18509284Y-7128300D02*
X18489284Y-7148300D01*
X18489426Y-7763158D02*
X18509426Y-7783158D01*
X18509426Y-7763158D02*
X18489426Y-7783158D01*
X18504822Y-8745730D02*
X18524822Y-8765730D01*
X18524822Y-8745730D02*
X18504822Y-8765730D01*
X18510284Y-7394300D02*
X18530284Y-7414300D01*
X18530284Y-7394300D02*
X18510284Y-7414300D01*
X18514284Y-6468300D02*
X18534284Y-6488300D01*
X18534284Y-6468300D02*
X18514284Y-6488300D01*
X18515284Y-8152300D02*
X18535284Y-8172300D01*
X18535284Y-8152300D02*
X18515284Y-8172300D01*
X18529284Y-8828300D02*
X18549284Y-8848300D01*
X18549284Y-8828300D02*
X18529284Y-8848300D01*
X18539284Y-9578300D02*
X18559284Y-9598300D01*
X18559284Y-9578300D02*
X18539284Y-9598300D01*
X18559284Y-7213300D02*
X18579284Y-7233300D01*
X18579284Y-7213300D02*
X18559284Y-7233300D01*
X18564284Y-7028300D02*
X18584284Y-7048300D01*
X18584284Y-7028300D02*
X18564284Y-7048300D01*
X18568284Y-7849300D02*
X18588284Y-7869300D01*
X18588284Y-7849300D02*
X18568284Y-7869300D01*
X18570284Y-10231300D02*
X18590284Y-10251300D01*
X18590284Y-10231300D02*
X18570284Y-10251300D01*
X18570746Y-9935848D02*
X18590746Y-9955848D01*
X18590746Y-9935848D02*
X18570746Y-9955848D01*
X18578284Y-8791300D02*
X18598284Y-8811300D01*
X18598284Y-8791300D02*
X18578284Y-8811300D01*
X18584284Y-6288300D02*
X18604284Y-6308300D01*
X18604284Y-6288300D02*
X18584284Y-6308300D01*
X18584284Y-6333300D02*
X18604284Y-6353300D01*
X18604284Y-6333300D02*
X18584284Y-6353300D01*
X18589284Y-8354300D02*
X18609284Y-8374300D01*
X18609284Y-8354300D02*
X18589284Y-8374300D01*
X18596284Y-5745300D02*
X18616284Y-5765300D01*
X18616284Y-5745300D02*
X18596284Y-5765300D01*
X18596284Y-8293300D02*
X18616284Y-8313300D01*
X18616284Y-8293300D02*
X18596284Y-8313300D01*
X18606284Y-6044300D02*
X18626284Y-6064300D01*
X18626284Y-6044300D02*
X18606284Y-6064300D01*
X18608284Y-8174300D02*
X18628284Y-8194300D01*
X18628284Y-8174300D02*
X18608284Y-8194300D01*
X18613778Y-9723526D02*
X18633778Y-9743526D01*
X18633778Y-9723526D02*
X18613778Y-9743526D01*
X18614284Y-6215300D02*
X18634284Y-6235300D01*
X18634284Y-6215300D02*
X18614284Y-6235300D01*
X18616284Y-7529300D02*
X18636284Y-7549300D01*
X18636284Y-7529300D02*
X18616284Y-7549300D01*
X18651873Y-8152427D02*
X18671873Y-8172427D01*
X18671873Y-8152427D02*
X18651873Y-8172427D01*
X18659284Y-8725300D02*
X18679284Y-8745300D01*
X18679284Y-8725300D02*
X18659284Y-8745300D01*
X18669284Y-10003300D02*
X18689284Y-10023300D01*
X18689284Y-10003300D02*
X18669284Y-10023300D01*
X18674284Y-7253300D02*
X18694284Y-7273300D01*
X18694284Y-7253300D02*
X18674284Y-7273300D01*
X18680157Y-8180712D02*
X18700157Y-8200712D01*
X18700157Y-8180712D02*
X18680157Y-8200712D01*
X18685284Y-9345300D02*
X18705284Y-9365300D01*
X18705284Y-9345300D02*
X18685284Y-9365300D01*
X18695284Y-8043300D02*
X18715284Y-8063300D01*
X18715284Y-8043300D02*
X18695284Y-8063300D01*
X18695284Y-8083300D02*
X18715284Y-8103300D01*
X18715284Y-8083300D02*
X18695284Y-8103300D01*
X18699284Y-8928300D02*
X18719284Y-8948300D01*
X18719284Y-8928300D02*
X18699284Y-8948300D01*
X18703284Y-7730300D02*
X18723284Y-7750300D01*
X18723284Y-7730300D02*
X18703284Y-7750300D01*
X18709284Y-8998300D02*
X18729284Y-9018300D01*
X18729284Y-8998300D02*
X18709284Y-9018300D01*
X18711284Y-9088300D02*
X18731284Y-9108300D01*
X18731284Y-9088300D02*
X18711284Y-9108300D01*
X18711821Y-8629459D02*
X18731821Y-8649459D01*
X18731821Y-8629459D02*
X18711821Y-8649459D01*
X18719284Y-9778300D02*
X18739284Y-9798300D01*
X18739284Y-9778300D02*
X18719284Y-9798300D01*
X18719284Y-10328300D02*
X18739284Y-10348300D01*
X18739284Y-10328300D02*
X18719284Y-10348300D01*
X18723284Y-7137300D02*
X18743284Y-7157300D01*
X18743284Y-7137300D02*
X18723284Y-7157300D01*
X18724457Y-10213059D02*
X18744457Y-10233059D01*
X18744457Y-10213059D02*
X18724457Y-10233059D01*
X18729284Y-6078300D02*
X18749284Y-6098300D01*
X18749284Y-6078300D02*
X18729284Y-6098300D01*
X18737284Y-8445300D02*
X18757284Y-8465300D01*
X18757284Y-8445300D02*
X18737284Y-8465300D01*
X18744284Y-9948300D02*
X18764284Y-9968300D01*
X18764284Y-9948300D02*
X18744284Y-9968300D01*
X18769284Y-10328300D02*
X18789284Y-10348300D01*
X18789284Y-10328300D02*
X18769284Y-10348300D01*
X18774284Y-12143300D02*
X18794284Y-12163300D01*
X18794284Y-12143300D02*
X18774284Y-12163300D01*
X18795284Y-5493300D02*
X18815284Y-5513300D01*
X18815284Y-5493300D02*
X18795284Y-5513300D01*
X18802500Y-11515000D02*
X18822500Y-11535000D01*
X18822500Y-11515000D02*
X18802500Y-11535000D01*
X18819284Y-10328300D02*
X18839284Y-10348300D01*
X18839284Y-10328300D02*
X18819284Y-10348300D01*
X18854284Y-12518300D02*
X18874284Y-12538300D01*
X18874284Y-12518300D02*
X18854284Y-12538300D01*
X18858284Y-11807300D02*
X18878284Y-11827300D01*
X18878284Y-11807300D02*
X18858284Y-11827300D01*
X18887284Y-6078300D02*
X18907284Y-6098300D01*
X18907284Y-6078300D02*
X18887284Y-6098300D01*
X18889284Y-9319850D02*
X18909284Y-9339850D01*
X18909284Y-9319850D02*
X18889284Y-9339850D01*
X18889284Y-10698300D02*
X18909284Y-10718300D01*
X18909284Y-10698300D02*
X18889284Y-10718300D01*
X18910000Y-10247500D02*
X18930000Y-10267500D01*
X18930000Y-10247500D02*
X18910000Y-10267500D01*
X18919284Y-5258300D02*
X18939284Y-5278300D01*
X18939284Y-5258300D02*
X18919284Y-5278300D01*
X18924284Y-9458300D02*
X18944284Y-9478300D01*
X18944284Y-9458300D02*
X18924284Y-9478300D01*
X18940000Y-9847500D02*
X18960000Y-9867500D01*
X18960000Y-9847500D02*
X18940000Y-9867500D01*
X18953284Y-5831300D02*
X18973284Y-5851300D01*
X18973284Y-5831300D02*
X18953284Y-5851300D01*
X18986284Y-6103850D02*
X19006284Y-6123850D01*
X19006284Y-6103850D02*
X18986284Y-6123850D01*
X19010436Y-6931534D02*
X19030436Y-6951534D01*
X19030436Y-6931534D02*
X19010436Y-6951534D01*
X19013234Y-8945800D02*
X19033234Y-8965800D01*
X19033234Y-8945800D02*
X19013234Y-8965800D01*
X19018284Y-9266300D02*
X19038284Y-9286300D01*
X19038284Y-9266300D02*
X19018284Y-9286300D01*
X19019284Y-8223300D02*
X19039284Y-8243300D01*
X19039284Y-8223300D02*
X19019284Y-8243300D01*
X19029284Y-8181850D02*
X19049284Y-8201850D01*
X19049284Y-8181850D02*
X19029284Y-8201850D01*
X19032351Y-8509379D02*
X19052351Y-8529379D01*
X19052351Y-8509379D02*
X19032351Y-8529379D01*
X19034284Y-7288300D02*
X19054284Y-7308300D01*
X19054284Y-7288300D02*
X19034284Y-7308300D01*
X19034284Y-7328300D02*
X19054284Y-7348300D01*
X19054284Y-7328300D02*
X19034284Y-7348300D01*
X19035142Y-6667442D02*
X19055142Y-6687442D01*
X19055142Y-6667442D02*
X19035142Y-6687442D01*
X19042284Y-7227300D02*
X19062284Y-7247300D01*
X19062284Y-7227300D02*
X19042284Y-7247300D01*
X19042328Y-7135256D02*
X19062328Y-7155256D01*
X19062328Y-7135256D02*
X19042328Y-7155256D01*
X19043284Y-7661300D02*
X19063284Y-7681300D01*
X19063284Y-7661300D02*
X19043284Y-7681300D01*
X19044284Y-7093300D02*
X19064284Y-7113300D01*
X19064284Y-7093300D02*
X19044284Y-7113300D01*
X19049284Y-9408300D02*
X19069284Y-9428300D01*
X19069284Y-9408300D02*
X19049284Y-9428300D01*
X19052284Y-6265300D02*
X19072284Y-6285300D01*
X19072284Y-6265300D02*
X19052284Y-6285300D01*
X19052284Y-8796300D02*
X19072284Y-8816300D01*
X19072284Y-8796300D02*
X19052284Y-8816300D01*
X19055284Y-9310300D02*
X19075284Y-9330300D01*
X19075284Y-9310300D02*
X19055284Y-9330300D01*
X19058284Y-6536300D02*
X19078284Y-6556300D01*
X19078284Y-6536300D02*
X19058284Y-6556300D01*
X19059284Y-5728300D02*
X19079284Y-5748300D01*
X19079284Y-5728300D02*
X19059284Y-5748300D01*
X19060000Y-10257500D02*
X19080000Y-10277500D01*
X19080000Y-10257500D02*
X19060000Y-10277500D01*
X19063284Y-8074600D02*
X19083284Y-8094600D01*
X19083284Y-8074600D02*
X19063284Y-8094600D01*
X19063426Y-6639158D02*
X19083426Y-6659158D01*
X19083426Y-6639158D02*
X19063426Y-6659158D01*
X19069284Y-6823300D02*
X19089284Y-6843300D01*
X19089284Y-6823300D02*
X19069284Y-6843300D01*
X19069284Y-9198300D02*
X19089284Y-9218300D01*
X19089284Y-9198300D02*
X19069284Y-9218300D01*
X19077284Y-7688300D02*
X19097284Y-7708300D01*
X19097284Y-7688300D02*
X19077284Y-7708300D01*
X19077284Y-7728300D02*
X19097284Y-7748300D01*
X19097284Y-7728300D02*
X19077284Y-7748300D01*
X19084284Y-6939350D02*
X19104284Y-6959350D01*
X19104284Y-6939350D02*
X19084284Y-6959350D01*
X19084284Y-9493300D02*
X19104284Y-9513300D01*
X19104284Y-9493300D02*
X19084284Y-9513300D01*
X19089389Y-6387672D02*
X19109389Y-6407672D01*
X19109389Y-6387672D02*
X19089389Y-6407672D01*
X19094284Y-8493300D02*
X19114284Y-8513300D01*
X19114284Y-8493300D02*
X19094284Y-8513300D01*
X19104284Y-8087300D02*
X19124284Y-8107300D01*
X19124284Y-8087300D02*
X19104284Y-8107300D01*
X19108580Y-9328007D02*
X19128580Y-9348007D01*
X19128580Y-9328007D02*
X19108580Y-9348007D01*
X19114284Y-6834350D02*
X19134284Y-6854350D01*
X19134284Y-6834350D02*
X19114284Y-6854350D01*
X19119284Y-7758300D02*
X19139284Y-7778300D01*
X19139284Y-7758300D02*
X19119284Y-7778300D01*
X19122284Y-8440300D02*
X19142284Y-8460300D01*
X19142284Y-8440300D02*
X19122284Y-8460300D01*
X19123284Y-7454300D02*
X19143284Y-7474300D01*
X19143284Y-7454300D02*
X19123284Y-7474300D01*
X19124284Y-12558300D02*
X19144284Y-12578300D01*
X19144284Y-12558300D02*
X19124284Y-12578300D01*
X19128284Y-11443300D02*
X19148284Y-11463300D01*
X19148284Y-11443300D02*
X19128284Y-11463300D01*
X19132284Y-9838300D02*
X19152284Y-9858300D01*
X19152284Y-9838300D02*
X19132284Y-9858300D01*
X19152284Y-6369300D02*
X19172284Y-6389300D01*
X19172284Y-6369300D02*
X19152284Y-6389300D01*
X19154284Y-7783300D02*
X19174284Y-7803300D01*
X19174284Y-7783300D02*
X19154284Y-7803300D01*
X19166284Y-9746300D02*
X19186284Y-9766300D01*
X19186284Y-9746300D02*
X19166284Y-9766300D01*
X19171879Y-9476377D02*
X19191879Y-9496377D01*
X19191879Y-9476377D02*
X19171879Y-9496377D01*
X19174284Y-6423300D02*
X19194284Y-6443300D01*
X19194284Y-6423300D02*
X19174284Y-6443300D01*
X19175670Y-7827505D02*
X19195670Y-7847505D01*
X19195670Y-7827505D02*
X19175670Y-7847505D01*
X19214284Y-10413300D02*
X19234284Y-10433300D01*
X19234284Y-10413300D02*
X19214284Y-10433300D01*
X19220000Y-10267500D02*
X19240000Y-10287500D01*
X19240000Y-10267500D02*
X19220000Y-10287500D01*
X19229284Y-9008300D02*
X19249284Y-9028300D01*
X19249284Y-9008300D02*
X19229284Y-9028300D01*
X19239284Y-9178300D02*
X19259284Y-9198300D01*
X19259284Y-9178300D02*
X19239284Y-9198300D01*
X19239284Y-9288300D02*
X19259284Y-9308300D01*
X19259284Y-9288300D02*
X19239284Y-9308300D01*
X19248892Y-8950950D02*
X19268892Y-8970950D01*
X19268892Y-8950950D02*
X19248892Y-8970950D01*
X19251058Y-5992016D02*
X19271058Y-6012016D01*
X19271058Y-5992016D02*
X19251058Y-6012016D01*
X19294284Y-8841300D02*
X19314284Y-8861300D01*
X19314284Y-8841300D02*
X19294284Y-8861300D01*
X19311284Y-9744300D02*
X19331284Y-9764300D01*
X19331284Y-9744300D02*
X19311284Y-9764300D01*
X19337755Y-10548652D02*
X19357755Y-10568652D01*
X19357755Y-10548652D02*
X19337755Y-10568652D01*
X19347334Y-9125300D02*
X19367334Y-9145300D01*
X19367334Y-9125300D02*
X19347334Y-9145300D01*
X19347334Y-9167300D02*
X19367334Y-9187300D01*
X19367334Y-9167300D02*
X19347334Y-9187300D01*
X19349284Y-10708300D02*
X19369284Y-10728300D01*
X19369284Y-10708300D02*
X19349284Y-10728300D01*
X19378284Y-8856300D02*
X19398284Y-8876300D01*
X19398284Y-8856300D02*
X19378284Y-8876300D01*
X19379284Y-9268300D02*
X19399284Y-9288300D01*
X19399284Y-9268300D02*
X19379284Y-9288300D01*
X19379284Y-9408300D02*
X19399284Y-9428300D01*
X19399284Y-9408300D02*
X19379284Y-9428300D01*
X19379284Y-9658300D02*
X19399284Y-9678300D01*
X19399284Y-9658300D02*
X19379284Y-9678300D01*
X19388534Y-7034350D02*
X19408534Y-7054350D01*
X19408534Y-7034350D02*
X19388534Y-7054350D01*
X19396284Y-9855300D02*
X19416284Y-9875300D01*
X19416284Y-9855300D02*
X19396284Y-9875300D01*
X19422689Y-8856244D02*
X19442689Y-8876244D01*
X19442689Y-8856244D02*
X19422689Y-8876244D01*
X19426248Y-6875544D02*
X19446248Y-6895544D01*
X19446248Y-6875544D02*
X19426248Y-6895544D01*
X19442642Y-8346658D02*
X19462642Y-8366658D01*
X19462642Y-8346658D02*
X19442642Y-8366658D01*
X19470926Y-8374942D02*
X19490926Y-8394942D01*
X19490926Y-8374942D02*
X19470926Y-8394942D01*
X19471284Y-8855300D02*
X19491284Y-8875300D01*
X19491284Y-8855300D02*
X19471284Y-8875300D01*
X19484284Y-9987546D02*
X19504284Y-10007546D01*
X19504284Y-9987546D02*
X19484284Y-10007546D01*
X19484284Y-10058257D02*
X19504284Y-10078257D01*
X19504284Y-10058257D02*
X19484284Y-10078257D01*
X19484284Y-10143110D02*
X19504284Y-10163110D01*
X19504284Y-10143110D02*
X19484284Y-10163110D01*
X19484284Y-10220891D02*
X19504284Y-10240891D01*
X19504284Y-10220891D02*
X19484284Y-10240891D01*
X19484284Y-10291602D02*
X19504284Y-10311602D01*
X19504284Y-10291602D02*
X19484284Y-10311602D01*
X19487820Y-9913300D02*
X19507820Y-9933300D01*
X19507820Y-9913300D02*
X19487820Y-9933300D01*
X19489284Y-9758300D02*
X19509284Y-9778300D01*
X19509284Y-9758300D02*
X19489284Y-9778300D01*
X19489284Y-9848300D02*
X19509284Y-9868300D01*
X19509284Y-9848300D02*
X19489284Y-9868300D01*
X19499284Y-10388300D02*
X19519284Y-10408300D01*
X19519284Y-10388300D02*
X19499284Y-10408300D01*
X19513284Y-8854300D02*
X19533284Y-8874300D01*
X19533284Y-8854300D02*
X19513284Y-8874300D01*
X19514284Y-9268300D02*
X19534284Y-9288300D01*
X19534284Y-9268300D02*
X19514284Y-9288300D01*
X19514284Y-9408300D02*
X19534284Y-9428300D01*
X19534284Y-9408300D02*
X19514284Y-9428300D01*
X19531284Y-12515300D02*
X19551284Y-12535300D01*
X19551284Y-12515300D02*
X19531284Y-12535300D01*
X19539284Y-10453300D02*
X19559284Y-10473300D01*
X19559284Y-10453300D02*
X19539284Y-10473300D01*
X19552284Y-8963350D02*
X19572284Y-8983350D01*
X19572284Y-8963350D02*
X19552284Y-8983350D01*
X19555284Y-8093300D02*
X19575284Y-8113300D01*
X19575284Y-8093300D02*
X19555284Y-8113300D01*
X19558142Y-8350158D02*
X19578142Y-8370158D01*
X19578142Y-8350158D02*
X19558142Y-8370158D01*
X19559284Y-9668300D02*
X19579284Y-9688300D01*
X19579284Y-9668300D02*
X19559284Y-9688300D01*
X19574942Y-7593642D02*
X19594942Y-7613642D01*
X19594942Y-7593642D02*
X19574942Y-7613642D01*
X19577284Y-5361300D02*
X19597284Y-5381300D01*
X19597284Y-5361300D02*
X19577284Y-5381300D01*
X19579284Y-7728300D02*
X19599284Y-7748300D01*
X19599284Y-7728300D02*
X19579284Y-7748300D01*
X19586426Y-8378442D02*
X19606426Y-8398442D01*
X19606426Y-8378442D02*
X19586426Y-8398442D01*
X19594308Y-7935250D02*
X19614308Y-7955250D01*
X19614308Y-7935250D02*
X19594308Y-7955250D01*
X19599284Y-10503300D02*
X19619284Y-10523300D01*
X19619284Y-10503300D02*
X19599284Y-10523300D01*
X19599284Y-10763300D02*
X19619284Y-10783300D01*
X19619284Y-10763300D02*
X19599284Y-10783300D01*
X19605749Y-9947546D02*
X19625749Y-9967546D01*
X19625749Y-9947546D02*
X19605749Y-9967546D01*
X19605749Y-10018257D02*
X19625749Y-10038257D01*
X19625749Y-10018257D02*
X19605749Y-10038257D01*
X19605749Y-10103110D02*
X19625749Y-10123110D01*
X19625749Y-10103110D02*
X19605749Y-10123110D01*
X19605749Y-10180891D02*
X19625749Y-10200891D01*
X19625749Y-10180891D02*
X19605749Y-10200891D01*
X19605749Y-10251602D02*
X19625749Y-10271602D01*
X19625749Y-10251602D02*
X19605749Y-10271602D01*
X19609284Y-6723300D02*
X19629284Y-6743300D01*
X19629284Y-6723300D02*
X19609284Y-6743300D01*
X19609284Y-9873300D02*
X19629284Y-9893300D01*
X19629284Y-9873300D02*
X19609284Y-9893300D01*
X19613345Y-5220950D02*
X19633345Y-5240950D01*
X19633345Y-5220950D02*
X19613345Y-5240950D01*
X19622284Y-7195300D02*
X19642284Y-7215300D01*
X19642284Y-7195300D02*
X19622284Y-7215300D01*
X19634284Y-10333300D02*
X19654284Y-10353300D01*
X19654284Y-10333300D02*
X19634284Y-10353300D01*
X19636284Y-8862300D02*
X19656284Y-8882300D01*
X19656284Y-8862300D02*
X19636284Y-8882300D01*
X19640827Y-7256392D02*
X19660827Y-7276392D01*
X19660827Y-7256392D02*
X19640827Y-7276392D01*
X19653948Y-9267283D02*
X19673948Y-9287283D01*
X19673948Y-9267283D02*
X19653948Y-9287283D01*
X19654284Y-9408300D02*
X19674284Y-9428300D01*
X19674284Y-9408300D02*
X19654284Y-9428300D01*
X19654977Y-5979588D02*
X19674977Y-5999588D01*
X19674977Y-5979588D02*
X19654977Y-5999588D01*
X19659284Y-10563300D02*
X19679284Y-10583300D01*
X19679284Y-10563300D02*
X19659284Y-10583300D01*
X19664284Y-9898300D02*
X19684284Y-9918300D01*
X19684284Y-9898300D02*
X19664284Y-9918300D01*
X19666284Y-9670300D02*
X19686284Y-9690300D01*
X19686284Y-9670300D02*
X19666284Y-9690300D01*
X19669426Y-7287442D02*
X19689426Y-7307442D01*
X19689426Y-7287442D02*
X19669426Y-7307442D01*
X19677284Y-7868300D02*
X19697284Y-7888300D01*
X19697284Y-7868300D02*
X19677284Y-7888300D01*
X19684284Y-10383300D02*
X19704284Y-10403300D01*
X19704284Y-10383300D02*
X19684284Y-10403300D01*
X19704284Y-9783300D02*
X19724284Y-9803300D01*
X19724284Y-9783300D02*
X19704284Y-9803300D01*
X19709284Y-10613300D02*
X19729284Y-10633300D01*
X19729284Y-10613300D02*
X19709284Y-10633300D01*
X19710284Y-8853300D02*
X19730284Y-8873300D01*
X19730284Y-8853300D02*
X19710284Y-8873300D01*
X19714284Y-9680300D02*
X19734284Y-9700300D01*
X19734284Y-9680300D02*
X19714284Y-9700300D01*
X19714284Y-9996082D02*
X19734284Y-10016082D01*
X19734284Y-9996082D02*
X19714284Y-10016082D01*
X19714284Y-10066792D02*
X19734284Y-10086792D01*
X19734284Y-10066792D02*
X19714284Y-10086792D01*
X19719284Y-10163300D02*
X19739284Y-10183300D01*
X19739284Y-10163300D02*
X19719284Y-10183300D01*
X19720284Y-9834300D02*
X19740284Y-9854300D01*
X19740284Y-9834300D02*
X19720284Y-9854300D01*
X19724284Y-7294300D02*
X19744284Y-7314300D01*
X19744284Y-7294300D02*
X19724284Y-7314300D01*
X19726284Y-8095300D02*
X19746284Y-8115300D01*
X19746284Y-8095300D02*
X19726284Y-8115300D01*
X19727284Y-11012300D02*
X19747284Y-11032300D01*
X19747284Y-11012300D02*
X19727284Y-11032300D01*
X19739284Y-10438300D02*
X19759284Y-10458300D01*
X19759284Y-10438300D02*
X19739284Y-10458300D01*
X19743284Y-7146300D02*
X19763284Y-7166300D01*
X19763284Y-7146300D02*
X19743284Y-7166300D01*
X19751088Y-8863338D02*
X19771088Y-8883338D01*
X19771088Y-8863338D02*
X19751088Y-8883338D01*
X19759284Y-10668300D02*
X19779284Y-10688300D01*
X19779284Y-10668300D02*
X19759284Y-10688300D01*
X19774284Y-10218300D02*
X19794284Y-10238300D01*
X19794284Y-10218300D02*
X19774284Y-10238300D01*
X19788661Y-8849764D02*
X19808661Y-8869764D01*
X19808661Y-8849764D02*
X19788661Y-8869764D01*
X19799284Y-10498300D02*
X19819284Y-10518300D01*
X19819284Y-10498300D02*
X19799284Y-10518300D01*
X19814284Y-10718300D02*
X19834284Y-10738300D01*
X19834284Y-10718300D02*
X19814284Y-10738300D01*
X19824284Y-10268300D02*
X19844284Y-10288300D01*
X19844284Y-10268300D02*
X19824284Y-10288300D01*
X19830284Y-8855300D02*
X19850284Y-8875300D01*
X19850284Y-8855300D02*
X19830284Y-8875300D01*
X19831284Y-9670300D02*
X19851284Y-9690300D01*
X19851284Y-9670300D02*
X19831284Y-9690300D01*
X19834284Y-9818300D02*
X19854284Y-9838300D01*
X19854284Y-9818300D02*
X19834284Y-9838300D01*
X19834284Y-9993300D02*
X19854284Y-10013300D01*
X19854284Y-9993300D02*
X19834284Y-10013300D01*
X19836529Y-11125613D02*
X19856529Y-11145613D01*
X19856529Y-11125613D02*
X19836529Y-11145613D01*
X19839284Y-9898300D02*
X19859284Y-9918300D01*
X19859284Y-9898300D02*
X19839284Y-9918300D01*
X19839284Y-10098300D02*
X19859284Y-10118300D01*
X19859284Y-10098300D02*
X19839284Y-10118300D01*
X19844284Y-9713300D02*
X19864284Y-9733300D01*
X19864284Y-9713300D02*
X19844284Y-9733300D01*
X19849284Y-10548300D02*
X19869284Y-10568300D01*
X19869284Y-10548300D02*
X19849284Y-10568300D01*
X19854284Y-7068300D02*
X19874284Y-7088300D01*
X19874284Y-7068300D02*
X19854284Y-7088300D01*
X19856284Y-6536300D02*
X19876284Y-6556300D01*
X19876284Y-6536300D02*
X19856284Y-6556300D01*
X19861284Y-6109300D02*
X19881284Y-6129300D01*
X19881284Y-6109300D02*
X19861284Y-6129300D01*
X19864284Y-8350850D02*
X19884284Y-8370850D01*
X19884284Y-8350850D02*
X19864284Y-8370850D01*
X19864284Y-10768300D02*
X19884284Y-10788300D01*
X19884284Y-10768300D02*
X19864284Y-10788300D01*
X19864860Y-7156950D02*
X19884860Y-7176950D01*
X19884860Y-7156950D02*
X19864860Y-7176950D01*
X19872284Y-8854300D02*
X19892284Y-8874300D01*
X19892284Y-8854300D02*
X19872284Y-8874300D01*
X19873250Y-7656112D02*
X19893250Y-7676112D01*
X19893250Y-7656112D02*
X19873250Y-7676112D01*
X19873585Y-7782250D02*
X19893585Y-7802250D01*
X19893585Y-7782250D02*
X19873585Y-7802250D01*
X19874284Y-7303300D02*
X19894284Y-7323300D01*
X19894284Y-7303300D02*
X19874284Y-7323300D01*
X19874284Y-7408300D02*
X19894284Y-7428300D01*
X19894284Y-7408300D02*
X19874284Y-7428300D01*
X19874284Y-10323300D02*
X19894284Y-10343300D01*
X19894284Y-10323300D02*
X19874284Y-10343300D01*
X19874395Y-7613350D02*
X19894395Y-7633350D01*
X19894395Y-7613350D02*
X19874395Y-7633350D01*
X19875284Y-7868300D02*
X19895284Y-7888300D01*
X19895284Y-7868300D02*
X19875284Y-7888300D01*
X19877284Y-6827300D02*
X19897284Y-6847300D01*
X19897284Y-6827300D02*
X19877284Y-6847300D01*
X19884284Y-12538300D02*
X19904284Y-12558300D01*
X19904284Y-12538300D02*
X19884284Y-12558300D01*
X19894284Y-10158300D02*
X19914284Y-10178300D01*
X19914284Y-10158300D02*
X19894284Y-10178300D01*
X19899284Y-10603300D02*
X19919284Y-10623300D01*
X19919284Y-10603300D02*
X19899284Y-10623300D01*
X19912284Y-8841300D02*
X19932284Y-8861300D01*
X19932284Y-8841300D02*
X19912284Y-8861300D01*
X19918284Y-6597300D02*
X19938284Y-6617300D01*
X19938284Y-6597300D02*
X19918284Y-6617300D01*
X19919284Y-10823300D02*
X19939284Y-10843300D01*
X19939284Y-10823300D02*
X19919284Y-10843300D01*
X19922498Y-7226350D02*
X19942498Y-7246350D01*
X19942498Y-7226350D02*
X19922498Y-7246350D01*
X19924284Y-10373300D02*
X19944284Y-10393300D01*
X19944284Y-10373300D02*
X19924284Y-10393300D01*
X19928284Y-8108300D02*
X19948284Y-8128300D01*
X19948284Y-8108300D02*
X19928284Y-8128300D01*
X19932284Y-8349300D02*
X19952284Y-8369300D01*
X19952284Y-8349300D02*
X19932284Y-8369300D01*
X19934934Y-9716300D02*
X19954934Y-9736300D01*
X19954934Y-9716300D02*
X19934934Y-9736300D01*
X19938284Y-7780049D02*
X19958284Y-7800049D01*
X19958284Y-7780049D02*
X19938284Y-7800049D01*
X19946253Y-7292099D02*
X19966253Y-7312099D01*
X19966253Y-7292099D02*
X19946253Y-7312099D01*
X19949284Y-7068300D02*
X19969284Y-7088300D01*
X19969284Y-7068300D02*
X19949284Y-7088300D01*
X19949284Y-9903300D02*
X19969284Y-9923300D01*
X19969284Y-9903300D02*
X19949284Y-9923300D01*
X19949939Y-8258225D02*
X19969939Y-8278225D01*
X19969939Y-8258225D02*
X19949939Y-8278225D01*
X19951031Y-8184147D02*
X19971031Y-8204147D01*
X19971031Y-8184147D02*
X19951031Y-8204147D01*
X19954205Y-7393443D02*
X19974205Y-7413443D01*
X19974205Y-7393443D02*
X19954205Y-7413443D01*
X19954284Y-8025300D02*
X19974284Y-8045300D01*
X19974284Y-8025300D02*
X19954284Y-8045300D01*
X19954284Y-9833300D02*
X19974284Y-9853300D01*
X19974284Y-9833300D02*
X19954284Y-9853300D01*
X19954284Y-10013300D02*
X19974284Y-10033300D01*
X19974284Y-10013300D02*
X19954284Y-10033300D01*
X19955043Y-7868300D02*
X19975043Y-7888300D01*
X19975043Y-7868300D02*
X19955043Y-7888300D01*
X19955284Y-7634501D02*
X19975284Y-7654501D01*
X19975284Y-7634501D02*
X19955284Y-7654501D01*
X19955699Y-7686621D02*
X19975699Y-7706621D01*
X19975699Y-7686621D02*
X19955699Y-7706621D01*
X19957284Y-8954300D02*
X19977284Y-8974300D01*
X19977284Y-8954300D02*
X19957284Y-8974300D01*
X19959284Y-7483300D02*
X19979284Y-7503300D01*
X19979284Y-7483300D02*
X19959284Y-7503300D01*
X19959284Y-10218300D02*
X19979284Y-10238300D01*
X19979284Y-10218300D02*
X19959284Y-10238300D01*
X19961131Y-7934250D02*
X19981131Y-7954250D01*
X19981131Y-7934250D02*
X19961131Y-7954250D01*
X19962284Y-7160300D02*
X19982284Y-7180300D01*
X19982284Y-7160300D02*
X19962284Y-7180300D01*
X19964284Y-10673300D02*
X19984284Y-10693300D01*
X19984284Y-10673300D02*
X19964284Y-10693300D01*
X19966284Y-6727300D02*
X19986284Y-6747300D01*
X19986284Y-6727300D02*
X19966284Y-6747300D01*
X19971284Y-7230300D02*
X19991284Y-7250300D01*
X19991284Y-7230300D02*
X19971284Y-7250300D01*
X19973284Y-8110300D02*
X19993284Y-8130300D01*
X19993284Y-8110300D02*
X19973284Y-8130300D01*
X19978207Y-9577250D02*
X19998207Y-9597250D01*
X19998207Y-9577250D02*
X19978207Y-9597250D01*
X19979284Y-10428300D02*
X19999284Y-10448300D01*
X19999284Y-10428300D02*
X19979284Y-10448300D01*
X19979284Y-10883300D02*
X19999284Y-10903300D01*
X19999284Y-10883300D02*
X19979284Y-10903300D01*
X20003284Y-6888300D02*
X20023284Y-6908300D01*
X20023284Y-6888300D02*
X20003284Y-6908300D01*
X20003284Y-8931300D02*
X20023284Y-8951300D01*
X20023284Y-8931300D02*
X20003284Y-8951300D01*
X20004284Y-10068300D02*
X20024284Y-10088300D01*
X20024284Y-10068300D02*
X20004284Y-10088300D01*
X20008511Y-8028778D02*
X20028511Y-8048778D01*
X20028511Y-8028778D02*
X20008511Y-8048778D01*
X20009284Y-7788300D02*
X20029284Y-7808300D01*
X20029284Y-7788300D02*
X20009284Y-7808300D01*
X20009284Y-10268300D02*
X20029284Y-10288300D01*
X20029284Y-10268300D02*
X20009284Y-10288300D01*
X20014284Y-10723300D02*
X20034284Y-10743300D01*
X20034284Y-10723300D02*
X20014284Y-10743300D01*
X20016284Y-7470300D02*
X20036284Y-7490300D01*
X20036284Y-7470300D02*
X20016284Y-7490300D01*
X20020284Y-7871300D02*
X20040284Y-7891300D01*
X20040284Y-7871300D02*
X20020284Y-7891300D01*
X20021284Y-7229300D02*
X20041284Y-7249300D01*
X20041284Y-7229300D02*
X20021284Y-7249300D01*
X20028453Y-7068300D02*
X20048453Y-7088300D01*
X20048453Y-7068300D02*
X20028453Y-7088300D01*
X20029284Y-7607300D02*
X20049284Y-7627300D01*
X20049284Y-7607300D02*
X20029284Y-7627300D01*
X20029284Y-10933300D02*
X20049284Y-10953300D01*
X20049284Y-10933300D02*
X20029284Y-10953300D01*
X20029563Y-7149531D02*
X20049563Y-7169531D01*
X20049563Y-7149531D02*
X20029563Y-7169531D01*
X20030284Y-7965300D02*
X20050284Y-7985300D01*
X20050284Y-7965300D02*
X20030284Y-7985300D01*
X20031123Y-7316250D02*
X20051123Y-7336250D01*
X20051123Y-7316250D02*
X20031123Y-7336250D01*
X20031371Y-8353861D02*
X20051371Y-8373861D01*
X20051371Y-8353861D02*
X20031371Y-8373861D01*
X20033284Y-7745300D02*
X20053284Y-7765300D01*
X20053284Y-7745300D02*
X20033284Y-7765300D01*
X20033284Y-7920300D02*
X20053284Y-7940300D01*
X20053284Y-7920300D02*
X20033284Y-7940300D01*
X20035284Y-7649300D02*
X20055284Y-7669300D01*
X20055284Y-7649300D02*
X20035284Y-7669300D01*
X20037051Y-8213185D02*
X20057051Y-8233185D01*
X20057051Y-8213185D02*
X20037051Y-8233185D01*
X20039284Y-10488300D02*
X20059284Y-10508300D01*
X20059284Y-10488300D02*
X20039284Y-10508300D01*
X20043500Y-8104432D02*
X20063500Y-8124432D01*
X20063500Y-8104432D02*
X20043500Y-8124432D01*
X20044905Y-7704869D02*
X20064905Y-7724869D01*
X20064905Y-7704869D02*
X20044905Y-7724869D01*
X20046673Y-7556600D02*
X20066673Y-7576600D01*
X20066673Y-7556600D02*
X20046673Y-7576600D01*
X20047284Y-9079609D02*
X20067284Y-9099609D01*
X20067284Y-9079609D02*
X20047284Y-9099609D01*
X20049706Y-9205572D02*
X20069706Y-9225572D01*
X20069706Y-9205572D02*
X20049706Y-9225572D01*
X20050284Y-7788300D02*
X20070284Y-7808300D01*
X20070284Y-7788300D02*
X20050284Y-7808300D01*
X20053147Y-8027419D02*
X20073147Y-8047419D01*
X20073147Y-8027419D02*
X20053147Y-8047419D01*
X20054284Y-10118300D02*
X20074284Y-10138300D01*
X20074284Y-10118300D02*
X20054284Y-10138300D01*
X20057834Y-9036065D02*
X20077834Y-9056065D01*
X20077834Y-9036065D02*
X20057834Y-9056065D01*
X20058284Y-7472300D02*
X20078284Y-7492300D01*
X20078284Y-7472300D02*
X20058284Y-7492300D01*
X20059284Y-9160750D02*
X20079284Y-9180750D01*
X20079284Y-9160750D02*
X20059284Y-9180750D01*
X20059284Y-9558300D02*
X20079284Y-9578300D01*
X20079284Y-9558300D02*
X20059284Y-9578300D01*
X20064284Y-10323300D02*
X20084284Y-10343300D01*
X20084284Y-10323300D02*
X20064284Y-10343300D01*
X20069284Y-9118300D02*
X20089284Y-9138300D01*
X20089284Y-9118300D02*
X20069284Y-9138300D01*
X20069284Y-10778300D02*
X20089284Y-10798300D01*
X20089284Y-10778300D02*
X20069284Y-10798300D01*
X20079284Y-10988300D02*
X20099284Y-11008300D01*
X20099284Y-10988300D02*
X20079284Y-11008300D01*
X20088284Y-8188300D02*
X20108284Y-8208300D01*
X20108284Y-8188300D02*
X20088284Y-8208300D01*
X20089284Y-10538300D02*
X20109284Y-10558300D01*
X20109284Y-10538300D02*
X20089284Y-10558300D01*
X20091284Y-8999300D02*
X20111284Y-9019300D01*
X20111284Y-8999300D02*
X20091284Y-9019300D01*
X20091284Y-9273250D02*
X20111284Y-9293250D01*
X20111284Y-9273250D02*
X20091284Y-9293250D01*
X20092284Y-9837300D02*
X20112284Y-9857300D01*
X20112284Y-9837300D02*
X20092284Y-9857300D01*
X20092411Y-8347750D02*
X20112411Y-8367750D01*
X20112411Y-8347750D02*
X20092411Y-8367750D01*
X20095284Y-7312300D02*
X20115284Y-7332300D01*
X20115284Y-7312300D02*
X20095284Y-7332300D01*
X20097420Y-7542063D02*
X20117420Y-7562063D01*
X20117420Y-7542063D02*
X20097420Y-7562063D01*
X20100834Y-7863250D02*
X20120834Y-7883250D01*
X20120834Y-7863250D02*
X20100834Y-7883250D01*
X20101284Y-12093300D02*
X20121284Y-12113300D01*
X20121284Y-12093300D02*
X20101284Y-12113300D01*
X20104240Y-8277696D02*
X20124240Y-8297696D01*
X20124240Y-8277696D02*
X20104240Y-8297696D01*
X20109284Y-7231300D02*
X20129284Y-7251300D01*
X20129284Y-7231300D02*
X20109284Y-7251300D01*
X20109284Y-10173300D02*
X20129284Y-10193300D01*
X20129284Y-10173300D02*
X20109284Y-10193300D01*
X20112284Y-7149300D02*
X20132284Y-7169300D01*
X20132284Y-7149300D02*
X20112284Y-7169300D01*
X20112834Y-8092341D02*
X20132834Y-8112341D01*
X20132834Y-8092341D02*
X20112834Y-8112341D01*
X20112835Y-8135016D02*
X20132835Y-8155016D01*
X20132835Y-8135016D02*
X20112835Y-8155016D01*
X20114284Y-7458300D02*
X20134284Y-7478300D01*
X20134284Y-7458300D02*
X20114284Y-7478300D01*
X20116204Y-7075479D02*
X20136204Y-7095479D01*
X20136204Y-7075479D02*
X20116204Y-7095479D01*
X20119284Y-6109300D02*
X20139284Y-6129300D01*
X20139284Y-6109300D02*
X20119284Y-6129300D01*
X20123976Y-7974241D02*
X20143976Y-7994241D01*
X20143976Y-7974241D02*
X20123976Y-7994241D01*
X20128975Y-9167300D02*
X20148975Y-9187300D01*
X20148975Y-9167300D02*
X20128975Y-9187300D01*
X20129284Y-10383300D02*
X20149284Y-10403300D01*
X20149284Y-10383300D02*
X20129284Y-10403300D01*
X20129284Y-10838300D02*
X20149284Y-10858300D01*
X20149284Y-10838300D02*
X20129284Y-10858300D01*
X20129900Y-8187744D02*
X20149900Y-8207744D01*
X20149900Y-8187744D02*
X20129900Y-8207744D01*
X20134212Y-9266311D02*
X20154212Y-9286311D01*
X20154212Y-9266311D02*
X20134212Y-9286311D01*
X20139284Y-10593300D02*
X20159284Y-10613300D01*
X20159284Y-10593300D02*
X20139284Y-10613300D01*
X20149284Y-11053300D02*
X20169284Y-11073300D01*
X20169284Y-11053300D02*
X20149284Y-11073300D01*
X20155284Y-9766300D02*
X20175284Y-9786300D01*
X20175284Y-9766300D02*
X20155284Y-9786300D01*
X20155688Y-11393413D02*
X20175688Y-11413413D01*
X20175688Y-11393413D02*
X20155688Y-11413413D01*
X20169284Y-10233300D02*
X20189284Y-10253300D01*
X20189284Y-10233300D02*
X20169284Y-10253300D01*
X20171586Y-8347328D02*
X20191586Y-8367328D01*
X20191586Y-8347328D02*
X20171586Y-8367328D01*
X20175685Y-7545710D02*
X20195685Y-7565710D01*
X20195685Y-7545710D02*
X20175685Y-7565710D01*
X20179284Y-10433300D02*
X20199284Y-10453300D01*
X20199284Y-10433300D02*
X20179284Y-10453300D01*
X20179284Y-10888300D02*
X20199284Y-10908300D01*
X20199284Y-10888300D02*
X20179284Y-10908300D01*
X20182369Y-5222580D02*
X20202369Y-5242580D01*
X20202369Y-5222580D02*
X20182369Y-5242580D01*
X20189284Y-6753300D02*
X20209284Y-6773300D01*
X20209284Y-6753300D02*
X20189284Y-6773300D01*
X20190234Y-6909300D02*
X20210234Y-6929300D01*
X20210234Y-6909300D02*
X20190234Y-6929300D01*
X20190234Y-6988183D02*
X20210234Y-7008183D01*
X20210234Y-6988183D02*
X20190234Y-7008183D01*
X20190284Y-8113300D02*
X20210284Y-8133300D01*
X20210284Y-8113300D02*
X20190284Y-8133300D01*
X20195284Y-7317300D02*
X20215284Y-7337300D01*
X20215284Y-7317300D02*
X20195284Y-7337300D01*
X20197584Y-8184351D02*
X20217584Y-8204351D01*
X20217584Y-8184351D02*
X20197584Y-8204351D01*
X20198477Y-8269737D02*
X20218477Y-8289737D01*
X20218477Y-8269737D02*
X20198477Y-8289737D01*
X20199284Y-11103300D02*
X20219284Y-11123300D01*
X20219284Y-11103300D02*
X20199284Y-11123300D01*
X20199284Y-12248300D02*
X20219284Y-12268300D01*
X20219284Y-12248300D02*
X20199284Y-12268300D01*
X20204284Y-10658300D02*
X20224284Y-10678300D01*
X20224284Y-10658300D02*
X20204284Y-10678300D01*
X20214284Y-9373300D02*
X20234284Y-9393300D01*
X20234284Y-9373300D02*
X20214284Y-9393300D01*
X20214284Y-9428300D02*
X20234284Y-9448300D01*
X20234284Y-9428300D02*
X20214284Y-9448300D01*
X20219284Y-10113300D02*
X20239284Y-10133300D01*
X20239284Y-10113300D02*
X20219284Y-10133300D01*
X20219284Y-10283300D02*
X20239284Y-10303300D01*
X20239284Y-10283300D02*
X20219284Y-10303300D01*
X20229284Y-10943300D02*
X20249284Y-10963300D01*
X20249284Y-10943300D02*
X20229284Y-10963300D01*
X20234284Y-10488300D02*
X20254284Y-10508300D01*
X20254284Y-10488300D02*
X20234284Y-10508300D01*
X20239284Y-9723300D02*
X20259284Y-9743300D01*
X20259284Y-9723300D02*
X20239284Y-9743300D01*
X20252824Y-7700160D02*
X20272824Y-7720160D01*
X20272824Y-7700160D02*
X20252824Y-7720160D01*
X20254284Y-7801300D02*
X20274284Y-7821300D01*
X20274284Y-7801300D02*
X20254284Y-7821300D01*
X20254284Y-10708300D02*
X20274284Y-10728300D01*
X20274284Y-10708300D02*
X20254284Y-10728300D01*
X20254284Y-11158300D02*
X20274284Y-11178300D01*
X20274284Y-11158300D02*
X20254284Y-11178300D01*
X20254734Y-7871516D02*
X20274734Y-7891516D01*
X20274734Y-7871516D02*
X20254734Y-7891516D01*
X20254734Y-8038300D02*
X20274734Y-8058300D01*
X20274734Y-8038300D02*
X20254734Y-8058300D01*
X20255834Y-7627300D02*
X20275834Y-7647300D01*
X20275834Y-7627300D02*
X20255834Y-7647300D01*
X20255834Y-7956300D02*
X20275834Y-7976300D01*
X20275834Y-7956300D02*
X20255834Y-7976300D01*
X20257834Y-8192468D02*
X20277834Y-8212468D01*
X20277834Y-8192468D02*
X20257834Y-8212468D01*
X20258284Y-6653300D02*
X20278284Y-6673300D01*
X20278284Y-6653300D02*
X20258284Y-6673300D01*
X20258284Y-8423300D02*
X20278284Y-8443300D01*
X20278284Y-8423300D02*
X20258284Y-8443300D01*
X20261532Y-8259949D02*
X20281532Y-8279949D01*
X20281532Y-8259949D02*
X20261532Y-8279949D01*
X20262173Y-7401646D02*
X20282173Y-7421646D01*
X20282173Y-7401646D02*
X20262173Y-7421646D01*
X20262284Y-8348300D02*
X20282284Y-8368300D01*
X20282284Y-8348300D02*
X20262284Y-8368300D01*
X20269284Y-10338300D02*
X20289284Y-10358300D01*
X20289284Y-10338300D02*
X20269284Y-10358300D01*
X20272284Y-8114300D02*
X20292284Y-8134300D01*
X20292284Y-8114300D02*
X20272284Y-8134300D01*
X20274284Y-9693300D02*
X20294284Y-9713300D01*
X20294284Y-9693300D02*
X20274284Y-9713300D01*
X20276184Y-7148300D02*
X20296184Y-7168300D01*
X20296184Y-7148300D02*
X20276184Y-7168300D01*
X20276184Y-7228300D02*
X20296184Y-7248300D01*
X20296184Y-7228300D02*
X20276184Y-7248300D01*
X20276184Y-7299107D02*
X20296184Y-7319107D01*
X20296184Y-7299107D02*
X20276184Y-7319107D01*
X20277734Y-7068300D02*
X20297734Y-7088300D01*
X20297734Y-7068300D02*
X20277734Y-7088300D01*
X20289284Y-11008300D02*
X20309284Y-11028300D01*
X20309284Y-11008300D02*
X20289284Y-11028300D01*
X20294284Y-10548300D02*
X20314284Y-10568300D01*
X20314284Y-10548300D02*
X20294284Y-10568300D01*
X20295073Y-8521619D02*
X20315073Y-8541619D01*
X20315073Y-8521619D02*
X20295073Y-8541619D01*
X20309284Y-10763300D02*
X20329284Y-10783300D01*
X20329284Y-10763300D02*
X20309284Y-10783300D01*
X20314284Y-11218300D02*
X20334284Y-11238300D01*
X20334284Y-11218300D02*
X20314284Y-11238300D01*
X20333284Y-7631300D02*
X20353284Y-7651300D01*
X20353284Y-7631300D02*
X20333284Y-7651300D01*
X20333734Y-8192300D02*
X20353734Y-8212300D01*
X20353734Y-8192300D02*
X20333734Y-8212300D01*
X20334284Y-10403300D02*
X20354284Y-10423300D01*
X20354284Y-10403300D02*
X20334284Y-10423300D01*
X20336960Y-7395859D02*
X20356960Y-7415859D01*
X20356960Y-7395859D02*
X20336960Y-7415859D01*
X20339284Y-7298300D02*
X20359284Y-7318300D01*
X20359284Y-7298300D02*
X20339284Y-7318300D01*
X20339284Y-9693300D02*
X20359284Y-9713300D01*
X20359284Y-9693300D02*
X20339284Y-9713300D01*
X20344284Y-6650300D02*
X20364284Y-6670300D01*
X20364284Y-6650300D02*
X20344284Y-6670300D01*
X20344284Y-10598300D02*
X20364284Y-10618300D01*
X20364284Y-10598300D02*
X20344284Y-10618300D01*
X20344284Y-7478300D02*
X20364284Y-7498300D01*
X20364284Y-7478300D02*
X20344284Y-7498300D01*
X20344974Y-8254242D02*
X20364974Y-8274242D01*
X20364974Y-8254242D02*
X20344974Y-8274242D01*
X20346284Y-7789300D02*
X20366284Y-7809300D01*
X20366284Y-7789300D02*
X20346284Y-7809300D01*
X20349284Y-7148300D02*
X20369284Y-7168300D01*
X20369284Y-7148300D02*
X20349284Y-7168300D01*
X20349284Y-8428300D02*
X20369284Y-8448300D01*
X20369284Y-8428300D02*
X20349284Y-8448300D01*
X20349284Y-11068300D02*
X20369284Y-11088300D01*
X20369284Y-11068300D02*
X20349284Y-11088300D01*
X20357204Y-8527338D02*
X20377204Y-8547338D01*
X20377204Y-8527338D02*
X20357204Y-8547338D01*
X20364284Y-6108300D02*
X20384284Y-6128300D01*
X20384284Y-6108300D02*
X20364284Y-6128300D01*
X20364284Y-7952300D02*
X20384284Y-7972300D01*
X20384284Y-7952300D02*
X20364284Y-7972300D01*
X20364284Y-11268300D02*
X20384284Y-11288300D01*
X20384284Y-11268300D02*
X20364284Y-11288300D01*
X20367247Y-8349028D02*
X20387247Y-8369028D01*
X20387247Y-8349028D02*
X20367247Y-8369028D01*
X20367284Y-8118300D02*
X20387284Y-8138300D01*
X20387284Y-8118300D02*
X20367284Y-8138300D01*
X20369284Y-10823300D02*
X20389284Y-10843300D01*
X20389284Y-10823300D02*
X20369284Y-10843300D01*
X20369351Y-6350637D02*
X20389351Y-6370637D01*
X20389351Y-6350637D02*
X20369351Y-6370637D01*
X20372284Y-6570300D02*
X20392284Y-6590300D01*
X20392284Y-6570300D02*
X20372284Y-6590300D01*
X20376131Y-8193147D02*
X20396131Y-8213147D01*
X20396131Y-8193147D02*
X20376131Y-8213147D01*
X20379284Y-9758300D02*
X20399284Y-9778300D01*
X20399284Y-9758300D02*
X20379284Y-9778300D01*
X20381284Y-6498300D02*
X20401284Y-6518300D01*
X20401284Y-6498300D02*
X20381284Y-6518300D01*
X20384284Y-10453300D02*
X20404284Y-10473300D01*
X20404284Y-10453300D02*
X20384284Y-10473300D01*
X20391613Y-8502737D02*
X20411613Y-8522737D01*
X20411613Y-8502737D02*
X20391613Y-8522737D01*
X20392765Y-9901711D02*
X20412765Y-9921711D01*
X20412765Y-9901711D02*
X20392765Y-9921711D01*
X20394284Y-10653300D02*
X20414284Y-10673300D01*
X20414284Y-10653300D02*
X20394284Y-10673300D01*
X20409284Y-11128300D02*
X20429284Y-11148300D01*
X20429284Y-11128300D02*
X20409284Y-11148300D01*
X20414284Y-11323300D02*
X20434284Y-11343300D01*
X20434284Y-11323300D02*
X20414284Y-11343300D01*
X20419284Y-10873300D02*
X20439284Y-10893300D01*
X20439284Y-10873300D02*
X20419284Y-10893300D01*
X20424576Y-8174703D02*
X20444576Y-8194703D01*
X20444576Y-8174703D02*
X20424576Y-8194703D01*
X20426284Y-7602300D02*
X20446284Y-7622300D01*
X20446284Y-7602300D02*
X20426284Y-7622300D01*
X20427284Y-7708300D02*
X20447284Y-7728300D01*
X20447284Y-7708300D02*
X20427284Y-7728300D01*
X20427284Y-7814300D02*
X20447284Y-7834300D01*
X20447284Y-7814300D02*
X20427284Y-7834300D01*
X20427834Y-7495787D02*
X20447834Y-7515787D01*
X20447834Y-7495787D02*
X20427834Y-7515787D01*
X20429284Y-7068300D02*
X20449284Y-7088300D01*
X20449284Y-7068300D02*
X20429284Y-7088300D01*
X20429401Y-6998417D02*
X20449401Y-7018417D01*
X20449401Y-6998417D02*
X20429401Y-7018417D01*
X20433284Y-7909300D02*
X20453284Y-7929300D01*
X20453284Y-7909300D02*
X20433284Y-7929300D01*
X20434284Y-8419600D02*
X20454284Y-8439600D01*
X20454284Y-8419600D02*
X20434284Y-8439600D01*
X20437647Y-8554951D02*
X20457647Y-8574951D01*
X20457647Y-8554951D02*
X20437647Y-8574951D01*
X20439284Y-7148300D02*
X20459284Y-7168300D01*
X20459284Y-7148300D02*
X20439284Y-7168300D01*
X20439284Y-7304850D02*
X20459284Y-7324850D01*
X20459284Y-7304850D02*
X20439284Y-7324850D01*
X20439284Y-10508300D02*
X20459284Y-10528300D01*
X20459284Y-10508300D02*
X20439284Y-10528300D01*
X20443284Y-6507300D02*
X20463284Y-6527300D01*
X20463284Y-6507300D02*
X20443284Y-6527300D01*
X20444284Y-10713300D02*
X20464284Y-10733300D01*
X20464284Y-10713300D02*
X20444284Y-10733300D01*
X20447734Y-8115258D02*
X20467734Y-8135258D01*
X20467734Y-8115258D02*
X20447734Y-8135258D01*
X20447932Y-7948738D02*
X20467932Y-7968738D01*
X20467932Y-7948738D02*
X20447932Y-7968738D01*
X20447932Y-8030150D02*
X20467932Y-8050150D01*
X20467932Y-8030150D02*
X20447932Y-8050150D01*
X20449284Y-12198300D02*
X20469284Y-12218300D01*
X20469284Y-12198300D02*
X20449284Y-12218300D01*
X20459284Y-11178300D02*
X20479284Y-11198300D01*
X20479284Y-11178300D02*
X20459284Y-11198300D01*
X20469284Y-10928300D02*
X20489284Y-10948300D01*
X20489284Y-10928300D02*
X20469284Y-10948300D01*
X20469284Y-11378300D02*
X20489284Y-11398300D01*
X20489284Y-11378300D02*
X20469284Y-11398300D01*
X20479284Y-8548300D02*
X20499284Y-8568300D01*
X20499284Y-8548300D02*
X20479284Y-8568300D01*
X20497883Y-7144518D02*
X20517883Y-7164518D01*
X20517883Y-7144518D02*
X20497883Y-7164518D01*
X20499017Y-8442099D02*
X20519017Y-8462099D01*
X20519017Y-8442099D02*
X20499017Y-8462099D01*
X20499284Y-10568300D02*
X20519284Y-10588300D01*
X20519284Y-10568300D02*
X20499284Y-10588300D01*
X20504543Y-7305311D02*
X20524543Y-7325311D01*
X20524543Y-7305311D02*
X20504543Y-7325311D01*
X20505284Y-8122300D02*
X20525284Y-8142300D01*
X20525284Y-8122300D02*
X20505284Y-8142300D01*
X20505834Y-7000800D02*
X20525834Y-7020800D01*
X20525834Y-7000800D02*
X20505834Y-7020800D01*
X20505834Y-7068300D02*
X20525834Y-7088300D01*
X20525834Y-7068300D02*
X20505834Y-7088300D01*
X20505883Y-7707462D02*
X20525883Y-7727462D01*
X20525883Y-7707462D02*
X20505883Y-7727462D01*
X20508834Y-7603285D02*
X20528834Y-7623285D01*
X20528834Y-7603285D02*
X20508834Y-7623285D01*
X20509284Y-7814300D02*
X20529284Y-7834300D01*
X20529284Y-7814300D02*
X20509284Y-7834300D01*
X20509284Y-9888300D02*
X20529284Y-9908300D01*
X20529284Y-9888300D02*
X20509284Y-9908300D01*
X20509284Y-10768300D02*
X20529284Y-10788300D01*
X20529284Y-10768300D02*
X20509284Y-10788300D01*
X20510284Y-8266426D02*
X20530284Y-8286426D01*
X20530284Y-8266426D02*
X20510284Y-8286426D01*
X20511109Y-8203826D02*
X20531109Y-8223826D01*
X20531109Y-8203826D02*
X20511109Y-8223826D01*
X20513284Y-9450300D02*
X20533284Y-9470300D01*
X20533284Y-9450300D02*
X20513284Y-9470300D01*
X20513384Y-8518465D02*
X20533384Y-8538465D01*
X20533384Y-8518465D02*
X20513384Y-8538465D01*
X20514284Y-11228300D02*
X20534284Y-11248300D01*
X20534284Y-11228300D02*
X20514284Y-11248300D01*
X20514564Y-8164026D02*
X20534564Y-8184026D01*
X20534564Y-8164026D02*
X20514564Y-8184026D01*
X20515654Y-8306014D02*
X20535654Y-8326014D01*
X20535654Y-8306014D02*
X20515654Y-8326014D01*
X20517383Y-8404251D02*
X20537383Y-8424251D01*
X20537383Y-8404251D02*
X20517383Y-8424251D01*
X20519284Y-11428300D02*
X20539284Y-11448300D01*
X20539284Y-11428300D02*
X20519284Y-11448300D01*
X20526284Y-9537300D02*
X20546284Y-9557300D01*
X20546284Y-9537300D02*
X20526284Y-9557300D01*
X20529284Y-11063300D02*
X20549284Y-11083300D01*
X20549284Y-11063300D02*
X20529284Y-11083300D01*
X20534090Y-8029540D02*
X20554090Y-8049540D01*
X20554090Y-8029540D02*
X20534090Y-8049540D01*
X20536284Y-10417300D02*
X20556284Y-10437300D01*
X20556284Y-10417300D02*
X20536284Y-10437300D01*
X20541284Y-6535300D02*
X20561284Y-6555300D01*
X20561284Y-6535300D02*
X20541284Y-6555300D01*
X20544784Y-7954034D02*
X20564784Y-7974034D01*
X20564784Y-7954034D02*
X20544784Y-7974034D01*
X20549284Y-10618300D02*
X20569284Y-10638300D01*
X20569284Y-10618300D02*
X20549284Y-10638300D01*
X20559284Y-8538300D02*
X20579284Y-8558300D01*
X20579284Y-8538300D02*
X20559284Y-8558300D01*
X20562384Y-7383300D02*
X20582384Y-7403300D01*
X20582384Y-7383300D02*
X20562384Y-7403300D01*
X20569284Y-10838300D02*
X20589284Y-10858300D01*
X20589284Y-10838300D02*
X20569284Y-10858300D01*
X20569284Y-11283300D02*
X20589284Y-11303300D01*
X20589284Y-11283300D02*
X20569284Y-11303300D01*
X20574284Y-11483300D02*
X20594284Y-11503300D01*
X20594284Y-11483300D02*
X20574284Y-11503300D01*
X20584284Y-5883300D02*
X20604284Y-5903300D01*
X20604284Y-5883300D02*
X20584284Y-5903300D01*
X20589734Y-8124255D02*
X20609734Y-8144255D01*
X20609734Y-8124255D02*
X20589734Y-8144255D01*
X20590284Y-7518300D02*
X20610284Y-7538300D01*
X20610284Y-7518300D02*
X20590284Y-7538300D01*
X20590284Y-7898300D02*
X20610284Y-7918300D01*
X20610284Y-7898300D02*
X20590284Y-7918300D01*
X20590734Y-7622300D02*
X20610734Y-7642300D01*
X20610734Y-7622300D02*
X20590734Y-7642300D01*
X20591284Y-5352300D02*
X20611284Y-5372300D01*
X20611284Y-5352300D02*
X20591284Y-5372300D01*
X20591284Y-7708300D02*
X20611284Y-7728300D01*
X20611284Y-7708300D02*
X20591284Y-7728300D01*
X20592284Y-6454300D02*
X20612284Y-6474300D01*
X20612284Y-6454300D02*
X20592284Y-6474300D01*
X20592284Y-7794300D02*
X20612284Y-7814300D01*
X20612284Y-7794300D02*
X20592284Y-7814300D01*
X20592734Y-7066787D02*
X20612734Y-7086787D01*
X20612734Y-7066787D02*
X20592734Y-7086787D01*
X20592734Y-7132722D02*
X20612734Y-7152722D01*
X20612734Y-7132722D02*
X20592734Y-7152722D01*
X20592734Y-7210374D02*
X20612734Y-7230374D01*
X20612734Y-7210374D02*
X20592734Y-7230374D01*
X20592734Y-7288635D02*
X20612734Y-7308635D01*
X20612734Y-7288635D02*
X20592734Y-7308635D01*
X20598734Y-8185183D02*
X20618734Y-8205183D01*
X20618734Y-8185183D02*
X20598734Y-8205183D01*
X20598917Y-8488668D02*
X20618917Y-8508668D01*
X20618917Y-8488668D02*
X20598917Y-8508668D01*
X20599284Y-10673300D02*
X20619284Y-10693300D01*
X20619284Y-10673300D02*
X20599284Y-10693300D01*
X20602284Y-8361300D02*
X20622284Y-8381300D01*
X20622284Y-8361300D02*
X20602284Y-8381300D01*
X20617284Y-8595300D02*
X20637284Y-8615300D01*
X20637284Y-8595300D02*
X20617284Y-8615300D01*
X20619284Y-7394750D02*
X20639284Y-7414750D01*
X20639284Y-7394750D02*
X20619284Y-7414750D01*
X20619284Y-11333300D02*
X20639284Y-11353300D01*
X20639284Y-11333300D02*
X20619284Y-11353300D01*
X20629284Y-8520800D02*
X20649284Y-8540800D01*
X20649284Y-8520800D02*
X20629284Y-8540800D01*
X20630284Y-8112300D02*
X20650284Y-8132300D01*
X20650284Y-8112300D02*
X20630284Y-8132300D01*
X20632734Y-8033300D02*
X20652734Y-8053300D01*
X20652734Y-8033300D02*
X20632734Y-8053300D01*
X20634275Y-7951966D02*
X20654275Y-7971966D01*
X20654275Y-7951966D02*
X20634275Y-7971966D01*
X20634284Y-11543300D02*
X20654284Y-11563300D01*
X20654284Y-11543300D02*
X20634284Y-11563300D01*
X20639284Y-11113300D02*
X20659284Y-11133300D01*
X20659284Y-11113300D02*
X20639284Y-11133300D01*
X20649284Y-11648300D02*
X20669284Y-11668300D01*
X20669284Y-11648300D02*
X20649284Y-11668300D01*
X20650284Y-5725300D02*
X20670284Y-5745300D01*
X20670284Y-5725300D02*
X20650284Y-5745300D01*
X20650284Y-8338300D02*
X20670284Y-8358300D01*
X20670284Y-8338300D02*
X20650284Y-8358300D01*
X20654284Y-9128300D02*
X20674284Y-9148300D01*
X20674284Y-9128300D02*
X20654284Y-9148300D01*
X20659284Y-10733300D02*
X20679284Y-10753300D01*
X20679284Y-10733300D02*
X20659284Y-10753300D01*
X20668177Y-8168770D02*
X20688177Y-8188770D01*
X20688177Y-8168770D02*
X20668177Y-8188770D01*
X20669284Y-6038300D02*
X20689284Y-6058300D01*
X20689284Y-6038300D02*
X20669284Y-6058300D01*
X20669284Y-9003300D02*
X20689284Y-9023300D01*
X20689284Y-9003300D02*
X20669284Y-9023300D01*
X20669284Y-6208300D02*
X20689284Y-6228300D01*
X20689284Y-6208300D02*
X20669284Y-6228300D01*
X20669734Y-7708263D02*
X20689734Y-7728263D01*
X20689734Y-7708263D02*
X20669734Y-7728263D01*
X20670834Y-7816261D02*
X20690834Y-7836261D01*
X20690834Y-7816261D02*
X20670834Y-7836261D01*
X20672306Y-8208506D02*
X20692306Y-8228506D01*
X20692306Y-8208506D02*
X20672306Y-8228506D01*
X20672367Y-7236618D02*
X20692367Y-7256618D01*
X20692367Y-7236618D02*
X20672367Y-7256618D01*
X20672734Y-7142483D02*
X20692734Y-7162483D01*
X20692734Y-7142483D02*
X20672734Y-7162483D01*
X20673164Y-8121544D02*
X20693164Y-8141544D01*
X20693164Y-8121544D02*
X20673164Y-8141544D01*
X20674284Y-11388300D02*
X20694284Y-11408300D01*
X20694284Y-11388300D02*
X20674284Y-11408300D01*
X20677834Y-7602981D02*
X20697834Y-7622981D01*
X20697834Y-7602981D02*
X20677834Y-7622981D01*
X20678859Y-11742875D02*
X20698859Y-11762875D01*
X20698859Y-11742875D02*
X20678859Y-11762875D01*
X20684284Y-11593300D02*
X20704284Y-11613300D01*
X20704284Y-11593300D02*
X20684284Y-11613300D01*
X20689284Y-5428300D02*
X20709284Y-5448300D01*
X20709284Y-5428300D02*
X20689284Y-5448300D01*
X20689284Y-9568300D02*
X20709284Y-9588300D01*
X20709284Y-9568300D02*
X20689284Y-9588300D01*
X20694284Y-11168300D02*
X20714284Y-11188300D01*
X20714284Y-11168300D02*
X20694284Y-11188300D01*
X20696784Y-8527000D02*
X20716784Y-8547000D01*
X20716784Y-8527000D02*
X20696784Y-8547000D01*
X20710284Y-9972300D02*
X20730284Y-9992300D01*
X20730284Y-9972300D02*
X20710284Y-9992300D01*
X20719284Y-7394750D02*
X20739284Y-7414750D01*
X20739284Y-7394750D02*
X20719284Y-7414750D01*
X20719284Y-10793300D02*
X20739284Y-10813300D01*
X20739284Y-10793300D02*
X20719284Y-10813300D01*
X20724284Y-8912000D02*
X20744284Y-8932000D01*
X20744284Y-8912000D02*
X20724284Y-8932000D01*
X20724284Y-12098300D02*
X20744284Y-12118300D01*
X20744284Y-12098300D02*
X20724284Y-12118300D01*
X20728284Y-7951300D02*
X20748284Y-7971300D01*
X20748284Y-7951300D02*
X20728284Y-7971300D01*
X20728284Y-8034300D02*
X20748284Y-8054300D01*
X20748284Y-8034300D02*
X20728284Y-8054300D01*
X20729284Y-9008300D02*
X20749284Y-9028300D01*
X20749284Y-9008300D02*
X20729284Y-9028300D01*
X20734284Y-9078300D02*
X20754284Y-9098300D01*
X20754284Y-9078300D02*
X20734284Y-9098300D01*
X20734284Y-11448300D02*
X20754284Y-11468300D01*
X20754284Y-11448300D02*
X20734284Y-11468300D01*
X20735535Y-8355509D02*
X20755535Y-8375509D01*
X20755535Y-8355509D02*
X20735535Y-8375509D01*
X20737734Y-8174619D02*
X20757734Y-8194619D01*
X20757734Y-8174619D02*
X20737734Y-8194619D01*
X20739284Y-7518300D02*
X20759284Y-7538300D01*
X20759284Y-7518300D02*
X20739284Y-7538300D01*
X20744284Y-11218300D02*
X20764284Y-11238300D01*
X20764284Y-11218300D02*
X20744284Y-11238300D01*
X20745284Y-8432300D02*
X20765284Y-8452300D01*
X20765284Y-8432300D02*
X20745284Y-8452300D01*
X20746572Y-10096209D02*
X20766572Y-10116209D01*
X20766572Y-10096209D02*
X20746572Y-10116209D01*
X20747883Y-7144952D02*
X20767883Y-7164952D01*
X20767883Y-7144952D02*
X20747883Y-7164952D01*
X20747883Y-7224200D02*
X20767883Y-7244200D01*
X20767883Y-7224200D02*
X20747883Y-7244200D01*
X20749083Y-8286432D02*
X20769083Y-8306432D01*
X20769083Y-8286432D02*
X20749083Y-8306432D01*
X20749284Y-7912300D02*
X20769284Y-7932300D01*
X20769284Y-7912300D02*
X20749284Y-7932300D01*
X20749284Y-11008300D02*
X20769284Y-11028300D01*
X20769284Y-11008300D02*
X20749284Y-11028300D01*
X20749284Y-8127793D02*
X20769284Y-8147793D01*
X20769284Y-8127793D02*
X20749284Y-8147793D01*
X20751284Y-7602300D02*
X20771284Y-7622300D01*
X20771284Y-7602300D02*
X20751284Y-7622300D01*
X20751901Y-7000917D02*
X20771901Y-7020917D01*
X20771901Y-7000917D02*
X20751901Y-7020917D01*
X20753770Y-7064204D02*
X20773770Y-7084204D01*
X20773770Y-7064204D02*
X20753770Y-7084204D01*
X20755296Y-7810622D02*
X20775296Y-7830622D01*
X20775296Y-7810622D02*
X20755296Y-7830622D01*
X20758354Y-7704742D02*
X20778354Y-7724742D01*
X20778354Y-7704742D02*
X20758354Y-7724742D01*
X20762284Y-6348300D02*
X20782284Y-6368300D01*
X20782284Y-6348300D02*
X20762284Y-6368300D01*
X20769284Y-9563300D02*
X20789284Y-9583300D01*
X20789284Y-9563300D02*
X20769284Y-9583300D01*
X20769284Y-10843300D02*
X20789284Y-10863300D01*
X20789284Y-10843300D02*
X20769284Y-10863300D01*
X20773507Y-7467279D02*
X20793507Y-7487279D01*
X20793507Y-7467279D02*
X20773507Y-7487279D01*
X20779284Y-11838300D02*
X20799284Y-11858300D01*
X20799284Y-11838300D02*
X20779284Y-11858300D01*
X20784284Y-11498300D02*
X20804284Y-11518300D01*
X20804284Y-11498300D02*
X20784284Y-11518300D01*
X20786661Y-8922438D02*
X20806661Y-8942438D01*
X20806661Y-8922438D02*
X20786661Y-8942438D01*
X20789284Y-5658300D02*
X20809284Y-5678300D01*
X20809284Y-5658300D02*
X20789284Y-5678300D01*
X20789284Y-5918300D02*
X20809284Y-5938300D01*
X20809284Y-5918300D02*
X20789284Y-5938300D01*
X20794284Y-12028300D02*
X20814284Y-12048300D01*
X20814284Y-12028300D02*
X20794284Y-12048300D01*
X20799284Y-11273300D02*
X20819284Y-11293300D01*
X20819284Y-11273300D02*
X20799284Y-11293300D01*
X20804284Y-11063300D02*
X20824284Y-11083300D01*
X20824284Y-11063300D02*
X20804284Y-11083300D01*
X20809971Y-9013967D02*
X20829971Y-9033967D01*
X20829971Y-9013967D02*
X20809971Y-9033967D01*
X20811837Y-8347657D02*
X20831837Y-8367657D01*
X20831837Y-8347657D02*
X20811837Y-8367657D01*
X20814284Y-9478300D02*
X20834284Y-9498300D01*
X20834284Y-9478300D02*
X20814284Y-9498300D01*
X20814284Y-10693300D02*
X20834284Y-10713300D01*
X20834284Y-10693300D02*
X20814284Y-10713300D01*
X20822972Y-8166850D02*
X20842972Y-8186850D01*
X20842972Y-8166850D02*
X20822972Y-8186850D01*
X20825834Y-7936750D02*
X20845834Y-7956750D01*
X20845834Y-7936750D02*
X20825834Y-7956750D01*
X20825862Y-8122173D02*
X20845862Y-8142173D01*
X20845862Y-8122173D02*
X20825862Y-8142173D01*
X20827310Y-6985040D02*
X20847310Y-7005040D01*
X20847310Y-6985040D02*
X20827310Y-7005040D01*
X20827734Y-8255300D02*
X20847734Y-8275300D01*
X20847734Y-8255300D02*
X20827734Y-8275300D01*
X20828393Y-7055518D02*
X20848393Y-7075518D01*
X20848393Y-7055518D02*
X20828393Y-7075518D01*
X20829284Y-8923300D02*
X20849284Y-8943300D01*
X20849284Y-8923300D02*
X20829284Y-8943300D01*
X20830113Y-8521736D02*
X20850113Y-8541736D01*
X20850113Y-8521736D02*
X20830113Y-8541736D01*
X20832883Y-7216606D02*
X20852883Y-7236606D01*
X20852883Y-7216606D02*
X20832883Y-7236606D01*
X20832984Y-8441151D02*
X20852984Y-8461151D01*
X20852984Y-8441151D02*
X20832984Y-8461151D01*
X20833284Y-8035300D02*
X20853284Y-8055300D01*
X20853284Y-8035300D02*
X20833284Y-8055300D01*
X20835234Y-7768184D02*
X20855234Y-7788184D01*
X20855234Y-7768184D02*
X20835234Y-7788184D01*
X20836284Y-7867300D02*
X20856284Y-7887300D01*
X20856284Y-7867300D02*
X20836284Y-7887300D01*
X20837734Y-7559456D02*
X20857734Y-7579456D01*
X20857734Y-7559456D02*
X20837734Y-7579456D01*
X20839284Y-5218300D02*
X20859284Y-5238300D01*
X20859284Y-5218300D02*
X20839284Y-5238300D01*
X20839284Y-10109300D02*
X20859284Y-10129300D01*
X20859284Y-10109300D02*
X20839284Y-10129300D01*
X20844234Y-9576117D02*
X20864234Y-9596117D01*
X20864234Y-9576117D02*
X20844234Y-9596117D01*
X20845284Y-9703300D02*
X20865284Y-9723300D01*
X20865284Y-9703300D02*
X20845284Y-9723300D01*
X20849284Y-11448300D02*
X20869284Y-11468300D01*
X20869284Y-11448300D02*
X20849284Y-11468300D01*
X20849284Y-11828300D02*
X20869284Y-11848300D01*
X20869284Y-11828300D02*
X20849284Y-11848300D01*
X20854284Y-10898300D02*
X20874284Y-10918300D01*
X20874284Y-10898300D02*
X20854284Y-10918300D01*
X20854284Y-11113300D02*
X20874284Y-11133300D01*
X20874284Y-11113300D02*
X20854284Y-11133300D01*
X20859284Y-11333300D02*
X20879284Y-11353300D01*
X20879284Y-11333300D02*
X20859284Y-11353300D01*
X20866684Y-8578300D02*
X20886684Y-8598300D01*
X20886684Y-8578300D02*
X20866684Y-8598300D01*
X20884284Y-11773300D02*
X20904284Y-11793300D01*
X20904284Y-11773300D02*
X20884284Y-11793300D01*
X20886284Y-8337300D02*
X20906284Y-8357300D01*
X20906284Y-8337300D02*
X20886284Y-8357300D01*
X20887284Y-6242300D02*
X20907284Y-6262300D01*
X20907284Y-6242300D02*
X20887284Y-6262300D01*
X20889284Y-12363300D02*
X20909284Y-12383300D01*
X20909284Y-12363300D02*
X20889284Y-12383300D01*
X20894232Y-8185691D02*
X20914232Y-8205691D01*
X20914232Y-8185691D02*
X20894232Y-8205691D01*
X20894284Y-6288300D02*
X20914284Y-6308300D01*
X20914284Y-6288300D02*
X20894284Y-6308300D01*
X20896284Y-8257300D02*
X20916284Y-8277300D01*
X20916284Y-8257300D02*
X20896284Y-8277300D01*
X20897284Y-8419300D02*
X20917284Y-8439300D01*
X20917284Y-8419300D02*
X20897284Y-8439300D01*
X20897284Y-8508300D02*
X20917284Y-8528300D01*
X20917284Y-8508300D02*
X20897284Y-8528300D01*
X20904284Y-6988300D02*
X20924284Y-7008300D01*
X20924284Y-6988300D02*
X20904284Y-7008300D01*
X20904879Y-7652471D02*
X20924879Y-7672471D01*
X20924879Y-7652471D02*
X20904879Y-7672471D01*
X20906284Y-8134300D02*
X20926284Y-8154300D01*
X20926284Y-8134300D02*
X20906284Y-8154300D01*
X20909084Y-8027350D02*
X20929084Y-8047350D01*
X20929084Y-8027350D02*
X20909084Y-8047350D01*
X20909284Y-5508300D02*
X20929284Y-5528300D01*
X20929284Y-5508300D02*
X20909284Y-5528300D01*
X20909284Y-9003300D02*
X20929284Y-9023300D01*
X20929284Y-9003300D02*
X20909284Y-9023300D01*
X20909284Y-10953300D02*
X20929284Y-10973300D01*
X20929284Y-10953300D02*
X20909284Y-10973300D01*
X20909284Y-11168300D02*
X20929284Y-11188300D01*
X20929284Y-11168300D02*
X20909284Y-11188300D01*
X20909284Y-11383300D02*
X20929284Y-11403300D01*
X20929284Y-11383300D02*
X20909284Y-11403300D01*
X20914148Y-7749985D02*
X20934148Y-7769985D01*
X20934148Y-7749985D02*
X20914148Y-7769985D01*
X20914284Y-7220232D02*
X20934284Y-7240232D01*
X20934284Y-7220232D02*
X20914284Y-7240232D01*
X20923817Y-8919374D02*
X20943817Y-8939374D01*
X20943817Y-8919374D02*
X20923817Y-8939374D01*
X20925125Y-7560082D02*
X20945125Y-7580082D01*
X20945125Y-7560082D02*
X20925125Y-7580082D01*
X20925360Y-7928905D02*
X20945360Y-7948905D01*
X20945360Y-7928905D02*
X20925360Y-7948905D01*
X20928527Y-7861218D02*
X20948527Y-7881218D01*
X20948527Y-7861218D02*
X20928527Y-7881218D01*
X20932064Y-8172855D02*
X20952064Y-8192855D01*
X20952064Y-8172855D02*
X20932064Y-8192855D01*
X20939284Y-5658300D02*
X20959284Y-5678300D01*
X20959284Y-5658300D02*
X20939284Y-5678300D01*
X20939284Y-5918300D02*
X20959284Y-5938300D01*
X20959284Y-5918300D02*
X20939284Y-5938300D01*
X20939284Y-11458300D02*
X20959284Y-11478300D01*
X20959284Y-11458300D02*
X20939284Y-11478300D01*
X20942284Y-10135300D02*
X20962284Y-10155300D01*
X20962284Y-10135300D02*
X20942284Y-10155300D01*
X20944284Y-11823300D02*
X20964284Y-11843300D01*
X20964284Y-11823300D02*
X20944284Y-11843300D01*
X20959284Y-9553300D02*
X20979284Y-9573300D01*
X20979284Y-9553300D02*
X20959284Y-9573300D01*
X20959284Y-11003300D02*
X20979284Y-11023300D01*
X20979284Y-11003300D02*
X20959284Y-11023300D01*
X20969284Y-9488300D02*
X20989284Y-9508300D01*
X20989284Y-9488300D02*
X20969284Y-9508300D01*
X20969284Y-11228300D02*
X20989284Y-11248300D01*
X20989284Y-11228300D02*
X20969284Y-11248300D01*
X20969284Y-11693300D02*
X20989284Y-11713300D01*
X20989284Y-11693300D02*
X20969284Y-11713300D01*
X20969626Y-6988192D02*
X20989626Y-7008192D01*
X20989626Y-6988192D02*
X20969626Y-7008192D01*
X20970584Y-9013959D02*
X20990584Y-9033959D01*
X20990584Y-9013959D02*
X20970584Y-9033959D01*
X20974088Y-8339229D02*
X20994088Y-8359229D01*
X20994088Y-8339229D02*
X20974088Y-8359229D01*
X20974284Y-9153300D02*
X20994284Y-9173300D01*
X20994284Y-9153300D02*
X20974284Y-9173300D01*
X20979284Y-9428300D02*
X20999284Y-9448300D01*
X20999284Y-9428300D02*
X20979284Y-9448300D01*
X20979568Y-8272138D02*
X20999568Y-8292138D01*
X20999568Y-8272138D02*
X20979568Y-8292138D01*
X20980834Y-7385724D02*
X21000834Y-7405724D01*
X21000834Y-7385724D02*
X20980834Y-7405724D01*
X20980834Y-7648139D02*
X21000834Y-7668139D01*
X21000834Y-7648139D02*
X20980834Y-7668139D01*
X20984284Y-12363300D02*
X21004284Y-12383300D01*
X21004284Y-12363300D02*
X20984284Y-12383300D01*
X20985634Y-8424902D02*
X21005634Y-8444902D01*
X21005634Y-8424902D02*
X20985634Y-8444902D01*
X20987834Y-7463300D02*
X21007834Y-7483300D01*
X21007834Y-7463300D02*
X20987834Y-7483300D01*
X20988917Y-8126145D02*
X21008917Y-8146145D01*
X21008917Y-8126145D02*
X20988917Y-8146145D01*
X20993636Y-8193778D02*
X21013636Y-8213778D01*
X21013636Y-8193778D02*
X20993636Y-8213778D01*
X20994284Y-11873300D02*
X21014284Y-11893300D01*
X21014284Y-11873300D02*
X20994284Y-11893300D01*
X20994401Y-8033417D02*
X21014401Y-8053417D01*
X21014401Y-8033417D02*
X20994401Y-8053417D01*
X20996487Y-11510948D02*
X21016487Y-11530948D01*
X21016487Y-11510948D02*
X20996487Y-11530948D01*
X21004284Y-11953300D02*
X21024284Y-11973300D01*
X21024284Y-11953300D02*
X21004284Y-11973300D01*
X21004734Y-7946339D02*
X21024734Y-7966339D01*
X21024734Y-7946339D02*
X21004734Y-7966339D01*
X21009284Y-5848300D02*
X21029284Y-5868300D01*
X21029284Y-5848300D02*
X21009284Y-5868300D01*
X21009284Y-11643300D02*
X21029284Y-11663300D01*
X21029284Y-11643300D02*
X21009284Y-11663300D01*
X21014167Y-6903183D02*
X21034167Y-6923183D01*
X21034167Y-6903183D02*
X21014167Y-6923183D01*
X21014284Y-11058300D02*
X21034284Y-11078300D01*
X21034284Y-11058300D02*
X21014284Y-11078300D01*
X21019284Y-11278300D02*
X21039284Y-11298300D01*
X21039284Y-11278300D02*
X21019284Y-11298300D01*
X21024284Y-11748300D02*
X21044284Y-11768300D01*
X21044284Y-11748300D02*
X21024284Y-11768300D01*
X21031947Y-8520963D02*
X21051947Y-8540963D01*
X21051947Y-8520963D02*
X21031947Y-8540963D01*
X21034284Y-8913300D02*
X21054284Y-8933300D01*
X21054284Y-8913300D02*
X21034284Y-8933300D01*
X21035284Y-10361300D02*
X21055284Y-10381300D01*
X21055284Y-10361300D02*
X21035284Y-10381300D01*
X21039284Y-11568300D02*
X21059284Y-11588300D01*
X21059284Y-11568300D02*
X21039284Y-11588300D01*
X21049284Y-9473300D02*
X21069284Y-9493300D01*
X21069284Y-9473300D02*
X21049284Y-9493300D01*
X21051284Y-7541300D02*
X21071284Y-7561300D01*
X21071284Y-7541300D02*
X21051284Y-7561300D01*
X21057284Y-7857300D02*
X21077284Y-7877300D01*
X21077284Y-7857300D02*
X21057284Y-7877300D01*
X21058284Y-8257300D02*
X21078284Y-8277300D01*
X21078284Y-8257300D02*
X21058284Y-8277300D01*
X21059284Y-6188300D02*
X21079284Y-6208300D01*
X21079284Y-6188300D02*
X21059284Y-6208300D01*
X21059284Y-8028300D02*
X21079284Y-8048300D01*
X21079284Y-8028300D02*
X21059284Y-8048300D01*
X21062734Y-7787720D02*
X21082734Y-7807720D01*
X21082734Y-7787720D02*
X21062734Y-7807720D01*
X21064284Y-7698300D02*
X21084284Y-7718300D01*
X21084284Y-7698300D02*
X21064284Y-7718300D01*
X21064786Y-7914657D02*
X21084786Y-7934657D01*
X21084786Y-7914657D02*
X21064786Y-7934657D01*
X21067734Y-7395475D02*
X21087734Y-7415475D01*
X21087734Y-7395475D02*
X21067734Y-7415475D01*
X21068284Y-6275300D02*
X21088284Y-6295300D01*
X21088284Y-6275300D02*
X21068284Y-6295300D01*
X21069284Y-7958300D02*
X21089284Y-7978300D01*
X21089284Y-7958300D02*
X21069284Y-7978300D01*
X21071958Y-7451503D02*
X21091958Y-7471503D01*
X21091958Y-7451503D02*
X21071958Y-7471503D01*
X21073651Y-7626667D02*
X21093651Y-7646667D01*
X21093651Y-7626667D02*
X21073651Y-7646667D01*
X21074284Y-11118300D02*
X21094284Y-11138300D01*
X21094284Y-11118300D02*
X21074284Y-11138300D01*
X21074284Y-11798300D02*
X21094284Y-11818300D01*
X21094284Y-11798300D02*
X21074284Y-11818300D01*
X21074284Y-12418300D02*
X21094284Y-12438300D01*
X21094284Y-12418300D02*
X21074284Y-12438300D01*
X21076417Y-9111168D02*
X21096417Y-9131168D01*
X21096417Y-9111168D02*
X21076417Y-9131168D01*
X21077284Y-8198300D02*
X21097284Y-8218300D01*
X21097284Y-8198300D02*
X21077284Y-8218300D01*
X21077500Y-8356515D02*
X21097500Y-8376515D01*
X21097500Y-8356515D02*
X21077500Y-8376515D01*
X21079284Y-7149250D02*
X21099284Y-7169250D01*
X21099284Y-7149250D02*
X21079284Y-7169250D01*
X21079284Y-8423300D02*
X21099284Y-8443300D01*
X21099284Y-8423300D02*
X21079284Y-8443300D01*
X21079284Y-12023300D02*
X21099284Y-12043300D01*
X21099284Y-12023300D02*
X21079284Y-12043300D01*
X21089284Y-5348300D02*
X21109284Y-5368300D01*
X21109284Y-5348300D02*
X21089284Y-5368300D01*
X21089284Y-5658300D02*
X21109284Y-5678300D01*
X21109284Y-5658300D02*
X21089284Y-5678300D01*
X21089284Y-5918300D02*
X21109284Y-5938300D01*
X21109284Y-5918300D02*
X21089284Y-5938300D01*
X21090284Y-7555300D02*
X21110284Y-7575300D01*
X21110284Y-7555300D02*
X21090284Y-7575300D01*
X21099284Y-11568300D02*
X21119284Y-11588300D01*
X21119284Y-11568300D02*
X21099284Y-11588300D01*
X21104284Y-12138300D02*
X21124284Y-12158300D01*
X21124284Y-12138300D02*
X21104284Y-12158300D01*
X21124284Y-8553300D02*
X21144284Y-8573300D01*
X21144284Y-8553300D02*
X21124284Y-8573300D01*
X21124284Y-11168300D02*
X21144284Y-11188300D01*
X21144284Y-11168300D02*
X21124284Y-11188300D01*
X21129284Y-8834600D02*
X21149284Y-8854600D01*
X21149284Y-8834600D02*
X21129284Y-8854600D01*
X21129284Y-8992300D02*
X21149284Y-9012300D01*
X21149284Y-8992300D02*
X21129284Y-9012300D01*
X21129284Y-11853300D02*
X21149284Y-11873300D01*
X21149284Y-11853300D02*
X21129284Y-11873300D01*
X21132319Y-9459286D02*
X21152319Y-9479286D01*
X21152319Y-9459286D02*
X21132319Y-9479286D01*
X21132984Y-8723300D02*
X21152984Y-8743300D01*
X21152984Y-8723300D02*
X21132984Y-8743300D01*
X21134284Y-8181300D02*
X21154284Y-8201300D01*
X21154284Y-8181300D02*
X21134284Y-8201300D01*
X21134284Y-9503300D02*
X21154284Y-9523300D01*
X21154284Y-9503300D02*
X21134284Y-9523300D01*
X21134877Y-7944257D02*
X21154877Y-7964257D01*
X21154877Y-7944257D02*
X21134877Y-7964257D01*
X21135078Y-7711600D02*
X21155078Y-7731600D01*
X21155078Y-7711600D02*
X21135078Y-7731600D01*
X21138446Y-7778550D02*
X21158446Y-7798550D01*
X21158446Y-7778550D02*
X21138446Y-7798550D01*
X21140421Y-7863058D02*
X21160421Y-7883058D01*
X21160421Y-7863058D02*
X21140421Y-7883058D01*
X21145284Y-8083300D02*
X21165284Y-8103300D01*
X21165284Y-8083300D02*
X21145284Y-8103300D01*
X21145347Y-7427228D02*
X21165347Y-7447228D01*
X21165347Y-7427228D02*
X21145347Y-7447228D01*
X21149284Y-6383300D02*
X21169284Y-6403300D01*
X21169284Y-6383300D02*
X21149284Y-6403300D01*
X21149284Y-8128300D02*
X21169284Y-8148300D01*
X21169284Y-8128300D02*
X21149284Y-8148300D01*
X21151284Y-7229850D02*
X21171284Y-7249850D01*
X21171284Y-7229850D02*
X21151284Y-7249850D01*
X21152108Y-7296750D02*
X21172108Y-7316750D01*
X21172108Y-7296750D02*
X21152108Y-7316750D01*
X21152141Y-8027850D02*
X21172141Y-8047850D01*
X21172141Y-8027850D02*
X21152141Y-8047850D01*
X21152693Y-8280350D02*
X21172693Y-8300350D01*
X21172693Y-8280350D02*
X21152693Y-8300350D01*
X21153284Y-7385300D02*
X21173284Y-7405300D01*
X21173284Y-7385300D02*
X21153284Y-7405300D01*
X21155284Y-8355300D02*
X21175284Y-8375300D01*
X21175284Y-8355300D02*
X21155284Y-8375300D01*
X21161784Y-7640800D02*
X21181784Y-7660800D01*
X21181784Y-7640800D02*
X21161784Y-7660800D01*
X21169284Y-12068300D02*
X21189284Y-12088300D01*
X21189284Y-12068300D02*
X21169284Y-12088300D01*
X21178984Y-11202147D02*
X21198984Y-11222147D01*
X21198984Y-11202147D02*
X21178984Y-11222147D01*
X21189284Y-9318300D02*
X21209284Y-9338300D01*
X21209284Y-9318300D02*
X21189284Y-9338300D01*
X21189284Y-11638300D02*
X21209284Y-11658300D01*
X21209284Y-11638300D02*
X21189284Y-11658300D01*
X21189284Y-11913300D02*
X21209284Y-11933300D01*
X21209284Y-11913300D02*
X21189284Y-11933300D01*
X21191984Y-8925641D02*
X21211984Y-8945641D01*
X21211984Y-8925641D02*
X21191984Y-8945641D01*
X21204284Y-12413300D02*
X21224284Y-12433300D01*
X21224284Y-12413300D02*
X21204284Y-12433300D01*
X21207084Y-9008300D02*
X21227084Y-9028300D01*
X21227084Y-9008300D02*
X21207084Y-9028300D01*
X21207284Y-5918300D02*
X21227284Y-5938300D01*
X21227284Y-5918300D02*
X21207284Y-5938300D01*
X21210584Y-8341525D02*
X21230584Y-8361525D01*
X21230584Y-8341525D02*
X21210584Y-8361525D01*
X21214284Y-9437250D02*
X21234284Y-9457250D01*
X21234284Y-9437250D02*
X21214284Y-9457250D01*
X21215284Y-7373950D02*
X21235284Y-7393950D01*
X21235284Y-7373950D02*
X21215284Y-7393950D01*
X21219284Y-5498300D02*
X21239284Y-5518300D01*
X21239284Y-5498300D02*
X21219284Y-5518300D01*
X21219284Y-11478300D02*
X21239284Y-11498300D01*
X21239284Y-11478300D02*
X21219284Y-11498300D01*
X21219962Y-7780001D02*
X21239962Y-7800001D01*
X21239962Y-7780001D02*
X21219962Y-7800001D01*
X21220323Y-8600517D02*
X21240323Y-8620517D01*
X21240323Y-8600517D02*
X21220323Y-8620517D01*
X21224177Y-7911125D02*
X21244177Y-7931125D01*
X21244177Y-7911125D02*
X21224177Y-7931125D01*
X21224284Y-7415800D02*
X21244284Y-7435800D01*
X21244284Y-7415800D02*
X21224284Y-7435800D01*
X21224284Y-12128300D02*
X21244284Y-12148300D01*
X21244284Y-12128300D02*
X21224284Y-12148300D01*
X21226284Y-7607300D02*
X21246284Y-7627300D01*
X21246284Y-7607300D02*
X21226284Y-7627300D01*
X21229284Y-6398300D02*
X21249284Y-6418300D01*
X21249284Y-6398300D02*
X21229284Y-6418300D01*
X21229284Y-8103300D02*
X21249284Y-8123300D01*
X21249284Y-8103300D02*
X21229284Y-8123300D01*
X21229284Y-8433300D02*
X21249284Y-8453300D01*
X21249284Y-8433300D02*
X21229284Y-8453300D01*
X21232490Y-7650094D02*
X21252490Y-7670094D01*
X21252490Y-7650094D02*
X21232490Y-7670094D01*
X21234284Y-12238300D02*
X21254284Y-12258300D01*
X21254284Y-12238300D02*
X21234284Y-12258300D01*
X21237565Y-9318300D02*
X21257565Y-9338300D01*
X21257565Y-9318300D02*
X21237565Y-9338300D01*
X21239284Y-5658300D02*
X21259284Y-5678300D01*
X21259284Y-5658300D02*
X21239284Y-5678300D01*
X21239284Y-11263300D02*
X21259284Y-11283300D01*
X21259284Y-11263300D02*
X21239284Y-11283300D01*
X21239284Y-11963300D02*
X21259284Y-11983300D01*
X21259284Y-11963300D02*
X21239284Y-11983300D01*
X21244340Y-7865192D02*
X21264340Y-7885192D01*
X21264340Y-7865192D02*
X21244340Y-7885192D01*
X21248673Y-7549250D02*
X21268673Y-7569250D01*
X21268673Y-7549250D02*
X21248673Y-7569250D01*
X21249284Y-11698300D02*
X21269284Y-11718300D01*
X21269284Y-11698300D02*
X21249284Y-11718300D01*
X21274284Y-9483300D02*
X21294284Y-9503300D01*
X21294284Y-9483300D02*
X21274284Y-9503300D01*
X21279284Y-11308300D02*
X21299284Y-11328300D01*
X21299284Y-11308300D02*
X21279284Y-11328300D01*
X21279284Y-11538300D02*
X21299284Y-11558300D01*
X21299284Y-11538300D02*
X21279284Y-11558300D01*
X21280000Y-10567500D02*
X21300000Y-10587500D01*
X21300000Y-10567500D02*
X21280000Y-10587500D01*
X21284284Y-9006300D02*
X21304284Y-9026300D01*
X21304284Y-9006300D02*
X21284284Y-9026300D01*
X21287355Y-8512229D02*
X21307355Y-8532229D01*
X21307355Y-8512229D02*
X21287355Y-8532229D01*
X21289284Y-12008300D02*
X21309284Y-12028300D01*
X21309284Y-12008300D02*
X21289284Y-12028300D01*
X21293658Y-9405539D02*
X21313658Y-9425539D01*
X21313658Y-9405539D02*
X21293658Y-9425539D01*
X21299284Y-8338300D02*
X21319284Y-8358300D01*
X21319284Y-8338300D02*
X21299284Y-8358300D01*
X21299284Y-9343300D02*
X21319284Y-9363300D01*
X21319284Y-9343300D02*
X21299284Y-9363300D01*
X21299478Y-8047750D02*
X21319478Y-8067750D01*
X21319478Y-8047750D02*
X21299478Y-8067750D01*
X21304284Y-7637798D02*
X21324284Y-7657798D01*
X21324284Y-7637798D02*
X21304284Y-7657798D01*
X21304284Y-12393300D02*
X21324284Y-12413300D01*
X21324284Y-12393300D02*
X21304284Y-12413300D01*
X21307284Y-7478300D02*
X21327284Y-7498300D01*
X21327284Y-7478300D02*
X21307284Y-7498300D01*
X21309284Y-11758300D02*
X21329284Y-11778300D01*
X21329284Y-11758300D02*
X21309284Y-11778300D01*
X21319284Y-5508300D02*
X21339284Y-5528300D01*
X21339284Y-5508300D02*
X21319284Y-5528300D01*
X21319284Y-7233300D02*
X21339284Y-7253300D01*
X21339284Y-7233300D02*
X21319284Y-7253300D01*
X21319284Y-11348300D02*
X21339284Y-11368300D01*
X21339284Y-11348300D02*
X21319284Y-11368300D01*
X21320584Y-8933300D02*
X21340584Y-8953300D01*
X21340584Y-8933300D02*
X21320584Y-8953300D01*
X21321417Y-8190432D02*
X21341417Y-8210432D01*
X21341417Y-8190432D02*
X21321417Y-8210432D01*
X21326284Y-7866300D02*
X21346284Y-7886300D01*
X21346284Y-7866300D02*
X21326284Y-7886300D01*
X21333284Y-9641300D02*
X21353284Y-9661300D01*
X21353284Y-9641300D02*
X21333284Y-9661300D01*
X21339284Y-9152000D02*
X21359284Y-9172000D01*
X21359284Y-9152000D02*
X21339284Y-9172000D01*
X21339284Y-11598300D02*
X21359284Y-11618300D01*
X21359284Y-11598300D02*
X21339284Y-11618300D01*
X21344284Y-12068300D02*
X21364284Y-12088300D01*
X21364284Y-12068300D02*
X21344284Y-12088300D01*
X21344284Y-12328300D02*
X21364284Y-12348300D01*
X21364284Y-12328300D02*
X21344284Y-12348300D01*
X21354284Y-12148300D02*
X21374284Y-12168300D01*
X21374284Y-12148300D02*
X21354284Y-12168300D01*
X21354284Y-12253300D02*
X21374284Y-12273300D01*
X21374284Y-12253300D02*
X21354284Y-12273300D01*
X21354291Y-8483432D02*
X21374291Y-8503432D01*
X21374291Y-8483432D02*
X21354291Y-8503432D01*
X21359284Y-11408300D02*
X21379284Y-11428300D01*
X21379284Y-11408300D02*
X21359284Y-11428300D01*
X21364284Y-9078300D02*
X21384284Y-9098300D01*
X21384284Y-9078300D02*
X21364284Y-9098300D01*
X21366372Y-8933776D02*
X21386372Y-8953776D01*
X21386372Y-8933776D02*
X21366372Y-8953776D01*
X21375584Y-9493303D02*
X21395584Y-9513303D01*
X21395584Y-9493303D02*
X21375584Y-9513303D01*
X21378284Y-6348300D02*
X21398284Y-6368300D01*
X21398284Y-6348300D02*
X21378284Y-6368300D01*
X21379284Y-8338300D02*
X21399284Y-8358300D01*
X21399284Y-8338300D02*
X21379284Y-8358300D01*
X21379284Y-9132000D02*
X21399284Y-9152000D01*
X21399284Y-9132000D02*
X21379284Y-9152000D01*
X21379284Y-11818300D02*
X21399284Y-11838300D01*
X21399284Y-11818300D02*
X21379284Y-11838300D01*
X21381284Y-9392300D02*
X21401284Y-9412300D01*
X21401284Y-9392300D02*
X21381284Y-9412300D01*
X21389284Y-5658300D02*
X21409284Y-5678300D01*
X21409284Y-5658300D02*
X21389284Y-5678300D01*
X21389284Y-6168300D02*
X21409284Y-6188300D01*
X21409284Y-6168300D02*
X21389284Y-6188300D01*
X21389284Y-8148300D02*
X21409284Y-8168300D01*
X21409284Y-8148300D02*
X21389284Y-8168300D01*
X21389284Y-8409600D02*
X21409284Y-8429600D01*
X21409284Y-8409600D02*
X21389284Y-8429600D01*
X21391284Y-5937300D02*
X21411284Y-5957300D01*
X21411284Y-5937300D02*
X21391284Y-5957300D01*
X21394284Y-7872300D02*
X21414284Y-7892300D01*
X21414284Y-7872300D02*
X21394284Y-7892300D01*
X21398679Y-5235624D02*
X21418679Y-5255624D01*
X21418679Y-5235624D02*
X21398679Y-5255624D01*
X21399284Y-8222482D02*
X21419284Y-8242482D01*
X21419284Y-8222482D02*
X21399284Y-8242482D01*
X21399284Y-11658300D02*
X21419284Y-11678300D01*
X21419284Y-11658300D02*
X21399284Y-11678300D01*
X21403284Y-7501750D02*
X21423284Y-7521750D01*
X21423284Y-7501750D02*
X21403284Y-7521750D01*
X21406699Y-7635650D02*
X21426699Y-7655650D01*
X21426699Y-7635650D02*
X21406699Y-7655650D01*
X21409284Y-11488300D02*
X21429284Y-11508300D01*
X21429284Y-11488300D02*
X21409284Y-11508300D01*
X21410327Y-7776750D02*
X21430327Y-7796750D01*
X21430327Y-7776750D02*
X21410327Y-7796750D01*
X21411206Y-10734558D02*
X21431206Y-10754558D01*
X21431206Y-10734558D02*
X21411206Y-10754558D01*
X21434284Y-9078300D02*
X21454284Y-9098300D01*
X21454284Y-9078300D02*
X21434284Y-9098300D01*
X21439284Y-11878300D02*
X21459284Y-11898300D01*
X21459284Y-11878300D02*
X21439284Y-11898300D01*
X21444284Y-8913300D02*
X21464284Y-8933300D01*
X21464284Y-8913300D02*
X21444284Y-8933300D01*
X21454284Y-8953300D02*
X21474284Y-8973300D01*
X21474284Y-8953300D02*
X21454284Y-8973300D01*
X21454285Y-9478300D02*
X21474285Y-9498300D01*
X21474285Y-9478300D02*
X21454285Y-9498300D01*
X21456284Y-11277300D02*
X21476284Y-11297300D01*
X21476284Y-11277300D02*
X21456284Y-11297300D01*
X21459284Y-7646300D02*
X21479284Y-7666300D01*
X21479284Y-7646300D02*
X21459284Y-7666300D01*
X21461284Y-7770300D02*
X21481284Y-7790300D01*
X21481284Y-7770300D02*
X21461284Y-7790300D01*
X21469284Y-5498300D02*
X21489284Y-5518300D01*
X21489284Y-5498300D02*
X21469284Y-5518300D01*
X21469284Y-11548300D02*
X21489284Y-11568300D01*
X21489284Y-11548300D02*
X21469284Y-11568300D01*
X21469284Y-11718300D02*
X21489284Y-11738300D01*
X21489284Y-11718300D02*
X21469284Y-11738300D01*
X21470284Y-7515300D02*
X21490284Y-7535300D01*
X21490284Y-7515300D02*
X21470284Y-7535300D01*
X21476678Y-9080878D02*
X21496678Y-9100878D01*
X21496678Y-9080878D02*
X21476678Y-9100878D01*
X21489284Y-9704350D02*
X21509284Y-9724350D01*
X21509284Y-9704350D02*
X21489284Y-9724350D01*
X21490917Y-9566668D02*
X21510917Y-9586668D01*
X21510917Y-9566668D02*
X21490917Y-9586668D01*
X21490988Y-8846596D02*
X21510988Y-8866596D01*
X21510988Y-8846596D02*
X21490988Y-8866596D01*
X21498284Y-7225300D02*
X21518284Y-7245300D01*
X21518284Y-7225300D02*
X21498284Y-7245300D01*
X21499284Y-11938300D02*
X21519284Y-11958300D01*
X21519284Y-11938300D02*
X21499284Y-11958300D01*
X21503284Y-7164250D02*
X21523284Y-7184250D01*
X21523284Y-7164250D02*
X21503284Y-7184250D01*
X21504284Y-9303300D02*
X21524284Y-9323300D01*
X21524284Y-9303300D02*
X21504284Y-9323300D01*
X21519284Y-9408300D02*
X21539284Y-9428300D01*
X21539284Y-9408300D02*
X21519284Y-9428300D01*
X21520002Y-9882857D02*
X21540002Y-9902857D01*
X21540002Y-9882857D02*
X21520002Y-9902857D01*
X21524284Y-9003300D02*
X21544284Y-9023300D01*
X21544284Y-9003300D02*
X21524284Y-9023300D01*
X21527984Y-8933300D02*
X21547984Y-8953300D01*
X21547984Y-8933300D02*
X21527984Y-8953300D01*
X21529284Y-11608300D02*
X21549284Y-11628300D01*
X21549284Y-11608300D02*
X21529284Y-11628300D01*
X21529284Y-11778300D02*
X21549284Y-11798300D01*
X21549284Y-11778300D02*
X21529284Y-11798300D01*
X21529284Y-12188300D02*
X21549284Y-12208300D01*
X21549284Y-12188300D02*
X21529284Y-12208300D01*
X21529284Y-12288300D02*
X21549284Y-12308300D01*
X21549284Y-12288300D02*
X21529284Y-12308300D01*
X21539284Y-5658300D02*
X21559284Y-5678300D01*
X21559284Y-5658300D02*
X21539284Y-5678300D01*
X21539284Y-5929300D02*
X21559284Y-5949300D01*
X21559284Y-5929300D02*
X21539284Y-5949300D01*
X21539284Y-12088300D02*
X21559284Y-12108300D01*
X21559284Y-12088300D02*
X21539284Y-12108300D01*
X21544284Y-9559300D02*
X21564284Y-9579300D01*
X21564284Y-9559300D02*
X21544284Y-9579300D01*
X21550000Y-10347500D02*
X21570000Y-10367500D01*
X21570000Y-10347500D02*
X21550000Y-10367500D01*
X21559284Y-11998300D02*
X21579284Y-12018300D01*
X21579284Y-11998300D02*
X21559284Y-12018300D01*
X21570000Y-10547500D02*
X21590000Y-10567500D01*
X21590000Y-10547500D02*
X21570000Y-10567500D01*
X21571284Y-6054300D02*
X21591284Y-6074300D01*
X21591284Y-6054300D02*
X21571284Y-6074300D01*
X21579284Y-12368300D02*
X21599284Y-12388300D01*
X21599284Y-12368300D02*
X21579284Y-12388300D01*
X21579588Y-8838182D02*
X21599588Y-8858182D01*
X21599588Y-8838182D02*
X21579588Y-8858182D01*
X21589284Y-11453300D02*
X21609284Y-11473300D01*
X21609284Y-11453300D02*
X21589284Y-11473300D01*
X21589284Y-11838300D02*
X21609284Y-11858300D01*
X21609284Y-11838300D02*
X21589284Y-11858300D01*
X21599284Y-11668300D02*
X21619284Y-11688300D01*
X21619284Y-11668300D02*
X21599284Y-11688300D01*
X21604284Y-9398300D02*
X21624284Y-9418300D01*
X21624284Y-9398300D02*
X21604284Y-9418300D01*
X21630584Y-8926505D02*
X21650584Y-8946505D01*
X21650584Y-8926505D02*
X21630584Y-8946505D01*
X21642789Y-11552216D02*
X21662789Y-11572216D01*
X21662789Y-11552216D02*
X21642789Y-11572216D01*
X21647284Y-5792300D02*
X21667284Y-5812300D01*
X21667284Y-5792300D02*
X21647284Y-5812300D01*
X21649284Y-6118300D02*
X21669284Y-6138300D01*
X21669284Y-6118300D02*
X21649284Y-6138300D01*
X21649284Y-9128300D02*
X21669284Y-9148300D01*
X21669284Y-9128300D02*
X21649284Y-9148300D01*
X21649284Y-9323300D02*
X21669284Y-9343300D01*
X21669284Y-9323300D02*
X21649284Y-9343300D01*
X21649284Y-11405300D02*
X21669284Y-11425300D01*
X21669284Y-11405300D02*
X21649284Y-11425300D01*
X21649284Y-11898300D02*
X21669284Y-11918300D01*
X21669284Y-11898300D02*
X21649284Y-11918300D01*
X21650284Y-9563300D02*
X21670284Y-9583300D01*
X21670284Y-9563300D02*
X21650284Y-9583300D01*
X21659284Y-11728300D02*
X21679284Y-11748300D01*
X21679284Y-11728300D02*
X21659284Y-11748300D01*
X21685284Y-8897300D02*
X21705284Y-8917300D01*
X21705284Y-8897300D02*
X21685284Y-8917300D01*
X21689284Y-8403300D02*
X21709284Y-8423300D01*
X21709284Y-8403300D02*
X21689284Y-8423300D01*
X21689284Y-8828300D02*
X21709284Y-8848300D01*
X21709284Y-8828300D02*
X21689284Y-8848300D01*
X21689284Y-9013300D02*
X21709284Y-9033300D01*
X21709284Y-9013300D02*
X21689284Y-9033300D01*
X21689284Y-12363300D02*
X21709284Y-12383300D01*
X21709284Y-12363300D02*
X21689284Y-12383300D01*
X21690484Y-8784070D02*
X21710484Y-8804070D01*
X21710484Y-8784070D02*
X21690484Y-8804070D01*
X21691284Y-8939300D02*
X21711284Y-8959300D01*
X21711284Y-8939300D02*
X21691284Y-8959300D01*
X21694284Y-6228300D02*
X21714284Y-6248300D01*
X21714284Y-6228300D02*
X21694284Y-6248300D01*
X21699284Y-11968300D02*
X21719284Y-11988300D01*
X21719284Y-11968300D02*
X21699284Y-11988300D01*
X21702548Y-5379019D02*
X21722548Y-5399019D01*
X21722548Y-5379019D02*
X21702548Y-5399019D01*
X21704284Y-6888300D02*
X21724284Y-6908300D01*
X21724284Y-6888300D02*
X21704284Y-6908300D01*
X21704284Y-6993300D02*
X21724284Y-7013300D01*
X21724284Y-6993300D02*
X21704284Y-7013300D01*
X21709284Y-6933300D02*
X21729284Y-6953300D01*
X21729284Y-6933300D02*
X21709284Y-6953300D01*
X21714401Y-9123236D02*
X21734401Y-9143236D01*
X21734401Y-9123236D02*
X21714401Y-9143236D01*
X21715284Y-6812300D02*
X21735284Y-6832300D01*
X21735284Y-6812300D02*
X21715284Y-6832300D01*
X21718334Y-7178300D02*
X21738334Y-7198300D01*
X21738334Y-7178300D02*
X21718334Y-7198300D01*
X21719284Y-7108300D02*
X21739284Y-7128300D01*
X21739284Y-7108300D02*
X21719284Y-7128300D01*
X21719284Y-7248300D02*
X21739284Y-7268300D01*
X21739284Y-7248300D02*
X21719284Y-7268300D01*
X21719284Y-11788300D02*
X21739284Y-11808300D01*
X21739284Y-11788300D02*
X21719284Y-11808300D01*
X21719284Y-12058300D02*
X21739284Y-12078300D01*
X21739284Y-12058300D02*
X21719284Y-12078300D01*
X21719284Y-12138300D02*
X21739284Y-12158300D01*
X21739284Y-12138300D02*
X21719284Y-12158300D01*
X21734284Y-7033300D02*
X21754284Y-7053300D01*
X21754284Y-7033300D02*
X21734284Y-7053300D01*
X21734284Y-7378300D02*
X21754284Y-7398300D01*
X21754284Y-7378300D02*
X21734284Y-7398300D01*
X21757284Y-9552300D02*
X21777284Y-9572300D01*
X21777284Y-9552300D02*
X21757284Y-9572300D01*
X21759284Y-9413300D02*
X21779284Y-9433300D01*
X21779284Y-9413300D02*
X21759284Y-9433300D01*
X21762008Y-9324274D02*
X21782008Y-9344274D01*
X21782008Y-9324274D02*
X21762008Y-9344274D01*
X21764284Y-12363300D02*
X21784284Y-12383300D01*
X21784284Y-12363300D02*
X21764284Y-12383300D01*
X21771671Y-7065687D02*
X21791671Y-7085687D01*
X21791671Y-7065687D02*
X21771671Y-7085687D01*
X21779284Y-11848300D02*
X21799284Y-11868300D01*
X21799284Y-11848300D02*
X21779284Y-11868300D01*
X21781284Y-9852250D02*
X21801284Y-9872250D01*
X21801284Y-9852250D02*
X21781284Y-9872250D01*
X21784284Y-10062300D02*
X21804284Y-10082300D01*
X21804284Y-10062300D02*
X21784284Y-10082300D01*
X21784864Y-6744850D02*
X21804864Y-6764850D01*
X21804864Y-6744850D02*
X21784864Y-6764850D01*
X21787284Y-9944300D02*
X21807284Y-9964300D01*
X21807284Y-9944300D02*
X21787284Y-9964300D01*
X21794284Y-8998300D02*
X21814284Y-9018300D01*
X21814284Y-8998300D02*
X21794284Y-9018300D01*
X21796284Y-9221300D02*
X21816284Y-9241300D01*
X21816284Y-9221300D02*
X21796284Y-9241300D01*
X21797284Y-5334300D02*
X21817284Y-5354300D01*
X21817284Y-5334300D02*
X21797284Y-5354300D01*
X21801784Y-9310800D02*
X21821784Y-9330800D01*
X21821784Y-9310800D02*
X21801784Y-9330800D01*
X21811284Y-6383300D02*
X21831284Y-6403300D01*
X21831284Y-6383300D02*
X21811284Y-6403300D01*
X21814284Y-8833300D02*
X21834284Y-8853300D01*
X21834284Y-8833300D02*
X21814284Y-8853300D01*
X21815284Y-6319300D02*
X21835284Y-6339300D01*
X21835284Y-6319300D02*
X21815284Y-6339300D01*
X21819284Y-9698300D02*
X21839284Y-9718300D01*
X21839284Y-9698300D02*
X21819284Y-9718300D01*
X21824284Y-7509300D02*
X21844284Y-7529300D01*
X21844284Y-7509300D02*
X21824284Y-7529300D01*
X21833356Y-11378220D02*
X21853356Y-11398220D01*
X21853356Y-11378220D02*
X21833356Y-11398220D01*
X21839284Y-9413300D02*
X21859284Y-9433300D01*
X21859284Y-9413300D02*
X21839284Y-9433300D01*
X21849284Y-11918300D02*
X21869284Y-11938300D01*
X21869284Y-11918300D02*
X21849284Y-11938300D01*
X21856284Y-9475300D02*
X21876284Y-9495300D01*
X21876284Y-9475300D02*
X21856284Y-9495300D01*
X21859284Y-7703300D02*
X21879284Y-7723300D01*
X21879284Y-7703300D02*
X21859284Y-7723300D01*
X21869284Y-12008300D02*
X21889284Y-12028300D01*
X21889284Y-12008300D02*
X21869284Y-12028300D01*
X21874284Y-12368300D02*
X21894284Y-12388300D01*
X21894284Y-12368300D02*
X21874284Y-12388300D01*
X21879284Y-12118300D02*
X21899284Y-12138300D01*
X21899284Y-12118300D02*
X21879284Y-12138300D01*
X21897284Y-9704350D02*
X21917284Y-9724350D01*
X21917284Y-9704350D02*
X21897284Y-9724350D01*
X21899284Y-11288300D02*
X21919284Y-11308300D01*
X21919284Y-11288300D02*
X21899284Y-11308300D01*
X21900142Y-7269158D02*
X21920142Y-7289158D01*
X21920142Y-7269158D02*
X21900142Y-7289158D01*
X21909284Y-12238300D02*
X21929284Y-12258300D01*
X21929284Y-12238300D02*
X21909284Y-12258300D01*
X21919284Y-9323300D02*
X21939284Y-9343300D01*
X21939284Y-9323300D02*
X21919284Y-9343300D01*
X21924284Y-5553300D02*
X21944284Y-5573300D01*
X21944284Y-5553300D02*
X21924284Y-5573300D01*
X21928426Y-7297442D02*
X21948426Y-7317442D01*
X21948426Y-7297442D02*
X21928426Y-7317442D01*
X21942284Y-7091300D02*
X21962284Y-7111300D01*
X21962284Y-7091300D02*
X21942284Y-7111300D01*
X21944284Y-6313300D02*
X21964284Y-6333300D01*
X21964284Y-6313300D02*
X21944284Y-6333300D01*
X21949284Y-6188300D02*
X21969284Y-6208300D01*
X21969284Y-6188300D02*
X21949284Y-6208300D01*
X21956946Y-7049880D02*
X21976946Y-7069880D01*
X21976946Y-7049880D02*
X21956946Y-7069880D01*
X21966000Y-7335016D02*
X21986000Y-7355016D01*
X21986000Y-7335016D02*
X21966000Y-7355016D01*
X21994284Y-7363300D02*
X22014284Y-7383300D01*
X22014284Y-7363300D02*
X21994284Y-7383300D01*
X22019284Y-6248300D02*
X22039284Y-6268300D01*
X22039284Y-6248300D02*
X22019284Y-6268300D01*
X22037284Y-5263300D02*
X22057284Y-5283300D01*
X22057284Y-5263300D02*
X22037284Y-5283300D01*
X22044284Y-6710300D02*
X22064284Y-6730300D01*
X22064284Y-6710300D02*
X22044284Y-6730300D01*
X22049284Y-5558300D02*
X22069284Y-5578300D01*
X22069284Y-5558300D02*
X22049284Y-5578300D01*
X22049284Y-8883300D02*
X22069284Y-8903300D01*
X22069284Y-8883300D02*
X22049284Y-8903300D01*
X22054284Y-7768300D02*
X22074284Y-7788300D01*
X22074284Y-7768300D02*
X22054284Y-7788300D01*
X22054284Y-8653300D02*
X22074284Y-8673300D01*
X22074284Y-8653300D02*
X22054284Y-8673300D01*
X22064284Y-7173300D02*
X22084284Y-7193300D01*
X22084284Y-7173300D02*
X22064284Y-7193300D01*
X22067284Y-7646300D02*
X22087284Y-7666300D01*
X22087284Y-7646300D02*
X22067284Y-7666300D01*
X22076000Y-8783032D02*
X22096000Y-8803032D01*
X22096000Y-8783032D02*
X22076000Y-8803032D01*
X22077642Y-7341658D02*
X22097642Y-7361658D01*
X22097642Y-7341658D02*
X22077642Y-7361658D01*
X22080284Y-6235300D02*
X22100284Y-6255300D01*
X22100284Y-6235300D02*
X22080284Y-6255300D01*
X22084284Y-9533300D02*
X22104284Y-9553300D01*
X22104284Y-9533300D02*
X22084284Y-9553300D01*
X22084734Y-6915825D02*
X22104734Y-6935825D01*
X22104734Y-6915825D02*
X22084734Y-6935825D01*
X22085834Y-6959300D02*
X22105834Y-6979300D01*
X22105834Y-6959300D02*
X22085834Y-6979300D01*
X22094284Y-7143300D02*
X22114284Y-7163300D01*
X22114284Y-7143300D02*
X22094284Y-7163300D01*
X22094284Y-8653300D02*
X22114284Y-8673300D01*
X22114284Y-8653300D02*
X22094284Y-8673300D01*
X22099284Y-7018300D02*
X22119284Y-7038300D01*
X22119284Y-7018300D02*
X22099284Y-7038300D01*
X22105926Y-7369942D02*
X22125926Y-7389942D01*
X22125926Y-7369942D02*
X22105926Y-7389942D01*
X22112284Y-8582300D02*
X22132284Y-8602300D01*
X22132284Y-8582300D02*
X22112284Y-8602300D01*
X22113284Y-9092300D02*
X22133284Y-9112300D01*
X22133284Y-9092300D02*
X22113284Y-9112300D01*
X22114665Y-9239657D02*
X22134665Y-9259657D01*
X22134665Y-9239657D02*
X22114665Y-9259657D01*
X22120000Y-7927500D02*
X22140000Y-7947500D01*
X22140000Y-7927500D02*
X22120000Y-7947500D01*
X22129284Y-7512300D02*
X22149284Y-7532300D01*
X22149284Y-7512300D02*
X22129284Y-7532300D01*
X22129284Y-7673300D02*
X22149284Y-7693300D01*
X22149284Y-7673300D02*
X22129284Y-7693300D01*
X22129284Y-7748300D02*
X22149284Y-7768300D01*
X22149284Y-7748300D02*
X22129284Y-7768300D01*
X22134284Y-7088300D02*
X22154284Y-7108300D01*
X22154284Y-7088300D02*
X22134284Y-7108300D01*
X22134919Y-9382352D02*
X22154919Y-9402352D01*
X22154919Y-9382352D02*
X22134919Y-9402352D01*
X22139284Y-6228300D02*
X22159284Y-6248300D01*
X22159284Y-6228300D02*
X22139284Y-6248300D01*
X22144284Y-6303300D02*
X22164284Y-6323300D01*
X22164284Y-6303300D02*
X22144284Y-6323300D01*
X22144284Y-6848300D02*
X22164284Y-6868300D01*
X22164284Y-6848300D02*
X22144284Y-6868300D01*
X22144284Y-6948300D02*
X22164284Y-6968300D01*
X22164284Y-6948300D02*
X22144284Y-6968300D01*
X22145284Y-6775300D02*
X22165284Y-6795300D01*
X22165284Y-6775300D02*
X22145284Y-6795300D01*
X22149284Y-6178300D02*
X22169284Y-6198300D01*
X22169284Y-6178300D02*
X22149284Y-6198300D01*
X22149284Y-6388300D02*
X22169284Y-6408300D01*
X22169284Y-6388300D02*
X22149284Y-6408300D01*
X22149284Y-6473300D02*
X22169284Y-6493300D01*
X22169284Y-6473300D02*
X22149284Y-6493300D01*
X22149284Y-6628300D02*
X22169284Y-6648300D01*
X22169284Y-6628300D02*
X22149284Y-6648300D01*
X22149284Y-6703300D02*
X22169284Y-6723300D01*
X22169284Y-6703300D02*
X22149284Y-6723300D01*
X22149284Y-7023300D02*
X22169284Y-7043300D01*
X22169284Y-7023300D02*
X22149284Y-7043300D01*
X22149284Y-7968300D02*
X22169284Y-7988300D01*
X22169284Y-7968300D02*
X22149284Y-7988300D01*
X22149284Y-8018300D02*
X22169284Y-8038300D01*
X22169284Y-8018300D02*
X22149284Y-8038300D01*
X22152284Y-8582300D02*
X22172284Y-8602300D01*
X22172284Y-8582300D02*
X22152284Y-8602300D01*
X22159284Y-11268300D02*
X22179284Y-11288300D01*
X22179284Y-11268300D02*
X22159284Y-11288300D01*
X22164284Y-6553300D02*
X22184284Y-6573300D01*
X22184284Y-6553300D02*
X22164284Y-6573300D01*
X22183284Y-12241300D02*
X22203284Y-12261300D01*
X22203284Y-12241300D02*
X22183284Y-12261300D01*
X22202284Y-10359300D02*
X22222284Y-10379300D01*
X22222284Y-10359300D02*
X22202284Y-10379300D01*
X22203165Y-10518300D02*
X22223165Y-10538300D01*
X22223165Y-10518300D02*
X22203165Y-10538300D01*
X22203165Y-10598300D02*
X22223165Y-10618300D01*
X22223165Y-10598300D02*
X22203165Y-10618300D01*
X22208284Y-10441300D02*
X22228284Y-10461300D01*
X22228284Y-10441300D02*
X22208284Y-10461300D01*
X22209284Y-10908300D02*
X22229284Y-10928300D01*
X22229284Y-10908300D02*
X22209284Y-10928300D01*
X22209284Y-10988300D02*
X22229284Y-11008300D01*
X22229284Y-10988300D02*
X22209284Y-11008300D01*
X22209284Y-11068300D02*
X22229284Y-11088300D01*
X22229284Y-11068300D02*
X22209284Y-11088300D01*
X22224284Y-9488300D02*
X22244284Y-9508300D01*
X22244284Y-9488300D02*
X22224284Y-9508300D01*
X22259284Y-6068300D02*
X22279284Y-6088300D01*
X22279284Y-6068300D02*
X22259284Y-6088300D01*
X22282691Y-10437928D02*
X22302691Y-10457928D01*
X22302691Y-10437928D02*
X22282691Y-10457928D01*
X22283165Y-10358300D02*
X22303165Y-10378300D01*
X22303165Y-10358300D02*
X22283165Y-10378300D01*
X22283165Y-10518300D02*
X22303165Y-10538300D01*
X22303165Y-10518300D02*
X22283165Y-10538300D01*
X22283165Y-10598300D02*
X22303165Y-10618300D01*
X22303165Y-10598300D02*
X22283165Y-10618300D01*
X22283165Y-10678300D02*
X22303165Y-10698300D01*
X22303165Y-10678300D02*
X22283165Y-10698300D01*
X22283165Y-10758300D02*
X22303165Y-10778300D01*
X22303165Y-10758300D02*
X22283165Y-10778300D01*
X22283165Y-10838300D02*
X22303165Y-10858300D01*
X22303165Y-10838300D02*
X22283165Y-10858300D01*
X22283165Y-10918300D02*
X22303165Y-10938300D01*
X22303165Y-10918300D02*
X22283165Y-10938300D01*
X22283165Y-10998300D02*
X22303165Y-11018300D01*
X22303165Y-10998300D02*
X22283165Y-11018300D01*
X22283165Y-11078300D02*
X22303165Y-11098300D01*
X22303165Y-11078300D02*
X22283165Y-11098300D01*
X22329284Y-5853300D02*
X22349284Y-5873300D01*
X22349284Y-5853300D02*
X22329284Y-5873300D01*
X22335284Y-9431300D02*
X22355284Y-9451300D01*
X22355284Y-9431300D02*
X22335284Y-9451300D01*
X22339284Y-5648300D02*
X22359284Y-5668300D01*
X22359284Y-5648300D02*
X22339284Y-5668300D01*
X22363165Y-10278300D02*
X22383165Y-10298300D01*
X22383165Y-10278300D02*
X22363165Y-10298300D01*
X22363165Y-10438300D02*
X22383165Y-10458300D01*
X22383165Y-10438300D02*
X22363165Y-10458300D01*
X22363165Y-10598300D02*
X22383165Y-10618300D01*
X22383165Y-10598300D02*
X22363165Y-10618300D01*
X22363165Y-10838300D02*
X22383165Y-10858300D01*
X22383165Y-10838300D02*
X22363165Y-10858300D01*
X22363165Y-10998300D02*
X22383165Y-11018300D01*
X22383165Y-10998300D02*
X22363165Y-11018300D01*
X22363165Y-10358300D02*
X22383165Y-10378300D01*
X22383165Y-10358300D02*
X22363165Y-10378300D01*
X22363165Y-10518300D02*
X22383165Y-10538300D01*
X22383165Y-10518300D02*
X22363165Y-10538300D01*
X22363165Y-10678300D02*
X22383165Y-10698300D01*
X22383165Y-10678300D02*
X22363165Y-10698300D01*
X22363165Y-10758300D02*
X22383165Y-10778300D01*
X22383165Y-10758300D02*
X22363165Y-10778300D01*
X22363165Y-10918300D02*
X22383165Y-10938300D01*
X22383165Y-10918300D02*
X22363165Y-10938300D01*
X22363165Y-11078300D02*
X22383165Y-11098300D01*
X22383165Y-11078300D02*
X22363165Y-11098300D01*
X22363165Y-11158300D02*
X22383165Y-11178300D01*
X22383165Y-11158300D02*
X22363165Y-11178300D01*
X22369284Y-11278300D02*
X22389284Y-11298300D01*
X22389284Y-11278300D02*
X22369284Y-11298300D01*
X22372284Y-12548300D02*
X22392284Y-12568300D01*
X22392284Y-12548300D02*
X22372284Y-12568300D01*
X22395284Y-9599300D02*
X22415284Y-9619300D01*
X22415284Y-9599300D02*
X22395284Y-9619300D01*
X22403284Y-12202300D02*
X22423284Y-12222300D01*
X22423284Y-12202300D02*
X22403284Y-12222300D01*
X22404284Y-9808300D02*
X22424284Y-9828300D01*
X22424284Y-9808300D02*
X22404284Y-9828300D01*
X22409284Y-5263300D02*
X22429284Y-5283300D01*
X22429284Y-5263300D02*
X22409284Y-5283300D01*
X22433165Y-10998300D02*
X22453165Y-11018300D01*
X22453165Y-10998300D02*
X22433165Y-11018300D01*
X22443165Y-10278300D02*
X22463165Y-10298300D01*
X22463165Y-10278300D02*
X22443165Y-10298300D01*
X22443165Y-10358300D02*
X22463165Y-10378300D01*
X22463165Y-10358300D02*
X22443165Y-10378300D01*
X22443165Y-10438300D02*
X22463165Y-10458300D01*
X22463165Y-10438300D02*
X22443165Y-10458300D01*
X22443165Y-10518300D02*
X22463165Y-10538300D01*
X22463165Y-10518300D02*
X22443165Y-10538300D01*
X22443165Y-10598300D02*
X22463165Y-10618300D01*
X22463165Y-10598300D02*
X22443165Y-10618300D01*
X22443165Y-10678300D02*
X22463165Y-10698300D01*
X22463165Y-10678300D02*
X22443165Y-10698300D01*
X22443165Y-10758300D02*
X22463165Y-10778300D01*
X22463165Y-10758300D02*
X22443165Y-10778300D01*
X22443165Y-10838300D02*
X22463165Y-10858300D01*
X22463165Y-10838300D02*
X22443165Y-10858300D01*
X22443165Y-10918300D02*
X22463165Y-10938300D01*
X22463165Y-10918300D02*
X22443165Y-10938300D01*
X22443165Y-11078300D02*
X22463165Y-11098300D01*
X22463165Y-11078300D02*
X22443165Y-11098300D01*
X22443165Y-11158300D02*
X22463165Y-11178300D01*
X22463165Y-11158300D02*
X22443165Y-11178300D01*
X22444284Y-5743300D02*
X22464284Y-5763300D01*
X22464284Y-5743300D02*
X22444284Y-5763300D01*
X22444284Y-6359300D02*
X22464284Y-6379300D01*
X22464284Y-6359300D02*
X22444284Y-6379300D01*
X22464284Y-7508300D02*
X22484284Y-7528300D01*
X22484284Y-7508300D02*
X22464284Y-7528300D01*
X22465284Y-11712300D02*
X22485284Y-11732300D01*
X22485284Y-11712300D02*
X22465284Y-11732300D01*
X22477284Y-7790300D02*
X22497284Y-7810300D01*
X22497284Y-7790300D02*
X22477284Y-7810300D01*
X22506284Y-8691300D02*
X22526284Y-8711300D01*
X22526284Y-8691300D02*
X22506284Y-8711300D01*
X22510000Y-8037500D02*
X22530000Y-8057500D01*
X22530000Y-8037500D02*
X22510000Y-8057500D01*
X22510000Y-8397500D02*
X22530000Y-8417500D01*
X22530000Y-8397500D02*
X22510000Y-8417500D01*
X22513284Y-6133300D02*
X22533284Y-6153300D01*
X22533284Y-6133300D02*
X22513284Y-6153300D01*
X22513284Y-8462300D02*
X22533284Y-8482300D01*
X22533284Y-8462300D02*
X22513284Y-8482300D01*
X22519284Y-7653300D02*
X22539284Y-7673300D01*
X22539284Y-7653300D02*
X22519284Y-7673300D01*
X22522770Y-10357559D02*
X22542770Y-10377559D01*
X22542770Y-10357559D02*
X22522770Y-10377559D01*
X22522770Y-10437559D02*
X22542770Y-10457559D01*
X22542770Y-10437559D02*
X22522770Y-10457559D01*
X22522770Y-10517559D02*
X22542770Y-10537559D01*
X22542770Y-10517559D02*
X22522770Y-10537559D01*
X22523165Y-10598300D02*
X22543165Y-10618300D01*
X22543165Y-10598300D02*
X22523165Y-10618300D01*
X22523165Y-10678300D02*
X22543165Y-10698300D01*
X22543165Y-10678300D02*
X22523165Y-10698300D01*
X22523165Y-10758300D02*
X22543165Y-10778300D01*
X22543165Y-10758300D02*
X22523165Y-10778300D01*
X22523165Y-10838300D02*
X22543165Y-10858300D01*
X22543165Y-10838300D02*
X22523165Y-10858300D01*
X22523165Y-10918300D02*
X22543165Y-10938300D01*
X22543165Y-10918300D02*
X22523165Y-10938300D01*
X22523165Y-11078300D02*
X22543165Y-11098300D01*
X22543165Y-11078300D02*
X22523165Y-11098300D01*
X22524935Y-10997679D02*
X22544935Y-11017679D01*
X22544935Y-10997679D02*
X22524935Y-11017679D01*
X22548284Y-8679300D02*
X22568284Y-8699300D01*
X22568284Y-8679300D02*
X22548284Y-8699300D01*
X22552703Y-8439250D02*
X22572703Y-8459250D01*
X22572703Y-8439250D02*
X22552703Y-8459250D01*
X22559284Y-11258300D02*
X22579284Y-11278300D01*
X22579284Y-11258300D02*
X22559284Y-11278300D01*
X22599284Y-7078300D02*
X22619284Y-7098300D01*
X22619284Y-7078300D02*
X22599284Y-7098300D01*
X22603165Y-10758300D02*
X22623165Y-10778300D01*
X22623165Y-10758300D02*
X22603165Y-10778300D01*
X22603165Y-10838300D02*
X22623165Y-10858300D01*
X22623165Y-10838300D02*
X22603165Y-10858300D01*
X22603165Y-10918300D02*
X22623165Y-10938300D01*
X22623165Y-10918300D02*
X22603165Y-10938300D01*
X22604429Y-8417603D02*
X22624429Y-8437603D01*
X22624429Y-8417603D02*
X22604429Y-8437603D01*
X22609284Y-8838300D02*
X22629284Y-8858300D01*
X22629284Y-8838300D02*
X22609284Y-8858300D01*
X22614284Y-8683300D02*
X22634284Y-8703300D01*
X22634284Y-8683300D02*
X22614284Y-8703300D01*
X22629284Y-7798300D02*
X22649284Y-7818300D01*
X22649284Y-7798300D02*
X22629284Y-7818300D01*
X22632284Y-9057300D02*
X22652284Y-9077300D01*
X22652284Y-9057300D02*
X22632284Y-9077300D01*
X22635284Y-9182300D02*
X22655284Y-9202300D01*
X22655284Y-9182300D02*
X22635284Y-9202300D01*
X22642247Y-8320300D02*
X22662247Y-8340300D01*
X22662247Y-8320300D02*
X22642247Y-8340300D01*
X22642247Y-8360300D02*
X22662247Y-8380300D01*
X22662247Y-8360300D02*
X22642247Y-8380300D01*
X22656565Y-5920409D02*
X22676565Y-5940409D01*
X22676565Y-5920409D02*
X22656565Y-5940409D01*
X22666284Y-6214300D02*
X22686284Y-6234300D01*
X22686284Y-6214300D02*
X22666284Y-6234300D01*
X22669276Y-7132960D02*
X22689276Y-7152960D01*
X22689276Y-7132960D02*
X22669276Y-7152960D01*
X22674284Y-8538300D02*
X22694284Y-8558300D01*
X22694284Y-8538300D02*
X22674284Y-8558300D01*
X22679284Y-8199350D02*
X22699284Y-8219350D01*
X22699284Y-8199350D02*
X22679284Y-8219350D01*
X22684284Y-8963300D02*
X22704284Y-8983300D01*
X22704284Y-8963300D02*
X22684284Y-8983300D01*
X22694284Y-7098300D02*
X22714284Y-7118300D01*
X22714284Y-7098300D02*
X22694284Y-7118300D01*
X22699284Y-6388300D02*
X22719284Y-6408300D01*
X22719284Y-6388300D02*
X22699284Y-6408300D01*
X22703284Y-8360300D02*
X22723284Y-8380300D01*
X22723284Y-8360300D02*
X22703284Y-8380300D01*
X22704284Y-6548300D02*
X22724284Y-6568300D01*
X22724284Y-6548300D02*
X22704284Y-6568300D01*
X22704284Y-7283300D02*
X22724284Y-7303300D01*
X22724284Y-7283300D02*
X22704284Y-7303300D01*
X22704284Y-7323300D02*
X22724284Y-7343300D01*
X22724284Y-7323300D02*
X22704284Y-7343300D01*
X22704828Y-8314844D02*
X22724828Y-8334844D01*
X22724828Y-8314844D02*
X22704828Y-8334844D01*
X22709284Y-6468300D02*
X22729284Y-6488300D01*
X22729284Y-6468300D02*
X22709284Y-6488300D01*
X22709284Y-7628300D02*
X22729284Y-7648300D01*
X22729284Y-7628300D02*
X22709284Y-7648300D01*
X22709284Y-8663300D02*
X22729284Y-8683300D01*
X22729284Y-8663300D02*
X22709284Y-8683300D01*
X22709284Y-8703300D02*
X22729284Y-8723300D01*
X22729284Y-8703300D02*
X22709284Y-8723300D01*
X22709284Y-6913300D02*
X22729284Y-6933300D01*
X22729284Y-6913300D02*
X22709284Y-6933300D01*
X22712284Y-7670300D02*
X22732284Y-7690300D01*
X22732284Y-7670300D02*
X22712284Y-7690300D01*
X22714284Y-6628300D02*
X22734284Y-6648300D01*
X22734284Y-6628300D02*
X22714284Y-6648300D01*
X22714284Y-6708300D02*
X22734284Y-6728300D01*
X22734284Y-6708300D02*
X22714284Y-6728300D01*
X22714284Y-7448300D02*
X22734284Y-7468300D01*
X22734284Y-7448300D02*
X22714284Y-7468300D01*
X22714284Y-7488300D02*
X22734284Y-7508300D01*
X22734284Y-7488300D02*
X22714284Y-7508300D01*
X22720379Y-8046446D02*
X22740379Y-8066446D01*
X22740379Y-8046446D02*
X22720379Y-8066446D01*
X22720963Y-8004577D02*
X22740963Y-8024577D01*
X22740963Y-8004577D02*
X22720963Y-8024577D01*
X22721284Y-8786300D02*
X22741284Y-8806300D01*
X22741284Y-8786300D02*
X22721284Y-8806300D01*
X22723284Y-8471300D02*
X22743284Y-8491300D01*
X22743284Y-8471300D02*
X22723284Y-8491300D01*
X22723284Y-8524300D02*
X22743284Y-8544300D01*
X22743284Y-8524300D02*
X22723284Y-8544300D01*
X22724284Y-6308300D02*
X22744284Y-6328300D01*
X22744284Y-6308300D02*
X22724284Y-6328300D01*
X22724284Y-6788300D02*
X22744284Y-6808300D01*
X22744284Y-6788300D02*
X22724284Y-6808300D01*
X22724284Y-8198300D02*
X22744284Y-8218300D01*
X22744284Y-8198300D02*
X22724284Y-8218300D01*
X22727284Y-6071300D02*
X22747284Y-6091300D01*
X22747284Y-6071300D02*
X22727284Y-6091300D01*
X22729284Y-7758300D02*
X22749284Y-7778300D01*
X22749284Y-7758300D02*
X22729284Y-7778300D01*
X22734284Y-6953300D02*
X22754284Y-6973300D01*
X22754284Y-6953300D02*
X22734284Y-6973300D01*
X22739284Y-7808300D02*
X22759284Y-7828300D01*
X22759284Y-7808300D02*
X22739284Y-7828300D01*
X22867957Y-9625969D02*
X22887957Y-9645969D01*
X22887957Y-9625969D02*
X22867957Y-9645969D01*
X22909284Y-12018300D02*
X22929284Y-12038300D01*
X22929284Y-12018300D02*
X22909284Y-12038300D01*
X22924284Y-6048300D02*
X22944284Y-6068300D01*
X22944284Y-6048300D02*
X22924284Y-6068300D01*
X23014284Y-8789300D02*
X23034284Y-8809300D01*
X23034284Y-8789300D02*
X23014284Y-8809300D01*
X23035284Y-9336300D02*
X23055284Y-9356300D01*
X23055284Y-9336300D02*
X23035284Y-9356300D01*
D13*
X18474284Y-8798300D02*
G75*
G03*
X18474284Y-8798300I-15000J0D01*
G01*
X18474284Y-8878300D02*
G75*
G03*
X18474284Y-8878300I-15000J0D01*
G01*
X18474284Y-8958300D02*
G75*
G03*
X18474284Y-8958300I-15000J0D01*
G01*
X18474284Y-9038300D02*
G75*
G03*
X18474284Y-9038300I-15000J0D01*
G01*
X18474284Y-9118300D02*
G75*
G03*
X18474284Y-9118300I-15000J0D01*
G01*
X18474284Y-9198300D02*
G75*
G03*
X18474284Y-9198300I-15000J0D01*
G01*
X18474284Y-9278300D02*
G75*
G03*
X18474284Y-9278300I-15000J0D01*
G01*
X18710872Y-9254592D02*
G75*
G03*
X18710872Y-9254592I-15000J0D01*
G01*
X18717284Y-9150300D02*
G75*
G03*
X18717284Y-9150300I-15000J0D01*
G01*
X20084334Y-9456366D02*
G75*
G03*
X20084334Y-9456366I-15000J0D01*
G01*
X20164284Y-6458300D02*
G75*
G03*
X20164284Y-6458300I-15000J0D01*
G01*
X21486284Y-8148300D02*
G75*
G03*
X21486284Y-8148300I-15000J0D01*
G01*
X22744284Y-9118300D02*
G75*
G03*
X22744284Y-9118300I-15000J0D01*
G01*
X22744284Y-9198300D02*
G75*
G03*
X22744284Y-9198300I-15000J0D01*
G01*
X22744284Y-9278300D02*
G75*
G03*
X22744284Y-9278300I-15000J0D01*
G01*
D14*
X18399284Y-10708300D02*
X18399284Y-10748300D01*
X18379284Y-10728300D02*
X18419284Y-10728300D01*
X18399284Y-10788300D02*
X18399284Y-10828300D01*
X18379284Y-10808300D02*
X18419284Y-10808300D01*
X18479284Y-10708300D02*
X18479284Y-10748300D01*
X18459284Y-10728300D02*
X18499284Y-10728300D01*
X18549284Y-10708300D02*
X18549284Y-10748300D01*
X18529284Y-10728300D02*
X18569284Y-10728300D01*
X18629284Y-10708300D02*
X18629284Y-10748300D01*
X18609284Y-10728300D02*
X18649284Y-10728300D01*
X18999284Y-9708300D02*
X18999284Y-9748300D01*
X18979284Y-9728300D02*
X19019284Y-9728300D01*
X19249284Y-9698300D02*
X19249284Y-9738300D01*
X19229284Y-9718300D02*
X19269284Y-9718300D01*
X20269284Y-11698300D02*
X20269284Y-11738300D01*
X20249284Y-11718300D02*
X20289284Y-11718300D01*
X20379284Y-11698300D02*
X20379284Y-11738300D01*
X20359284Y-11718300D02*
X20399284Y-11718300D01*
X20469284Y-11698300D02*
X20469284Y-11738300D01*
X20449284Y-11718300D02*
X20489284Y-11718300D01*
X20749284Y-11938300D02*
X20749284Y-11978300D01*
X20729284Y-11958300D02*
X20769284Y-11958300D01*
X21154284Y-9668300D02*
X21154284Y-9708300D01*
X21134284Y-9688300D02*
X21174284Y-9688300D01*
X21459284Y-9648300D02*
X21459284Y-9688300D01*
X21439284Y-9668300D02*
X21479284Y-9668300D01*
X21466284Y-7177300D02*
X21466284Y-7217300D01*
X21446284Y-7197300D02*
X21486284Y-7197300D01*
X21714284Y-10178300D02*
X21714284Y-10218300D01*
X21694284Y-10198300D02*
X21734284Y-10198300D01*
X21714284Y-10258300D02*
X21714284Y-10298300D01*
X21694284Y-10278300D02*
X21734284Y-10278300D01*
X21784284Y-10178300D02*
X21784284Y-10218300D01*
X21764284Y-10198300D02*
X21804284Y-10198300D01*
X21784284Y-10258300D02*
X21784284Y-10298300D01*
X21764284Y-10278300D02*
X21804284Y-10278300D01*
X21806284Y-6936300D02*
X21806284Y-6976300D01*
X21786284Y-6956300D02*
X21826284Y-6956300D01*
X21892284Y-7162300D02*
X21892284Y-7202300D01*
X21872284Y-7182300D02*
X21912284Y-7182300D01*
X22099284Y-10708300D02*
X22099284Y-10748300D01*
X22079284Y-10728300D02*
X22119284Y-10728300D01*
X22099284Y-10788300D02*
X22099284Y-10828300D01*
X22079284Y-10808300D02*
X22119284Y-10808300D01*
X22159284Y-9768300D02*
X22159284Y-9808300D01*
X22139284Y-9788300D02*
X22179284Y-9788300D01*
X22159284Y-9848300D02*
X22159284Y-9888300D01*
X22139284Y-9868300D02*
X22179284Y-9868300D01*
X22169284Y-11738300D02*
X22169284Y-11778300D01*
X22149284Y-11758300D02*
X22189284Y-11758300D01*
X22169284Y-11818300D02*
X22169284Y-11858300D01*
X22149284Y-11838300D02*
X22189284Y-11838300D01*
X22239284Y-9768300D02*
X22239284Y-9808300D01*
X22219284Y-9788300D02*
X22259284Y-9788300D01*
X22239284Y-9848300D02*
X22239284Y-9888300D01*
X22219284Y-9868300D02*
X22259284Y-9868300D01*
X22239284Y-11738300D02*
X22239284Y-11778300D01*
X22219284Y-11758300D02*
X22259284Y-11758300D01*
X22239284Y-11818300D02*
X22239284Y-11858300D01*
X22219284Y-11838300D02*
X22259284Y-11838300D01*
X22579284Y-9768300D02*
X22579284Y-9808300D01*
X22559284Y-9788300D02*
X22599284Y-9788300D01*
X22579284Y-9838300D02*
X22579284Y-9878300D01*
X22559284Y-9858300D02*
X22599284Y-9858300D01*
X22589284Y-11738300D02*
X22589284Y-11778300D01*
X22569284Y-11758300D02*
X22609284Y-11758300D01*
X22589284Y-11818300D02*
X22589284Y-11858300D01*
X22569284Y-11838300D02*
X22609284Y-11838300D01*
X22659284Y-9768300D02*
X22659284Y-9808300D01*
X22639284Y-9788300D02*
X22679284Y-9788300D01*
X22659284Y-9838300D02*
X22659284Y-9878300D01*
X22639284Y-9858300D02*
X22679284Y-9858300D01*
X22659284Y-11738300D02*
X22659284Y-11778300D01*
X22639284Y-11758300D02*
X22679284Y-11758300D01*
X22659284Y-11818300D02*
X22659284Y-11858300D01*
X22639284Y-11838300D02*
X22679284Y-11838300D01*
X22709284Y-10578300D02*
X22709284Y-10618300D01*
X22689284Y-10598300D02*
X22729284Y-10598300D01*
X22709284Y-10648300D02*
X22709284Y-10688300D01*
X22689284Y-10668300D02*
X22729284Y-10668300D01*
D15*
X22466497Y-9396513D02*
X22466497Y-9354087D01*
X22424071Y-9354087D01*
X22424071Y-9396513D01*
X22466497Y-9396513D01*
X22550497Y-8979513D02*
X22550497Y-8937087D01*
X22508071Y-8937087D01*
X22508071Y-8979513D01*
X22550497Y-8979513D01*
D16*
X20703284Y-12565050D02*
X20745034Y-12523300D01*
X20703284Y-12481550D01*
X20661534Y-12523300D01*
X20703284Y-12565050D01*
D11*
X20671534Y-12490050D02*
X20671534Y-12556550D01*
X20735034Y-12490050D02*
X20735034Y-12556550D01*
X20671534Y-12556550D02*
G75*
G03*
X20735034Y-12556550I31750J0D01*
G01*
X20735034Y-12490050D02*
G75*
G03*
X20671534Y-12490050I-31750J0D01*
G01*
D16*
X21952284Y-12565050D02*
X21994034Y-12523300D01*
X21952284Y-12481550D01*
X21910534Y-12523300D01*
X21952284Y-12565050D01*
D11*
X21920534Y-12490050D02*
X21920534Y-12556550D01*
X21984034Y-12490050D02*
X21984034Y-12556550D01*
X21920534Y-12556550D02*
G75*
G03*
X21984034Y-12556550I31750J0D01*
G01*
X21984034Y-12490050D02*
G75*
G03*
X21920534Y-12490050I-31750J0D01*
G01*
D17*
X19174284Y-6195800D02*
X19274284Y-6295800D01*
X19274284Y-6195800D02*
X19174284Y-6295800D01*
X19274284Y-6245800D02*
G75*
G03*
X19274284Y-6245800I-50000J0D01*
G01*
X19428284Y-6195800D02*
X19528284Y-6295800D01*
X19528284Y-6195800D02*
X19428284Y-6295800D01*
X19528284Y-6245800D02*
G75*
G03*
X19528284Y-6245800I-50000J0D01*
G01*
X19682284Y-6195800D02*
X19782284Y-6295800D01*
X19782284Y-6195800D02*
X19682284Y-6295800D01*
X19782284Y-6245800D02*
G75*
G03*
X19782284Y-6245800I-50000J0D01*
G01*
X19936284Y-6195800D02*
X20036284Y-6295800D01*
X20036284Y-6195800D02*
X19936284Y-6295800D01*
X20036284Y-6245800D02*
G75*
G03*
X20036284Y-6245800I-50000J0D01*
G01*
X20190284Y-6195800D02*
X20290284Y-6295800D01*
X20290284Y-6195800D02*
X20190284Y-6295800D01*
X20290284Y-6245800D02*
G75*
G03*
X20290284Y-6245800I-50000J0D01*
G01*
X20444284Y-6195800D02*
X20544284Y-6295800D01*
X20544284Y-6195800D02*
X20444284Y-6295800D01*
X20544284Y-6245800D02*
G75*
G03*
X20544284Y-6245800I-50000J0D01*
G01*
D18*
X19419284Y-11348300D02*
X19579284Y-11508300D01*
X19579284Y-11348300D02*
X19419284Y-11508300D01*
X19499284Y-11348300D02*
X19499284Y-11508300D01*
X19419284Y-11428300D02*
X19579284Y-11428300D01*
X19419284Y-11948300D02*
X19579284Y-12108300D01*
X19579284Y-11948300D02*
X19419284Y-12108300D01*
X19499284Y-11948300D02*
X19499284Y-12108300D01*
X19419284Y-12028300D02*
X19579284Y-12028300D01*
X19889284Y-11648300D02*
X20049284Y-11808300D01*
X20049284Y-11648300D02*
X19889284Y-11808300D01*
X19969284Y-11648300D02*
X19969284Y-11808300D01*
X19889284Y-11728300D02*
X20049284Y-11728300D01*
D19*
X18274284Y-5343300D02*
X18524284Y-5593300D01*
X18524284Y-5343300D02*
X18274284Y-5593300D01*
X18487673Y-5556689D02*
X18487673Y-5379911D01*
X18310895Y-5379911D01*
X18310895Y-5556689D01*
X18487673Y-5556689D01*
X18274284Y-12243300D02*
X18524284Y-12493300D01*
X18524284Y-12243300D02*
X18274284Y-12493300D01*
X18487673Y-12456689D02*
X18487673Y-12279911D01*
X18310895Y-12279911D01*
X18310895Y-12456689D01*
X18487673Y-12456689D01*
X22674284Y-5343300D02*
X22924284Y-5593300D01*
X22924284Y-5343300D02*
X22674284Y-5593300D01*
X22887673Y-5556689D02*
X22887673Y-5379911D01*
X22710895Y-5379911D01*
X22710895Y-5556689D01*
X22887673Y-5556689D01*
X22674284Y-12243300D02*
X22924284Y-12493300D01*
X22924284Y-12243300D02*
X22674284Y-12493300D01*
X22887673Y-12456689D02*
X22887673Y-12279911D01*
X22710895Y-12279911D01*
X22710895Y-12456689D01*
X22887673Y-12456689D01*
D11*
X18354403Y-12981276D02*
X18354403Y-12781276D01*
X18402022Y-12781276D01*
X18430594Y-12790800D01*
X18449641Y-12809848D01*
X18459165Y-12828895D01*
X18468689Y-12866990D01*
X18468689Y-12895562D01*
X18459165Y-12933657D01*
X18449641Y-12952705D01*
X18430594Y-12971752D01*
X18402022Y-12981276D01*
X18354403Y-12981276D01*
X18554403Y-12981276D02*
X18554403Y-12847943D01*
X18554403Y-12886038D02*
X18563927Y-12866990D01*
X18573451Y-12857467D01*
X18592498Y-12847943D01*
X18611546Y-12847943D01*
X18678213Y-12981276D02*
X18678213Y-12847943D01*
X18678213Y-12781276D02*
X18668689Y-12790800D01*
X18678213Y-12800324D01*
X18687736Y-12790800D01*
X18678213Y-12781276D01*
X18678213Y-12800324D01*
X18802022Y-12981276D02*
X18782975Y-12971752D01*
X18773451Y-12952705D01*
X18773451Y-12781276D01*
X18906784Y-12981276D02*
X18887736Y-12971752D01*
X18878213Y-12952705D01*
X18878213Y-12781276D01*
X19135356Y-12981276D02*
X19135356Y-12781276D01*
X19202022Y-12924133D01*
X19268689Y-12781276D01*
X19268689Y-12981276D01*
X19449641Y-12981276D02*
X19449641Y-12876514D01*
X19440117Y-12857467D01*
X19421070Y-12847943D01*
X19382975Y-12847943D01*
X19363927Y-12857467D01*
X19449641Y-12971752D02*
X19430594Y-12981276D01*
X19382975Y-12981276D01*
X19363927Y-12971752D01*
X19354403Y-12952705D01*
X19354403Y-12933657D01*
X19363927Y-12914609D01*
X19382975Y-12905086D01*
X19430594Y-12905086D01*
X19449641Y-12895562D01*
X19544879Y-12847943D02*
X19544879Y-13047943D01*
X19544879Y-12857467D02*
X19563927Y-12847943D01*
X19602022Y-12847943D01*
X19621070Y-12857467D01*
X19630594Y-12866990D01*
X19640117Y-12886038D01*
X19640117Y-12943181D01*
X19630594Y-12962228D01*
X19621070Y-12971752D01*
X19602022Y-12981276D01*
X19563927Y-12981276D01*
X19544879Y-12971752D01*
X19725832Y-12962228D02*
X19735356Y-12971752D01*
X19725832Y-12981276D01*
X19716308Y-12971752D01*
X19725832Y-12962228D01*
X19725832Y-12981276D01*
X19725832Y-12857467D02*
X19735356Y-12866990D01*
X19725832Y-12876514D01*
X19716308Y-12866990D01*
X19725832Y-12857467D01*
X19725832Y-12876514D01*
D12*
X18076784Y-13300800D02*
X18096784Y-13320800D01*
X18096784Y-13300800D02*
X18076784Y-13320800D01*
D11*
X18392498Y-13201276D02*
X18411546Y-13201276D01*
X18430594Y-13210800D01*
X18440117Y-13220324D01*
X18449641Y-13239371D01*
X18459165Y-13277467D01*
X18459165Y-13325086D01*
X18449641Y-13363181D01*
X18440117Y-13382228D01*
X18430594Y-13391752D01*
X18411546Y-13401276D01*
X18392498Y-13401276D01*
X18373451Y-13391752D01*
X18363927Y-13382228D01*
X18354403Y-13363181D01*
X18344879Y-13325086D01*
X18344879Y-13277467D01*
X18354403Y-13239371D01*
X18363927Y-13220324D01*
X18373451Y-13210800D01*
X18392498Y-13201276D01*
X18544879Y-13382228D02*
X18554403Y-13391752D01*
X18544879Y-13401276D01*
X18535356Y-13391752D01*
X18544879Y-13382228D01*
X18544879Y-13401276D01*
X18630594Y-13220324D02*
X18640117Y-13210800D01*
X18659165Y-13201276D01*
X18706784Y-13201276D01*
X18725832Y-13210800D01*
X18735356Y-13220324D01*
X18744879Y-13239371D01*
X18744879Y-13258419D01*
X18735356Y-13286990D01*
X18621070Y-13401276D01*
X18744879Y-13401276D01*
X18868689Y-13201276D02*
X18887736Y-13201276D01*
X18906784Y-13210800D01*
X18916308Y-13220324D01*
X18925832Y-13239371D01*
X18935356Y-13277467D01*
X18935356Y-13325086D01*
X18925832Y-13363181D01*
X18916308Y-13382228D01*
X18906784Y-13391752D01*
X18887736Y-13401276D01*
X18868689Y-13401276D01*
X18849641Y-13391752D01*
X18840117Y-13382228D01*
X18830594Y-13363181D01*
X18821070Y-13325086D01*
X18821070Y-13277467D01*
X18830594Y-13239371D01*
X18840117Y-13220324D01*
X18849641Y-13210800D01*
X18868689Y-13201276D01*
X19059165Y-13201276D02*
X19078213Y-13201276D01*
X19097260Y-13210800D01*
X19106784Y-13220324D01*
X19116308Y-13239371D01*
X19125832Y-13277467D01*
X19125832Y-13325086D01*
X19116308Y-13363181D01*
X19106784Y-13382228D01*
X19097260Y-13391752D01*
X19078213Y-13401276D01*
X19059165Y-13401276D01*
X19040117Y-13391752D01*
X19030594Y-13382228D01*
X19021070Y-13363181D01*
X19011546Y-13325086D01*
X19011546Y-13277467D01*
X19021070Y-13239371D01*
X19030594Y-13220324D01*
X19040117Y-13210800D01*
X19059165Y-13201276D01*
X19211546Y-13401276D02*
X19211546Y-13267943D01*
X19211546Y-13286990D02*
X19221070Y-13277467D01*
X19240117Y-13267943D01*
X19268689Y-13267943D01*
X19287736Y-13277467D01*
X19297260Y-13296514D01*
X19297260Y-13401276D01*
X19297260Y-13296514D02*
X19306784Y-13277467D01*
X19325832Y-13267943D01*
X19354403Y-13267943D01*
X19373451Y-13277467D01*
X19382975Y-13296514D01*
X19382975Y-13401276D01*
X19478213Y-13401276D02*
X19478213Y-13267943D01*
X19478213Y-13286990D02*
X19487736Y-13277467D01*
X19506784Y-13267943D01*
X19535356Y-13267943D01*
X19554403Y-13277467D01*
X19563927Y-13296514D01*
X19563927Y-13401276D01*
X19563927Y-13296514D02*
X19573451Y-13277467D01*
X19592498Y-13267943D01*
X19621070Y-13267943D01*
X19640117Y-13277467D01*
X19649641Y-13296514D01*
X19649641Y-13401276D01*
X20040117Y-13191752D02*
X19868689Y-13448895D01*
X20297260Y-13201276D02*
X20316308Y-13201276D01*
X20335356Y-13210800D01*
X20344879Y-13220324D01*
X20354403Y-13239371D01*
X20363927Y-13277467D01*
X20363927Y-13325086D01*
X20354403Y-13363181D01*
X20344879Y-13382228D01*
X20335356Y-13391752D01*
X20316308Y-13401276D01*
X20297260Y-13401276D01*
X20278213Y-13391752D01*
X20268689Y-13382228D01*
X20259165Y-13363181D01*
X20249641Y-13325086D01*
X20249641Y-13277467D01*
X20259165Y-13239371D01*
X20268689Y-13220324D01*
X20278213Y-13210800D01*
X20297260Y-13201276D01*
X20449641Y-13382228D02*
X20459165Y-13391752D01*
X20449641Y-13401276D01*
X20440117Y-13391752D01*
X20449641Y-13382228D01*
X20449641Y-13401276D01*
X20582975Y-13201276D02*
X20602022Y-13201276D01*
X20621070Y-13210800D01*
X20630594Y-13220324D01*
X20640117Y-13239371D01*
X20649641Y-13277467D01*
X20649641Y-13325086D01*
X20640117Y-13363181D01*
X20630594Y-13382228D01*
X20621070Y-13391752D01*
X20602022Y-13401276D01*
X20582975Y-13401276D01*
X20563927Y-13391752D01*
X20554403Y-13382228D01*
X20544879Y-13363181D01*
X20535356Y-13325086D01*
X20535356Y-13277467D01*
X20544879Y-13239371D01*
X20554403Y-13220324D01*
X20563927Y-13210800D01*
X20582975Y-13201276D01*
X20773451Y-13201276D02*
X20792498Y-13201276D01*
X20811546Y-13210800D01*
X20821070Y-13220324D01*
X20830594Y-13239371D01*
X20840117Y-13277467D01*
X20840117Y-13325086D01*
X20830594Y-13363181D01*
X20821070Y-13382228D01*
X20811546Y-13391752D01*
X20792498Y-13401276D01*
X20773451Y-13401276D01*
X20754403Y-13391752D01*
X20744879Y-13382228D01*
X20735356Y-13363181D01*
X20725832Y-13325086D01*
X20725832Y-13277467D01*
X20735356Y-13239371D01*
X20744879Y-13220324D01*
X20754403Y-13210800D01*
X20773451Y-13201276D01*
X20906784Y-13201276D02*
X21040117Y-13201276D01*
X20954403Y-13401276D01*
X21125832Y-13401276D02*
X21163927Y-13401276D01*
X21182975Y-13391752D01*
X21192498Y-13382228D01*
X21211546Y-13353657D01*
X21221070Y-13315562D01*
X21221070Y-13239371D01*
X21211546Y-13220324D01*
X21202022Y-13210800D01*
X21182975Y-13201276D01*
X21144879Y-13201276D01*
X21125832Y-13210800D01*
X21116308Y-13220324D01*
X21106784Y-13239371D01*
X21106784Y-13286990D01*
X21116308Y-13306038D01*
X21125832Y-13315562D01*
X21144879Y-13325086D01*
X21182975Y-13325086D01*
X21202022Y-13315562D01*
X21211546Y-13306038D01*
X21221070Y-13286990D01*
X21297260Y-13201276D02*
X21297260Y-13239371D01*
X21373451Y-13201276D02*
X21373451Y-13239371D01*
X21668689Y-13477467D02*
X21659165Y-13467943D01*
X21640117Y-13439371D01*
X21630594Y-13420324D01*
X21621070Y-13391752D01*
X21611546Y-13344133D01*
X21611546Y-13306038D01*
X21621070Y-13258419D01*
X21630594Y-13229848D01*
X21640117Y-13210800D01*
X21659165Y-13182228D01*
X21668689Y-13172705D01*
X21849641Y-13401276D02*
X21735356Y-13401276D01*
X21792498Y-13401276D02*
X21792498Y-13201276D01*
X21773451Y-13229848D01*
X21754403Y-13248895D01*
X21735356Y-13258419D01*
X22040117Y-13401276D02*
X21925832Y-13401276D01*
X21982975Y-13401276D02*
X21982975Y-13201276D01*
X21963927Y-13229848D01*
X21944879Y-13248895D01*
X21925832Y-13258419D01*
X22163927Y-13201276D02*
X22182975Y-13201276D01*
X22202022Y-13210800D01*
X22211546Y-13220324D01*
X22221070Y-13239371D01*
X22230594Y-13277467D01*
X22230594Y-13325086D01*
X22221070Y-13363181D01*
X22211546Y-13382228D01*
X22202022Y-13391752D01*
X22182975Y-13401276D01*
X22163927Y-13401276D01*
X22144879Y-13391752D01*
X22135356Y-13382228D01*
X22125832Y-13363181D01*
X22116308Y-13325086D01*
X22116308Y-13277467D01*
X22125832Y-13239371D01*
X22135356Y-13220324D01*
X22144879Y-13210800D01*
X22163927Y-13201276D01*
X22411546Y-13201276D02*
X22316308Y-13201276D01*
X22306784Y-13296514D01*
X22316308Y-13286990D01*
X22335356Y-13277467D01*
X22382974Y-13277467D01*
X22402022Y-13286990D01*
X22411546Y-13296514D01*
X22421070Y-13315562D01*
X22421070Y-13363181D01*
X22411546Y-13382228D01*
X22402022Y-13391752D01*
X22382974Y-13401276D01*
X22335356Y-13401276D01*
X22316308Y-13391752D01*
X22306784Y-13382228D01*
X22659165Y-13401276D02*
X22659165Y-13201276D01*
X22744879Y-13401276D02*
X22744879Y-13296514D01*
X22735355Y-13277467D01*
X22716308Y-13267943D01*
X22687736Y-13267943D01*
X22668689Y-13277467D01*
X22659165Y-13286990D01*
X22868689Y-13401276D02*
X22849641Y-13391752D01*
X22840117Y-13382228D01*
X22830594Y-13363181D01*
X22830594Y-13306038D01*
X22840117Y-13286990D01*
X22849641Y-13277467D01*
X22868689Y-13267943D01*
X22897260Y-13267943D01*
X22916308Y-13277467D01*
X22925832Y-13286990D01*
X22935355Y-13306038D01*
X22935355Y-13363181D01*
X22925832Y-13382228D01*
X22916308Y-13391752D01*
X22897260Y-13401276D01*
X22868689Y-13401276D01*
X23049641Y-13401276D02*
X23030594Y-13391752D01*
X23021070Y-13372705D01*
X23021070Y-13201276D01*
X23202022Y-13391752D02*
X23182974Y-13401276D01*
X23144879Y-13401276D01*
X23125832Y-13391752D01*
X23116308Y-13372705D01*
X23116308Y-13296514D01*
X23125832Y-13277467D01*
X23144879Y-13267943D01*
X23182974Y-13267943D01*
X23202022Y-13277467D01*
X23211546Y-13296514D01*
X23211546Y-13315562D01*
X23116308Y-13334609D01*
X23287736Y-13391752D02*
X23306784Y-13401276D01*
X23344879Y-13401276D01*
X23363927Y-13391752D01*
X23373451Y-13372705D01*
X23373451Y-13363181D01*
X23363927Y-13344133D01*
X23344879Y-13334609D01*
X23316308Y-13334609D01*
X23297260Y-13325086D01*
X23287736Y-13306038D01*
X23287736Y-13296514D01*
X23297260Y-13277467D01*
X23316308Y-13267943D01*
X23344879Y-13267943D01*
X23363927Y-13277467D01*
X23440117Y-13477467D02*
X23449641Y-13467943D01*
X23468689Y-13439371D01*
X23478213Y-13420324D01*
X23487736Y-13391752D01*
X23497260Y-13344133D01*
X23497260Y-13306038D01*
X23487736Y-13258419D01*
X23478213Y-13229848D01*
X23468689Y-13210800D01*
X23449641Y-13182228D01*
X23440117Y-13172705D01*
D13*
X18096784Y-13574800D02*
G75*
G03*
X18096784Y-13574800I-15000J0D01*
G01*
D11*
X18392498Y-13465276D02*
X18411546Y-13465276D01*
X18430594Y-13474800D01*
X18440117Y-13484324D01*
X18449641Y-13503371D01*
X18459165Y-13541467D01*
X18459165Y-13589086D01*
X18449641Y-13627181D01*
X18440117Y-13646228D01*
X18430594Y-13655752D01*
X18411546Y-13665276D01*
X18392498Y-13665276D01*
X18373451Y-13655752D01*
X18363927Y-13646228D01*
X18354403Y-13627181D01*
X18344879Y-13589086D01*
X18344879Y-13541467D01*
X18354403Y-13503371D01*
X18363927Y-13484324D01*
X18373451Y-13474800D01*
X18392498Y-13465276D01*
X18544879Y-13646228D02*
X18554403Y-13655752D01*
X18544879Y-13665276D01*
X18535356Y-13655752D01*
X18544879Y-13646228D01*
X18544879Y-13665276D01*
X18621070Y-13465276D02*
X18744879Y-13465276D01*
X18678213Y-13541467D01*
X18706784Y-13541467D01*
X18725832Y-13550990D01*
X18735356Y-13560514D01*
X18744879Y-13579562D01*
X18744879Y-13627181D01*
X18735356Y-13646228D01*
X18725832Y-13655752D01*
X18706784Y-13665276D01*
X18649641Y-13665276D01*
X18630594Y-13655752D01*
X18621070Y-13646228D01*
X18868689Y-13465276D02*
X18887736Y-13465276D01*
X18906784Y-13474800D01*
X18916308Y-13484324D01*
X18925832Y-13503371D01*
X18935356Y-13541467D01*
X18935356Y-13589086D01*
X18925832Y-13627181D01*
X18916308Y-13646228D01*
X18906784Y-13655752D01*
X18887736Y-13665276D01*
X18868689Y-13665276D01*
X18849641Y-13655752D01*
X18840117Y-13646228D01*
X18830594Y-13627181D01*
X18821070Y-13589086D01*
X18821070Y-13541467D01*
X18830594Y-13503371D01*
X18840117Y-13484324D01*
X18849641Y-13474800D01*
X18868689Y-13465276D01*
X19059165Y-13465276D02*
X19078213Y-13465276D01*
X19097260Y-13474800D01*
X19106784Y-13484324D01*
X19116308Y-13503371D01*
X19125832Y-13541467D01*
X19125832Y-13589086D01*
X19116308Y-13627181D01*
X19106784Y-13646228D01*
X19097260Y-13655752D01*
X19078213Y-13665276D01*
X19059165Y-13665276D01*
X19040117Y-13655752D01*
X19030594Y-13646228D01*
X19021070Y-13627181D01*
X19011546Y-13589086D01*
X19011546Y-13541467D01*
X19021070Y-13503371D01*
X19030594Y-13484324D01*
X19040117Y-13474800D01*
X19059165Y-13465276D01*
X19211546Y-13665276D02*
X19211546Y-13531943D01*
X19211546Y-13550990D02*
X19221070Y-13541467D01*
X19240117Y-13531943D01*
X19268689Y-13531943D01*
X19287736Y-13541467D01*
X19297260Y-13560514D01*
X19297260Y-13665276D01*
X19297260Y-13560514D02*
X19306784Y-13541467D01*
X19325832Y-13531943D01*
X19354403Y-13531943D01*
X19373451Y-13541467D01*
X19382975Y-13560514D01*
X19382975Y-13665276D01*
X19478213Y-13665276D02*
X19478213Y-13531943D01*
X19478213Y-13550990D02*
X19487736Y-13541467D01*
X19506784Y-13531943D01*
X19535356Y-13531943D01*
X19554403Y-13541467D01*
X19563927Y-13560514D01*
X19563927Y-13665276D01*
X19563927Y-13560514D02*
X19573451Y-13541467D01*
X19592498Y-13531943D01*
X19621070Y-13531943D01*
X19640117Y-13541467D01*
X19649641Y-13560514D01*
X19649641Y-13665276D01*
X20040117Y-13455752D02*
X19868689Y-13712895D01*
X20297260Y-13465276D02*
X20316308Y-13465276D01*
X20335356Y-13474800D01*
X20344879Y-13484324D01*
X20354403Y-13503371D01*
X20363927Y-13541467D01*
X20363927Y-13589086D01*
X20354403Y-13627181D01*
X20344879Y-13646228D01*
X20335356Y-13655752D01*
X20316308Y-13665276D01*
X20297260Y-13665276D01*
X20278213Y-13655752D01*
X20268689Y-13646228D01*
X20259165Y-13627181D01*
X20249641Y-13589086D01*
X20249641Y-13541467D01*
X20259165Y-13503371D01*
X20268689Y-13484324D01*
X20278213Y-13474800D01*
X20297260Y-13465276D01*
X20449641Y-13646228D02*
X20459165Y-13655752D01*
X20449641Y-13665276D01*
X20440117Y-13655752D01*
X20449641Y-13646228D01*
X20449641Y-13665276D01*
X20582975Y-13465276D02*
X20602022Y-13465276D01*
X20621070Y-13474800D01*
X20630594Y-13484324D01*
X20640117Y-13503371D01*
X20649641Y-13541467D01*
X20649641Y-13589086D01*
X20640117Y-13627181D01*
X20630594Y-13646228D01*
X20621070Y-13655752D01*
X20602022Y-13665276D01*
X20582975Y-13665276D01*
X20563927Y-13655752D01*
X20554403Y-13646228D01*
X20544879Y-13627181D01*
X20535356Y-13589086D01*
X20535356Y-13541467D01*
X20544879Y-13503371D01*
X20554403Y-13484324D01*
X20563927Y-13474800D01*
X20582975Y-13465276D01*
X20840117Y-13665276D02*
X20725832Y-13665276D01*
X20782975Y-13665276D02*
X20782975Y-13465276D01*
X20763927Y-13493848D01*
X20744879Y-13512895D01*
X20725832Y-13522419D01*
X21030594Y-13665276D02*
X20916308Y-13665276D01*
X20973451Y-13665276D02*
X20973451Y-13465276D01*
X20954403Y-13493848D01*
X20935356Y-13512895D01*
X20916308Y-13522419D01*
X21144879Y-13550990D02*
X21125832Y-13541467D01*
X21116308Y-13531943D01*
X21106784Y-13512895D01*
X21106784Y-13503371D01*
X21116308Y-13484324D01*
X21125832Y-13474800D01*
X21144879Y-13465276D01*
X21182975Y-13465276D01*
X21202022Y-13474800D01*
X21211546Y-13484324D01*
X21221070Y-13503371D01*
X21221070Y-13512895D01*
X21211546Y-13531943D01*
X21202022Y-13541467D01*
X21182975Y-13550990D01*
X21144879Y-13550990D01*
X21125832Y-13560514D01*
X21116308Y-13570038D01*
X21106784Y-13589086D01*
X21106784Y-13627181D01*
X21116308Y-13646228D01*
X21125832Y-13655752D01*
X21144879Y-13665276D01*
X21182975Y-13665276D01*
X21202022Y-13655752D01*
X21211546Y-13646228D01*
X21221070Y-13627181D01*
X21221070Y-13589086D01*
X21211546Y-13570038D01*
X21202022Y-13560514D01*
X21182975Y-13550990D01*
X21297260Y-13465276D02*
X21297260Y-13503371D01*
X21373451Y-13465276D02*
X21373451Y-13503371D01*
X21668689Y-13741467D02*
X21659165Y-13731943D01*
X21640117Y-13703371D01*
X21630594Y-13684324D01*
X21621070Y-13655752D01*
X21611546Y-13608133D01*
X21611546Y-13570038D01*
X21621070Y-13522419D01*
X21630594Y-13493848D01*
X21640117Y-13474800D01*
X21659165Y-13446228D01*
X21668689Y-13436705D01*
X21849641Y-13665276D02*
X21735356Y-13665276D01*
X21792498Y-13665276D02*
X21792498Y-13465276D01*
X21773451Y-13493848D01*
X21754403Y-13512895D01*
X21735356Y-13522419D01*
X22030594Y-13465276D02*
X21935356Y-13465276D01*
X21925832Y-13560514D01*
X21935356Y-13550990D01*
X21954403Y-13541467D01*
X22002022Y-13541467D01*
X22021070Y-13550990D01*
X22030594Y-13560514D01*
X22040117Y-13579562D01*
X22040117Y-13627181D01*
X22030594Y-13646228D01*
X22021070Y-13655752D01*
X22002022Y-13665276D01*
X21954403Y-13665276D01*
X21935356Y-13655752D01*
X21925832Y-13646228D01*
X22278213Y-13665276D02*
X22278213Y-13465276D01*
X22363927Y-13665276D02*
X22363927Y-13560514D01*
X22354403Y-13541467D01*
X22335356Y-13531943D01*
X22306784Y-13531943D01*
X22287736Y-13541467D01*
X22278213Y-13550990D01*
X22487736Y-13665276D02*
X22468689Y-13655752D01*
X22459165Y-13646228D01*
X22449641Y-13627181D01*
X22449641Y-13570038D01*
X22459165Y-13550990D01*
X22468689Y-13541467D01*
X22487736Y-13531943D01*
X22516308Y-13531943D01*
X22535355Y-13541467D01*
X22544879Y-13550990D01*
X22554403Y-13570038D01*
X22554403Y-13627181D01*
X22544879Y-13646228D01*
X22535355Y-13655752D01*
X22516308Y-13665276D01*
X22487736Y-13665276D01*
X22668689Y-13665276D02*
X22649641Y-13655752D01*
X22640117Y-13636705D01*
X22640117Y-13465276D01*
X22821070Y-13655752D02*
X22802022Y-13665276D01*
X22763927Y-13665276D01*
X22744879Y-13655752D01*
X22735355Y-13636705D01*
X22735355Y-13560514D01*
X22744879Y-13541467D01*
X22763927Y-13531943D01*
X22802022Y-13531943D01*
X22821070Y-13541467D01*
X22830594Y-13560514D01*
X22830594Y-13579562D01*
X22735355Y-13598609D01*
X22906784Y-13655752D02*
X22925832Y-13665276D01*
X22963927Y-13665276D01*
X22982974Y-13655752D01*
X22992498Y-13636705D01*
X22992498Y-13627181D01*
X22982974Y-13608133D01*
X22963927Y-13598609D01*
X22935355Y-13598609D01*
X22916308Y-13589086D01*
X22906784Y-13570038D01*
X22906784Y-13560514D01*
X22916308Y-13541467D01*
X22935355Y-13531943D01*
X22963927Y-13531943D01*
X22982974Y-13541467D01*
X23059165Y-13741467D02*
X23068689Y-13731943D01*
X23087736Y-13703371D01*
X23097260Y-13684324D01*
X23106784Y-13655752D01*
X23116308Y-13608133D01*
X23116308Y-13570038D01*
X23106784Y-13522419D01*
X23097260Y-13493848D01*
X23087736Y-13474800D01*
X23068689Y-13446228D01*
X23059165Y-13436705D01*
D14*
X18076784Y-13818800D02*
X18076784Y-13858800D01*
X18056784Y-13838800D02*
X18096784Y-13838800D01*
D11*
X18392498Y-13729276D02*
X18411546Y-13729276D01*
X18430594Y-13738800D01*
X18440117Y-13748324D01*
X18449641Y-13767371D01*
X18459165Y-13805467D01*
X18459165Y-13853086D01*
X18449641Y-13891181D01*
X18440117Y-13910228D01*
X18430594Y-13919752D01*
X18411546Y-13929276D01*
X18392498Y-13929276D01*
X18373451Y-13919752D01*
X18363927Y-13910228D01*
X18354403Y-13891181D01*
X18344879Y-13853086D01*
X18344879Y-13805467D01*
X18354403Y-13767371D01*
X18363927Y-13748324D01*
X18373451Y-13738800D01*
X18392498Y-13729276D01*
X18544879Y-13910228D02*
X18554403Y-13919752D01*
X18544879Y-13929276D01*
X18535356Y-13919752D01*
X18544879Y-13910228D01*
X18544879Y-13929276D01*
X18725832Y-13795943D02*
X18725832Y-13929276D01*
X18678213Y-13719752D02*
X18630594Y-13862609D01*
X18754403Y-13862609D01*
X18868689Y-13729276D02*
X18887736Y-13729276D01*
X18906784Y-13738800D01*
X18916308Y-13748324D01*
X18925832Y-13767371D01*
X18935356Y-13805467D01*
X18935356Y-13853086D01*
X18925832Y-13891181D01*
X18916308Y-13910228D01*
X18906784Y-13919752D01*
X18887736Y-13929276D01*
X18868689Y-13929276D01*
X18849641Y-13919752D01*
X18840117Y-13910228D01*
X18830594Y-13891181D01*
X18821070Y-13853086D01*
X18821070Y-13805467D01*
X18830594Y-13767371D01*
X18840117Y-13748324D01*
X18849641Y-13738800D01*
X18868689Y-13729276D01*
X19059165Y-13729276D02*
X19078213Y-13729276D01*
X19097260Y-13738800D01*
X19106784Y-13748324D01*
X19116308Y-13767371D01*
X19125832Y-13805467D01*
X19125832Y-13853086D01*
X19116308Y-13891181D01*
X19106784Y-13910228D01*
X19097260Y-13919752D01*
X19078213Y-13929276D01*
X19059165Y-13929276D01*
X19040117Y-13919752D01*
X19030594Y-13910228D01*
X19021070Y-13891181D01*
X19011546Y-13853086D01*
X19011546Y-13805467D01*
X19021070Y-13767371D01*
X19030594Y-13748324D01*
X19040117Y-13738800D01*
X19059165Y-13729276D01*
X19211546Y-13929276D02*
X19211546Y-13795943D01*
X19211546Y-13814990D02*
X19221070Y-13805467D01*
X19240117Y-13795943D01*
X19268689Y-13795943D01*
X19287736Y-13805467D01*
X19297260Y-13824514D01*
X19297260Y-13929276D01*
X19297260Y-13824514D02*
X19306784Y-13805467D01*
X19325832Y-13795943D01*
X19354403Y-13795943D01*
X19373451Y-13805467D01*
X19382975Y-13824514D01*
X19382975Y-13929276D01*
X19478213Y-13929276D02*
X19478213Y-13795943D01*
X19478213Y-13814990D02*
X19487736Y-13805467D01*
X19506784Y-13795943D01*
X19535356Y-13795943D01*
X19554403Y-13805467D01*
X19563927Y-13824514D01*
X19563927Y-13929276D01*
X19563927Y-13824514D02*
X19573451Y-13805467D01*
X19592498Y-13795943D01*
X19621070Y-13795943D01*
X19640117Y-13805467D01*
X19649641Y-13824514D01*
X19649641Y-13929276D01*
X20040117Y-13719752D02*
X19868689Y-13976895D01*
X20297260Y-13729276D02*
X20316308Y-13729276D01*
X20335356Y-13738800D01*
X20344879Y-13748324D01*
X20354403Y-13767371D01*
X20363927Y-13805467D01*
X20363927Y-13853086D01*
X20354403Y-13891181D01*
X20344879Y-13910228D01*
X20335356Y-13919752D01*
X20316308Y-13929276D01*
X20297260Y-13929276D01*
X20278213Y-13919752D01*
X20268689Y-13910228D01*
X20259165Y-13891181D01*
X20249641Y-13853086D01*
X20249641Y-13805467D01*
X20259165Y-13767371D01*
X20268689Y-13748324D01*
X20278213Y-13738800D01*
X20297260Y-13729276D01*
X20449641Y-13910228D02*
X20459165Y-13919752D01*
X20449641Y-13929276D01*
X20440117Y-13919752D01*
X20449641Y-13910228D01*
X20449641Y-13929276D01*
X20582975Y-13729276D02*
X20602022Y-13729276D01*
X20621070Y-13738800D01*
X20630594Y-13748324D01*
X20640117Y-13767371D01*
X20649641Y-13805467D01*
X20649641Y-13853086D01*
X20640117Y-13891181D01*
X20630594Y-13910228D01*
X20621070Y-13919752D01*
X20602022Y-13929276D01*
X20582975Y-13929276D01*
X20563927Y-13919752D01*
X20554403Y-13910228D01*
X20544879Y-13891181D01*
X20535356Y-13853086D01*
X20535356Y-13805467D01*
X20544879Y-13767371D01*
X20554403Y-13748324D01*
X20563927Y-13738800D01*
X20582975Y-13729276D01*
X20840117Y-13929276D02*
X20725832Y-13929276D01*
X20782975Y-13929276D02*
X20782975Y-13729276D01*
X20763927Y-13757848D01*
X20744879Y-13776895D01*
X20725832Y-13786419D01*
X21021070Y-13729276D02*
X20925832Y-13729276D01*
X20916308Y-13824514D01*
X20925832Y-13814990D01*
X20944879Y-13805467D01*
X20992498Y-13805467D01*
X21011546Y-13814990D01*
X21021070Y-13824514D01*
X21030594Y-13843562D01*
X21030594Y-13891181D01*
X21021070Y-13910228D01*
X21011546Y-13919752D01*
X20992498Y-13929276D01*
X20944879Y-13929276D01*
X20925832Y-13919752D01*
X20916308Y-13910228D01*
X21097260Y-13729276D02*
X21230594Y-13729276D01*
X21144879Y-13929276D01*
X21297260Y-13729276D02*
X21297260Y-13767371D01*
X21373451Y-13729276D02*
X21373451Y-13767371D01*
X21668689Y-14005467D02*
X21659165Y-13995943D01*
X21640117Y-13967371D01*
X21630594Y-13948324D01*
X21621070Y-13919752D01*
X21611546Y-13872133D01*
X21611546Y-13834038D01*
X21621070Y-13786419D01*
X21630594Y-13757848D01*
X21640117Y-13738800D01*
X21659165Y-13710228D01*
X21668689Y-13700705D01*
X21830594Y-13795943D02*
X21830594Y-13929276D01*
X21782975Y-13719752D02*
X21735356Y-13862609D01*
X21859165Y-13862609D01*
X21973451Y-13729276D02*
X21992498Y-13729276D01*
X22011546Y-13738800D01*
X22021070Y-13748324D01*
X22030594Y-13767371D01*
X22040117Y-13805467D01*
X22040117Y-13853086D01*
X22030594Y-13891181D01*
X22021070Y-13910228D01*
X22011546Y-13919752D01*
X21992498Y-13929276D01*
X21973451Y-13929276D01*
X21954403Y-13919752D01*
X21944879Y-13910228D01*
X21935356Y-13891181D01*
X21925832Y-13853086D01*
X21925832Y-13805467D01*
X21935356Y-13767371D01*
X21944879Y-13748324D01*
X21954403Y-13738800D01*
X21973451Y-13729276D01*
X22278213Y-13929276D02*
X22278213Y-13729276D01*
X22363927Y-13929276D02*
X22363927Y-13824514D01*
X22354403Y-13805467D01*
X22335356Y-13795943D01*
X22306784Y-13795943D01*
X22287736Y-13805467D01*
X22278213Y-13814990D01*
X22487736Y-13929276D02*
X22468689Y-13919752D01*
X22459165Y-13910228D01*
X22449641Y-13891181D01*
X22449641Y-13834038D01*
X22459165Y-13814990D01*
X22468689Y-13805467D01*
X22487736Y-13795943D01*
X22516308Y-13795943D01*
X22535355Y-13805467D01*
X22544879Y-13814990D01*
X22554403Y-13834038D01*
X22554403Y-13891181D01*
X22544879Y-13910228D01*
X22535355Y-13919752D01*
X22516308Y-13929276D01*
X22487736Y-13929276D01*
X22668689Y-13929276D02*
X22649641Y-13919752D01*
X22640117Y-13900705D01*
X22640117Y-13729276D01*
X22821070Y-13919752D02*
X22802022Y-13929276D01*
X22763927Y-13929276D01*
X22744879Y-13919752D01*
X22735355Y-13900705D01*
X22735355Y-13824514D01*
X22744879Y-13805467D01*
X22763927Y-13795943D01*
X22802022Y-13795943D01*
X22821070Y-13805467D01*
X22830594Y-13824514D01*
X22830594Y-13843562D01*
X22735355Y-13862609D01*
X22906784Y-13919752D02*
X22925832Y-13929276D01*
X22963927Y-13929276D01*
X22982974Y-13919752D01*
X22992498Y-13900705D01*
X22992498Y-13891181D01*
X22982974Y-13872133D01*
X22963927Y-13862609D01*
X22935355Y-13862609D01*
X22916308Y-13853086D01*
X22906784Y-13834038D01*
X22906784Y-13824514D01*
X22916308Y-13805467D01*
X22935355Y-13795943D01*
X22963927Y-13795943D01*
X22982974Y-13805467D01*
X23059165Y-14005467D02*
X23068689Y-13995943D01*
X23087736Y-13967371D01*
X23097260Y-13948324D01*
X23106784Y-13919752D01*
X23116308Y-13872133D01*
X23116308Y-13834038D01*
X23106784Y-13786419D01*
X23097260Y-13757848D01*
X23087736Y-13738800D01*
X23068689Y-13710228D01*
X23059165Y-13700705D01*
D15*
X18087998Y-14124013D02*
X18087998Y-14081587D01*
X18045571Y-14081587D01*
X18045571Y-14124013D01*
X18087998Y-14124013D01*
D11*
X18392498Y-13993276D02*
X18411546Y-13993276D01*
X18430594Y-14002800D01*
X18440117Y-14012324D01*
X18449641Y-14031371D01*
X18459165Y-14069467D01*
X18459165Y-14117086D01*
X18449641Y-14155181D01*
X18440117Y-14174228D01*
X18430594Y-14183752D01*
X18411546Y-14193276D01*
X18392498Y-14193276D01*
X18373451Y-14183752D01*
X18363927Y-14174228D01*
X18354403Y-14155181D01*
X18344879Y-14117086D01*
X18344879Y-14069467D01*
X18354403Y-14031371D01*
X18363927Y-14012324D01*
X18373451Y-14002800D01*
X18392498Y-13993276D01*
X18544879Y-14174228D02*
X18554403Y-14183752D01*
X18544879Y-14193276D01*
X18535356Y-14183752D01*
X18544879Y-14174228D01*
X18544879Y-14193276D01*
X18725832Y-13993276D02*
X18687736Y-13993276D01*
X18668689Y-14002800D01*
X18659165Y-14012324D01*
X18640117Y-14040895D01*
X18630594Y-14078990D01*
X18630594Y-14155181D01*
X18640117Y-14174228D01*
X18649641Y-14183752D01*
X18668689Y-14193276D01*
X18706784Y-14193276D01*
X18725832Y-14183752D01*
X18735356Y-14174228D01*
X18744879Y-14155181D01*
X18744879Y-14107562D01*
X18735356Y-14088514D01*
X18725832Y-14078990D01*
X18706784Y-14069467D01*
X18668689Y-14069467D01*
X18649641Y-14078990D01*
X18640117Y-14088514D01*
X18630594Y-14107562D01*
X18868689Y-13993276D02*
X18887736Y-13993276D01*
X18906784Y-14002800D01*
X18916308Y-14012324D01*
X18925832Y-14031371D01*
X18935356Y-14069467D01*
X18935356Y-14117086D01*
X18925832Y-14155181D01*
X18916308Y-14174228D01*
X18906784Y-14183752D01*
X18887736Y-14193276D01*
X18868689Y-14193276D01*
X18849641Y-14183752D01*
X18840117Y-14174228D01*
X18830594Y-14155181D01*
X18821070Y-14117086D01*
X18821070Y-14069467D01*
X18830594Y-14031371D01*
X18840117Y-14012324D01*
X18849641Y-14002800D01*
X18868689Y-13993276D01*
X19059165Y-13993276D02*
X19078213Y-13993276D01*
X19097260Y-14002800D01*
X19106784Y-14012324D01*
X19116308Y-14031371D01*
X19125832Y-14069467D01*
X19125832Y-14117086D01*
X19116308Y-14155181D01*
X19106784Y-14174228D01*
X19097260Y-14183752D01*
X19078213Y-14193276D01*
X19059165Y-14193276D01*
X19040117Y-14183752D01*
X19030594Y-14174228D01*
X19021070Y-14155181D01*
X19011546Y-14117086D01*
X19011546Y-14069467D01*
X19021070Y-14031371D01*
X19030594Y-14012324D01*
X19040117Y-14002800D01*
X19059165Y-13993276D01*
X19211546Y-14193276D02*
X19211546Y-14059943D01*
X19211546Y-14078990D02*
X19221070Y-14069467D01*
X19240117Y-14059943D01*
X19268689Y-14059943D01*
X19287736Y-14069467D01*
X19297260Y-14088514D01*
X19297260Y-14193276D01*
X19297260Y-14088514D02*
X19306784Y-14069467D01*
X19325832Y-14059943D01*
X19354403Y-14059943D01*
X19373451Y-14069467D01*
X19382975Y-14088514D01*
X19382975Y-14193276D01*
X19478213Y-14193276D02*
X19478213Y-14059943D01*
X19478213Y-14078990D02*
X19487736Y-14069467D01*
X19506784Y-14059943D01*
X19535356Y-14059943D01*
X19554403Y-14069467D01*
X19563927Y-14088514D01*
X19563927Y-14193276D01*
X19563927Y-14088514D02*
X19573451Y-14069467D01*
X19592498Y-14059943D01*
X19621070Y-14059943D01*
X19640117Y-14069467D01*
X19649641Y-14088514D01*
X19649641Y-14193276D01*
X20040117Y-13983752D02*
X19868689Y-14240895D01*
X20297260Y-13993276D02*
X20316308Y-13993276D01*
X20335356Y-14002800D01*
X20344879Y-14012324D01*
X20354403Y-14031371D01*
X20363927Y-14069467D01*
X20363927Y-14117086D01*
X20354403Y-14155181D01*
X20344879Y-14174228D01*
X20335356Y-14183752D01*
X20316308Y-14193276D01*
X20297260Y-14193276D01*
X20278213Y-14183752D01*
X20268689Y-14174228D01*
X20259165Y-14155181D01*
X20249641Y-14117086D01*
X20249641Y-14069467D01*
X20259165Y-14031371D01*
X20268689Y-14012324D01*
X20278213Y-14002800D01*
X20297260Y-13993276D01*
X20449641Y-14174228D02*
X20459165Y-14183752D01*
X20449641Y-14193276D01*
X20440117Y-14183752D01*
X20449641Y-14174228D01*
X20449641Y-14193276D01*
X20582975Y-13993276D02*
X20602022Y-13993276D01*
X20621070Y-14002800D01*
X20630594Y-14012324D01*
X20640117Y-14031371D01*
X20649641Y-14069467D01*
X20649641Y-14117086D01*
X20640117Y-14155181D01*
X20630594Y-14174228D01*
X20621070Y-14183752D01*
X20602022Y-14193276D01*
X20582975Y-14193276D01*
X20563927Y-14183752D01*
X20554403Y-14174228D01*
X20544879Y-14155181D01*
X20535356Y-14117086D01*
X20535356Y-14069467D01*
X20544879Y-14031371D01*
X20554403Y-14012324D01*
X20563927Y-14002800D01*
X20582975Y-13993276D01*
X20725832Y-14012324D02*
X20735356Y-14002800D01*
X20754403Y-13993276D01*
X20802022Y-13993276D01*
X20821070Y-14002800D01*
X20830594Y-14012324D01*
X20840117Y-14031371D01*
X20840117Y-14050419D01*
X20830594Y-14078990D01*
X20716308Y-14193276D01*
X20840117Y-14193276D01*
X20906784Y-13993276D02*
X21030594Y-13993276D01*
X20963927Y-14069467D01*
X20992498Y-14069467D01*
X21011546Y-14078990D01*
X21021070Y-14088514D01*
X21030594Y-14107562D01*
X21030594Y-14155181D01*
X21021070Y-14174228D01*
X21011546Y-14183752D01*
X20992498Y-14193276D01*
X20935356Y-14193276D01*
X20916308Y-14183752D01*
X20906784Y-14174228D01*
X21202022Y-13993276D02*
X21163927Y-13993276D01*
X21144879Y-14002800D01*
X21135356Y-14012324D01*
X21116308Y-14040895D01*
X21106784Y-14078990D01*
X21106784Y-14155181D01*
X21116308Y-14174228D01*
X21125832Y-14183752D01*
X21144879Y-14193276D01*
X21182975Y-14193276D01*
X21202022Y-14183752D01*
X21211546Y-14174228D01*
X21221070Y-14155181D01*
X21221070Y-14107562D01*
X21211546Y-14088514D01*
X21202022Y-14078990D01*
X21182975Y-14069467D01*
X21144879Y-14069467D01*
X21125832Y-14078990D01*
X21116308Y-14088514D01*
X21106784Y-14107562D01*
X21297260Y-13993276D02*
X21297260Y-14031371D01*
X21373451Y-13993276D02*
X21373451Y-14031371D01*
X21668689Y-14269467D02*
X21659165Y-14259943D01*
X21640117Y-14231371D01*
X21630594Y-14212324D01*
X21621070Y-14183752D01*
X21611546Y-14136133D01*
X21611546Y-14098038D01*
X21621070Y-14050419D01*
X21630594Y-14021848D01*
X21640117Y-14002800D01*
X21659165Y-13974228D01*
X21668689Y-13964705D01*
X21735356Y-14012324D02*
X21744879Y-14002800D01*
X21763927Y-13993276D01*
X21811546Y-13993276D01*
X21830594Y-14002800D01*
X21840117Y-14012324D01*
X21849641Y-14031371D01*
X21849641Y-14050419D01*
X21840117Y-14078990D01*
X21725832Y-14193276D01*
X21849641Y-14193276D01*
X22087736Y-14193276D02*
X22087736Y-13993276D01*
X22173451Y-14193276D02*
X22173451Y-14088514D01*
X22163927Y-14069467D01*
X22144879Y-14059943D01*
X22116308Y-14059943D01*
X22097260Y-14069467D01*
X22087736Y-14078990D01*
X22297260Y-14193276D02*
X22278213Y-14183752D01*
X22268689Y-14174228D01*
X22259165Y-14155181D01*
X22259165Y-14098038D01*
X22268689Y-14078990D01*
X22278213Y-14069467D01*
X22297260Y-14059943D01*
X22325832Y-14059943D01*
X22344879Y-14069467D01*
X22354403Y-14078990D01*
X22363927Y-14098038D01*
X22363927Y-14155181D01*
X22354403Y-14174228D01*
X22344879Y-14183752D01*
X22325832Y-14193276D01*
X22297260Y-14193276D01*
X22478213Y-14193276D02*
X22459165Y-14183752D01*
X22449641Y-14164705D01*
X22449641Y-13993276D01*
X22630594Y-14183752D02*
X22611546Y-14193276D01*
X22573451Y-14193276D01*
X22554403Y-14183752D01*
X22544879Y-14164705D01*
X22544879Y-14088514D01*
X22554403Y-14069467D01*
X22573451Y-14059943D01*
X22611546Y-14059943D01*
X22630594Y-14069467D01*
X22640117Y-14088514D01*
X22640117Y-14107562D01*
X22544879Y-14126609D01*
X22716308Y-14183752D02*
X22735355Y-14193276D01*
X22773451Y-14193276D01*
X22792498Y-14183752D01*
X22802022Y-14164705D01*
X22802022Y-14155181D01*
X22792498Y-14136133D01*
X22773451Y-14126609D01*
X22744879Y-14126609D01*
X22725832Y-14117086D01*
X22716308Y-14098038D01*
X22716308Y-14088514D01*
X22725832Y-14069467D01*
X22744879Y-14059943D01*
X22773451Y-14059943D01*
X22792498Y-14069467D01*
X22868689Y-14269467D02*
X22878213Y-14259943D01*
X22897260Y-14231371D01*
X22906784Y-14212324D01*
X22916308Y-14183752D01*
X22925832Y-14136133D01*
X22925832Y-14098038D01*
X22916308Y-14050419D01*
X22906784Y-14021848D01*
X22897260Y-14002800D01*
X22878213Y-13974228D01*
X22868689Y-13964705D01*
D16*
X18055034Y-14408550D02*
X18096784Y-14366800D01*
X18055034Y-14325050D01*
X18013284Y-14366800D01*
X18055034Y-14408550D01*
D11*
X18392498Y-14257276D02*
X18411546Y-14257276D01*
X18430594Y-14266800D01*
X18440117Y-14276324D01*
X18449641Y-14295371D01*
X18459165Y-14333467D01*
X18459165Y-14381086D01*
X18449641Y-14419181D01*
X18440117Y-14438228D01*
X18430594Y-14447752D01*
X18411546Y-14457276D01*
X18392498Y-14457276D01*
X18373451Y-14447752D01*
X18363927Y-14438228D01*
X18354403Y-14419181D01*
X18344879Y-14381086D01*
X18344879Y-14333467D01*
X18354403Y-14295371D01*
X18363927Y-14276324D01*
X18373451Y-14266800D01*
X18392498Y-14257276D01*
X18544879Y-14438228D02*
X18554403Y-14447752D01*
X18544879Y-14457276D01*
X18535356Y-14447752D01*
X18544879Y-14438228D01*
X18544879Y-14457276D01*
X18668689Y-14342990D02*
X18649641Y-14333467D01*
X18640117Y-14323943D01*
X18630594Y-14304895D01*
X18630594Y-14295371D01*
X18640117Y-14276324D01*
X18649641Y-14266800D01*
X18668689Y-14257276D01*
X18706784Y-14257276D01*
X18725832Y-14266800D01*
X18735356Y-14276324D01*
X18744879Y-14295371D01*
X18744879Y-14304895D01*
X18735356Y-14323943D01*
X18725832Y-14333467D01*
X18706784Y-14342990D01*
X18668689Y-14342990D01*
X18649641Y-14352514D01*
X18640117Y-14362038D01*
X18630594Y-14381086D01*
X18630594Y-14419181D01*
X18640117Y-14438228D01*
X18649641Y-14447752D01*
X18668689Y-14457276D01*
X18706784Y-14457276D01*
X18725832Y-14447752D01*
X18735356Y-14438228D01*
X18744879Y-14419181D01*
X18744879Y-14381086D01*
X18735356Y-14362038D01*
X18725832Y-14352514D01*
X18706784Y-14342990D01*
X18811546Y-14257276D02*
X18935356Y-14257276D01*
X18868689Y-14333467D01*
X18897260Y-14333467D01*
X18916308Y-14342990D01*
X18925832Y-14352514D01*
X18935356Y-14371562D01*
X18935356Y-14419181D01*
X18925832Y-14438228D01*
X18916308Y-14447752D01*
X18897260Y-14457276D01*
X18840117Y-14457276D01*
X18821070Y-14447752D01*
X18811546Y-14438228D01*
X19116308Y-14257276D02*
X19021070Y-14257276D01*
X19011546Y-14352514D01*
X19021070Y-14342990D01*
X19040117Y-14333467D01*
X19087736Y-14333467D01*
X19106784Y-14342990D01*
X19116308Y-14352514D01*
X19125832Y-14371562D01*
X19125832Y-14419181D01*
X19116308Y-14438228D01*
X19106784Y-14447752D01*
X19087736Y-14457276D01*
X19040117Y-14457276D01*
X19021070Y-14447752D01*
X19011546Y-14438228D01*
X19211546Y-14457276D02*
X19211546Y-14323943D01*
X19211546Y-14342990D02*
X19221070Y-14333467D01*
X19240117Y-14323943D01*
X19268689Y-14323943D01*
X19287736Y-14333467D01*
X19297260Y-14352514D01*
X19297260Y-14457276D01*
X19297260Y-14352514D02*
X19306784Y-14333467D01*
X19325832Y-14323943D01*
X19354403Y-14323943D01*
X19373451Y-14333467D01*
X19382975Y-14352514D01*
X19382975Y-14457276D01*
X19478213Y-14457276D02*
X19478213Y-14323943D01*
X19478213Y-14342990D02*
X19487736Y-14333467D01*
X19506784Y-14323943D01*
X19535356Y-14323943D01*
X19554403Y-14333467D01*
X19563927Y-14352514D01*
X19563927Y-14457276D01*
X19563927Y-14352514D02*
X19573451Y-14333467D01*
X19592498Y-14323943D01*
X19621070Y-14323943D01*
X19640117Y-14333467D01*
X19649641Y-14352514D01*
X19649641Y-14457276D01*
X20040117Y-14247752D02*
X19868689Y-14504895D01*
X20297260Y-14257276D02*
X20316308Y-14257276D01*
X20335356Y-14266800D01*
X20344879Y-14276324D01*
X20354403Y-14295371D01*
X20363927Y-14333467D01*
X20363927Y-14381086D01*
X20354403Y-14419181D01*
X20344879Y-14438228D01*
X20335356Y-14447752D01*
X20316308Y-14457276D01*
X20297260Y-14457276D01*
X20278213Y-14447752D01*
X20268689Y-14438228D01*
X20259165Y-14419181D01*
X20249641Y-14381086D01*
X20249641Y-14333467D01*
X20259165Y-14295371D01*
X20268689Y-14276324D01*
X20278213Y-14266800D01*
X20297260Y-14257276D01*
X20449641Y-14438228D02*
X20459165Y-14447752D01*
X20449641Y-14457276D01*
X20440117Y-14447752D01*
X20449641Y-14438228D01*
X20449641Y-14457276D01*
X20582975Y-14257276D02*
X20602022Y-14257276D01*
X20621070Y-14266800D01*
X20630594Y-14276324D01*
X20640117Y-14295371D01*
X20649641Y-14333467D01*
X20649641Y-14381086D01*
X20640117Y-14419181D01*
X20630594Y-14438228D01*
X20621070Y-14447752D01*
X20602022Y-14457276D01*
X20582975Y-14457276D01*
X20563927Y-14447752D01*
X20554403Y-14438228D01*
X20544879Y-14419181D01*
X20535356Y-14381086D01*
X20535356Y-14333467D01*
X20544879Y-14295371D01*
X20554403Y-14276324D01*
X20563927Y-14266800D01*
X20582975Y-14257276D01*
X20716308Y-14257276D02*
X20840117Y-14257276D01*
X20773451Y-14333467D01*
X20802022Y-14333467D01*
X20821070Y-14342990D01*
X20830594Y-14352514D01*
X20840117Y-14371562D01*
X20840117Y-14419181D01*
X20830594Y-14438228D01*
X20821070Y-14447752D01*
X20802022Y-14457276D01*
X20744879Y-14457276D01*
X20725832Y-14447752D01*
X20716308Y-14438228D01*
X20916308Y-14276324D02*
X20925832Y-14266800D01*
X20944879Y-14257276D01*
X20992498Y-14257276D01*
X21011546Y-14266800D01*
X21021070Y-14276324D01*
X21030594Y-14295371D01*
X21030594Y-14314419D01*
X21021070Y-14342990D01*
X20906784Y-14457276D01*
X21030594Y-14457276D01*
X21125832Y-14457276D02*
X21163927Y-14457276D01*
X21182975Y-14447752D01*
X21192498Y-14438228D01*
X21211546Y-14409657D01*
X21221070Y-14371562D01*
X21221070Y-14295371D01*
X21211546Y-14276324D01*
X21202022Y-14266800D01*
X21182975Y-14257276D01*
X21144879Y-14257276D01*
X21125832Y-14266800D01*
X21116308Y-14276324D01*
X21106784Y-14295371D01*
X21106784Y-14342990D01*
X21116308Y-14362038D01*
X21125832Y-14371562D01*
X21144879Y-14381086D01*
X21182975Y-14381086D01*
X21202022Y-14371562D01*
X21211546Y-14362038D01*
X21221070Y-14342990D01*
X21297260Y-14257276D02*
X21297260Y-14295371D01*
X21373451Y-14257276D02*
X21373451Y-14295371D01*
X21668689Y-14533467D02*
X21659165Y-14523943D01*
X21640117Y-14495371D01*
X21630594Y-14476324D01*
X21621070Y-14447752D01*
X21611546Y-14400133D01*
X21611546Y-14362038D01*
X21621070Y-14314419D01*
X21630594Y-14285848D01*
X21640117Y-14266800D01*
X21659165Y-14238228D01*
X21668689Y-14228705D01*
X21782975Y-14257276D02*
X21802022Y-14257276D01*
X21821070Y-14266800D01*
X21830594Y-14276324D01*
X21840117Y-14295371D01*
X21849641Y-14333467D01*
X21849641Y-14381086D01*
X21840117Y-14419181D01*
X21830594Y-14438228D01*
X21821070Y-14447752D01*
X21802022Y-14457276D01*
X21782975Y-14457276D01*
X21763927Y-14447752D01*
X21754403Y-14438228D01*
X21744879Y-14419181D01*
X21735356Y-14381086D01*
X21735356Y-14333467D01*
X21744879Y-14295371D01*
X21754403Y-14276324D01*
X21763927Y-14266800D01*
X21782975Y-14257276D01*
X22087736Y-14457276D02*
X22087736Y-14257276D01*
X22173451Y-14457276D02*
X22173451Y-14352514D01*
X22163927Y-14333467D01*
X22144879Y-14323943D01*
X22116308Y-14323943D01*
X22097260Y-14333467D01*
X22087736Y-14342990D01*
X22297260Y-14457276D02*
X22278213Y-14447752D01*
X22268689Y-14438228D01*
X22259165Y-14419181D01*
X22259165Y-14362038D01*
X22268689Y-14342990D01*
X22278213Y-14333467D01*
X22297260Y-14323943D01*
X22325832Y-14323943D01*
X22344879Y-14333467D01*
X22354403Y-14342990D01*
X22363927Y-14362038D01*
X22363927Y-14419181D01*
X22354403Y-14438228D01*
X22344879Y-14447752D01*
X22325832Y-14457276D01*
X22297260Y-14457276D01*
X22478213Y-14457276D02*
X22459165Y-14447752D01*
X22449641Y-14428705D01*
X22449641Y-14257276D01*
X22630594Y-14447752D02*
X22611546Y-14457276D01*
X22573451Y-14457276D01*
X22554403Y-14447752D01*
X22544879Y-14428705D01*
X22544879Y-14352514D01*
X22554403Y-14333467D01*
X22573451Y-14323943D01*
X22611546Y-14323943D01*
X22630594Y-14333467D01*
X22640117Y-14352514D01*
X22640117Y-14371562D01*
X22544879Y-14390609D01*
X22716308Y-14447752D02*
X22735355Y-14457276D01*
X22773451Y-14457276D01*
X22792498Y-14447752D01*
X22802022Y-14428705D01*
X22802022Y-14419181D01*
X22792498Y-14400133D01*
X22773451Y-14390609D01*
X22744879Y-14390609D01*
X22725832Y-14381086D01*
X22716308Y-14362038D01*
X22716308Y-14352514D01*
X22725832Y-14333467D01*
X22744879Y-14323943D01*
X22773451Y-14323943D01*
X22792498Y-14333467D01*
X23040117Y-14381086D02*
X23192498Y-14381086D01*
X23116308Y-14457276D02*
X23116308Y-14304895D01*
X23430594Y-14276324D02*
X23440117Y-14266800D01*
X23459165Y-14257276D01*
X23506784Y-14257276D01*
X23525832Y-14266800D01*
X23535355Y-14276324D01*
X23544879Y-14295371D01*
X23544879Y-14314419D01*
X23535355Y-14342990D01*
X23421070Y-14457276D01*
X23544879Y-14457276D01*
X23773451Y-14447752D02*
X23792498Y-14457276D01*
X23830594Y-14457276D01*
X23849641Y-14447752D01*
X23859165Y-14428705D01*
X23859165Y-14419181D01*
X23849641Y-14400133D01*
X23830594Y-14390609D01*
X23802022Y-14390609D01*
X23782974Y-14381086D01*
X23773451Y-14362038D01*
X23773451Y-14352514D01*
X23782974Y-14333467D01*
X23802022Y-14323943D01*
X23830594Y-14323943D01*
X23849641Y-14333467D01*
X23973451Y-14457276D02*
X23954403Y-14447752D01*
X23944879Y-14428705D01*
X23944879Y-14257276D01*
X24078213Y-14457276D02*
X24059165Y-14447752D01*
X24049641Y-14438228D01*
X24040117Y-14419181D01*
X24040117Y-14362038D01*
X24049641Y-14342990D01*
X24059165Y-14333467D01*
X24078213Y-14323943D01*
X24106784Y-14323943D01*
X24125832Y-14333467D01*
X24135355Y-14342990D01*
X24144879Y-14362038D01*
X24144879Y-14419181D01*
X24135355Y-14438228D01*
X24125832Y-14447752D01*
X24106784Y-14457276D01*
X24078213Y-14457276D01*
X24202022Y-14323943D02*
X24278213Y-14323943D01*
X24230594Y-14257276D02*
X24230594Y-14428705D01*
X24240117Y-14447752D01*
X24259165Y-14457276D01*
X24278213Y-14457276D01*
X24335355Y-14447752D02*
X24354403Y-14457276D01*
X24392498Y-14457276D01*
X24411546Y-14447752D01*
X24421070Y-14428705D01*
X24421070Y-14419181D01*
X24411546Y-14400133D01*
X24392498Y-14390609D01*
X24363927Y-14390609D01*
X24344879Y-14381086D01*
X24335355Y-14362038D01*
X24335355Y-14352514D01*
X24344879Y-14333467D01*
X24363927Y-14323943D01*
X24392498Y-14323943D01*
X24411546Y-14333467D01*
X24487736Y-14533467D02*
X24497260Y-14523943D01*
X24516308Y-14495371D01*
X24525832Y-14476324D01*
X24535355Y-14447752D01*
X24544879Y-14400133D01*
X24544879Y-14362038D01*
X24535355Y-14314419D01*
X24525832Y-14285848D01*
X24516308Y-14266800D01*
X24497260Y-14238228D01*
X24487736Y-14228705D01*
D17*
X17996784Y-14580800D02*
X18096784Y-14680800D01*
X18096784Y-14580800D02*
X17996784Y-14680800D01*
X18096784Y-14630800D02*
G75*
G03*
X18096784Y-14630800I-50000J0D01*
G01*
D11*
X18459165Y-14721276D02*
X18344879Y-14721276D01*
X18402022Y-14721276D02*
X18402022Y-14521276D01*
X18382975Y-14549848D01*
X18363927Y-14568895D01*
X18344879Y-14578419D01*
X18544879Y-14702228D02*
X18554403Y-14711752D01*
X18544879Y-14721276D01*
X18535356Y-14711752D01*
X18544879Y-14702228D01*
X18544879Y-14721276D01*
X18678213Y-14521276D02*
X18697260Y-14521276D01*
X18716308Y-14530800D01*
X18725832Y-14540324D01*
X18735356Y-14559371D01*
X18744879Y-14597467D01*
X18744879Y-14645086D01*
X18735356Y-14683181D01*
X18725832Y-14702228D01*
X18716308Y-14711752D01*
X18697260Y-14721276D01*
X18678213Y-14721276D01*
X18659165Y-14711752D01*
X18649641Y-14702228D01*
X18640117Y-14683181D01*
X18630594Y-14645086D01*
X18630594Y-14597467D01*
X18640117Y-14559371D01*
X18649641Y-14540324D01*
X18659165Y-14530800D01*
X18678213Y-14521276D01*
X18868689Y-14521276D02*
X18887736Y-14521276D01*
X18906784Y-14530800D01*
X18916308Y-14540324D01*
X18925832Y-14559371D01*
X18935356Y-14597467D01*
X18935356Y-14645086D01*
X18925832Y-14683181D01*
X18916308Y-14702228D01*
X18906784Y-14711752D01*
X18887736Y-14721276D01*
X18868689Y-14721276D01*
X18849641Y-14711752D01*
X18840117Y-14702228D01*
X18830594Y-14683181D01*
X18821070Y-14645086D01*
X18821070Y-14597467D01*
X18830594Y-14559371D01*
X18840117Y-14540324D01*
X18849641Y-14530800D01*
X18868689Y-14521276D01*
X19059165Y-14521276D02*
X19078213Y-14521276D01*
X19097260Y-14530800D01*
X19106784Y-14540324D01*
X19116308Y-14559371D01*
X19125832Y-14597467D01*
X19125832Y-14645086D01*
X19116308Y-14683181D01*
X19106784Y-14702228D01*
X19097260Y-14711752D01*
X19078213Y-14721276D01*
X19059165Y-14721276D01*
X19040117Y-14711752D01*
X19030594Y-14702228D01*
X19021070Y-14683181D01*
X19011546Y-14645086D01*
X19011546Y-14597467D01*
X19021070Y-14559371D01*
X19030594Y-14540324D01*
X19040117Y-14530800D01*
X19059165Y-14521276D01*
X19211546Y-14721276D02*
X19211546Y-14587943D01*
X19211546Y-14606990D02*
X19221070Y-14597467D01*
X19240117Y-14587943D01*
X19268689Y-14587943D01*
X19287736Y-14597467D01*
X19297260Y-14616514D01*
X19297260Y-14721276D01*
X19297260Y-14616514D02*
X19306784Y-14597467D01*
X19325832Y-14587943D01*
X19354403Y-14587943D01*
X19373451Y-14597467D01*
X19382975Y-14616514D01*
X19382975Y-14721276D01*
X19478213Y-14721276D02*
X19478213Y-14587943D01*
X19478213Y-14606990D02*
X19487736Y-14597467D01*
X19506784Y-14587943D01*
X19535356Y-14587943D01*
X19554403Y-14597467D01*
X19563927Y-14616514D01*
X19563927Y-14721276D01*
X19563927Y-14616514D02*
X19573451Y-14597467D01*
X19592498Y-14587943D01*
X19621070Y-14587943D01*
X19640117Y-14597467D01*
X19649641Y-14616514D01*
X19649641Y-14721276D01*
X20040117Y-14511752D02*
X19868689Y-14768895D01*
X20297260Y-14521276D02*
X20316308Y-14521276D01*
X20335356Y-14530800D01*
X20344879Y-14540324D01*
X20354403Y-14559371D01*
X20363927Y-14597467D01*
X20363927Y-14645086D01*
X20354403Y-14683181D01*
X20344879Y-14702228D01*
X20335356Y-14711752D01*
X20316308Y-14721276D01*
X20297260Y-14721276D01*
X20278213Y-14711752D01*
X20268689Y-14702228D01*
X20259165Y-14683181D01*
X20249641Y-14645086D01*
X20249641Y-14597467D01*
X20259165Y-14559371D01*
X20268689Y-14540324D01*
X20278213Y-14530800D01*
X20297260Y-14521276D01*
X20449641Y-14702228D02*
X20459165Y-14711752D01*
X20449641Y-14721276D01*
X20440117Y-14711752D01*
X20449641Y-14702228D01*
X20449641Y-14721276D01*
X20582975Y-14521276D02*
X20602022Y-14521276D01*
X20621070Y-14530800D01*
X20630594Y-14540324D01*
X20640117Y-14559371D01*
X20649641Y-14597467D01*
X20649641Y-14645086D01*
X20640117Y-14683181D01*
X20630594Y-14702228D01*
X20621070Y-14711752D01*
X20602022Y-14721276D01*
X20582975Y-14721276D01*
X20563927Y-14711752D01*
X20554403Y-14702228D01*
X20544879Y-14683181D01*
X20535356Y-14645086D01*
X20535356Y-14597467D01*
X20544879Y-14559371D01*
X20554403Y-14540324D01*
X20563927Y-14530800D01*
X20582975Y-14521276D01*
X20716308Y-14521276D02*
X20840117Y-14521276D01*
X20773451Y-14597467D01*
X20802022Y-14597467D01*
X20821070Y-14606990D01*
X20830594Y-14616514D01*
X20840117Y-14635562D01*
X20840117Y-14683181D01*
X20830594Y-14702228D01*
X20821070Y-14711752D01*
X20802022Y-14721276D01*
X20744879Y-14721276D01*
X20725832Y-14711752D01*
X20716308Y-14702228D01*
X20935356Y-14721276D02*
X20973451Y-14721276D01*
X20992498Y-14711752D01*
X21002022Y-14702228D01*
X21021070Y-14673657D01*
X21030594Y-14635562D01*
X21030594Y-14559371D01*
X21021070Y-14540324D01*
X21011546Y-14530800D01*
X20992498Y-14521276D01*
X20954403Y-14521276D01*
X20935356Y-14530800D01*
X20925832Y-14540324D01*
X20916308Y-14559371D01*
X20916308Y-14606990D01*
X20925832Y-14626038D01*
X20935356Y-14635562D01*
X20954403Y-14645086D01*
X20992498Y-14645086D01*
X21011546Y-14635562D01*
X21021070Y-14626038D01*
X21030594Y-14606990D01*
X21202022Y-14587943D02*
X21202022Y-14721276D01*
X21154403Y-14511752D02*
X21106784Y-14654609D01*
X21230594Y-14654609D01*
X21297260Y-14521276D02*
X21297260Y-14559371D01*
X21373451Y-14521276D02*
X21373451Y-14559371D01*
X21668689Y-14797467D02*
X21659165Y-14787943D01*
X21640117Y-14759371D01*
X21630594Y-14740324D01*
X21621070Y-14711752D01*
X21611546Y-14664133D01*
X21611546Y-14626038D01*
X21621070Y-14578419D01*
X21630594Y-14549848D01*
X21640117Y-14530800D01*
X21659165Y-14502228D01*
X21668689Y-14492705D01*
X21830594Y-14521276D02*
X21792498Y-14521276D01*
X21773451Y-14530800D01*
X21763927Y-14540324D01*
X21744879Y-14568895D01*
X21735356Y-14606990D01*
X21735356Y-14683181D01*
X21744879Y-14702228D01*
X21754403Y-14711752D01*
X21773451Y-14721276D01*
X21811546Y-14721276D01*
X21830594Y-14711752D01*
X21840117Y-14702228D01*
X21849641Y-14683181D01*
X21849641Y-14635562D01*
X21840117Y-14616514D01*
X21830594Y-14606990D01*
X21811546Y-14597467D01*
X21773451Y-14597467D01*
X21754403Y-14606990D01*
X21744879Y-14616514D01*
X21735356Y-14635562D01*
X22087736Y-14721276D02*
X22087736Y-14521276D01*
X22173451Y-14721276D02*
X22173451Y-14616514D01*
X22163927Y-14597467D01*
X22144879Y-14587943D01*
X22116308Y-14587943D01*
X22097260Y-14597467D01*
X22087736Y-14606990D01*
X22297260Y-14721276D02*
X22278213Y-14711752D01*
X22268689Y-14702228D01*
X22259165Y-14683181D01*
X22259165Y-14626038D01*
X22268689Y-14606990D01*
X22278213Y-14597467D01*
X22297260Y-14587943D01*
X22325832Y-14587943D01*
X22344879Y-14597467D01*
X22354403Y-14606990D01*
X22363927Y-14626038D01*
X22363927Y-14683181D01*
X22354403Y-14702228D01*
X22344879Y-14711752D01*
X22325832Y-14721276D01*
X22297260Y-14721276D01*
X22478213Y-14721276D02*
X22459165Y-14711752D01*
X22449641Y-14692705D01*
X22449641Y-14521276D01*
X22630594Y-14711752D02*
X22611546Y-14721276D01*
X22573451Y-14721276D01*
X22554403Y-14711752D01*
X22544879Y-14692705D01*
X22544879Y-14616514D01*
X22554403Y-14597467D01*
X22573451Y-14587943D01*
X22611546Y-14587943D01*
X22630594Y-14597467D01*
X22640117Y-14616514D01*
X22640117Y-14635562D01*
X22544879Y-14654609D01*
X22716308Y-14711752D02*
X22735355Y-14721276D01*
X22773451Y-14721276D01*
X22792498Y-14711752D01*
X22802022Y-14692705D01*
X22802022Y-14683181D01*
X22792498Y-14664133D01*
X22773451Y-14654609D01*
X22744879Y-14654609D01*
X22725832Y-14645086D01*
X22716308Y-14626038D01*
X22716308Y-14616514D01*
X22725832Y-14597467D01*
X22744879Y-14587943D01*
X22773451Y-14587943D01*
X22792498Y-14597467D01*
X22868689Y-14797467D02*
X22878213Y-14787943D01*
X22897260Y-14759371D01*
X22906784Y-14740324D01*
X22916308Y-14711752D01*
X22925832Y-14664133D01*
X22925832Y-14626038D01*
X22916308Y-14578419D01*
X22906784Y-14549848D01*
X22897260Y-14530800D01*
X22878213Y-14502228D01*
X22868689Y-14492705D01*
D18*
X17936784Y-14814800D02*
X18096784Y-14974800D01*
X18096784Y-14814800D02*
X17936784Y-14974800D01*
X18016784Y-14814800D02*
X18016784Y-14974800D01*
X17936784Y-14894800D02*
X18096784Y-14894800D01*
D11*
X18459165Y-14985276D02*
X18344879Y-14985276D01*
X18402022Y-14985276D02*
X18402022Y-14785276D01*
X18382975Y-14813848D01*
X18363927Y-14832895D01*
X18344879Y-14842419D01*
X18544879Y-14966228D02*
X18554403Y-14975752D01*
X18544879Y-14985276D01*
X18535356Y-14975752D01*
X18544879Y-14966228D01*
X18544879Y-14985276D01*
X18725832Y-14785276D02*
X18687736Y-14785276D01*
X18668689Y-14794800D01*
X18659165Y-14804324D01*
X18640117Y-14832895D01*
X18630594Y-14870990D01*
X18630594Y-14947181D01*
X18640117Y-14966228D01*
X18649641Y-14975752D01*
X18668689Y-14985276D01*
X18706784Y-14985276D01*
X18725832Y-14975752D01*
X18735356Y-14966228D01*
X18744879Y-14947181D01*
X18744879Y-14899562D01*
X18735356Y-14880514D01*
X18725832Y-14870990D01*
X18706784Y-14861467D01*
X18668689Y-14861467D01*
X18649641Y-14870990D01*
X18640117Y-14880514D01*
X18630594Y-14899562D01*
X18868689Y-14785276D02*
X18887736Y-14785276D01*
X18906784Y-14794800D01*
X18916308Y-14804324D01*
X18925832Y-14823371D01*
X18935356Y-14861467D01*
X18935356Y-14909086D01*
X18925832Y-14947181D01*
X18916308Y-14966228D01*
X18906784Y-14975752D01*
X18887736Y-14985276D01*
X18868689Y-14985276D01*
X18849641Y-14975752D01*
X18840117Y-14966228D01*
X18830594Y-14947181D01*
X18821070Y-14909086D01*
X18821070Y-14861467D01*
X18830594Y-14823371D01*
X18840117Y-14804324D01*
X18849641Y-14794800D01*
X18868689Y-14785276D01*
X19059165Y-14785276D02*
X19078213Y-14785276D01*
X19097260Y-14794800D01*
X19106784Y-14804324D01*
X19116308Y-14823371D01*
X19125832Y-14861467D01*
X19125832Y-14909086D01*
X19116308Y-14947181D01*
X19106784Y-14966228D01*
X19097260Y-14975752D01*
X19078213Y-14985276D01*
X19059165Y-14985276D01*
X19040117Y-14975752D01*
X19030594Y-14966228D01*
X19021070Y-14947181D01*
X19011546Y-14909086D01*
X19011546Y-14861467D01*
X19021070Y-14823371D01*
X19030594Y-14804324D01*
X19040117Y-14794800D01*
X19059165Y-14785276D01*
X19211546Y-14985276D02*
X19211546Y-14851943D01*
X19211546Y-14870990D02*
X19221070Y-14861467D01*
X19240117Y-14851943D01*
X19268689Y-14851943D01*
X19287736Y-14861467D01*
X19297260Y-14880514D01*
X19297260Y-14985276D01*
X19297260Y-14880514D02*
X19306784Y-14861467D01*
X19325832Y-14851943D01*
X19354403Y-14851943D01*
X19373451Y-14861467D01*
X19382975Y-14880514D01*
X19382975Y-14985276D01*
X19478213Y-14985276D02*
X19478213Y-14851943D01*
X19478213Y-14870990D02*
X19487736Y-14861467D01*
X19506784Y-14851943D01*
X19535356Y-14851943D01*
X19554403Y-14861467D01*
X19563927Y-14880514D01*
X19563927Y-14985276D01*
X19563927Y-14880514D02*
X19573451Y-14861467D01*
X19592498Y-14851943D01*
X19621070Y-14851943D01*
X19640117Y-14861467D01*
X19649641Y-14880514D01*
X19649641Y-14985276D01*
X20040117Y-14775752D02*
X19868689Y-15032895D01*
X20297260Y-14785276D02*
X20316308Y-14785276D01*
X20335356Y-14794800D01*
X20344879Y-14804324D01*
X20354403Y-14823371D01*
X20363927Y-14861467D01*
X20363927Y-14909086D01*
X20354403Y-14947181D01*
X20344879Y-14966228D01*
X20335356Y-14975752D01*
X20316308Y-14985276D01*
X20297260Y-14985276D01*
X20278213Y-14975752D01*
X20268689Y-14966228D01*
X20259165Y-14947181D01*
X20249641Y-14909086D01*
X20249641Y-14861467D01*
X20259165Y-14823371D01*
X20268689Y-14804324D01*
X20278213Y-14794800D01*
X20297260Y-14785276D01*
X20449641Y-14966228D02*
X20459165Y-14975752D01*
X20449641Y-14985276D01*
X20440117Y-14975752D01*
X20449641Y-14966228D01*
X20449641Y-14985276D01*
X20582975Y-14785276D02*
X20602022Y-14785276D01*
X20621070Y-14794800D01*
X20630594Y-14804324D01*
X20640117Y-14823371D01*
X20649641Y-14861467D01*
X20649641Y-14909086D01*
X20640117Y-14947181D01*
X20630594Y-14966228D01*
X20621070Y-14975752D01*
X20602022Y-14985276D01*
X20582975Y-14985276D01*
X20563927Y-14975752D01*
X20554403Y-14966228D01*
X20544879Y-14947181D01*
X20535356Y-14909086D01*
X20535356Y-14861467D01*
X20544879Y-14823371D01*
X20554403Y-14804324D01*
X20563927Y-14794800D01*
X20582975Y-14785276D01*
X20821070Y-14785276D02*
X20782975Y-14785276D01*
X20763927Y-14794800D01*
X20754403Y-14804324D01*
X20735356Y-14832895D01*
X20725832Y-14870990D01*
X20725832Y-14947181D01*
X20735356Y-14966228D01*
X20744879Y-14975752D01*
X20763927Y-14985276D01*
X20802022Y-14985276D01*
X20821070Y-14975752D01*
X20830594Y-14966228D01*
X20840117Y-14947181D01*
X20840117Y-14899562D01*
X20830594Y-14880514D01*
X20821070Y-14870990D01*
X20802022Y-14861467D01*
X20763927Y-14861467D01*
X20744879Y-14870990D01*
X20735356Y-14880514D01*
X20725832Y-14899562D01*
X20906784Y-14785276D02*
X21030594Y-14785276D01*
X20963927Y-14861467D01*
X20992498Y-14861467D01*
X21011546Y-14870990D01*
X21021070Y-14880514D01*
X21030594Y-14899562D01*
X21030594Y-14947181D01*
X21021070Y-14966228D01*
X21011546Y-14975752D01*
X20992498Y-14985276D01*
X20935356Y-14985276D01*
X20916308Y-14975752D01*
X20906784Y-14966228D01*
X21154403Y-14785276D02*
X21173451Y-14785276D01*
X21192498Y-14794800D01*
X21202022Y-14804324D01*
X21211546Y-14823371D01*
X21221070Y-14861467D01*
X21221070Y-14909086D01*
X21211546Y-14947181D01*
X21202022Y-14966228D01*
X21192498Y-14975752D01*
X21173451Y-14985276D01*
X21154403Y-14985276D01*
X21135356Y-14975752D01*
X21125832Y-14966228D01*
X21116308Y-14947181D01*
X21106784Y-14909086D01*
X21106784Y-14861467D01*
X21116308Y-14823371D01*
X21125832Y-14804324D01*
X21135356Y-14794800D01*
X21154403Y-14785276D01*
X21297260Y-14785276D02*
X21297260Y-14823371D01*
X21373451Y-14785276D02*
X21373451Y-14823371D01*
X21668689Y-15061467D02*
X21659165Y-15051943D01*
X21640117Y-15023371D01*
X21630594Y-15004324D01*
X21621070Y-14975752D01*
X21611546Y-14928133D01*
X21611546Y-14890038D01*
X21621070Y-14842419D01*
X21630594Y-14813848D01*
X21640117Y-14794800D01*
X21659165Y-14766228D01*
X21668689Y-14756705D01*
X21725832Y-14785276D02*
X21849641Y-14785276D01*
X21782975Y-14861467D01*
X21811546Y-14861467D01*
X21830594Y-14870990D01*
X21840117Y-14880514D01*
X21849641Y-14899562D01*
X21849641Y-14947181D01*
X21840117Y-14966228D01*
X21830594Y-14975752D01*
X21811546Y-14985276D01*
X21754403Y-14985276D01*
X21735356Y-14975752D01*
X21725832Y-14966228D01*
X22087736Y-14985276D02*
X22087736Y-14785276D01*
X22173451Y-14985276D02*
X22173451Y-14880514D01*
X22163927Y-14861467D01*
X22144879Y-14851943D01*
X22116308Y-14851943D01*
X22097260Y-14861467D01*
X22087736Y-14870990D01*
X22297260Y-14985276D02*
X22278213Y-14975752D01*
X22268689Y-14966228D01*
X22259165Y-14947181D01*
X22259165Y-14890038D01*
X22268689Y-14870990D01*
X22278213Y-14861467D01*
X22297260Y-14851943D01*
X22325832Y-14851943D01*
X22344879Y-14861467D01*
X22354403Y-14870990D01*
X22363927Y-14890038D01*
X22363927Y-14947181D01*
X22354403Y-14966228D01*
X22344879Y-14975752D01*
X22325832Y-14985276D01*
X22297260Y-14985276D01*
X22478213Y-14985276D02*
X22459165Y-14975752D01*
X22449641Y-14956705D01*
X22449641Y-14785276D01*
X22630594Y-14975752D02*
X22611546Y-14985276D01*
X22573451Y-14985276D01*
X22554403Y-14975752D01*
X22544879Y-14956705D01*
X22544879Y-14880514D01*
X22554403Y-14861467D01*
X22573451Y-14851943D01*
X22611546Y-14851943D01*
X22630594Y-14861467D01*
X22640117Y-14880514D01*
X22640117Y-14899562D01*
X22544879Y-14918609D01*
X22716308Y-14975752D02*
X22735355Y-14985276D01*
X22773451Y-14985276D01*
X22792498Y-14975752D01*
X22802022Y-14956705D01*
X22802022Y-14947181D01*
X22792498Y-14928133D01*
X22773451Y-14918609D01*
X22744879Y-14918609D01*
X22725832Y-14909086D01*
X22716308Y-14890038D01*
X22716308Y-14880514D01*
X22725832Y-14861467D01*
X22744879Y-14851943D01*
X22773451Y-14851943D01*
X22792498Y-14861467D01*
X22868689Y-15061467D02*
X22878213Y-15051943D01*
X22897260Y-15023371D01*
X22906784Y-15004324D01*
X22916308Y-14975752D01*
X22925832Y-14928133D01*
X22925832Y-14890038D01*
X22916308Y-14842419D01*
X22906784Y-14813848D01*
X22897260Y-14794800D01*
X22878213Y-14766228D01*
X22868689Y-14756705D01*
X17896784Y-15074800D02*
X18096784Y-15274800D01*
X18096784Y-15074800D02*
X17896784Y-15274800D01*
X18067496Y-15245511D02*
X18067496Y-15104089D01*
X17926073Y-15104089D01*
X17926073Y-15245511D01*
X18067496Y-15245511D01*
X18344879Y-15084324D02*
X18354403Y-15074800D01*
X18373451Y-15065276D01*
X18421070Y-15065276D01*
X18440117Y-15074800D01*
X18449641Y-15084324D01*
X18459165Y-15103371D01*
X18459165Y-15122419D01*
X18449641Y-15150990D01*
X18335356Y-15265276D01*
X18459165Y-15265276D01*
X18544879Y-15246228D02*
X18554403Y-15255752D01*
X18544879Y-15265276D01*
X18535356Y-15255752D01*
X18544879Y-15246228D01*
X18544879Y-15265276D01*
X18735356Y-15065276D02*
X18640117Y-15065276D01*
X18630594Y-15160514D01*
X18640117Y-15150990D01*
X18659165Y-15141467D01*
X18706784Y-15141467D01*
X18725832Y-15150990D01*
X18735356Y-15160514D01*
X18744879Y-15179562D01*
X18744879Y-15227181D01*
X18735356Y-15246228D01*
X18725832Y-15255752D01*
X18706784Y-15265276D01*
X18659165Y-15265276D01*
X18640117Y-15255752D01*
X18630594Y-15246228D01*
X18868689Y-15065276D02*
X18887736Y-15065276D01*
X18906784Y-15074800D01*
X18916308Y-15084324D01*
X18925832Y-15103371D01*
X18935356Y-15141467D01*
X18935356Y-15189086D01*
X18925832Y-15227181D01*
X18916308Y-15246228D01*
X18906784Y-15255752D01*
X18887736Y-15265276D01*
X18868689Y-15265276D01*
X18849641Y-15255752D01*
X18840117Y-15246228D01*
X18830594Y-15227181D01*
X18821070Y-15189086D01*
X18821070Y-15141467D01*
X18830594Y-15103371D01*
X18840117Y-15084324D01*
X18849641Y-15074800D01*
X18868689Y-15065276D01*
X19059165Y-15065276D02*
X19078213Y-15065276D01*
X19097260Y-15074800D01*
X19106784Y-15084324D01*
X19116308Y-15103371D01*
X19125832Y-15141467D01*
X19125832Y-15189086D01*
X19116308Y-15227181D01*
X19106784Y-15246228D01*
X19097260Y-15255752D01*
X19078213Y-15265276D01*
X19059165Y-15265276D01*
X19040117Y-15255752D01*
X19030594Y-15246228D01*
X19021070Y-15227181D01*
X19011546Y-15189086D01*
X19011546Y-15141467D01*
X19021070Y-15103371D01*
X19030594Y-15084324D01*
X19040117Y-15074800D01*
X19059165Y-15065276D01*
X19211546Y-15265276D02*
X19211546Y-15131943D01*
X19211546Y-15150990D02*
X19221070Y-15141467D01*
X19240117Y-15131943D01*
X19268689Y-15131943D01*
X19287736Y-15141467D01*
X19297260Y-15160514D01*
X19297260Y-15265276D01*
X19297260Y-15160514D02*
X19306784Y-15141467D01*
X19325832Y-15131943D01*
X19354403Y-15131943D01*
X19373451Y-15141467D01*
X19382975Y-15160514D01*
X19382975Y-15265276D01*
X19478213Y-15265276D02*
X19478213Y-15131943D01*
X19478213Y-15150990D02*
X19487736Y-15141467D01*
X19506784Y-15131943D01*
X19535356Y-15131943D01*
X19554403Y-15141467D01*
X19563927Y-15160514D01*
X19563927Y-15265276D01*
X19563927Y-15160514D02*
X19573451Y-15141467D01*
X19592498Y-15131943D01*
X19621070Y-15131943D01*
X19640117Y-15141467D01*
X19649641Y-15160514D01*
X19649641Y-15265276D01*
X20040117Y-15055752D02*
X19868689Y-15312895D01*
X20297260Y-15065276D02*
X20316308Y-15065276D01*
X20335356Y-15074800D01*
X20344879Y-15084324D01*
X20354403Y-15103371D01*
X20363927Y-15141467D01*
X20363927Y-15189086D01*
X20354403Y-15227181D01*
X20344879Y-15246228D01*
X20335356Y-15255752D01*
X20316308Y-15265276D01*
X20297260Y-15265276D01*
X20278213Y-15255752D01*
X20268689Y-15246228D01*
X20259165Y-15227181D01*
X20249641Y-15189086D01*
X20249641Y-15141467D01*
X20259165Y-15103371D01*
X20268689Y-15084324D01*
X20278213Y-15074800D01*
X20297260Y-15065276D01*
X20449641Y-15246228D02*
X20459165Y-15255752D01*
X20449641Y-15265276D01*
X20440117Y-15255752D01*
X20449641Y-15246228D01*
X20449641Y-15265276D01*
X20582975Y-15065276D02*
X20602022Y-15065276D01*
X20621070Y-15074800D01*
X20630594Y-15084324D01*
X20640117Y-15103371D01*
X20649641Y-15141467D01*
X20649641Y-15189086D01*
X20640117Y-15227181D01*
X20630594Y-15246228D01*
X20621070Y-15255752D01*
X20602022Y-15265276D01*
X20582975Y-15265276D01*
X20563927Y-15255752D01*
X20554403Y-15246228D01*
X20544879Y-15227181D01*
X20535356Y-15189086D01*
X20535356Y-15141467D01*
X20544879Y-15103371D01*
X20554403Y-15084324D01*
X20563927Y-15074800D01*
X20582975Y-15065276D01*
X20744879Y-15265276D02*
X20782975Y-15265276D01*
X20802022Y-15255752D01*
X20811546Y-15246228D01*
X20830594Y-15217657D01*
X20840117Y-15179562D01*
X20840117Y-15103371D01*
X20830594Y-15084324D01*
X20821070Y-15074800D01*
X20802022Y-15065276D01*
X20763927Y-15065276D01*
X20744879Y-15074800D01*
X20735356Y-15084324D01*
X20725832Y-15103371D01*
X20725832Y-15150990D01*
X20735356Y-15170038D01*
X20744879Y-15179562D01*
X20763927Y-15189086D01*
X20802022Y-15189086D01*
X20821070Y-15179562D01*
X20830594Y-15170038D01*
X20840117Y-15150990D01*
X20954403Y-15150990D02*
X20935356Y-15141467D01*
X20925832Y-15131943D01*
X20916308Y-15112895D01*
X20916308Y-15103371D01*
X20925832Y-15084324D01*
X20935356Y-15074800D01*
X20954403Y-15065276D01*
X20992498Y-15065276D01*
X21011546Y-15074800D01*
X21021070Y-15084324D01*
X21030594Y-15103371D01*
X21030594Y-15112895D01*
X21021070Y-15131943D01*
X21011546Y-15141467D01*
X20992498Y-15150990D01*
X20954403Y-15150990D01*
X20935356Y-15160514D01*
X20925832Y-15170038D01*
X20916308Y-15189086D01*
X20916308Y-15227181D01*
X20925832Y-15246228D01*
X20935356Y-15255752D01*
X20954403Y-15265276D01*
X20992498Y-15265276D01*
X21011546Y-15255752D01*
X21021070Y-15246228D01*
X21030594Y-15227181D01*
X21030594Y-15189086D01*
X21021070Y-15170038D01*
X21011546Y-15160514D01*
X20992498Y-15150990D01*
X21202022Y-15131943D02*
X21202022Y-15265276D01*
X21154403Y-15055752D02*
X21106784Y-15198609D01*
X21230594Y-15198609D01*
X21297260Y-15065276D02*
X21297260Y-15103371D01*
X21373451Y-15065276D02*
X21373451Y-15103371D01*
X21668689Y-15341467D02*
X21659165Y-15331943D01*
X21640117Y-15303371D01*
X21630594Y-15284324D01*
X21621070Y-15255752D01*
X21611546Y-15208133D01*
X21611546Y-15170038D01*
X21621070Y-15122419D01*
X21630594Y-15093848D01*
X21640117Y-15074800D01*
X21659165Y-15046228D01*
X21668689Y-15036705D01*
X21830594Y-15131943D02*
X21830594Y-15265276D01*
X21782975Y-15055752D02*
X21735356Y-15198609D01*
X21859165Y-15198609D01*
X22087736Y-15265276D02*
X22087736Y-15065276D01*
X22173451Y-15265276D02*
X22173451Y-15160514D01*
X22163927Y-15141467D01*
X22144879Y-15131943D01*
X22116308Y-15131943D01*
X22097260Y-15141467D01*
X22087736Y-15150990D01*
X22297260Y-15265276D02*
X22278213Y-15255752D01*
X22268689Y-15246228D01*
X22259165Y-15227181D01*
X22259165Y-15170038D01*
X22268689Y-15150990D01*
X22278213Y-15141467D01*
X22297260Y-15131943D01*
X22325832Y-15131943D01*
X22344879Y-15141467D01*
X22354403Y-15150990D01*
X22363927Y-15170038D01*
X22363927Y-15227181D01*
X22354403Y-15246228D01*
X22344879Y-15255752D01*
X22325832Y-15265276D01*
X22297260Y-15265276D01*
X22478213Y-15265276D02*
X22459165Y-15255752D01*
X22449641Y-15236705D01*
X22449641Y-15065276D01*
X22630594Y-15255752D02*
X22611546Y-15265276D01*
X22573451Y-15265276D01*
X22554403Y-15255752D01*
X22544879Y-15236705D01*
X22544879Y-15160514D01*
X22554403Y-15141467D01*
X22573451Y-15131943D01*
X22611546Y-15131943D01*
X22630594Y-15141467D01*
X22640117Y-15160514D01*
X22640117Y-15179562D01*
X22544879Y-15198609D01*
X22716308Y-15255752D02*
X22735355Y-15265276D01*
X22773451Y-15265276D01*
X22792498Y-15255752D01*
X22802022Y-15236705D01*
X22802022Y-15227181D01*
X22792498Y-15208133D01*
X22773451Y-15198609D01*
X22744879Y-15198609D01*
X22725832Y-15189086D01*
X22716308Y-15170038D01*
X22716308Y-15160514D01*
X22725832Y-15141467D01*
X22744879Y-15131943D01*
X22773451Y-15131943D01*
X22792498Y-15141467D01*
X22868689Y-15341467D02*
X22878213Y-15331943D01*
X22897260Y-15303371D01*
X22906784Y-15284324D01*
X22916308Y-15255752D01*
X22925832Y-15208133D01*
X22925832Y-15170038D01*
X22916308Y-15122419D01*
X22906784Y-15093848D01*
X22897260Y-15074800D01*
X22878213Y-15046228D01*
X22868689Y-15036705D01*
M02*
