%TF.GenerationSoftware,KiCad,Pcbnew,(6.0.0)*%
%TF.CreationDate,2022-04-21T06:05:03-07:00*%
%TF.ProjectId,ecp5u85-bse-usb,65637035-7538-4352-9d62-73652d757362,A*%
%TF.SameCoordinates,Original*%
%TF.FileFunction,Soldermask,Top*%
%TF.FilePolarity,Negative*%
%FSLAX46Y46*%
G04 Gerber Fmt 4.6, Leading zero omitted, Abs format (unit mm)*
G04 Created by KiCad (PCBNEW (6.0.0)) date 2022-04-21 06:05:03*
%MOMM*%
%LPD*%
G01*
G04 APERTURE LIST*
G04 Aperture macros list*
%AMRoundRect*
0 Rectangle with rounded corners*
0 $1 Rounding radius*
0 $2 $3 $4 $5 $6 $7 $8 $9 X,Y pos of 4 corners*
0 Add a 4 corners polygon primitive as box body*
4,1,4,$2,$3,$4,$5,$6,$7,$8,$9,$2,$3,0*
0 Add four circle primitives for the rounded corners*
1,1,$1+$1,$2,$3*
1,1,$1+$1,$4,$5*
1,1,$1+$1,$6,$7*
1,1,$1+$1,$8,$9*
0 Add four rect primitives between the rounded corners*
20,1,$1+$1,$2,$3,$4,$5,0*
20,1,$1+$1,$4,$5,$6,$7,0*
20,1,$1+$1,$6,$7,$8,$9,0*
20,1,$1+$1,$8,$9,$2,$3,0*%
%AMRotRect*
0 Rectangle, with rotation*
0 The origin of the aperture is its center*
0 $1 length*
0 $2 width*
0 $3 Rotation angle, in degrees counterclockwise*
0 Add horizontal line*
21,1,$1,$2,0,0,$3*%
%AMFreePoly0*
4,1,7,0.100000,-0.300000,-0.100000,-0.300000,-0.100000,0.100000,-0.300000,0.100000,-0.300000,0.300000,0.100000,0.300000,0.100000,-0.300000,0.100000,-0.300000,$1*%
%AMFreePoly1*
4,1,7,0.300000,0.100000,0.100000,0.100000,0.100000,-0.300000,-0.100000,-0.300000,-0.100000,0.300000,0.300000,0.300000,0.300000,0.100000,0.300000,0.100000,$1*%
%AMFreePoly2*
4,1,15,-0.770000,0.650000,-0.761954,0.719015,-0.717534,0.819490,-0.639922,0.897238,-0.539524,0.941833,-0.470000,0.950000,0.770000,0.950000,0.770000,-0.950000,-0.470000,-0.950000,-0.539015,-0.941954,-0.639490,-0.897534,-0.717238,-0.819922,-0.761833,-0.719524,-0.770000,-0.650000,-0.770000,0.650000,-0.770000,0.650000,$1*%
%AMFreePoly3*
4,1,15,-0.770000,0.950000,0.470000,0.950000,0.539015,0.941954,0.639490,0.897534,0.717238,0.819922,0.761833,0.719524,0.770000,0.650000,0.770000,-0.650000,0.761954,-0.719015,0.717534,-0.819490,0.639922,-0.897238,0.539524,-0.941833,0.470000,-0.950000,-0.770000,-0.950000,-0.770000,0.950000,-0.770000,0.950000,$1*%
G04 Aperture macros list end*
%ADD10C,2.500000*%
%ADD11C,0.360000*%
%ADD12C,0.550000*%
%ADD13RoundRect,0.218750X-0.256250X0.218750X-0.256250X-0.218750X0.256250X-0.218750X0.256250X0.218750X0*%
%ADD14RoundRect,0.140000X-0.170000X0.140000X-0.170000X-0.140000X0.170000X-0.140000X0.170000X0.140000X0*%
%ADD15RoundRect,0.250000X-0.250000X-0.475000X0.250000X-0.475000X0.250000X0.475000X-0.250000X0.475000X0*%
%ADD16RoundRect,0.140000X0.140000X0.170000X-0.140000X0.170000X-0.140000X-0.170000X0.140000X-0.170000X0*%
%ADD17R,1.400000X1.200000*%
%ADD18RoundRect,0.135000X0.135000X0.185000X-0.135000X0.185000X-0.135000X-0.185000X0.135000X-0.185000X0*%
%ADD19RoundRect,0.140000X-0.140000X-0.170000X0.140000X-0.170000X0.140000X0.170000X-0.140000X0.170000X0*%
%ADD20RoundRect,0.135000X-0.185000X0.135000X-0.185000X-0.135000X0.185000X-0.135000X0.185000X0.135000X0*%
%ADD21RotRect,0.200000X0.700000X225.000000*%
%ADD22RoundRect,0.135000X0.185000X-0.135000X0.185000X0.135000X-0.185000X0.135000X-0.185000X-0.135000X0*%
%ADD23C,0.426000*%
%ADD24C,1.000000*%
%ADD25C,0.500000*%
%ADD26R,0.450000X0.600000*%
%ADD27RoundRect,0.135000X-0.135000X-0.185000X0.135000X-0.185000X0.135000X0.185000X-0.135000X0.185000X0*%
%ADD28RoundRect,0.140000X0.219203X0.021213X0.021213X0.219203X-0.219203X-0.021213X-0.021213X-0.219203X0*%
%ADD29R,0.300000X1.000000*%
%ADD30RoundRect,0.140000X0.170000X-0.140000X0.170000X0.140000X-0.170000X0.140000X-0.170000X-0.140000X0*%
%ADD31FreePoly0,45.000000*%
%ADD32RotRect,0.200000X0.600000X45.000000*%
%ADD33FreePoly1,45.000000*%
%ADD34FreePoly0,225.000000*%
%ADD35FreePoly1,225.000000*%
%ADD36RoundRect,0.050000X-0.387500X-0.050000X0.387500X-0.050000X0.387500X0.050000X-0.387500X0.050000X0*%
%ADD37RoundRect,0.050000X-0.050000X-0.387500X0.050000X-0.387500X0.050000X0.387500X-0.050000X0.387500X0*%
%ADD38R,5.600000X5.600000*%
%ADD39RoundRect,0.218750X0.218750X0.256250X-0.218750X0.256250X-0.218750X-0.256250X0.218750X-0.256250X0*%
%ADD40RoundRect,0.225000X0.250000X-0.225000X0.250000X0.225000X-0.250000X0.225000X-0.250000X-0.225000X0*%
%ADD41RoundRect,0.250000X0.250000X0.475000X-0.250000X0.475000X-0.250000X-0.475000X0.250000X-0.475000X0*%
%ADD42RoundRect,0.225000X-0.250000X0.225000X-0.250000X-0.225000X0.250000X-0.225000X0.250000X0.225000X0*%
%ADD43RoundRect,0.040000X-0.160000X-0.635000X0.160000X-0.635000X0.160000X0.635000X-0.160000X0.635000X0*%
%ADD44FreePoly2,0.000000*%
%ADD45R,1.000000X1.600000*%
%ADD46FreePoly3,0.000000*%
%ADD47R,1.900000X1.900000*%
%ADD48R,1.800000X1.900000*%
%ADD49R,2.100000X1.600000*%
%ADD50RoundRect,0.135000X0.465000X-0.315000X0.465000X0.315000X-0.465000X0.315000X-0.465000X-0.315000X0*%
%ADD51R,1.700000X1.700000*%
%ADD52O,1.700000X1.700000*%
%ADD53C,0.415000*%
%ADD54RoundRect,0.150000X-0.587500X-0.150000X0.587500X-0.150000X0.587500X0.150000X-0.587500X0.150000X0*%
%ADD55RoundRect,0.040000X-0.360000X0.710000X-0.360000X-0.710000X0.360000X-0.710000X0.360000X0.710000X0*%
%ADD56R,4.300000X3.400000*%
%ADD57R,2.600000X2.600000*%
%ADD58C,2.600000*%
%ADD59RoundRect,0.225000X0.225000X0.250000X-0.225000X0.250000X-0.225000X-0.250000X0.225000X-0.250000X0*%
%ADD60R,0.880000X0.220000*%
%ADD61R,0.780000X0.220000*%
%ADD62RoundRect,0.150000X-0.725000X-0.150000X0.725000X-0.150000X0.725000X0.150000X-0.725000X0.150000X0*%
%ADD63C,1.020000*%
G04 APERTURE END LIST*
D10*
X185242841Y-54683000D02*
G75*
G03*
X185242841Y-54683000I-1250000J0D01*
G01*
X229242841Y-54683000D02*
G75*
G03*
X229242841Y-54683000I-1250000J0D01*
G01*
X229242841Y-123683000D02*
G75*
G03*
X229242841Y-123683000I-1250000J0D01*
G01*
X185242841Y-123683000D02*
G75*
G03*
X185242841Y-123683000I-1250000J0D01*
G01*
%TO.C,G\u002A\u002A\u002A*%
G36*
X183250707Y-120307106D02*
G01*
X183241686Y-120186680D01*
X183232281Y-120060416D01*
X183222584Y-119929603D01*
X183212692Y-119795532D01*
X183202698Y-119659494D01*
X183192696Y-119522778D01*
X183182781Y-119386674D01*
X183173047Y-119252474D01*
X183163589Y-119121467D01*
X183154501Y-118994944D01*
X183145878Y-118874195D01*
X183137813Y-118760510D01*
X183130402Y-118655180D01*
X183123738Y-118559495D01*
X183117916Y-118474744D01*
X183113031Y-118402219D01*
X183109176Y-118343210D01*
X183106447Y-118299007D01*
X183104937Y-118270900D01*
X183104741Y-118260179D01*
X183104770Y-118260120D01*
X183115329Y-118258048D01*
X183142790Y-118254942D01*
X183185372Y-118250927D01*
X183241296Y-118246124D01*
X183308782Y-118240657D01*
X183386048Y-118234649D01*
X183471316Y-118228222D01*
X183562805Y-118221500D01*
X183658735Y-118214606D01*
X183757326Y-118207661D01*
X183856797Y-118200790D01*
X183955369Y-118194115D01*
X184051261Y-118187760D01*
X184142694Y-118181846D01*
X184227887Y-118176498D01*
X184305059Y-118171838D01*
X184372432Y-118167988D01*
X184428224Y-118165072D01*
X184470656Y-118163213D01*
X184497947Y-118162534D01*
X184508318Y-118163157D01*
X184508346Y-118163192D01*
X184509852Y-118173734D01*
X184512606Y-118201775D01*
X184516507Y-118246059D01*
X184521459Y-118305331D01*
X184527363Y-118378338D01*
X184534120Y-118463824D01*
X184541631Y-118560534D01*
X184549799Y-118667215D01*
X184558525Y-118782611D01*
X184567710Y-118905467D01*
X184577255Y-119034530D01*
X184584787Y-119137315D01*
X184594523Y-119270059D01*
X184603954Y-119397397D01*
X184612985Y-119518093D01*
X184621519Y-119630908D01*
X184629459Y-119734605D01*
X184636708Y-119827945D01*
X184643169Y-119909691D01*
X184648746Y-119978605D01*
X184653342Y-120033449D01*
X184656860Y-120072986D01*
X184659204Y-120095977D01*
X184660157Y-120101628D01*
X184662072Y-120092513D01*
X184666345Y-120065963D01*
X184672806Y-120023176D01*
X184681285Y-119965348D01*
X184691614Y-119893676D01*
X184703622Y-119809355D01*
X184717140Y-119713583D01*
X184731999Y-119607556D01*
X184748028Y-119492470D01*
X184765060Y-119369521D01*
X184782923Y-119239907D01*
X184801449Y-119104824D01*
X184803540Y-119089532D01*
X184822113Y-118953857D01*
X184840002Y-118823475D01*
X184857039Y-118699587D01*
X184873059Y-118583394D01*
X184887894Y-118476097D01*
X184901377Y-118378894D01*
X184913342Y-118292988D01*
X184923621Y-118219579D01*
X184932048Y-118159866D01*
X184938455Y-118115051D01*
X184942677Y-118086334D01*
X184944545Y-118074916D01*
X184944599Y-118074769D01*
X184954115Y-118075566D01*
X184980753Y-118078734D01*
X185023011Y-118084073D01*
X185079386Y-118091385D01*
X185148377Y-118100471D01*
X185228479Y-118111133D01*
X185318193Y-118123172D01*
X185416014Y-118136389D01*
X185520440Y-118150585D01*
X185595598Y-118160853D01*
X185704154Y-118175683D01*
X185807478Y-118189739D01*
X185904024Y-118202813D01*
X185992247Y-118214701D01*
X186070603Y-118225195D01*
X186137545Y-118234088D01*
X186191528Y-118241176D01*
X186231008Y-118246250D01*
X186254438Y-118249104D01*
X186260381Y-118249673D01*
X186274030Y-118242227D01*
X186276832Y-118228227D01*
X186276832Y-118206712D01*
X187119920Y-118166992D01*
X187244120Y-118161222D01*
X187362936Y-118155860D01*
X187475027Y-118150958D01*
X187579055Y-118146567D01*
X187673680Y-118142739D01*
X187757563Y-118139524D01*
X187829365Y-118136974D01*
X187887748Y-118135141D01*
X187931371Y-118134075D01*
X187958896Y-118133828D01*
X187968984Y-118134452D01*
X187968985Y-118134454D01*
X187970006Y-118144345D01*
X187971823Y-118171719D01*
X187974375Y-118215297D01*
X187977601Y-118273799D01*
X187981439Y-118345949D01*
X187985830Y-118430467D01*
X187990711Y-118526075D01*
X187996021Y-118631494D01*
X188001700Y-118745447D01*
X188007687Y-118866654D01*
X188013921Y-118993837D01*
X188020340Y-119125717D01*
X188026883Y-119261017D01*
X188033490Y-119398458D01*
X188040100Y-119536760D01*
X188046651Y-119674647D01*
X188053082Y-119810838D01*
X188059332Y-119944057D01*
X188065341Y-120073024D01*
X188071047Y-120196461D01*
X188076390Y-120313089D01*
X188081308Y-120421630D01*
X188085740Y-120520806D01*
X188089625Y-120609338D01*
X188092902Y-120685948D01*
X188095510Y-120749357D01*
X188097388Y-120798286D01*
X188098476Y-120831458D01*
X188098711Y-120847593D01*
X188098574Y-120848986D01*
X188089141Y-120849685D01*
X188062553Y-120851179D01*
X188020435Y-120853393D01*
X187964415Y-120856248D01*
X187896117Y-120859666D01*
X187817168Y-120863571D01*
X187729193Y-120867884D01*
X187633818Y-120872528D01*
X187532669Y-120877425D01*
X187427371Y-120882498D01*
X187319551Y-120887668D01*
X187210834Y-120892859D01*
X187102846Y-120897992D01*
X186997213Y-120902990D01*
X186895561Y-120907775D01*
X186799515Y-120912270D01*
X186710702Y-120916398D01*
X186630746Y-120920079D01*
X186561274Y-120923238D01*
X186503912Y-120925795D01*
X186460286Y-120927674D01*
X186432020Y-120928797D01*
X186420990Y-120929096D01*
X186414196Y-120919958D01*
X186408360Y-120894475D01*
X186404506Y-120860714D01*
X186403108Y-120839466D01*
X186400947Y-120801237D01*
X186398114Y-120747826D01*
X186394698Y-120681035D01*
X186390788Y-120602664D01*
X186386474Y-120514513D01*
X186381846Y-120418382D01*
X186376994Y-120316071D01*
X186372006Y-120209382D01*
X186370750Y-120182263D01*
X186365848Y-120077019D01*
X186361142Y-119977444D01*
X186356709Y-119885107D01*
X186352630Y-119801574D01*
X186348981Y-119728415D01*
X186345843Y-119667198D01*
X186343292Y-119619489D01*
X186341409Y-119586858D01*
X186340270Y-119570872D01*
X186340057Y-119569492D01*
X186338415Y-119578146D01*
X186334460Y-119603960D01*
X186328398Y-119645462D01*
X186320435Y-119701180D01*
X186310780Y-119769643D01*
X186299638Y-119849378D01*
X186287215Y-119938916D01*
X186273720Y-120036783D01*
X186259358Y-120141508D01*
X186247353Y-120229462D01*
X186232375Y-120338899D01*
X186218008Y-120442860D01*
X186204467Y-120539847D01*
X186191967Y-120628363D01*
X186180726Y-120706912D01*
X186170957Y-120773995D01*
X186162877Y-120828116D01*
X186156702Y-120867777D01*
X186152647Y-120891482D01*
X186151086Y-120897939D01*
X186141029Y-120897667D01*
X186113801Y-120894997D01*
X186070853Y-120890114D01*
X186013637Y-120883202D01*
X185943604Y-120874444D01*
X185862207Y-120864025D01*
X185770897Y-120852129D01*
X185671125Y-120838939D01*
X185564343Y-120824640D01*
X185452003Y-120809416D01*
X185442455Y-120808114D01*
X185329268Y-120792710D01*
X185221192Y-120778077D01*
X185119720Y-120764413D01*
X185026343Y-120751914D01*
X184942553Y-120740779D01*
X184869842Y-120731204D01*
X184809701Y-120723387D01*
X184763622Y-120717526D01*
X184733098Y-120713817D01*
X184719619Y-120712458D01*
X184719387Y-120712456D01*
X184707764Y-120714034D01*
X184702424Y-120721528D01*
X184701998Y-120739529D01*
X184704161Y-120763480D01*
X184709406Y-120814304D01*
X184649429Y-120820196D01*
X184617651Y-120823065D01*
X184571313Y-120826891D01*
X184512217Y-120831547D01*
X184442164Y-120836907D01*
X184362956Y-120842843D01*
X184276394Y-120849229D01*
X184184280Y-120855938D01*
X184088414Y-120862843D01*
X183990598Y-120869817D01*
X183892635Y-120876733D01*
X183796324Y-120883464D01*
X183703468Y-120889884D01*
X183615868Y-120895866D01*
X183535325Y-120901282D01*
X183463641Y-120906006D01*
X183402617Y-120909911D01*
X183354055Y-120912871D01*
X183319755Y-120914757D01*
X183301520Y-120915444D01*
X183298995Y-120915304D01*
X183297686Y-120905489D01*
X183295144Y-120878222D01*
X183291461Y-120834795D01*
X183286732Y-120776496D01*
X183281052Y-120704618D01*
X183274515Y-120620449D01*
X183267216Y-120525281D01*
X183263027Y-120470147D01*
X183438247Y-120470147D01*
X183443580Y-120524871D01*
X183461267Y-120575382D01*
X183471893Y-120593131D01*
X183499911Y-120622371D01*
X183541172Y-120651916D01*
X183590408Y-120678798D01*
X183642347Y-120700048D01*
X183680485Y-120710625D01*
X183727641Y-120717098D01*
X183786141Y-120720212D01*
X183849065Y-120720042D01*
X183909492Y-120716666D01*
X183960502Y-120710157D01*
X183973723Y-120707421D01*
X184064991Y-120677832D01*
X184148316Y-120633199D01*
X184226473Y-120571929D01*
X184251036Y-120548358D01*
X184314167Y-120475671D01*
X184932380Y-120475671D01*
X184940062Y-120539426D01*
X184962770Y-120592079D01*
X184990473Y-120625197D01*
X185035950Y-120655447D01*
X185089390Y-120671508D01*
X185145558Y-120672581D01*
X185199218Y-120657865D01*
X185200481Y-120657288D01*
X185229562Y-120640806D01*
X185254476Y-120621722D01*
X185258785Y-120617415D01*
X185269879Y-120604709D01*
X185279263Y-120591606D01*
X185287177Y-120576367D01*
X185293860Y-120557254D01*
X185299555Y-120532527D01*
X185304500Y-120500448D01*
X185308938Y-120459279D01*
X185313107Y-120407282D01*
X185317250Y-120342717D01*
X185321606Y-120263846D01*
X185326416Y-120168931D01*
X185329480Y-120106424D01*
X185349822Y-119688914D01*
X185519563Y-119694244D01*
X185585971Y-119695970D01*
X185637384Y-119696318D01*
X185677567Y-119695126D01*
X185710288Y-119692229D01*
X185739311Y-119687466D01*
X185754847Y-119684041D01*
X185855379Y-119650825D01*
X185947852Y-119601561D01*
X186030587Y-119537887D01*
X186101902Y-119461441D01*
X186160118Y-119373862D01*
X186203553Y-119276786D01*
X186216977Y-119233604D01*
X186224250Y-119196997D01*
X186230695Y-119146148D01*
X186236090Y-119085607D01*
X186240212Y-119019925D01*
X186242840Y-118953649D01*
X186243752Y-118891331D01*
X186242725Y-118837519D01*
X186239539Y-118796764D01*
X186238598Y-118790434D01*
X186212231Y-118686150D01*
X186170076Y-118589987D01*
X186113630Y-118503412D01*
X186095391Y-118483519D01*
X186463436Y-118483519D01*
X186463490Y-118511812D01*
X186464109Y-118547360D01*
X186465321Y-118591172D01*
X186467156Y-118644257D01*
X186469644Y-118707624D01*
X186472813Y-118782281D01*
X186476695Y-118869237D01*
X186481318Y-118969501D01*
X186486712Y-119084081D01*
X186492907Y-119213986D01*
X186499933Y-119360225D01*
X186507818Y-119523807D01*
X186511431Y-119598705D01*
X186519531Y-119765546D01*
X186526878Y-119914487D01*
X186533526Y-120046413D01*
X186539527Y-120162205D01*
X186544936Y-120262750D01*
X186549805Y-120348929D01*
X186554188Y-120421626D01*
X186558137Y-120481727D01*
X186561706Y-120530113D01*
X186564948Y-120567670D01*
X186567916Y-120595280D01*
X186570664Y-120613827D01*
X186573161Y-120623972D01*
X186600185Y-120672537D01*
X186639450Y-120710592D01*
X186687192Y-120736252D01*
X186739643Y-120747635D01*
X186793039Y-120742855D01*
X186804204Y-120739560D01*
X186856855Y-120712767D01*
X186899516Y-120672537D01*
X186918189Y-120643959D01*
X186928571Y-120621107D01*
X186934595Y-120597497D01*
X186937139Y-120567318D01*
X186937085Y-120524763D01*
X186936979Y-120519948D01*
X186936138Y-120493651D01*
X186934497Y-120451141D01*
X186932157Y-120394644D01*
X186929222Y-120326386D01*
X186925796Y-120248591D01*
X186921982Y-120163488D01*
X186917883Y-120073300D01*
X186913603Y-119980255D01*
X186909245Y-119886578D01*
X186904913Y-119794495D01*
X186900710Y-119706232D01*
X186896739Y-119624015D01*
X186893104Y-119550069D01*
X186889908Y-119486622D01*
X186887254Y-119435898D01*
X186885246Y-119400123D01*
X186884256Y-119384840D01*
X186883309Y-119356836D01*
X186884932Y-119339134D01*
X186887943Y-119335543D01*
X186895252Y-119345330D01*
X186909131Y-119368187D01*
X186927463Y-119400508D01*
X186944523Y-119431902D01*
X186957996Y-119456932D01*
X186979530Y-119496659D01*
X187008150Y-119549294D01*
X187042880Y-119613048D01*
X187082743Y-119686133D01*
X187126766Y-119766759D01*
X187173971Y-119853137D01*
X187223382Y-119943479D01*
X187266212Y-120021725D01*
X187316076Y-120112793D01*
X187364063Y-120200436D01*
X187409268Y-120283004D01*
X187450788Y-120358845D01*
X187487719Y-120426308D01*
X187519157Y-120483741D01*
X187544197Y-120529495D01*
X187561937Y-120561917D01*
X187570993Y-120578479D01*
X187609710Y-120635318D01*
X187654036Y-120674242D01*
X187704104Y-120695320D01*
X187760042Y-120698622D01*
X187788175Y-120694103D01*
X187837320Y-120674648D01*
X187880997Y-120641724D01*
X187914306Y-120599756D01*
X187928958Y-120566950D01*
X187930650Y-120558386D01*
X187931863Y-120544588D01*
X187932561Y-120524584D01*
X187932710Y-120497400D01*
X187932273Y-120462061D01*
X187931214Y-120417594D01*
X187929500Y-120363026D01*
X187927093Y-120297381D01*
X187923959Y-120219687D01*
X187920061Y-120128970D01*
X187915365Y-120024255D01*
X187909835Y-119904569D01*
X187903436Y-119768938D01*
X187896131Y-119616388D01*
X187888696Y-119462625D01*
X187880689Y-119297916D01*
X187873505Y-119150935D01*
X187867075Y-119020627D01*
X187861332Y-118905940D01*
X187856208Y-118805822D01*
X187851635Y-118719219D01*
X187847545Y-118645079D01*
X187843870Y-118582348D01*
X187840543Y-118529974D01*
X187837496Y-118486903D01*
X187834661Y-118452083D01*
X187831969Y-118424462D01*
X187829354Y-118402985D01*
X187826747Y-118386601D01*
X187824080Y-118374256D01*
X187821286Y-118364898D01*
X187818297Y-118357473D01*
X187817353Y-118355467D01*
X187785373Y-118309630D01*
X187741823Y-118275905D01*
X187690647Y-118255785D01*
X187635788Y-118250759D01*
X187581190Y-118262321D01*
X187576269Y-118264290D01*
X187528291Y-118291365D01*
X187494029Y-118327743D01*
X187472404Y-118375342D01*
X187462336Y-118436081D01*
X187461288Y-118468546D01*
X187461739Y-118491406D01*
X187463027Y-118530846D01*
X187465051Y-118584667D01*
X187467710Y-118650672D01*
X187470904Y-118726662D01*
X187474533Y-118810440D01*
X187478497Y-118899808D01*
X187482694Y-118992566D01*
X187487024Y-119086519D01*
X187491387Y-119179467D01*
X187495683Y-119269212D01*
X187499811Y-119353557D01*
X187503671Y-119430304D01*
X187507162Y-119497253D01*
X187510184Y-119552209D01*
X187512637Y-119592972D01*
X187512704Y-119594004D01*
X187514945Y-119632136D01*
X187515258Y-119654234D01*
X187513224Y-119663006D01*
X187508427Y-119661158D01*
X187503289Y-119655107D01*
X187500553Y-119651564D01*
X187497688Y-119647603D01*
X187494128Y-119642189D01*
X187489305Y-119634291D01*
X187482650Y-119622873D01*
X187473597Y-119606902D01*
X187461577Y-119585345D01*
X187446023Y-119557167D01*
X187426368Y-119521335D01*
X187402043Y-119476815D01*
X187372481Y-119422573D01*
X187337114Y-119357576D01*
X187295375Y-119280790D01*
X187246696Y-119191181D01*
X187190508Y-119087715D01*
X187126246Y-118969359D01*
X187085153Y-118893671D01*
X187035631Y-118802745D01*
X186988180Y-118716165D01*
X186943650Y-118635449D01*
X186902892Y-118562115D01*
X186866757Y-118497679D01*
X186836095Y-118443657D01*
X186811758Y-118401568D01*
X186794597Y-118372928D01*
X186785462Y-118359253D01*
X186785250Y-118359011D01*
X186752571Y-118331626D01*
X186711979Y-118310048D01*
X186671485Y-118298167D01*
X186657550Y-118297002D01*
X186600429Y-118305537D01*
X186547120Y-118329909D01*
X186502356Y-118367324D01*
X186476349Y-118403894D01*
X186473287Y-118409642D01*
X186470581Y-118415584D01*
X186468261Y-118422730D01*
X186466357Y-118432088D01*
X186464899Y-118444666D01*
X186463915Y-118461474D01*
X186463436Y-118483519D01*
X186095391Y-118483519D01*
X186044387Y-118427890D01*
X185963843Y-118364891D01*
X185873493Y-118315880D01*
X185774834Y-118282325D01*
X185707638Y-118269587D01*
X185660869Y-118264358D01*
X185604007Y-118259559D01*
X185540223Y-118255301D01*
X185472690Y-118251697D01*
X185404580Y-118248858D01*
X185339066Y-118246898D01*
X185279320Y-118245928D01*
X185228515Y-118246060D01*
X185189822Y-118247407D01*
X185166413Y-118250082D01*
X185165155Y-118250394D01*
X185125748Y-118268616D01*
X185087837Y-118299014D01*
X185056900Y-118336149D01*
X185038417Y-118374581D01*
X185037824Y-118376808D01*
X185036330Y-118390184D01*
X185034037Y-118420855D01*
X185031020Y-118467332D01*
X185027353Y-118528131D01*
X185023110Y-118601764D01*
X185018367Y-118686745D01*
X185013198Y-118781587D01*
X185007678Y-118884805D01*
X185001882Y-118994910D01*
X184995883Y-119110418D01*
X184989758Y-119229841D01*
X184983580Y-119351693D01*
X184977424Y-119474488D01*
X184971365Y-119596738D01*
X184965477Y-119716957D01*
X184959836Y-119833660D01*
X184954516Y-119945358D01*
X184949591Y-120050566D01*
X184945137Y-120147798D01*
X184941227Y-120235566D01*
X184937937Y-120312385D01*
X184935342Y-120376767D01*
X184933516Y-120427226D01*
X184932533Y-120462276D01*
X184932380Y-120475671D01*
X184314167Y-120475671D01*
X184325356Y-120462788D01*
X184381365Y-120373384D01*
X184419221Y-120279818D01*
X184439083Y-120181765D01*
X184441135Y-120158361D01*
X184441609Y-120136747D01*
X184441359Y-120098592D01*
X184440446Y-120045544D01*
X184438930Y-119979254D01*
X184436872Y-119901370D01*
X184434332Y-119813542D01*
X184431370Y-119717419D01*
X184428047Y-119614649D01*
X184424423Y-119506882D01*
X184420558Y-119395766D01*
X184416514Y-119282952D01*
X184412349Y-119170089D01*
X184408125Y-119058824D01*
X184403901Y-118950808D01*
X184399739Y-118847689D01*
X184395698Y-118751117D01*
X184391839Y-118662741D01*
X184388223Y-118584210D01*
X184384909Y-118517173D01*
X184381958Y-118463279D01*
X184379431Y-118424177D01*
X184377387Y-118401517D01*
X184376679Y-118397265D01*
X184358339Y-118356891D01*
X184326959Y-118318147D01*
X184287857Y-118286712D01*
X184259949Y-118272556D01*
X184204454Y-118260760D01*
X184149429Y-118266032D01*
X184098545Y-118286913D01*
X184055475Y-118321945D01*
X184025851Y-118365534D01*
X184001381Y-118415549D01*
X184029852Y-119185735D01*
X184035612Y-119341598D01*
X184040699Y-119479796D01*
X184045129Y-119601452D01*
X184048918Y-119707688D01*
X184052084Y-119799627D01*
X184054642Y-119878393D01*
X184056609Y-119945108D01*
X184058001Y-120000895D01*
X184058835Y-120046878D01*
X184059128Y-120084178D01*
X184058895Y-120113919D01*
X184058153Y-120137224D01*
X184056920Y-120155216D01*
X184055210Y-120169018D01*
X184053041Y-120179752D01*
X184050428Y-120188542D01*
X184047389Y-120196510D01*
X184044751Y-120202837D01*
X184027813Y-120232014D01*
X184002546Y-120263440D01*
X183985211Y-120280573D01*
X183929230Y-120318261D01*
X183867999Y-120338739D01*
X183804205Y-120341661D01*
X183740536Y-120326679D01*
X183715431Y-120315455D01*
X183673915Y-120301464D01*
X183625951Y-120296210D01*
X183579405Y-120299903D01*
X183545431Y-120310942D01*
X183508011Y-120336796D01*
X183474602Y-120371174D01*
X183451062Y-120407671D01*
X183446433Y-120419165D01*
X183438247Y-120470147D01*
X183263027Y-120470147D01*
X183259248Y-120420403D01*
X183250707Y-120307106D01*
G37*
G36*
X185545683Y-118638802D02*
G01*
X185610140Y-118643882D01*
X185681660Y-118654310D01*
X185738154Y-118672448D01*
X185782424Y-118700037D01*
X185817272Y-118738816D01*
X185845176Y-118789790D01*
X185853026Y-118808762D01*
X185858360Y-118826571D01*
X185861453Y-118846966D01*
X185862580Y-118873694D01*
X185862013Y-118910504D01*
X185860028Y-118961145D01*
X185859142Y-118980776D01*
X185853979Y-119060147D01*
X185845835Y-119123472D01*
X185833615Y-119173415D01*
X185816222Y-119212637D01*
X185792562Y-119243799D01*
X185761538Y-119269563D01*
X185733214Y-119286708D01*
X185703520Y-119300353D01*
X185670711Y-119309659D01*
X185631352Y-119314986D01*
X185582010Y-119316693D01*
X185519251Y-119315143D01*
X185480912Y-119313211D01*
X185438580Y-119310446D01*
X185403732Y-119307455D01*
X185380303Y-119304625D01*
X185372273Y-119302591D01*
X185372061Y-119292733D01*
X185372710Y-119266519D01*
X185374110Y-119226368D01*
X185376152Y-119174702D01*
X185378727Y-119113938D01*
X185381725Y-119046498D01*
X185385037Y-118974801D01*
X185388554Y-118901266D01*
X185392165Y-118828315D01*
X185395763Y-118758365D01*
X185399237Y-118693838D01*
X185401903Y-118646910D01*
X185411565Y-118639906D01*
X185439143Y-118636215D01*
X185484047Y-118635844D01*
X185545683Y-118638802D01*
G37*
G36*
X184760042Y-114678555D02*
G01*
X184829943Y-114694451D01*
X184890243Y-114725063D01*
X184939940Y-114767803D01*
X184978033Y-114820081D01*
X185003519Y-114879311D01*
X185015397Y-114942902D01*
X185012665Y-115008268D01*
X184994320Y-115072820D01*
X184959361Y-115133968D01*
X184943780Y-115153219D01*
X184896740Y-115193801D01*
X184838410Y-115224361D01*
X184775491Y-115241926D01*
X184736992Y-115244984D01*
X184697950Y-115242464D01*
X184660490Y-115236451D01*
X184642335Y-115231481D01*
X184573813Y-115197930D01*
X184519743Y-115151797D01*
X184480796Y-115094045D01*
X184457640Y-115025634D01*
X184450855Y-114956520D01*
X184459756Y-114886476D01*
X184485068Y-114823056D01*
X184524405Y-114768405D01*
X184575381Y-114724668D01*
X184635611Y-114693989D01*
X184702708Y-114678515D01*
X184760042Y-114678555D01*
G37*
G36*
X186343499Y-114681544D02*
G01*
X186406414Y-114701125D01*
X186462246Y-114734190D01*
X186509047Y-114778806D01*
X186544868Y-114833040D01*
X186567763Y-114894959D01*
X186575783Y-114962629D01*
X186566979Y-115034117D01*
X186563498Y-115047105D01*
X186540202Y-115098571D01*
X186503023Y-115148420D01*
X186456951Y-115191418D01*
X186406979Y-115222332D01*
X186389797Y-115229225D01*
X186335212Y-115241357D01*
X186275692Y-115244235D01*
X186220051Y-115237757D01*
X186197786Y-115231466D01*
X186133228Y-115198858D01*
X186080616Y-115152884D01*
X186041255Y-115096302D01*
X186016450Y-115031876D01*
X186007508Y-114962365D01*
X186015732Y-114890532D01*
X186023666Y-114863094D01*
X186049101Y-114813312D01*
X186088530Y-114765619D01*
X186136829Y-114724913D01*
X186188874Y-114696089D01*
X186204212Y-114690565D01*
X186275449Y-114677379D01*
X186343499Y-114681544D01*
G37*
G36*
X185574045Y-115852442D02*
G01*
X185627563Y-115876547D01*
X185670530Y-115916832D01*
X185699478Y-115965196D01*
X185714821Y-116020307D01*
X185713537Y-116077464D01*
X185697208Y-116132559D01*
X185667417Y-116181482D01*
X185625747Y-116220125D01*
X185594757Y-116237069D01*
X185554861Y-116247110D01*
X185506853Y-116249522D01*
X185459243Y-116244582D01*
X185420546Y-116232566D01*
X185418125Y-116231326D01*
X185370716Y-116196497D01*
X185333567Y-116150176D01*
X185309733Y-116097211D01*
X185302188Y-116047318D01*
X185308550Y-116005959D01*
X185325092Y-115960736D01*
X185347991Y-115921106D01*
X185358116Y-115908894D01*
X185407169Y-115870068D01*
X185464046Y-115848875D01*
X185509834Y-115844427D01*
X185574045Y-115852442D01*
G37*
G36*
X185563589Y-115473565D02*
G01*
X185586588Y-115485511D01*
X185591050Y-115488513D01*
X185629011Y-115524946D01*
X185651408Y-115568729D01*
X185658227Y-115616007D01*
X185649451Y-115662923D01*
X185625065Y-115705624D01*
X185592036Y-115735736D01*
X185557252Y-115750919D01*
X185515337Y-115757342D01*
X185474916Y-115754359D01*
X185451940Y-115746226D01*
X185407074Y-115712403D01*
X185378034Y-115671043D01*
X185365320Y-115625221D01*
X185369432Y-115578014D01*
X185390871Y-115532500D01*
X185413000Y-115506561D01*
X185436523Y-115486612D01*
X185459775Y-115475836D01*
X185491361Y-115470701D01*
X185502556Y-115469814D01*
X185538366Y-115468922D01*
X185563589Y-115473565D01*
G37*
G36*
X185908538Y-115137864D02*
G01*
X185959747Y-115161079D01*
X186001339Y-115196213D01*
X186031952Y-115240354D01*
X186050223Y-115290592D01*
X186054790Y-115344014D01*
X186044291Y-115397711D01*
X186017364Y-115448771D01*
X186005447Y-115463632D01*
X185977850Y-115489721D01*
X185946449Y-115512208D01*
X185938729Y-115516506D01*
X185899039Y-115529568D01*
X185851442Y-115534947D01*
X185804064Y-115532478D01*
X185765031Y-115521998D01*
X185761107Y-115520097D01*
X185708708Y-115483392D01*
X185671012Y-115437191D01*
X185648493Y-115384573D01*
X185641619Y-115328619D01*
X185650864Y-115272406D01*
X185676696Y-115219013D01*
X185709205Y-115180794D01*
X185745581Y-115152201D01*
X185783922Y-115136065D01*
X185831242Y-115129812D01*
X185849074Y-115129479D01*
X185908538Y-115137864D01*
G37*
G36*
X185215069Y-115130912D02*
G01*
X185264120Y-115144394D01*
X185269210Y-115146860D01*
X185320850Y-115182380D01*
X185356095Y-115227881D01*
X185375329Y-115284006D01*
X185379479Y-115332274D01*
X185371280Y-115396949D01*
X185347587Y-115450829D01*
X185309762Y-115492574D01*
X185259163Y-115520845D01*
X185197152Y-115534299D01*
X185173588Y-115535260D01*
X185115980Y-115527741D01*
X185079078Y-115512780D01*
X185029965Y-115477320D01*
X184996607Y-115430897D01*
X184978706Y-115373027D01*
X184975662Y-115344030D01*
X184979778Y-115280060D01*
X184999962Y-115226338D01*
X185036861Y-115181471D01*
X185059394Y-115163586D01*
X185105598Y-115141074D01*
X185159860Y-115129994D01*
X185215069Y-115130912D01*
G37*
G36*
X185182003Y-113759805D02*
G01*
X185214429Y-113670597D01*
X185454960Y-113008786D01*
X185583880Y-113006184D01*
X185712800Y-113003583D01*
X185972669Y-113721133D01*
X186013508Y-113833895D01*
X186052485Y-113941512D01*
X186089094Y-114042585D01*
X186122827Y-114135714D01*
X186153177Y-114219500D01*
X186179638Y-114292545D01*
X186201703Y-114353448D01*
X186218865Y-114400811D01*
X186230617Y-114433233D01*
X186236452Y-114449316D01*
X186236978Y-114450760D01*
X186234271Y-114456421D01*
X186219609Y-114460122D01*
X186190612Y-114462161D01*
X186144901Y-114462833D01*
X186140218Y-114462837D01*
X186039020Y-114462837D01*
X185967694Y-114259835D01*
X185896368Y-114056832D01*
X185578597Y-114059359D01*
X185260827Y-114061886D01*
X185120903Y-114458006D01*
X185023227Y-114460759D01*
X184925550Y-114463511D01*
X184949724Y-114397959D01*
X184956991Y-114378122D01*
X184970268Y-114341742D01*
X184988965Y-114290436D01*
X185012494Y-114225825D01*
X185040266Y-114149524D01*
X185071692Y-114063154D01*
X185106183Y-113968332D01*
X185138037Y-113880734D01*
X185324062Y-113880734D01*
X185326549Y-113884500D01*
X185338377Y-113887447D01*
X185361280Y-113889658D01*
X185396987Y-113891216D01*
X185447231Y-113892204D01*
X185513742Y-113892705D01*
X185576506Y-113892811D01*
X185644712Y-113892603D01*
X185706116Y-113892016D01*
X185758212Y-113891108D01*
X185798491Y-113889935D01*
X185824445Y-113888552D01*
X185833568Y-113887027D01*
X185830417Y-113876229D01*
X185821546Y-113849722D01*
X185807826Y-113809943D01*
X185790129Y-113759330D01*
X185769327Y-113700322D01*
X185746292Y-113635354D01*
X185721895Y-113566867D01*
X185697009Y-113497296D01*
X185672506Y-113429081D01*
X185649257Y-113364658D01*
X185628135Y-113306466D01*
X185610010Y-113256943D01*
X185595755Y-113218525D01*
X185586242Y-113193651D01*
X185582427Y-113184824D01*
X185577866Y-113191885D01*
X185567631Y-113215249D01*
X185552462Y-113252992D01*
X185533099Y-113303190D01*
X185510283Y-113363920D01*
X185484753Y-113433257D01*
X185457250Y-113509278D01*
X185452343Y-113522975D01*
X185424473Y-113600861D01*
X185398557Y-113673244D01*
X185375338Y-113738055D01*
X185355557Y-113793224D01*
X185339957Y-113836683D01*
X185329278Y-113866363D01*
X185324264Y-113880195D01*
X185324062Y-113880734D01*
X185138037Y-113880734D01*
X185143149Y-113866676D01*
X185182003Y-113759805D01*
G37*
G36*
X185606349Y-117006556D02*
G01*
X185679043Y-117031609D01*
X185746666Y-117071104D01*
X185806965Y-117125067D01*
X185857690Y-117193521D01*
X185875092Y-117225568D01*
X185888542Y-117254018D01*
X185897401Y-117277691D01*
X185902624Y-117301956D01*
X185905163Y-117332183D01*
X185905974Y-117373744D01*
X185906029Y-117399720D01*
X185905746Y-117448481D01*
X185904233Y-117483301D01*
X185900496Y-117509562D01*
X185893539Y-117532643D01*
X185882367Y-117557926D01*
X185873439Y-117575970D01*
X185826125Y-117649817D01*
X185766105Y-117710539D01*
X185695790Y-117756949D01*
X185617595Y-117787858D01*
X185533932Y-117802078D01*
X185447214Y-117798422D01*
X185428224Y-117795151D01*
X185354220Y-117771299D01*
X185284192Y-117730962D01*
X185221657Y-117676976D01*
X185170134Y-117612175D01*
X185144789Y-117566814D01*
X185130634Y-117535455D01*
X185121588Y-117509462D01*
X185116520Y-117482742D01*
X185114298Y-117449202D01*
X185113790Y-117402750D01*
X185113789Y-117399924D01*
X185114243Y-117352616D01*
X185116357Y-117318544D01*
X185121254Y-117291626D01*
X185130058Y-117265780D01*
X185143895Y-117234927D01*
X185144560Y-117233521D01*
X185189729Y-117158162D01*
X185245583Y-117097073D01*
X185309872Y-117050281D01*
X185380344Y-117017808D01*
X185454748Y-116999680D01*
X185530834Y-116995921D01*
X185606349Y-117006556D01*
G37*
G36*
X186930011Y-114072020D02*
G01*
X186964623Y-114073808D01*
X186991429Y-114078107D01*
X187016187Y-114085947D01*
X187044652Y-114098358D01*
X187053239Y-114102398D01*
X187127510Y-114147563D01*
X187188393Y-114205026D01*
X187235079Y-114272421D01*
X187266761Y-114347379D01*
X187282632Y-114427533D01*
X187281883Y-114510516D01*
X187263707Y-114593960D01*
X187240382Y-114650975D01*
X187197114Y-114721084D01*
X187142430Y-114777438D01*
X187073523Y-114822765D01*
X187052649Y-114833214D01*
X187018174Y-114848386D01*
X186988181Y-114857861D01*
X186955492Y-114863159D01*
X186912928Y-114865800D01*
X186896330Y-114866325D01*
X186842485Y-114866447D01*
X186801271Y-114862901D01*
X186766225Y-114854982D01*
X186753477Y-114850785D01*
X186674845Y-114813319D01*
X186607995Y-114762033D01*
X186554087Y-114699245D01*
X186514278Y-114627274D01*
X186489725Y-114548440D01*
X186481587Y-114465061D01*
X186491021Y-114379456D01*
X186500360Y-114343857D01*
X186534039Y-114266888D01*
X186584108Y-114198465D01*
X186648785Y-114140571D01*
X186722423Y-114096991D01*
X186748725Y-114085570D01*
X186773159Y-114078200D01*
X186801211Y-114074012D01*
X186838366Y-114072137D01*
X186881838Y-114071711D01*
X186930011Y-114072020D01*
G37*
G36*
X185592863Y-116354848D02*
G01*
X185655886Y-116382415D01*
X185711256Y-116425857D01*
X185756396Y-116484372D01*
X185761415Y-116493110D01*
X185775932Y-116521522D01*
X185784535Y-116546520D01*
X185788709Y-116575063D01*
X185789937Y-116614108D01*
X185789956Y-116627006D01*
X185788944Y-116671357D01*
X185785159Y-116703441D01*
X185777217Y-116730263D01*
X185764008Y-116758306D01*
X185722704Y-116817743D01*
X185669717Y-116863868D01*
X185608056Y-116895349D01*
X185540733Y-116910850D01*
X185470757Y-116909037D01*
X185439248Y-116902230D01*
X185372278Y-116874946D01*
X185317578Y-116835453D01*
X185275422Y-116786348D01*
X185246084Y-116730229D01*
X185229838Y-116669693D01*
X185226960Y-116607340D01*
X185237722Y-116545765D01*
X185262399Y-116487568D01*
X185301266Y-116435345D01*
X185354597Y-116391695D01*
X185383628Y-116375423D01*
X185454159Y-116350550D01*
X185524762Y-116343959D01*
X185592863Y-116354848D01*
G37*
G36*
X184388232Y-115518419D02*
G01*
X184472455Y-115523670D01*
X184547131Y-115533963D01*
X184618895Y-115550806D01*
X184694384Y-115575705D01*
X184766362Y-115604300D01*
X184838437Y-115634554D01*
X184838437Y-115749152D01*
X184838102Y-115793631D01*
X184837189Y-115830061D01*
X184835838Y-115854686D01*
X184834189Y-115863750D01*
X184834186Y-115863750D01*
X184824937Y-115858673D01*
X184803207Y-115844930D01*
X184772466Y-115824759D01*
X184744012Y-115805694D01*
X184640579Y-115745939D01*
X184534305Y-115704078D01*
X184426586Y-115680385D01*
X184318819Y-115675130D01*
X184212401Y-115688587D01*
X184181457Y-115696173D01*
X184098978Y-115728464D01*
X184025472Y-115777332D01*
X183961923Y-115841758D01*
X183909320Y-115920724D01*
X183868648Y-116013211D01*
X183865526Y-116022407D01*
X183855878Y-116052902D01*
X183848948Y-116079888D01*
X183844275Y-116107582D01*
X183841397Y-116140204D01*
X183839856Y-116181972D01*
X183839188Y-116237104D01*
X183839060Y-116264701D01*
X183839235Y-116330732D01*
X183840494Y-116381283D01*
X183843131Y-116420179D01*
X183847443Y-116451247D01*
X183853725Y-116478313D01*
X183856249Y-116486915D01*
X183890117Y-116573699D01*
X183935178Y-116652618D01*
X183989137Y-116720652D01*
X184049702Y-116774782D01*
X184097116Y-116803957D01*
X184187942Y-116838921D01*
X184285140Y-116856908D01*
X184386446Y-116858232D01*
X184489600Y-116843202D01*
X184592339Y-116812131D01*
X184692401Y-116765330D01*
X184778053Y-116710199D01*
X184838437Y-116665692D01*
X184838437Y-116894888D01*
X184782884Y-116919682D01*
X184675613Y-116963365D01*
X184576894Y-116994157D01*
X184481953Y-117013159D01*
X184386012Y-117021470D01*
X184338625Y-117021990D01*
X184290100Y-117020780D01*
X184243634Y-117018444D01*
X184205804Y-117015367D01*
X184189484Y-117013241D01*
X184076073Y-116985476D01*
X183974689Y-116942614D01*
X183885604Y-116884895D01*
X183809090Y-116812559D01*
X183745417Y-116725843D01*
X183694859Y-116624988D01*
X183670414Y-116556105D01*
X183651390Y-116475960D01*
X183638868Y-116384343D01*
X183633414Y-116288172D01*
X183635596Y-116194366D01*
X183638235Y-116163690D01*
X183659155Y-116037586D01*
X183694122Y-115924302D01*
X183742991Y-115824067D01*
X183805618Y-115737112D01*
X183881858Y-115663666D01*
X183971565Y-115603958D01*
X184001465Y-115588573D01*
X184070634Y-115558478D01*
X184137196Y-115537290D01*
X184206260Y-115524085D01*
X184282936Y-115517935D01*
X184372332Y-115517913D01*
X184388232Y-115518419D01*
G37*
G36*
X186944637Y-116829897D02*
G01*
X187678909Y-116829897D01*
X187678909Y-116994142D01*
X186751408Y-116994142D01*
X186751408Y-115535260D01*
X186944637Y-115535260D01*
X186944637Y-116829897D01*
G37*
G36*
X184185977Y-114071836D02*
G01*
X184219979Y-114073484D01*
X184246314Y-114077668D01*
X184270810Y-114085562D01*
X184299294Y-114098342D01*
X184318877Y-114107932D01*
X184391856Y-114153632D01*
X184450511Y-114209987D01*
X184494873Y-114274715D01*
X184524975Y-114345537D01*
X184540847Y-114420172D01*
X184542519Y-114496340D01*
X184530024Y-114571759D01*
X184503393Y-114644149D01*
X184462656Y-114711230D01*
X184407846Y-114770721D01*
X184338992Y-114820342D01*
X184308913Y-114836251D01*
X184279037Y-114849246D01*
X184250588Y-114857563D01*
X184217246Y-114862423D01*
X184172689Y-114865048D01*
X184157304Y-114865550D01*
X184092031Y-114865282D01*
X184042084Y-114860366D01*
X184019976Y-114855126D01*
X183943176Y-114820313D01*
X183874895Y-114769973D01*
X183817696Y-114706960D01*
X183774142Y-114634127D01*
X183746797Y-114554329D01*
X183745813Y-114549790D01*
X183737964Y-114467260D01*
X183747863Y-114385261D01*
X183774079Y-114306670D01*
X183815181Y-114234366D01*
X183869735Y-114171229D01*
X183936312Y-114120136D01*
X183968193Y-114102628D01*
X183997618Y-114088837D01*
X184022036Y-114079865D01*
X184047090Y-114074683D01*
X184078421Y-114072262D01*
X184121671Y-114071571D01*
X184138482Y-114071548D01*
X184185977Y-114071836D01*
G37*
D11*
%TO.C,*%
X215572073Y-110012882D02*
X215402368Y-109843176D01*
X209292965Y-103846911D02*
X208868701Y-103422647D01*
X214808398Y-109928029D02*
X214751830Y-110012882D01*
X211654702Y-108669379D02*
X213662885Y-106661196D01*
X213309332Y-107863277D02*
X212984063Y-107538008D01*
X208303016Y-105345977D02*
X209292965Y-104356028D01*
X215642784Y-110225014D02*
X215628642Y-110295724D01*
X214016438Y-108315826D02*
X213125484Y-110140161D01*
X210452620Y-107495582D02*
X210876884Y-107919846D01*
X210311199Y-105374261D02*
X209575808Y-106109652D01*
X211386001Y-107919846D02*
X212121392Y-107184455D01*
D12*
X214129576Y-103988332D02*
X213281047Y-98897163D01*
D11*
X214751830Y-110012882D02*
X214723545Y-110154303D01*
D12*
X212291098Y-104978281D02*
X214129576Y-103988332D01*
X212291098Y-104978281D02*
X215968053Y-99604270D01*
D11*
X214765972Y-111214963D02*
X214822540Y-111130110D01*
X212333524Y-109376486D02*
X213309332Y-108372394D01*
X210990021Y-105543967D02*
X210820316Y-105374261D01*
X205163462Y-100226524D02*
X204428071Y-100961915D01*
X213945728Y-110847268D02*
X213974012Y-110818984D01*
X210028356Y-105826810D02*
X210622326Y-106420779D01*
X206719096Y-103762058D02*
X206973655Y-104016616D01*
X212121392Y-106675338D02*
X211697128Y-106251074D01*
X208105026Y-103224657D02*
X207765615Y-103564068D01*
D12*
X212291098Y-104978281D02*
X209745514Y-98755742D01*
D11*
X205319025Y-102361986D02*
X205743289Y-102786250D01*
X206563533Y-101117478D02*
X205319025Y-102361986D01*
D12*
X213281047Y-98897163D02*
X212291098Y-104978281D01*
D11*
X214695261Y-111285674D02*
X214765972Y-111214963D01*
X213959870Y-111031116D02*
X213931586Y-110917978D01*
X212135534Y-110592709D02*
X211979971Y-110493714D01*
D12*
X209745514Y-98755742D02*
X213281047Y-98897163D01*
D11*
X208868701Y-103422647D02*
X207624193Y-104667155D01*
X211697128Y-106251074D02*
X210452620Y-107495582D01*
X207454488Y-102517550D02*
X206719096Y-103252941D01*
X214822540Y-111130110D02*
X214822540Y-110875552D01*
X205304883Y-102376129D02*
X204569492Y-103111520D01*
X205099822Y-101633666D02*
X205835213Y-100898275D01*
X208133310Y-102687256D02*
X207963604Y-102517550D01*
X207171645Y-102970098D02*
X207765615Y-103564068D01*
D12*
X215968053Y-99604270D02*
X214129576Y-103988332D01*
D11*
X206252406Y-102786250D02*
X206987797Y-102050859D01*
X214879109Y-109857318D02*
X214808398Y-109928029D01*
X215614500Y-110111877D02*
X215642784Y-110225014D01*
D12*
X209745514Y-98755742D02*
X214129576Y-103988332D01*
D11*
X209575808Y-106618769D02*
X209830366Y-106873328D01*
X214921535Y-109220922D02*
X212418377Y-110536141D01*
X213988154Y-111115968D02*
X213959870Y-111031116D01*
X213931586Y-110917978D02*
X213945728Y-110847268D01*
X211979971Y-110493714D02*
X211909260Y-110423004D01*
X215628642Y-110295724D02*
X215600358Y-110324009D01*
X204569492Y-101612453D02*
X204435142Y-101478103D01*
X214822540Y-110875552D02*
X214765972Y-110479572D01*
X205693792Y-100247737D02*
X205835213Y-100389158D01*
X214002296Y-111130110D02*
X214172002Y-111299816D01*
X210961737Y-106081368D02*
X210622326Y-106420779D01*
X214723545Y-110154303D02*
X214780114Y-110550283D01*
X206987797Y-101541743D02*
X206563533Y-101117478D01*
X215586216Y-110027024D02*
X215614500Y-110111877D01*
X212375951Y-110550283D02*
X212135534Y-110592709D01*
X210438478Y-107509724D02*
X209703087Y-108245115D01*
X205743290Y-102786249D02*
G75*
G03*
X206252406Y-102786250I254558J254557D01*
G01*
X205835213Y-100898275D02*
G75*
G03*
X205835213Y-100389158I-254558J254558D01*
G01*
X204590706Y-101633665D02*
G75*
G03*
X205099822Y-101633666I254558J254557D01*
G01*
X213309333Y-108372395D02*
G75*
G03*
X213309332Y-107863277I-254560J254559D01*
G01*
X206987797Y-102050859D02*
G75*
G03*
X206987797Y-101541743I-254561J254558D01*
G01*
X209830366Y-106873328D02*
G75*
G03*
X210028356Y-106873328I98995J98995D01*
G01*
X209575809Y-106109653D02*
G75*
G03*
X209575808Y-106618769I254557J-254558D01*
G01*
X214172002Y-111299816D02*
G75*
G03*
X214681119Y-111299816I254558J254558D01*
G01*
X206973655Y-104016616D02*
G75*
G03*
X207171645Y-104016616I98995J98995D01*
G01*
X210990020Y-106053083D02*
G75*
G03*
X210990021Y-105543967I-254557J254558D01*
G01*
X204428071Y-100961915D02*
G75*
G03*
X204428071Y-101471032I254558J-254558D01*
G01*
X206719095Y-103252940D02*
G75*
G03*
X206719096Y-103762058I254560J-254559D01*
G01*
X210820315Y-105374262D02*
G75*
G03*
X210311199Y-105374261I-254558J-254558D01*
G01*
X207963604Y-102517550D02*
G75*
G03*
X207454488Y-102517550I-254558J-254561D01*
G01*
X210876885Y-107919845D02*
G75*
G03*
X211386001Y-107919846I254558J254558D01*
G01*
X205672578Y-100226524D02*
G75*
G03*
X205163462Y-100226524I-254558J-254561D01*
G01*
X212121391Y-107184454D02*
G75*
G03*
X212121392Y-106675338I-254557J254558D01*
G01*
X209292964Y-104356027D02*
G75*
G03*
X209292965Y-103846911I-254557J254558D01*
G01*
X215402367Y-109843177D02*
G75*
G03*
X214893251Y-109843176I-254558J-254558D01*
G01*
X208133310Y-103196372D02*
G75*
G03*
X208133310Y-102687256I-254561J254558D01*
G01*
%TD*%
D13*
%TO.C,D6*%
X209492841Y-54408001D03*
X209492841Y-55983001D03*
%TD*%
D14*
%TO.C,C61*%
X188500000Y-100195000D03*
X188500000Y-101155000D03*
%TD*%
D15*
%TO.C,C68*%
X215742841Y-82183000D03*
X217642841Y-82183000D03*
%TD*%
D16*
%TO.C,C130*%
X219991651Y-103173000D03*
X219031651Y-103173000D03*
%TD*%
D17*
%TO.C,Y1*%
X190100000Y-101425000D03*
X192300000Y-101425000D03*
X192300000Y-99725000D03*
X190100000Y-99725000D03*
%TD*%
D18*
%TO.C,R50*%
X220041651Y-104163000D03*
X219021651Y-104163000D03*
%TD*%
D19*
%TO.C,C5*%
X215302841Y-84353000D03*
X216262841Y-84353000D03*
%TD*%
D15*
%TO.C,C123*%
X226092841Y-116283000D03*
X227992841Y-116283000D03*
%TD*%
D20*
%TO.C,R16*%
X209042842Y-63522999D03*
X209042842Y-64542999D03*
%TD*%
D21*
%TO.C,U6*%
X210856965Y-114861338D03*
X211210519Y-114507784D03*
X211564072Y-114154231D03*
X211917625Y-113800678D03*
X212271179Y-113447124D03*
X211528717Y-112704662D03*
X211175163Y-113058216D03*
X210821610Y-113411769D03*
X210468057Y-113765322D03*
X210114503Y-114118876D03*
%TD*%
D22*
%TO.C,R37*%
X196692841Y-98409524D03*
X196692841Y-97389524D03*
%TD*%
D23*
%TO.C,U4*%
X218992841Y-88953000D03*
X218992841Y-89753000D03*
X218992841Y-90553000D03*
X218992841Y-93753000D03*
X218992841Y-94553000D03*
X218992841Y-95353000D03*
X218192841Y-88953000D03*
X218192841Y-89753000D03*
X218192841Y-90553000D03*
X218192841Y-93753000D03*
X218192841Y-94553000D03*
X218192841Y-95353000D03*
X217392841Y-88953000D03*
X217392841Y-89753000D03*
X217392841Y-90553000D03*
X217392841Y-93753000D03*
X217392841Y-94553000D03*
X217392841Y-95353000D03*
X216592841Y-88953000D03*
X216592841Y-89753000D03*
X216592841Y-90553000D03*
X216592841Y-93753000D03*
X216592841Y-94553000D03*
X216592841Y-95353000D03*
X215792841Y-88953000D03*
X215792841Y-89753000D03*
X215792841Y-90553000D03*
X215792841Y-93753000D03*
X215792841Y-94553000D03*
X215792841Y-95353000D03*
X214992841Y-88953000D03*
X214992841Y-89753000D03*
X214992841Y-90553000D03*
X214992841Y-93753000D03*
X214992841Y-94553000D03*
X214992841Y-95353000D03*
X214192841Y-88953000D03*
X214192841Y-89753000D03*
X214192841Y-90553000D03*
X214192841Y-93753000D03*
X214192841Y-94553000D03*
X214192841Y-95353000D03*
X213392841Y-88953000D03*
X213392841Y-89753000D03*
X213392841Y-90553000D03*
X213392841Y-93753000D03*
X213392841Y-94553000D03*
X213392841Y-95353000D03*
X212592841Y-88953000D03*
X212592841Y-89753000D03*
X212592841Y-90553000D03*
X212592841Y-93753000D03*
X212592841Y-94553000D03*
X212592841Y-95353000D03*
X211792841Y-88953000D03*
X211792841Y-89753000D03*
X211792841Y-90553000D03*
X211792841Y-93753000D03*
X211792841Y-94553000D03*
X211792841Y-95353000D03*
X210992841Y-88953000D03*
X210992841Y-89753000D03*
X210992841Y-90553000D03*
X210992841Y-93753000D03*
X210992841Y-94553000D03*
X210992841Y-95353000D03*
X210192841Y-88953000D03*
X210192841Y-89753000D03*
X210192841Y-90553000D03*
X210192841Y-93753000D03*
X210192841Y-94553000D03*
X210192841Y-95353000D03*
X209392841Y-88953000D03*
X209392841Y-89753000D03*
X209392841Y-90553000D03*
X209392841Y-93753000D03*
X209392841Y-94553000D03*
X209392841Y-95353000D03*
X208592841Y-88953000D03*
X208592841Y-89753000D03*
X208592841Y-90553000D03*
X208592841Y-93753000D03*
X208592841Y-94553000D03*
X208592841Y-95353000D03*
X207792841Y-88953000D03*
X207792841Y-89753000D03*
X207792841Y-90553000D03*
X207792841Y-93753000D03*
X207792841Y-94553000D03*
X207792841Y-95353000D03*
X206992841Y-88953000D03*
X206992841Y-89753000D03*
X206992841Y-90553000D03*
X206992841Y-93753000D03*
X206992841Y-94553000D03*
X206992841Y-95353000D03*
%TD*%
D24*
%TO.C,TP3*%
X222092841Y-119933000D03*
%TD*%
D25*
%TO.C,U9*%
X221727701Y-102475593D03*
X222527701Y-102475593D03*
X223327701Y-102475593D03*
X224127701Y-102475593D03*
X224927701Y-102475593D03*
X225727701Y-102475593D03*
X226527701Y-102475593D03*
X221727701Y-103275593D03*
X222527701Y-103275593D03*
X223327701Y-103275593D03*
X224127701Y-103275593D03*
X224927701Y-103275593D03*
X225727701Y-103275593D03*
X226527701Y-103275593D03*
X221727701Y-104075593D03*
X222527701Y-104075593D03*
X223327701Y-104075593D03*
X224127701Y-104075593D03*
X224927701Y-104075593D03*
X225727701Y-104075593D03*
X226527701Y-104075593D03*
X221727701Y-104875593D03*
X222527701Y-104875593D03*
X223327701Y-104875593D03*
X224127701Y-104875593D03*
X224927701Y-104875593D03*
X225727701Y-104875593D03*
X226527701Y-104875593D03*
X221727701Y-105675593D03*
X222527701Y-105675593D03*
X223327701Y-105675593D03*
X224127701Y-105675593D03*
X224927701Y-105675593D03*
X225727701Y-105675593D03*
X226527701Y-105675593D03*
X221727701Y-106475593D03*
X222527701Y-106475593D03*
X223327701Y-106475593D03*
X224127701Y-106475593D03*
X224927701Y-106475593D03*
X225727701Y-106475593D03*
X226527701Y-106475593D03*
X221727701Y-107275593D03*
X222527701Y-107275593D03*
X223327701Y-107275593D03*
X224127701Y-107275593D03*
X224927701Y-107275593D03*
X225727701Y-107275593D03*
X226527701Y-107275593D03*
X221727701Y-108075593D03*
X222527701Y-108075593D03*
X223327701Y-108075593D03*
X224127701Y-108075593D03*
X224927701Y-108075593D03*
X225727701Y-108075593D03*
X226527701Y-108075593D03*
X221727701Y-108875593D03*
X222527701Y-108875593D03*
X223327701Y-108875593D03*
X224127701Y-108875593D03*
X224927701Y-108875593D03*
X225727701Y-108875593D03*
X226527701Y-108875593D03*
X221727701Y-109675593D03*
X222527701Y-109675593D03*
X223327701Y-109675593D03*
X224127701Y-109675593D03*
X224927701Y-109675593D03*
X225727701Y-109675593D03*
X226527701Y-109675593D03*
X221727701Y-110475593D03*
X222527701Y-110475593D03*
X223327701Y-110475593D03*
X224127701Y-110475593D03*
X224927701Y-110475593D03*
X225727701Y-110475593D03*
X226527701Y-110475593D03*
X221727701Y-111275593D03*
X222527701Y-111275593D03*
X223327701Y-111275593D03*
X224127701Y-111275593D03*
X224927701Y-111275593D03*
X225727701Y-111275593D03*
X226527701Y-111275593D03*
X221727701Y-112075593D03*
X222527701Y-112075593D03*
X223327701Y-112075593D03*
X224127701Y-112075593D03*
X224927701Y-112075593D03*
X225727701Y-112075593D03*
X226527701Y-112075593D03*
%TD*%
D26*
%TO.C,D11*%
X193592841Y-107933000D03*
X193592841Y-110033000D03*
%TD*%
D27*
%TO.C,R30*%
X185482841Y-91083000D03*
X186502841Y-91083000D03*
%TD*%
D28*
%TO.C,C58*%
X206262404Y-110542259D03*
X205583582Y-109863437D03*
%TD*%
D27*
%TO.C,R39*%
X187392841Y-94083000D03*
X188412841Y-94083000D03*
%TD*%
D14*
%TO.C,C1*%
X196342841Y-76203000D03*
X196342841Y-77163000D03*
%TD*%
D15*
%TO.C,C124*%
X226092841Y-114283000D03*
X227992841Y-114283000D03*
%TD*%
D18*
%TO.C,R40*%
X184702841Y-100833000D03*
X183682841Y-100833000D03*
%TD*%
D29*
%TO.C,U8*%
X188767841Y-104468000D03*
X188267841Y-104468000D03*
X187767841Y-104468000D03*
X187267841Y-104468000D03*
X187267841Y-106268000D03*
X187767841Y-106268000D03*
X188267841Y-106268000D03*
X188767841Y-106268000D03*
%TD*%
D30*
%TO.C,C23*%
X216692841Y-87363000D03*
X216692841Y-86403000D03*
%TD*%
D28*
%TO.C,C59*%
X206912404Y-109892259D03*
X206233582Y-109213437D03*
%TD*%
D13*
%TO.C,D2*%
X213992841Y-54408001D03*
X213992841Y-55983001D03*
%TD*%
D18*
%TO.C,R38*%
X186752841Y-100833000D03*
X185732841Y-100833000D03*
%TD*%
D22*
%TO.C,R21*%
X223492841Y-55993000D03*
X223492841Y-54973000D03*
%TD*%
D31*
%TO.C,U5*%
X208296216Y-117386731D03*
D32*
X208649770Y-117033178D03*
X209003323Y-116679625D03*
D33*
X209356876Y-116326071D03*
D34*
X208649770Y-115618965D03*
D32*
X208296216Y-115972518D03*
X207942663Y-116326071D03*
D35*
X207589110Y-116679625D03*
%TD*%
D36*
%TO.C,U7*%
X193185341Y-90173000D03*
X193185341Y-90573000D03*
X193185341Y-90973000D03*
X193185341Y-91373000D03*
X193185341Y-91773000D03*
X193185341Y-92173000D03*
X193185341Y-92573000D03*
X193185341Y-92973000D03*
X193185341Y-93373000D03*
X193185341Y-93773000D03*
X193185341Y-94173000D03*
X193185341Y-94573000D03*
X193185341Y-94973000D03*
X193185341Y-95373000D03*
D37*
X194022841Y-96210500D03*
X194422841Y-96210500D03*
X194822841Y-96210500D03*
X195222841Y-96210500D03*
X195622841Y-96210500D03*
X196022841Y-96210500D03*
X196422841Y-96210500D03*
X196822841Y-96210500D03*
X197222841Y-96210500D03*
X197622841Y-96210500D03*
X198022841Y-96210500D03*
X198422841Y-96210500D03*
X198822841Y-96210500D03*
X199222841Y-96210500D03*
D36*
X200060341Y-95373000D03*
X200060341Y-94973000D03*
X200060341Y-94573000D03*
X200060341Y-94173000D03*
X200060341Y-93773000D03*
X200060341Y-93373000D03*
X200060341Y-92973000D03*
X200060341Y-92573000D03*
X200060341Y-92173000D03*
X200060341Y-91773000D03*
X200060341Y-91373000D03*
X200060341Y-90973000D03*
X200060341Y-90573000D03*
X200060341Y-90173000D03*
D37*
X199222841Y-89335500D03*
X198822841Y-89335500D03*
X198422841Y-89335500D03*
X198022841Y-89335500D03*
X197622841Y-89335500D03*
X197222841Y-89335500D03*
X196822841Y-89335500D03*
X196422841Y-89335500D03*
X196022841Y-89335500D03*
X195622841Y-89335500D03*
X195222841Y-89335500D03*
X194822841Y-89335500D03*
X194422841Y-89335500D03*
X194022841Y-89335500D03*
D38*
X196622841Y-92773000D03*
%TD*%
D39*
%TO.C,D1*%
X204180341Y-125283000D03*
X202605341Y-125283000D03*
%TD*%
D30*
%TO.C,C6*%
X223392841Y-60313000D03*
X223392841Y-59353000D03*
%TD*%
D40*
%TO.C,C103*%
X228492841Y-105458000D03*
X228492841Y-103908000D03*
%TD*%
D41*
%TO.C,C127*%
X222181650Y-100283000D03*
X220281650Y-100283000D03*
%TD*%
D24*
%TO.C,TP5*%
X226192841Y-96583000D03*
%TD*%
D20*
%TO.C,R19*%
X212942842Y-63522999D03*
X212942842Y-64542999D03*
%TD*%
D30*
%TO.C,C62*%
X193900000Y-101055000D03*
X193900000Y-100095000D03*
%TD*%
D41*
%TO.C,C119*%
X222177701Y-114283000D03*
X220277701Y-114283000D03*
%TD*%
D27*
%TO.C,R31*%
X185482841Y-90083000D03*
X186502841Y-90083000D03*
%TD*%
D24*
%TO.C,TP1*%
X225392841Y-62533000D03*
%TD*%
D27*
%TO.C,R41*%
X219021651Y-110283000D03*
X220041651Y-110283000D03*
%TD*%
%TO.C,R1*%
X187392841Y-93083000D03*
X188412841Y-93083000D03*
%TD*%
D42*
%TO.C,C104*%
X223831651Y-114000593D03*
X223831651Y-115550593D03*
%TD*%
D15*
%TO.C,C126*%
X225981651Y-100183000D03*
X227881651Y-100183000D03*
%TD*%
D27*
%TO.C,R22*%
X202132841Y-65433000D03*
X203152841Y-65433000D03*
%TD*%
D20*
%TO.C,R17*%
X211042842Y-63522999D03*
X211042842Y-64542999D03*
%TD*%
D41*
%TO.C,C120*%
X222177701Y-116283000D03*
X220277701Y-116283000D03*
%TD*%
D27*
%TO.C,R36*%
X185482841Y-94083000D03*
X186502841Y-94083000D03*
%TD*%
D20*
%TO.C,R18*%
X211992842Y-63522999D03*
X211992842Y-64542999D03*
%TD*%
D13*
%TO.C,D5*%
X210992841Y-54408001D03*
X210992841Y-55983001D03*
%TD*%
D27*
%TO.C,R44*%
X219021651Y-109283000D03*
X220041651Y-109283000D03*
%TD*%
D20*
%TO.C,R20*%
X210042842Y-63522999D03*
X210042842Y-64542999D03*
%TD*%
D27*
%TO.C,R33*%
X185482841Y-93083000D03*
X186502841Y-93083000D03*
%TD*%
D43*
%TO.C,J4*%
X209312841Y-122558000D03*
X209962841Y-122558000D03*
X210612841Y-122558000D03*
X211262841Y-122558000D03*
X211912841Y-122558000D03*
X216012841Y-122558000D03*
X216662841Y-122558000D03*
X217312841Y-122558000D03*
X217962841Y-122558000D03*
X218612841Y-122558000D03*
D44*
X207140341Y-125233000D03*
D45*
X219865341Y-122683000D03*
D46*
X219415341Y-125233000D03*
D47*
X211812841Y-125233000D03*
X209412841Y-125233000D03*
D48*
X217112841Y-125233000D03*
D49*
X207515341Y-122683000D03*
D48*
X214612841Y-125233000D03*
%TD*%
D13*
%TO.C,D4*%
X212492841Y-54408001D03*
X212492841Y-55983001D03*
%TD*%
%TO.C,D3*%
X215492841Y-54408001D03*
X215492841Y-55983001D03*
%TD*%
D19*
%TO.C,C60*%
X187412841Y-92083000D03*
X188372841Y-92083000D03*
%TD*%
D27*
%TO.C,R34*%
X185482841Y-89083000D03*
X186502841Y-89083000D03*
%TD*%
D30*
%TO.C,C22*%
X215742841Y-87363000D03*
X215742841Y-86403000D03*
%TD*%
D24*
%TO.C,TP6*%
X221992841Y-96583000D03*
%TD*%
D13*
%TO.C,D7*%
X207992841Y-54405500D03*
X207992841Y-55980500D03*
%TD*%
D50*
%TO.C,U2*%
X192742841Y-76363000D03*
X192742841Y-77633000D03*
X192742841Y-78903000D03*
X194942841Y-78903000D03*
X194942841Y-77633000D03*
X194942841Y-76363000D03*
%TD*%
D42*
%TO.C,C121*%
X228492841Y-107008000D03*
X228492841Y-108558000D03*
%TD*%
D51*
%TO.C,J3*%
X192242841Y-62458000D03*
D52*
X194782841Y-62458000D03*
X197322841Y-62458000D03*
X199862841Y-62458000D03*
X202402841Y-62458000D03*
X204942841Y-62458000D03*
%TD*%
D53*
%TO.C,U1*%
X212792841Y-84783000D03*
X211992841Y-84783000D03*
X211192841Y-84783000D03*
X210392841Y-84783000D03*
X209592841Y-84783000D03*
X208792841Y-84783000D03*
X207992841Y-84783000D03*
X207192841Y-84783000D03*
X206392841Y-84783000D03*
X205592841Y-84783000D03*
X204792841Y-84783000D03*
X203992841Y-84783000D03*
X203192841Y-84783000D03*
X202392841Y-84783000D03*
X201592841Y-84783000D03*
X200792841Y-84783000D03*
X199992841Y-84783000D03*
X199192841Y-84783000D03*
X213592841Y-83983000D03*
X212792841Y-83983000D03*
X211992841Y-83983000D03*
X211192841Y-83983000D03*
X210392841Y-83983000D03*
X209592841Y-83983000D03*
X208792841Y-83983000D03*
X207992841Y-83983000D03*
X207192841Y-83983000D03*
X206392841Y-83983000D03*
X205592841Y-83983000D03*
X204792841Y-83983000D03*
X203992841Y-83983000D03*
X203192841Y-83983000D03*
X202392841Y-83983000D03*
X201592841Y-83983000D03*
X200792841Y-83983000D03*
X199992841Y-83983000D03*
X199192841Y-83983000D03*
X198392841Y-83983000D03*
X213592841Y-83183000D03*
X212792841Y-83183000D03*
X211992841Y-83183000D03*
X211192841Y-83183000D03*
X210392841Y-83183000D03*
X209592841Y-83183000D03*
X208792841Y-83183000D03*
X207992841Y-83183000D03*
X207192841Y-83183000D03*
X206392841Y-83183000D03*
X205592841Y-83183000D03*
X204792841Y-83183000D03*
X203992841Y-83183000D03*
X203192841Y-83183000D03*
X202392841Y-83183000D03*
X201592841Y-83183000D03*
X200792841Y-83183000D03*
X199992841Y-83183000D03*
X199192841Y-83183000D03*
X198392841Y-83183000D03*
X213592841Y-82383000D03*
X212792841Y-82383000D03*
X211992841Y-82383000D03*
X211192841Y-82383000D03*
X210392841Y-82383000D03*
X209592841Y-82383000D03*
X208792841Y-82383000D03*
X207992841Y-82383000D03*
X207192841Y-82383000D03*
X206392841Y-82383000D03*
X205592841Y-82383000D03*
X204792841Y-82383000D03*
X203992841Y-82383000D03*
X203192841Y-82383000D03*
X202392841Y-82383000D03*
X201592841Y-82383000D03*
X200792841Y-82383000D03*
X199992841Y-82383000D03*
X199192841Y-82383000D03*
X198392841Y-82383000D03*
X213592841Y-81583000D03*
X212792841Y-81583000D03*
X211992841Y-81583000D03*
X211192841Y-81583000D03*
X210392841Y-81583000D03*
X209592841Y-81583000D03*
X208792841Y-81583000D03*
X207992841Y-81583000D03*
X207192841Y-81583000D03*
X206392841Y-81583000D03*
X205592841Y-81583000D03*
X204792841Y-81583000D03*
X203992841Y-81583000D03*
X203192841Y-81583000D03*
X202392841Y-81583000D03*
X201592841Y-81583000D03*
X200792841Y-81583000D03*
X199992841Y-81583000D03*
X199192841Y-81583000D03*
X198392841Y-81583000D03*
X213592841Y-80783000D03*
X212792841Y-80783000D03*
X211992841Y-80783000D03*
X211192841Y-80783000D03*
X210392841Y-80783000D03*
X209592841Y-80783000D03*
X208792841Y-80783000D03*
X207992841Y-80783000D03*
X207192841Y-80783000D03*
X206392841Y-80783000D03*
X205592841Y-80783000D03*
X204792841Y-80783000D03*
X203992841Y-80783000D03*
X203192841Y-80783000D03*
X202392841Y-80783000D03*
X201592841Y-80783000D03*
X200792841Y-80783000D03*
X199992841Y-80783000D03*
X199192841Y-80783000D03*
X198392841Y-80783000D03*
X213592841Y-79983000D03*
X212792841Y-79983000D03*
X211992841Y-79983000D03*
X211192841Y-79983000D03*
X210392841Y-79983000D03*
X209592841Y-79983000D03*
X208792841Y-79983000D03*
X207992841Y-79983000D03*
X207192841Y-79983000D03*
X206392841Y-79983000D03*
X205592841Y-79983000D03*
X204792841Y-79983000D03*
X203992841Y-79983000D03*
X203192841Y-79983000D03*
X202392841Y-79983000D03*
X201592841Y-79983000D03*
X200792841Y-79983000D03*
X199992841Y-79983000D03*
X199192841Y-79983000D03*
X198392841Y-79983000D03*
X213592841Y-79183000D03*
X212792841Y-79183000D03*
X211992841Y-79183000D03*
X211192841Y-79183000D03*
X210392841Y-79183000D03*
X209592841Y-79183000D03*
X208792841Y-79183000D03*
X207992841Y-79183000D03*
X207192841Y-79183000D03*
X206392841Y-79183000D03*
X205592841Y-79183000D03*
X204792841Y-79183000D03*
X203992841Y-79183000D03*
X203192841Y-79183000D03*
X202392841Y-79183000D03*
X201592841Y-79183000D03*
X200792841Y-79183000D03*
X199992841Y-79183000D03*
X199192841Y-79183000D03*
X198392841Y-79183000D03*
X213592841Y-78383000D03*
X212792841Y-78383000D03*
X211992841Y-78383000D03*
X211192841Y-78383000D03*
X210392841Y-78383000D03*
X209592841Y-78383000D03*
X208792841Y-78383000D03*
X207992841Y-78383000D03*
X207192841Y-78383000D03*
X206392841Y-78383000D03*
X205592841Y-78383000D03*
X204792841Y-78383000D03*
X203992841Y-78383000D03*
X203192841Y-78383000D03*
X202392841Y-78383000D03*
X201592841Y-78383000D03*
X200792841Y-78383000D03*
X199992841Y-78383000D03*
X199192841Y-78383000D03*
X198392841Y-78383000D03*
X213592841Y-77583000D03*
X212792841Y-77583000D03*
X211992841Y-77583000D03*
X211192841Y-77583000D03*
X210392841Y-77583000D03*
X209592841Y-77583000D03*
X208792841Y-77583000D03*
X207992841Y-77583000D03*
X207192841Y-77583000D03*
X206392841Y-77583000D03*
X205592841Y-77583000D03*
X204792841Y-77583000D03*
X203992841Y-77583000D03*
X203192841Y-77583000D03*
X202392841Y-77583000D03*
X201592841Y-77583000D03*
X200792841Y-77583000D03*
X199992841Y-77583000D03*
X199192841Y-77583000D03*
X198392841Y-77583000D03*
X213592841Y-76783000D03*
X212792841Y-76783000D03*
X211992841Y-76783000D03*
X211192841Y-76783000D03*
X210392841Y-76783000D03*
X209592841Y-76783000D03*
X208792841Y-76783000D03*
X207992841Y-76783000D03*
X207192841Y-76783000D03*
X206392841Y-76783000D03*
X205592841Y-76783000D03*
X204792841Y-76783000D03*
X203992841Y-76783000D03*
X203192841Y-76783000D03*
X202392841Y-76783000D03*
X201592841Y-76783000D03*
X200792841Y-76783000D03*
X199992841Y-76783000D03*
X199192841Y-76783000D03*
X198392841Y-76783000D03*
X213592841Y-75983000D03*
X212792841Y-75983000D03*
X211992841Y-75983000D03*
X211192841Y-75983000D03*
X210392841Y-75983000D03*
X209592841Y-75983000D03*
X208792841Y-75983000D03*
X207992841Y-75983000D03*
X207192841Y-75983000D03*
X206392841Y-75983000D03*
X205592841Y-75983000D03*
X204792841Y-75983000D03*
X203992841Y-75983000D03*
X203192841Y-75983000D03*
X202392841Y-75983000D03*
X201592841Y-75983000D03*
X200792841Y-75983000D03*
X199992841Y-75983000D03*
X199192841Y-75983000D03*
X198392841Y-75983000D03*
X213592841Y-75183000D03*
X212792841Y-75183000D03*
X211992841Y-75183000D03*
X211192841Y-75183000D03*
X210392841Y-75183000D03*
X209592841Y-75183000D03*
X208792841Y-75183000D03*
X207992841Y-75183000D03*
X207192841Y-75183000D03*
X206392841Y-75183000D03*
X205592841Y-75183000D03*
X204792841Y-75183000D03*
X203992841Y-75183000D03*
X203192841Y-75183000D03*
X202392841Y-75183000D03*
X201592841Y-75183000D03*
X200792841Y-75183000D03*
X199992841Y-75183000D03*
X199192841Y-75183000D03*
X198392841Y-75183000D03*
X213592841Y-74383000D03*
X212792841Y-74383000D03*
X211992841Y-74383000D03*
X211192841Y-74383000D03*
X210392841Y-74383000D03*
X209592841Y-74383000D03*
X208792841Y-74383000D03*
X207992841Y-74383000D03*
X207192841Y-74383000D03*
X206392841Y-74383000D03*
X205592841Y-74383000D03*
X204792841Y-74383000D03*
X203992841Y-74383000D03*
X203192841Y-74383000D03*
X202392841Y-74383000D03*
X201592841Y-74383000D03*
X200792841Y-74383000D03*
X199992841Y-74383000D03*
X199192841Y-74383000D03*
X198392841Y-74383000D03*
X213592841Y-73583000D03*
X212792841Y-73583000D03*
X211992841Y-73583000D03*
X211192841Y-73583000D03*
X210392841Y-73583000D03*
X201592841Y-73583000D03*
X200792841Y-73583000D03*
X199992841Y-73583000D03*
X199192841Y-73583000D03*
X198392841Y-73583000D03*
X213592841Y-72783000D03*
X212792841Y-72783000D03*
X211992841Y-72783000D03*
X211192841Y-72783000D03*
X210392841Y-72783000D03*
X209592841Y-72783000D03*
X208792841Y-72783000D03*
X207992841Y-72783000D03*
X207192841Y-72783000D03*
X206392841Y-72783000D03*
X205592841Y-72783000D03*
X204792841Y-72783000D03*
X203992841Y-72783000D03*
X203192841Y-72783000D03*
X202392841Y-72783000D03*
X201592841Y-72783000D03*
X200792841Y-72783000D03*
X199992841Y-72783000D03*
X199192841Y-72783000D03*
X198392841Y-72783000D03*
X213592841Y-71983000D03*
X212792841Y-71983000D03*
X211992841Y-71983000D03*
X211192841Y-71983000D03*
X210392841Y-71983000D03*
X209592841Y-71983000D03*
X208792841Y-71983000D03*
X207992841Y-71983000D03*
X207192841Y-71983000D03*
X206392841Y-71983000D03*
X205592841Y-71983000D03*
X204792841Y-71983000D03*
X203992841Y-71983000D03*
X203192841Y-71983000D03*
X202392841Y-71983000D03*
X201592841Y-71983000D03*
X200792841Y-71983000D03*
X199992841Y-71983000D03*
X199192841Y-71983000D03*
X198392841Y-71983000D03*
X213592841Y-71183000D03*
X212792841Y-71183000D03*
X211992841Y-71183000D03*
X211192841Y-71183000D03*
X210392841Y-71183000D03*
X209592841Y-71183000D03*
X208792841Y-71183000D03*
X207992841Y-71183000D03*
X207192841Y-71183000D03*
X206392841Y-71183000D03*
X205592841Y-71183000D03*
X204792841Y-71183000D03*
X203992841Y-71183000D03*
X203192841Y-71183000D03*
X202392841Y-71183000D03*
X201592841Y-71183000D03*
X200792841Y-71183000D03*
X199992841Y-71183000D03*
X199192841Y-71183000D03*
X198392841Y-71183000D03*
X213592841Y-70383000D03*
X212792841Y-70383000D03*
X211992841Y-70383000D03*
X211192841Y-70383000D03*
X210392841Y-70383000D03*
X209592841Y-70383000D03*
X208792841Y-70383000D03*
X207992841Y-70383000D03*
X207192841Y-70383000D03*
X206392841Y-70383000D03*
X205592841Y-70383000D03*
X204792841Y-70383000D03*
X203992841Y-70383000D03*
X203192841Y-70383000D03*
X202392841Y-70383000D03*
X201592841Y-70383000D03*
X200792841Y-70383000D03*
X199992841Y-70383000D03*
X199192841Y-70383000D03*
X198392841Y-70383000D03*
X212792841Y-69583000D03*
X211992841Y-69583000D03*
X210392841Y-69583000D03*
X209592841Y-69583000D03*
X208792841Y-69583000D03*
X207992841Y-69583000D03*
X205592841Y-69583000D03*
X204792841Y-69583000D03*
X203192841Y-69583000D03*
X202392841Y-69583000D03*
X201592841Y-69583000D03*
X200792841Y-69583000D03*
X199192841Y-69583000D03*
%TD*%
D14*
%TO.C,C28*%
X221142841Y-88953000D03*
X221142841Y-89913000D03*
%TD*%
D24*
%TO.C,TP2*%
X223332841Y-62543000D03*
%TD*%
D54*
%TO.C,Q1*%
X184355341Y-97583000D03*
X184355341Y-99483000D03*
X186230341Y-98533000D03*
%TD*%
D55*
%TO.C,U3*%
X221897841Y-54583000D03*
X220627841Y-54583000D03*
X219357841Y-54583000D03*
X218092841Y-54583000D03*
X218087841Y-60783000D03*
X219357841Y-60783000D03*
X220627841Y-60783000D03*
X221897841Y-60783000D03*
D56*
X219992841Y-57683000D03*
%TD*%
D57*
%TO.C,J5*%
X194992841Y-114283000D03*
D58*
X194992841Y-120283000D03*
X199692841Y-117283000D03*
%TD*%
D19*
%TO.C,C4*%
X215292841Y-85363000D03*
X216252841Y-85363000D03*
%TD*%
D59*
%TO.C,C125*%
X219867841Y-107683000D03*
X218317841Y-107683000D03*
%TD*%
D24*
%TO.C,TP4*%
X226192841Y-119983000D03*
%TD*%
D18*
%TO.C,R43*%
X220041651Y-111283000D03*
X219021651Y-111283000D03*
%TD*%
D60*
%TO.C,U10*%
X218882841Y-67583000D03*
D61*
X218832841Y-67983000D03*
X218832841Y-68383000D03*
X218832841Y-68783000D03*
X218832841Y-69183000D03*
X218832841Y-69583000D03*
X218832841Y-69983000D03*
X218832841Y-70383000D03*
X218832841Y-70783000D03*
X218832841Y-71183000D03*
X220352841Y-71183000D03*
X220352841Y-70783000D03*
X220352841Y-70383000D03*
X220352841Y-69983000D03*
X220352841Y-69583000D03*
X220352841Y-69183000D03*
X220352841Y-68783000D03*
X220352841Y-68383000D03*
X220352841Y-67983000D03*
X220352841Y-67583000D03*
%TD*%
D22*
%TO.C,R15*%
X215692841Y-72193000D03*
X215692841Y-71173000D03*
%TD*%
D19*
%TO.C,C122*%
X219112841Y-112283000D03*
X220072841Y-112283000D03*
%TD*%
D27*
%TO.C,R32*%
X185482841Y-92083000D03*
X186502841Y-92083000D03*
%TD*%
D62*
%TO.C,Q2*%
X185442841Y-108113000D03*
X185442841Y-109383000D03*
X185442841Y-110653000D03*
X185442841Y-111923000D03*
X190592841Y-111923000D03*
X190592841Y-110653000D03*
X190592841Y-109383000D03*
X190592841Y-108113000D03*
%TD*%
D16*
%TO.C,C50*%
X208972841Y-121083000D03*
X208012841Y-121083000D03*
%TD*%
D27*
%TO.C,R35*%
X185482841Y-95084112D03*
X186502841Y-95084112D03*
%TD*%
D63*
%TO.C,J2*%
X228662841Y-59118000D03*
X228662841Y-95248000D03*
%TD*%
%TO.C,J1*%
X188662841Y-59118000D03*
X188662841Y-95248000D03*
%TD*%
M02*
